<?xml version="1.0" encoding="UTF-8"?>
<svg width="1200px" height="800px" viewBox="0 0 1200 800" version="1.1" xmlns="http://www.w3.org/2000/svg" xmlns:xlink="http://www.w3.org/1999/xlink">
    <title>Bundler</title>
    <g id="Bundler" stroke="none" stroke-width="1" fill="none" fill-rule="evenodd">
        <polygon id="Line-3" fill="#FFFFFF" fill-rule="nonzero" points="486.5 402.5 500.5 409.5 486.5 416.5 486.5 410.5 436.5 410.5 436.5 408.5 486.5 408.5"></polygon>
        <polygon id="Line-3-Copy" fill="#66C4FF" fill-rule="nonzero" points="784.5 402.5 798.5 409.5 784.5 416.5 784.5 410.5 734.5 410.5 734.5 408.5 784.5 408.5"></polygon>
        <g id="Group" transform="translate(123.000000, 284.000000)">
            <rect id="Rectangle" fill="#FFFFFF" x="79" y="0" width="113" height="39"></rect>
            <rect id="Rectangle-Copy" fill="#FFFFFF" x="0" y="113" width="113" height="39"></rect>
            <rect id="Rectangle-Copy-3" fill="#FFFFFF" x="0" y="213" width="113" height="39"></rect>
            <rect id="Rectangle-Copy-2" fill="#FFFFFF" x="156" y="113" width="113" height="39"></rect>
            <path d="M111.216,15.512 L111.216,13.544 L109.008,13.544 L109.008,15.512 L111.216,15.512 Z M111.12,25 L111.12,17.176 L109.12,17.176 L109.12,25 L111.12,25 Z M115.184,25 L115.184,20.568 C115.184,19.96 115.357333,19.4746667 115.704,19.112 C116.050667,18.7493333 116.512,18.568 117.088,18.568 C117.578667,18.568 117.938667,18.7066667 118.168,18.984 C118.397333,19.2613333 118.512,19.704 118.512,20.312 L118.512,20.312 L118.512,25 L120.512,25 L120.512,20.2 C120.512,19.1226667 120.282667,18.3173333 119.824,17.784 C119.365333,17.2506667 118.666667,16.984 117.728,16.984 C117.162667,16.984 116.656,17.1013333 116.208,17.336 C115.76,17.5706667 115.402667,17.9066667 115.136,18.344 L115.136,18.344 L115.136,17.176 L113.184,17.176 L113.184,25 L115.184,25 Z M125.584,25.128 C126.149333,25.128 126.653333,25.0053333 127.096,24.76 C127.538667,24.5146667 127.877333,24.1733333 128.112,23.736 L128.112,23.736 L128.112,25 L130.096,25 L130.096,13.72 L128.096,13.72 L128.096,18.328 C127.861333,17.9013333 127.525333,17.5706667 127.088,17.336 C126.650667,17.1013333 126.149333,16.984 125.584,16.984 C124.901333,16.984 124.298667,17.1493333 123.776,17.48 C123.253333,17.8106667 122.845333,18.28 122.552,18.888 C122.258667,19.496 122.112,20.2053333 122.112,21.016 C122.112,21.8266667 122.258667,22.544 122.552,23.168 C122.845333,23.792 123.256,24.2746667 123.784,24.616 C124.312,24.9573333 124.912,25.128 125.584,25.128 Z M126.112,23.576 C125.482667,23.576 124.992,23.352 124.64,22.904 C124.288,22.456 124.112,21.8266667 124.112,21.016 C124.112,20.216 124.288,19.6026667 124.64,19.176 C124.992,18.7493333 125.488,18.536 126.128,18.536 C126.757333,18.536 127.245333,18.752 127.592,19.184 C127.938667,19.616 128.112,20.2373333 128.112,21.048 C128.112,21.8586667 127.938667,22.4826667 127.592,22.92 C127.245333,23.3573333 126.752,23.576 126.112,23.576 Z M135.872,25.128 C136.426667,25.128 136.978667,25.0373333 137.528,24.856 C138.077333,24.6746667 138.533333,24.4346667 138.896,24.136 L138.896,24.136 L138.32,22.76 C137.605333,23.3146667 136.816,23.592 135.952,23.592 C135.258667,23.592 134.725333,23.416 134.352,23.064 C133.978667,22.712 133.76,22.1733333 133.696,21.448 L133.696,21.448 L139.024,21.448 L139.024,20.888 C139.024,19.672 138.712,18.7173333 138.088,18.024 C137.464,17.3306667 136.613333,16.984 135.536,16.984 C134.8,16.984 134.141333,17.1546667 133.56,17.496 C132.978667,17.8373333 132.528,18.3173333 132.208,18.936 C131.888,19.5546667 131.728,20.264 131.728,21.064 C131.728,22.3226667 132.098667,23.3146667 132.84,24.04 C133.581333,24.7653333 134.592,25.128 135.872,25.128 Z M137.312,20.376 L133.696,20.376 C133.770667,19.736 133.970667,19.2453333 134.296,18.904 C134.621333,18.5626667 135.050667,18.392 135.584,18.392 C136.117333,18.392 136.533333,18.56 136.832,18.896 C137.130667,19.232 137.290667,19.7253333 137.312,20.376 L137.312,20.376 Z M141.808,25 L143.872,22.392 L145.952,25 L148.32,25 L145.024,20.968 L148.128,17.176 L145.744,17.176 L143.872,19.56 L142,17.176 L139.616,17.176 L142.72,20.968 L139.44,25 L141.808,25 Z M151.232,25 L151.232,22.792 L148.992,22.792 L148.992,25 L151.232,25 Z M155.216,15.512 L155.216,13.544 L153.008,13.544 L153.008,15.512 L155.216,15.512 Z M151.056,27.96 L151.808,27.912 C153.002667,27.8373333 153.856,27.5493333 154.368,27.048 C154.88,26.5466667 155.136,25.7466667 155.136,24.648 L155.136,24.648 L155.136,17.176 L153.136,17.176 L153.136,25 C153.136,25.4693333 153.018667,25.8186667 152.784,26.048 C152.549333,26.2773333 152.186667,26.408 151.696,26.44 L151.696,26.44 L150.912,26.504 L151.056,27.96 Z M160.08,25.128 C161.082667,25.128 161.877333,24.9146667 162.464,24.488 C163.050667,24.0613333 163.344,23.4853333 163.344,22.76 C163.344,22.1626667 163.162667,21.68 162.8,21.312 C162.437333,20.944 161.866667,20.6746667 161.088,20.504 L161.088,20.504 L159.76,20.2 C159.418667,20.1253333 159.170667,20.0186667 159.016,19.88 C158.861333,19.7413333 158.784,19.5653333 158.784,19.352 C158.784,19.064 158.906667,18.84 159.152,18.68 C159.397333,18.52 159.738667,18.44 160.176,18.44 C160.986667,18.44 161.797333,18.7333333 162.608,19.32 L162.608,19.32 L163.168,17.96 C162.773333,17.6506667 162.317333,17.4106667 161.8,17.24 C161.282667,17.0693333 160.746667,16.984 160.192,16.984 C159.552,16.984 158.989333,17.0853333 158.504,17.288 C158.018667,17.4906667 157.64,17.776 157.368,18.144 C157.096,18.512 156.96,18.936 156.96,19.416 C156.96,19.992 157.136,20.4613333 157.488,20.824 C157.84,21.1866667 158.378667,21.448 159.104,21.608 L159.104,21.608 L160.384,21.896 C160.810667,22.0026667 161.106667,22.12 161.272,22.248 C161.437333,22.376 161.52,22.5573333 161.52,22.792 C161.52,23.0693333 161.4,23.2826667 161.16,23.432 C160.92,23.5813333 160.570667,23.656 160.112,23.656 C159.034667,23.656 158.08,23.352 157.248,22.744 L157.248,22.744 L156.688,24.136 C157.093333,24.456 157.586667,24.7013333 158.168,24.872 C158.749333,25.0426667 159.386667,25.128 160.08,25.128 Z" id="index.js" fill="#0F1931" fill-rule="nonzero"></path>
            <path d="M37.152,138.128 C37.6746667,138.128 38.144,138.013333 38.56,137.784 C38.976,137.554667 39.3066667,137.226667 39.552,136.8 L39.552,136.8 L39.552,138 L41.504,138 L41.504,130.176 L39.504,130.176 L39.504,134.528 C39.504,135.136 39.336,135.624 39,135.992 C38.664,136.36 38.2186667,136.544 37.664,136.544 C37.184,136.544 36.832,136.410667 36.608,136.144 C36.384,135.877333 36.272,135.466667 36.272,134.912 L36.272,134.912 L36.272,130.176 L34.272,130.176 L34.272,134.896 C34.272,137.050667 35.232,138.128 37.152,138.128 Z M46.464,138.128 C47.4666667,138.128 48.2613333,137.914667 48.848,137.488 C49.4346667,137.061333 49.728,136.485333 49.728,135.76 C49.728,135.162667 49.5466667,134.68 49.184,134.312 C48.8213333,133.944 48.2506667,133.674667 47.472,133.504 L47.472,133.504 L46.144,133.2 C45.8026667,133.125333 45.5546667,133.018667 45.4,132.88 C45.2453333,132.741333 45.168,132.565333 45.168,132.352 C45.168,132.064 45.2906667,131.84 45.536,131.68 C45.7813333,131.52 46.1226667,131.44 46.56,131.44 C47.3706667,131.44 48.1813333,131.733333 48.992,132.32 L48.992,132.32 L49.552,130.96 C49.1573333,130.650667 48.7013333,130.410667 48.184,130.24 C47.6666667,130.069333 47.1306667,129.984 46.576,129.984 C45.936,129.984 45.3733333,130.085333 44.888,130.288 C44.4026667,130.490667 44.024,130.776 43.752,131.144 C43.48,131.512 43.344,131.936 43.344,132.416 C43.344,132.992 43.52,133.461333 43.872,133.824 C44.224,134.186667 44.7626667,134.448 45.488,134.608 L45.488,134.608 L46.768,134.896 C47.1946667,135.002667 47.4906667,135.12 47.656,135.248 C47.8213333,135.376 47.904,135.557333 47.904,135.792 C47.904,136.069333 47.784,136.282667 47.544,136.432 C47.304,136.581333 46.9546667,136.656 46.496,136.656 C45.4186667,136.656 44.464,136.352 43.632,135.744 L43.632,135.744 L43.072,137.136 C43.4773333,137.456 43.9706667,137.701333 44.552,137.872 C45.1333333,138.042667 45.7706667,138.128 46.464,138.128 Z M55.056,138.128 C55.6106667,138.128 56.1626667,138.037333 56.712,137.856 C57.2613333,137.674667 57.7173333,137.434667 58.08,137.136 L58.08,137.136 L57.504,135.76 C56.7893333,136.314667 56,136.592 55.136,136.592 C54.4426667,136.592 53.9093333,136.416 53.536,136.064 C53.1626667,135.712 52.944,135.173333 52.88,134.448 L52.88,134.448 L58.208,134.448 L58.208,133.888 C58.208,132.672 57.896,131.717333 57.272,131.024 C56.648,130.330667 55.7973333,129.984 54.72,129.984 C53.984,129.984 53.3253333,130.154667 52.744,130.496 C52.1626667,130.837333 51.712,131.317333 51.392,131.936 C51.072,132.554667 50.912,133.264 50.912,134.064 C50.912,135.322667 51.2826667,136.314667 52.024,137.04 C52.7653333,137.765333 53.776,138.128 55.056,138.128 Z M56.496,133.376 L52.88,133.376 C52.9546667,132.736 53.1546667,132.245333 53.48,131.904 C53.8053333,131.562667 54.2346667,131.392 54.768,131.392 C55.3013333,131.392 55.7173333,131.56 56.016,131.896 C56.3146667,132.232 56.4746667,132.725333 56.496,133.376 L56.496,133.376 Z M61.84,138 L61.84,133.776 C61.84,132.570667 62.5013333,131.898667 63.824,131.76 L63.824,131.76 L64.992,131.648 L64.864,129.968 L64.256,130.016 C62.9866667,130.101333 62.1493333,130.613333 61.744,131.552 L61.744,131.552 L61.744,130.176 L59.84,130.176 L59.84,138 L61.84,138 Z M68.032,138 L68.032,135.792 L65.792,135.792 L65.792,138 L68.032,138 Z M72.016,128.512 L72.016,126.544 L69.808,126.544 L69.808,128.512 L72.016,128.512 Z M67.856,140.96 L68.608,140.912 C69.8026667,140.837333 70.656,140.549333 71.168,140.048 C71.68,139.546667 71.936,138.746667 71.936,137.648 L71.936,137.648 L71.936,130.176 L69.936,130.176 L69.936,138 C69.936,138.469333 69.8186667,138.818667 69.584,139.048 C69.3493333,139.277333 68.9866667,139.408 68.496,139.44 L68.496,139.44 L67.712,139.504 L67.856,140.96 Z M76.88,138.128 C77.8826667,138.128 78.6773333,137.914667 79.264,137.488 C79.8506667,137.061333 80.144,136.485333 80.144,135.76 C80.144,135.162667 79.9626667,134.68 79.6,134.312 C79.2373333,133.944 78.6666667,133.674667 77.888,133.504 L77.888,133.504 L76.56,133.2 C76.2186667,133.125333 75.9706667,133.018667 75.816,132.88 C75.6613333,132.741333 75.584,132.565333 75.584,132.352 C75.584,132.064 75.7066667,131.84 75.952,131.68 C76.1973333,131.52 76.5386667,131.44 76.976,131.44 C77.7866667,131.44 78.5973333,131.733333 79.408,132.32 L79.408,132.32 L79.968,130.96 C79.5733333,130.650667 79.1173333,130.410667 78.6,130.24 C78.0826667,130.069333 77.5466667,129.984 76.992,129.984 C76.352,129.984 75.7893333,130.085333 75.304,130.288 C74.8186667,130.490667 74.44,130.776 74.168,131.144 C73.896,131.512 73.76,131.936 73.76,132.416 C73.76,132.992 73.936,133.461333 74.288,133.824 C74.64,134.186667 75.1786667,134.448 75.904,134.608 L75.904,134.608 L77.184,134.896 C77.6106667,135.002667 77.9066667,135.12 78.072,135.248 C78.2373333,135.376 78.32,135.557333 78.32,135.792 C78.32,136.069333 78.2,136.282667 77.96,136.432 C77.72,136.581333 77.3706667,136.656 76.912,136.656 C75.8346667,136.656 74.88,136.352 74.048,135.744 L74.048,135.744 L73.488,137.136 C73.8933333,137.456 74.3866667,137.701333 74.968,137.872 C75.5493333,138.042667 76.1866667,138.128 76.88,138.128 Z" id="user.js" fill="#0F1931" fill-rule="nonzero"></path>
            <path d="M41.328,238.128 C41.8506667,238.128 42.32,238.013333 42.736,237.784 C43.152,237.554667 43.4826667,237.226667 43.728,236.8 L43.728,236.8 L43.728,238 L45.68,238 L45.68,230.176 L43.68,230.176 L43.68,234.528 C43.68,235.136 43.512,235.624 43.176,235.992 C42.84,236.36 42.3946667,236.544 41.84,236.544 C41.36,236.544 41.008,236.410667 40.784,236.144 C40.56,235.877333 40.448,235.466667 40.448,234.912 L40.448,234.912 L40.448,230.176 L38.448,230.176 L38.448,234.896 C38.448,237.050667 39.408,238.128 41.328,238.128 Z M51.52,238.112 C51.7866667,238.112 52.08,238.096 52.4,238.064 L52.4,238.064 L52.496,236.576 C52.24,236.608 51.9946667,236.624 51.76,236.624 C50.7893333,236.624 50.304,236.101333 50.304,235.056 L50.304,235.056 L50.304,231.68 L52.368,231.68 L52.368,230.176 L50.304,230.176 L50.304,227.84 L48.304,227.84 L48.304,230.176 L46.8,230.176 L46.8,231.68 L48.304,231.68 L48.304,235.088 C48.304,236.090667 48.5653333,236.845333 49.088,237.352 C49.6106667,237.858667 50.4213333,238.112 51.52,238.112 Z M55.76,228.512 L55.76,226.544 L53.552,226.544 L53.552,228.512 L55.76,228.512 Z M55.664,238 L55.664,230.176 L53.664,230.176 L53.664,238 L55.664,238 Z M59.728,238 L59.728,226.72 L57.728,226.72 L57.728,238 L59.728,238 Z M63.856,238 L63.856,235.792 L61.616,235.792 L61.616,238 L63.856,238 Z M67.84,228.512 L67.84,226.544 L65.632,226.544 L65.632,228.512 L67.84,228.512 Z M63.68,240.96 L64.432,240.912 C65.6266667,240.837333 66.48,240.549333 66.992,240.048 C67.504,239.546667 67.76,238.746667 67.76,237.648 L67.76,237.648 L67.76,230.176 L65.76,230.176 L65.76,238 C65.76,238.469333 65.6426667,238.818667 65.408,239.048 C65.1733333,239.277333 64.8106667,239.408 64.32,239.44 L64.32,239.44 L63.536,239.504 L63.68,240.96 Z M72.704,238.128 C73.7066667,238.128 74.5013333,237.914667 75.088,237.488 C75.6746667,237.061333 75.968,236.485333 75.968,235.76 C75.968,235.162667 75.7866667,234.68 75.424,234.312 C75.0613333,233.944 74.4906667,233.674667 73.712,233.504 L73.712,233.504 L72.384,233.2 C72.0426667,233.125333 71.7946667,233.018667 71.64,232.88 C71.4853333,232.741333 71.408,232.565333 71.408,232.352 C71.408,232.064 71.5306667,231.84 71.776,231.68 C72.0213333,231.52 72.3626667,231.44 72.8,231.44 C73.6106667,231.44 74.4213333,231.733333 75.232,232.32 L75.232,232.32 L75.792,230.96 C75.3973333,230.650667 74.9413333,230.410667 74.424,230.24 C73.9066667,230.069333 73.3706667,229.984 72.816,229.984 C72.176,229.984 71.6133333,230.085333 71.128,230.288 C70.6426667,230.490667 70.264,230.776 69.992,231.144 C69.72,231.512 69.584,231.936 69.584,232.416 C69.584,232.992 69.76,233.461333 70.112,233.824 C70.464,234.186667 71.0026667,234.448 71.728,234.608 L71.728,234.608 L73.008,234.896 C73.4346667,235.002667 73.7306667,235.12 73.896,235.248 C74.0613333,235.376 74.144,235.557333 74.144,235.792 C74.144,236.069333 74.024,236.282667 73.784,236.432 C73.544,236.581333 73.1946667,236.656 72.736,236.656 C71.6586667,236.656 70.704,236.352 69.872,235.744 L69.872,235.744 L69.312,237.136 C69.7173333,237.456 70.2106667,237.701333 70.792,237.872 C71.3733333,238.042667 72.0106667,238.128 72.704,238.128 Z" id="util.js" fill="#0F1931" fill-rule="nonzero"></path>
            <path d="M191.056,138.128 C192.058667,138.128 192.853333,137.914667 193.44,137.488 C194.026667,137.061333 194.32,136.485333 194.32,135.76 C194.32,135.162667 194.138667,134.68 193.776,134.312 C193.413333,133.944 192.842667,133.674667 192.064,133.504 L192.064,133.504 L190.736,133.2 C190.394667,133.125333 190.146667,133.018667 189.992,132.88 C189.837333,132.741333 189.76,132.565333 189.76,132.352 C189.76,132.064 189.882667,131.84 190.128,131.68 C190.373333,131.52 190.714667,131.44 191.152,131.44 C191.962667,131.44 192.773333,131.733333 193.584,132.32 L193.584,132.32 L194.144,130.96 C193.749333,130.650667 193.293333,130.410667 192.776,130.24 C192.258667,130.069333 191.722667,129.984 191.168,129.984 C190.528,129.984 189.965333,130.085333 189.48,130.288 C188.994667,130.490667 188.616,130.776 188.344,131.144 C188.072,131.512 187.936,131.936 187.936,132.416 C187.936,132.992 188.112,133.461333 188.464,133.824 C188.816,134.186667 189.354667,134.448 190.08,134.608 L190.08,134.608 L191.36,134.896 C191.786667,135.002667 192.082667,135.12 192.248,135.248 C192.413333,135.376 192.496,135.557333 192.496,135.792 C192.496,136.069333 192.376,136.282667 192.136,136.432 C191.896,136.581333 191.546667,136.656 191.088,136.656 C190.010667,136.656 189.056,136.352 188.224,135.744 L188.224,135.744 L187.664,137.136 C188.069333,137.456 188.562667,137.701333 189.144,137.872 C189.725333,138.042667 190.362667,138.128 191.056,138.128 Z M197.936,138 L197.936,133.568 C197.936,132.96 198.109333,132.474667 198.456,132.112 C198.802667,131.749333 199.264,131.568 199.84,131.568 C200.330667,131.568 200.690667,131.706667 200.92,131.984 C201.149333,132.261333 201.264,132.704 201.264,133.312 L201.264,133.312 L201.264,138 L203.264,138 L203.264,133.2 C203.264,132.122667 203.034667,131.317333 202.576,130.784 C202.117333,130.250667 201.418667,129.984 200.48,129.984 C199.936,129.984 199.442667,130.093333 199,130.312 C198.557333,130.530667 198.202667,130.848 197.936,131.264 L197.936,131.264 L197.936,126.72 L195.936,126.72 L195.936,138 L197.936,138 Z M208.864,138.128 C209.664,138.128 210.365333,137.962667 210.968,137.632 C211.570667,137.301333 212.034667,136.826667 212.36,136.208 C212.685333,135.589333 212.848,134.869333 212.848,134.048 C212.848,133.226667 212.685333,132.509333 212.36,131.896 C212.034667,131.282667 211.570667,130.810667 210.968,130.48 C210.365333,130.149333 209.664,129.984 208.864,129.984 C208.064,129.984 207.362667,130.149333 206.76,130.48 C206.157333,130.810667 205.690667,131.282667 205.36,131.896 C205.029333,132.509333 204.864,133.226667 204.864,134.048 C204.864,134.869333 205.029333,135.589333 205.36,136.208 C205.690667,136.826667 206.157333,137.301333 206.76,137.632 C207.362667,137.962667 208.064,138.128 208.864,138.128 Z M208.848,136.576 C208.208,136.576 207.717333,136.362667 207.376,135.936 C207.034667,135.509333 206.864,134.88 206.864,134.048 C206.864,133.226667 207.037333,132.6 207.384,132.168 C207.730667,131.736 208.224,131.52 208.864,131.52 C209.504,131.52 209.994667,131.736 210.336,132.168 C210.677333,132.6 210.848,133.226667 210.848,134.048 C210.848,134.88 210.677333,135.509333 210.336,135.936 C209.994667,136.362667 209.498667,136.576 208.848,136.576 Z M216.496,140.88 L216.496,136.8 C216.730667,137.216 217.066667,137.541333 217.504,137.776 C217.941333,138.010667 218.437333,138.128 218.992,138.128 C219.674667,138.128 220.277333,137.962667 220.8,137.632 C221.322667,137.301333 221.730667,136.832 222.024,136.224 C222.317333,135.616 222.464,134.906667 222.464,134.096 C222.464,133.285333 222.317333,132.568 222.024,131.944 C221.730667,131.32 221.32,130.837333 220.792,130.496 C220.264,130.154667 219.664,129.984 218.992,129.984 C218.426667,129.984 217.922667,130.104 217.48,130.344 C217.037333,130.584 216.698667,130.922667 216.464,131.36 L216.464,131.36 L216.464,130.176 L214.496,130.176 L214.496,140.88 L216.496,140.88 Z M218.464,136.576 C217.824,136.576 217.330667,136.357333 216.984,135.92 C216.637333,135.482667 216.464,134.864 216.464,134.064 C216.464,133.253333 216.637333,132.629333 216.984,132.192 C217.330667,131.754667 217.824,131.536 218.464,131.536 C219.093333,131.536 219.584,131.76 219.936,132.208 C220.288,132.656 220.464,133.285333 220.464,134.096 C220.464,134.885333 220.288,135.496 219.936,135.928 C219.584,136.36 219.093333,136.576 218.464,136.576 Z M226.176,138 L226.176,135.792 L223.936,135.792 L223.936,138 L226.176,138 Z M230.16,128.512 L230.16,126.544 L227.952,126.544 L227.952,128.512 L230.16,128.512 Z M226,140.96 L226.752,140.912 C227.946667,140.837333 228.8,140.549333 229.312,140.048 C229.824,139.546667 230.08,138.746667 230.08,137.648 L230.08,137.648 L230.08,130.176 L228.08,130.176 L228.08,138 C228.08,138.469333 227.962667,138.818667 227.728,139.048 C227.493333,139.277333 227.130667,139.408 226.64,139.44 L226.64,139.44 L225.856,139.504 L226,140.96 Z M235.024,138.128 C236.026667,138.128 236.821333,137.914667 237.408,137.488 C237.994667,137.061333 238.288,136.485333 238.288,135.76 C238.288,135.162667 238.106667,134.68 237.744,134.312 C237.381333,133.944 236.810667,133.674667 236.032,133.504 L236.032,133.504 L234.704,133.2 C234.362667,133.125333 234.114667,133.018667 233.96,132.88 C233.805333,132.741333 233.728,132.565333 233.728,132.352 C233.728,132.064 233.850667,131.84 234.096,131.68 C234.341333,131.52 234.682667,131.44 235.12,131.44 C235.930667,131.44 236.741333,131.733333 237.552,132.32 L237.552,132.32 L238.112,130.96 C237.717333,130.650667 237.261333,130.410667 236.744,130.24 C236.226667,130.069333 235.690667,129.984 235.136,129.984 C234.496,129.984 233.933333,130.085333 233.448,130.288 C232.962667,130.490667 232.584,130.776 232.312,131.144 C232.04,131.512 231.904,131.936 231.904,132.416 C231.904,132.992 232.08,133.461333 232.432,133.824 C232.784,134.186667 233.322667,134.448 234.048,134.608 L234.048,134.608 L235.328,134.896 C235.754667,135.002667 236.050667,135.12 236.216,135.248 C236.381333,135.376 236.464,135.557333 236.464,135.792 C236.464,136.069333 236.344,136.282667 236.104,136.432 C235.864,136.581333 235.514667,136.656 235.056,136.656 C233.978667,136.656 233.024,136.352 232.192,135.744 L232.192,135.744 L231.632,137.136 C232.037333,137.456 232.530667,137.701333 233.112,137.872 C233.693333,138.042667 234.330667,138.128 235.024,138.128 Z" id="shop.js" fill="#0F1931" fill-rule="nonzero"></path>
            <polygon id="Line" fill="#FFFFFF" fill-rule="nonzero" points="135.527367 36.0860513 136.913949 37.5273667 56.4726333 114.913949 55.0860513 113.472633"></polygon>
            <polygon id="Line" fill="#FFFFFF" fill-rule="nonzero" transform="translate(175.000000, 75.500000) scale(-1, 1) translate(-175.000000, -75.500000) " points="214.527367 36.0860513 215.913949 37.5273667 135.472633 114.913949 134.086051 113.472633"></polygon>
            <polygon id="Line-2" fill="#FFFFFF" fill-rule="nonzero" points="57.5 151.5 57.5 214.5 55.5 214.5 55.5 151.5"></polygon>
        </g>
        <rect id="Rectangle" fill="#66C4FF" x="840" y="366" width="237" height="68"></rect>
        <path d="M874.539,393.582 L874.539,390.384 L870.951,390.384 L870.951,393.582 L874.539,393.582 Z M874.383,409 L874.383,396.286 L871.133,396.286 L871.133,409 L874.383,409 Z M880.987,409 L880.987,401.798 C880.987,400.81 881.268667,400.021333 881.832,399.432 C882.395333,398.842667 883.145,398.548 884.081,398.548 C884.878333,398.548 885.463333,398.773333 885.836,399.224 C886.208667,399.674667 886.395,400.394 886.395,401.382 L886.395,401.382 L886.395,409 L889.645,409 L889.645,401.2 C889.645,399.449333 889.272333,398.140667 888.527,397.274 C887.781667,396.407333 886.646333,395.974 885.121,395.974 C884.202333,395.974 883.379,396.164667 882.651,396.546 C881.923,396.927333 881.342333,397.473333 880.909,398.184 L880.909,398.184 L880.909,396.286 L877.737,396.286 L877.737,409 L880.987,409 Z M897.887,409.208 C898.805667,409.208 899.624667,409.008667 900.344,408.61 C901.063333,408.211333 901.613667,407.656667 901.995,406.946 L901.995,406.946 L901.995,409 L905.219,409 L905.219,390.67 L901.969,390.67 L901.969,398.158 C901.587667,397.464667 901.041667,396.927333 900.331,396.546 C899.620333,396.164667 898.805667,395.974 897.887,395.974 C896.777667,395.974 895.798333,396.242667 894.949,396.78 C894.099667,397.317333 893.436667,398.08 892.96,399.068 C892.483333,400.056 892.245,401.208667 892.245,402.526 C892.245,403.843333 892.483333,405.009 892.96,406.023 C893.436667,407.037 894.104,407.821333 894.962,408.376 C895.82,408.930667 896.795,409.208 897.887,409.208 Z M898.745,406.686 C897.722333,406.686 896.925,406.322 896.353,405.594 C895.781,404.866 895.495,403.843333 895.495,402.526 C895.495,401.226 895.781,400.229333 896.353,399.536 C896.925,398.842667 897.731,398.496 898.771,398.496 C899.793667,398.496 900.586667,398.847 901.15,399.549 C901.713333,400.251 901.995,401.260667 901.995,402.578 C901.995,403.895333 901.713333,404.909333 901.15,405.62 C900.586667,406.330667 899.785,406.686 898.745,406.686 Z M914.605,409.208 C915.506333,409.208 916.403333,409.060667 917.296,408.766 C918.188667,408.471333 918.929667,408.081333 919.519,407.596 L919.519,407.596 L918.583,405.36 C917.421667,406.261333 916.139,406.712 914.735,406.712 C913.608333,406.712 912.741667,406.426 912.135,405.854 C911.528333,405.282 911.173,404.406667 911.069,403.228 L911.069,403.228 L919.727,403.228 L919.727,402.318 C919.727,400.342 919.22,398.790667 918.206,397.664 C917.192,396.537333 915.809667,395.974 914.059,395.974 C912.863,395.974 911.792667,396.251333 910.848,396.806 C909.903333,397.360667 909.171,398.140667 908.651,399.146 C908.131,400.151333 907.871,401.304 907.871,402.604 C907.871,404.649333 908.473333,406.261333 909.678,407.44 C910.882667,408.618667 912.525,409.208 914.605,409.208 Z M916.945,401.486 L911.069,401.486 C911.190333,400.446 911.515333,399.648667 912.044,399.094 C912.572667,398.539333 913.270333,398.262 914.137,398.262 C915.003667,398.262 915.679667,398.535 916.165,399.081 C916.650333,399.627 916.910333,400.428667 916.945,401.486 L916.945,401.486 Z M924.251,409 L927.605,404.762 L930.985,409 L934.833,409 L929.477,402.448 L934.521,396.286 L930.647,396.286 L927.605,400.16 L924.563,396.286 L920.689,396.286 L925.733,402.448 L920.403,409 L924.251,409 Z M939.565,409 L939.565,405.412 L935.925,405.412 L935.925,409 L939.565,409 Z M949.965,409.208 C951.057,409.208 952.032,408.930667 952.89,408.376 C953.748,407.821333 954.415333,407.037 954.892,406.023 C955.368667,405.009 955.607,403.843333 955.607,402.526 C955.607,401.208667 955.368667,400.056 954.892,399.068 C954.415333,398.08 953.752333,397.317333 952.903,396.78 C952.053667,396.242667 951.074333,395.974 949.965,395.974 C949.063667,395.974 948.257667,396.160333 947.547,396.533 C946.836333,396.905667 946.290333,397.438667 945.909,398.132 L945.909,398.132 L945.909,390.67 L942.659,390.67 L942.659,409 L945.857,409 L945.857,406.946 C946.238333,407.656667 946.788667,408.211333 947.508,408.61 C948.227333,409.008667 949.046333,409.208 949.965,409.208 Z M949.107,406.686 C948.067,406.686 947.265333,406.330667 946.702,405.62 C946.138667,404.909333 945.857,403.895333 945.857,402.578 C945.857,401.260667 946.138667,400.251 946.702,399.549 C947.265333,398.847 948.067,398.496 949.107,398.496 C950.147,398.496 950.948667,398.842667 951.512,399.536 C952.075333,400.229333 952.357,401.226 952.357,402.526 C952.357,403.843333 952.071,404.866 951.499,405.594 C950.927,406.322 950.129667,406.686 949.107,406.686 Z M962.887,409.208 C963.736333,409.208 964.499,409.021667 965.175,408.649 C965.851,408.276333 966.388333,407.743333 966.787,407.05 L966.787,407.05 L966.787,409 L969.959,409 L969.959,396.286 L966.709,396.286 L966.709,403.358 C966.709,404.346 966.436,405.139 965.89,405.737 C965.344,406.335 964.620333,406.634 963.719,406.634 C962.939,406.634 962.367,406.417333 962.003,405.984 C961.639,405.550667 961.457,404.883333 961.457,403.982 L961.457,403.982 L961.457,396.286 L958.207,396.286 L958.207,403.956 C958.207,407.457333 959.767,409.208 962.887,409.208 Z M976.589,409 L976.589,401.798 C976.589,400.81 976.870667,400.021333 977.434,399.432 C977.997333,398.842667 978.747,398.548 979.683,398.548 C980.480333,398.548 981.065333,398.773333 981.438,399.224 C981.810667,399.674667 981.997,400.394 981.997,401.382 L981.997,401.382 L981.997,409 L985.247,409 L985.247,401.2 C985.247,399.449333 984.874333,398.140667 984.129,397.274 C983.383667,396.407333 982.248333,395.974 980.723,395.974 C979.804333,395.974 978.981,396.164667 978.253,396.546 C977.525,396.927333 976.944333,397.473333 976.511,398.184 L976.511,398.184 L976.511,396.286 L973.339,396.286 L973.339,409 L976.589,409 Z M993.489,409.208 C994.407667,409.208 995.226667,409.008667 995.946,408.61 C996.665333,408.211333 997.215667,407.656667 997.597,406.946 L997.597,406.946 L997.597,409 L1000.821,409 L1000.821,390.67 L997.571,390.67 L997.571,398.158 C997.189667,397.464667 996.643667,396.927333 995.933,396.546 C995.222333,396.164667 994.407667,395.974 993.489,395.974 C992.379667,395.974 991.400333,396.242667 990.551,396.78 C989.701667,397.317333 989.038667,398.08 988.562,399.068 C988.085333,400.056 987.847,401.208667 987.847,402.526 C987.847,403.843333 988.085333,405.009 988.562,406.023 C989.038667,407.037 989.706,407.821333 990.564,408.376 C991.422,408.930667 992.397,409.208 993.489,409.208 Z M994.347,406.686 C993.324333,406.686 992.527,406.322 991.955,405.594 C991.383,404.866 991.097,403.843333 991.097,402.526 C991.097,401.226 991.383,400.229333 991.955,399.536 C992.527,398.842667 993.333,398.496 994.373,398.496 C995.395667,398.496 996.188667,398.847 996.752,399.549 C997.315333,400.251 997.597,401.260667 997.597,402.578 C997.597,403.895333 997.315333,404.909333 996.752,405.62 C996.188667,406.330667 995.387,406.686 994.347,406.686 Z M1007.425,409 L1007.425,390.67 L1004.175,390.67 L1004.175,409 L1007.425,409 Z M1016.811,409.208 C1017.71233,409.208 1018.60933,409.060667 1019.502,408.766 C1020.39467,408.471333 1021.13567,408.081333 1021.725,407.596 L1021.725,407.596 L1020.789,405.36 C1019.62767,406.261333 1018.345,406.712 1016.941,406.712 C1015.81433,406.712 1014.94767,406.426 1014.341,405.854 C1013.73433,405.282 1013.379,404.406667 1013.275,403.228 L1013.275,403.228 L1021.933,403.228 L1021.933,402.318 C1021.933,400.342 1021.426,398.790667 1020.412,397.664 C1019.398,396.537333 1018.01567,395.974 1016.265,395.974 C1015.069,395.974 1013.99867,396.251333 1013.054,396.806 C1012.10933,397.360667 1011.377,398.140667 1010.857,399.146 C1010.337,400.151333 1010.077,401.304 1010.077,402.604 C1010.077,404.649333 1010.67933,406.261333 1011.884,407.44 C1013.08867,408.618667 1014.731,409.208 1016.811,409.208 Z M1019.151,401.486 L1013.275,401.486 C1013.39633,400.446 1013.72133,399.648667 1014.25,399.094 C1014.77867,398.539333 1015.47633,398.262 1016.343,398.262 C1017.20967,398.262 1017.88567,398.535 1018.371,399.081 C1018.85633,399.627 1019.11633,400.428667 1019.151,401.486 L1019.151,401.486 Z M1027.939,409 L1027.939,405.412 L1024.299,405.412 L1024.299,409 L1027.939,409 Z M1034.413,393.582 L1034.413,390.384 L1030.825,390.384 L1030.825,393.582 L1034.413,393.582 Z M1027.653,413.81 L1028.875,413.732 C1030.81633,413.610667 1032.203,413.142667 1033.035,412.328 C1033.867,411.513333 1034.283,410.213333 1034.283,408.428 L1034.283,408.428 L1034.283,396.286 L1031.033,396.286 L1031.033,409 C1031.033,409.762667 1030.84233,410.330333 1030.461,410.703 C1030.07967,411.075667 1029.49033,411.288 1028.693,411.34 L1028.693,411.34 L1027.419,411.444 L1027.653,413.81 Z M1042.317,409.208 C1043.94633,409.208 1045.23767,408.861333 1046.191,408.168 C1047.14433,407.474667 1047.621,406.538667 1047.621,405.36 C1047.621,404.389333 1047.32633,403.605 1046.737,403.007 C1046.14767,402.409 1045.22033,401.971333 1043.955,401.694 L1043.955,401.694 L1041.797,401.2 C1041.24233,401.078667 1040.83933,400.905333 1040.588,400.68 C1040.33667,400.454667 1040.211,400.168667 1040.211,399.822 C1040.211,399.354 1040.41033,398.99 1040.809,398.73 C1041.20767,398.47 1041.76233,398.34 1042.473,398.34 C1043.79033,398.34 1045.10767,398.816667 1046.425,399.77 L1046.425,399.77 L1047.335,397.56 C1046.69367,397.057333 1045.95267,396.667333 1045.112,396.39 C1044.27133,396.112667 1043.40033,395.974 1042.499,395.974 C1041.459,395.974 1040.54467,396.138667 1039.756,396.468 C1038.96733,396.797333 1038.352,397.261 1037.91,397.859 C1037.468,398.457 1037.247,399.146 1037.247,399.926 C1037.247,400.862 1037.533,401.624667 1038.105,402.214 C1038.677,402.803333 1039.55233,403.228 1040.731,403.488 L1040.731,403.488 L1042.811,403.956 C1043.50433,404.129333 1043.98533,404.32 1044.254,404.528 C1044.52267,404.736 1044.657,405.030667 1044.657,405.412 C1044.657,405.862667 1044.462,406.209333 1044.072,406.452 C1043.682,406.694667 1043.11433,406.816 1042.369,406.816 C1040.61833,406.816 1039.067,406.322 1037.715,405.334 L1037.715,405.334 L1036.805,407.596 C1037.46367,408.116 1038.26533,408.514667 1039.21,408.792 C1040.15467,409.069333 1041.19033,409.208 1042.317,409.208 Z" id="index.bundle.js" fill="#0F1931" fill-rule="nonzero"></path>
        <g id="Group-2" transform="translate(543.000000, 275.000000)" fill="#66C4FF">
            <path d="M42.26,240.5 C43.7666667,240.5 44.95,240.16 45.81,239.48 C46.67,238.8 47.1,237.86 47.1,236.66 C47.1,235.793333 46.8766667,235.06 46.43,234.46 C45.9833333,233.86 45.3533333,233.446667 44.54,233.22 C45.2333333,232.966667 45.7766667,232.566667 46.17,232.02 C46.5633333,231.473333 46.76,230.826667 46.76,230.08 C46.76,228.92 46.3433333,228.016667 45.51,227.37 C44.6766667,226.723333 43.5266667,226.4 42.06,226.4 L42.06,226.4 L35.86,226.4 L35.86,240.5 L42.26,240.5 Z M41.64,232.34 L38.38,232.34 L38.38,228.4 L41.64,228.4 C42.5333333,228.4 43.2,228.56 43.64,228.88 C44.08,229.2 44.3,229.693333 44.3,230.36 C44.3,231.68 43.4133333,232.34 41.64,232.34 L41.64,232.34 Z M41.98,238.5 L38.38,238.5 L38.38,234.34 L41.98,234.34 C42.9,234.34 43.5766667,234.513333 44.01,234.86 C44.4433333,235.206667 44.66,235.733333 44.66,236.44 C44.66,237.146667 44.4466667,237.666667 44.02,238 C43.5933333,238.333333 42.9133333,238.5 41.98,238.5 L41.98,238.5 Z M52.84,240.66 C53.4933333,240.66 54.08,240.516667 54.6,240.23 C55.12,239.943333 55.5333333,239.533333 55.84,239 L55.84,239 L55.84,240.5 L58.28,240.5 L58.28,230.72 L55.78,230.72 L55.78,236.16 C55.78,236.92 55.57,237.53 55.15,237.99 C54.73,238.45 54.1733333,238.68 53.48,238.68 C52.88,238.68 52.44,238.513333 52.16,238.18 C51.88,237.846667 51.74,237.333333 51.74,236.64 L51.74,236.64 L51.74,230.72 L49.24,230.72 L49.24,236.62 C49.24,239.313333 50.44,240.66 52.84,240.66 Z M63.38,240.5 L63.38,234.96 C63.38,234.2 63.5966667,233.593333 64.03,233.14 C64.4633333,232.686667 65.04,232.46 65.76,232.46 C66.3733333,232.46 66.8233333,232.633333 67.11,232.98 C67.3966667,233.326667 67.54,233.88 67.54,234.64 L67.54,234.64 L67.54,240.5 L70.04,240.5 L70.04,234.5 C70.04,233.153333 69.7533333,232.146667 69.18,231.48 C68.6066667,230.813333 67.7333333,230.48 66.56,230.48 C65.8533333,230.48 65.22,230.626667 64.66,230.92 C64.1,231.213333 63.6533333,231.633333 63.32,232.18 L63.32,232.18 L63.32,230.72 L60.88,230.72 L60.88,240.5 L63.38,240.5 Z M76.38,240.66 C77.0866667,240.66 77.7166667,240.506667 78.27,240.2 C78.8233333,239.893333 79.2466667,239.466667 79.54,238.92 L79.54,238.92 L79.54,240.5 L82.02,240.5 L82.02,226.4 L79.52,226.4 L79.52,232.16 C79.2266667,231.626667 78.8066667,231.213333 78.26,230.92 C77.7133333,230.626667 77.0866667,230.48 76.38,230.48 C75.5266667,230.48 74.7733333,230.686667 74.12,231.1 C73.4666667,231.513333 72.9566667,232.1 72.59,232.86 C72.2233333,233.62 72.04,234.506667 72.04,235.52 C72.04,236.533333 72.2233333,237.43 72.59,238.21 C72.9566667,238.99 73.47,239.593333 74.13,240.02 C74.79,240.446667 75.54,240.66 76.38,240.66 Z M77.04,238.72 C76.2533333,238.72 75.64,238.44 75.2,237.88 C74.76,237.32 74.54,236.533333 74.54,235.52 C74.54,234.52 74.76,233.753333 75.2,233.22 C75.64,232.686667 76.26,232.42 77.06,232.42 C77.8466667,232.42 78.4566667,232.69 78.89,233.23 C79.3233333,233.77 79.54,234.546667 79.54,235.56 C79.54,236.573333 79.3233333,237.353333 78.89,237.9 C78.4566667,238.446667 77.84,238.72 77.04,238.72 Z M87.1,240.5 L87.1,226.4 L84.6,226.4 L84.6,240.5 L87.1,240.5 Z M94.32,240.66 C95.0133333,240.66 95.7033333,240.546667 96.39,240.32 C97.0766667,240.093333 97.6466667,239.793333 98.1,239.42 L98.1,239.42 L97.38,237.7 C96.4866667,238.393333 95.5,238.74 94.42,238.74 C93.5533333,238.74 92.8866667,238.52 92.42,238.08 C91.9533333,237.64 91.68,236.966667 91.6,236.06 L91.6,236.06 L98.26,236.06 L98.26,235.36 C98.26,233.84 97.87,232.646667 97.09,231.78 C96.31,230.913333 95.2466667,230.48 93.9,230.48 C92.98,230.48 92.1566667,230.693333 91.43,231.12 C90.7033333,231.546667 90.14,232.146667 89.74,232.92 C89.34,233.693333 89.14,234.58 89.14,235.58 C89.14,237.153333 89.6033333,238.393333 90.53,239.3 C91.4566667,240.206667 92.72,240.66 94.32,240.66 Z M96.12,234.72 L91.6,234.72 C91.6933333,233.92 91.9433333,233.306667 92.35,232.88 C92.7566667,232.453333 93.2933333,232.24 93.96,232.24 C94.6266667,232.24 95.1466667,232.45 95.52,232.87 C95.8933333,233.29 96.0933333,233.906667 96.12,234.72 L96.12,234.72 Z M102.8,240.5 L102.8,235.22 C102.8,233.713333 103.626667,232.873333 105.28,232.7 L105.28,232.7 L106.74,232.56 L106.58,230.46 L105.82,230.52 C104.233333,230.626667 103.186667,231.266667 102.68,232.44 L102.68,232.44 L102.68,230.72 L100.3,230.72 L100.3,240.5 L102.8,240.5 Z" id="Bundler" fill-rule="nonzero"></path>
            <polygon id="Rectangle" points="0 78.5 65 105.5 65 201.5 0 171.5"></polygon>
            <polygon id="Rectangle-Copy-4" transform="translate(107.500000, 140.000000) scale(-1, 1) translate(-107.500000, -140.000000) " points="75 78.5 140 105.5 140 201.5 75 171.5"></polygon>
            <polygon id="Rectangle" transform="translate(70.000000, 69.000000) rotate(-45.000000) translate(-70.000000, -69.000000) " points="21.2096321 20.2096321 88.740855 50.9662518 118.790368 117.790368 49.8449314 89.8621754"></polygon>
        </g>
    </g>
</svg>