<?xml version="1.0" encoding="UTF-8"?>
<svg width="1200px" height="800px" viewBox="0 0 1200 800" version="1.1" xmlns="http://www.w3.org/2000/svg" xmlns:xlink="http://www.w3.org/1999/xlink">
    <title>Dependency graph</title>
    <g id="Dependency-graph" stroke="none" stroke-width="1" fill="none" fill-rule="evenodd">
        <rect id="Rectangle-Copy-7" fill="#FFFFFF" x="255" y="173" width="156" height="56"></rect>
        <rect id="Rectangle-Copy-11" fill="#FFFFFF" x="255" y="570" width="156" height="56"></rect>
        <rect id="Rectangle-Copy-10" fill="#FFFFFF" x="533" y="570" width="156" height="56"></rect>
        <rect id="Rectangle-Copy-12" fill="#FFFFFF" x="699" y="570" width="156" height="56"></rect>
        <rect id="Rectangle-Copy-13" fill="#FFFFFF" x="865" y="570" width="156" height="56"></rect>
        <path d="M305.118,197.326 L305.118,195.112 L302.634,195.112 L302.634,197.326 L305.118,197.326 Z M305.01,208 L305.01,199.198 L302.76,199.198 L302.76,208 L305.01,208 Z M309.582,208 L309.582,203.014 C309.582,202.33 309.777,201.784 310.167,201.376 C310.557,200.968 311.076,200.764 311.724,200.764 C312.276,200.764 312.681,200.92 312.939,201.232 C313.197,201.544 313.326,202.042 313.326,202.726 L313.326,202.726 L313.326,208 L315.576,208 L315.576,202.6 C315.576,201.388 315.318,200.482 314.802,199.882 C314.286,199.282 313.5,198.982 312.444,198.982 C311.808,198.982 311.238,199.114 310.734,199.378 C310.23,199.642 309.828,200.02 309.528,200.512 L309.528,200.512 L309.528,199.198 L307.332,199.198 L307.332,208 L309.582,208 Z M321.282,208.144 C321.918,208.144 322.485,208.006 322.983,207.73 C323.481,207.454 323.862,207.07 324.126,206.578 L324.126,206.578 L324.126,208 L326.358,208 L326.358,195.31 L324.108,195.31 L324.108,200.494 C323.844,200.014 323.466,199.642 322.974,199.378 C322.482,199.114 321.918,198.982 321.282,198.982 C320.514,198.982 319.836,199.168 319.248,199.54 C318.66,199.912 318.201,200.44 317.871,201.124 C317.541,201.808 317.376,202.606 317.376,203.518 C317.376,204.43 317.541,205.237 317.871,205.939 C318.201,206.641 318.663,207.184 319.257,207.568 C319.851,207.952 320.526,208.144 321.282,208.144 Z M321.876,206.398 C321.168,206.398 320.616,206.146 320.22,205.642 C319.824,205.138 319.626,204.43 319.626,203.518 C319.626,202.618 319.824,201.928 320.22,201.448 C320.616,200.968 321.174,200.728 321.894,200.728 C322.602,200.728 323.151,200.971 323.541,201.457 C323.931,201.943 324.126,202.642 324.126,203.554 C324.126,204.466 323.931,205.168 323.541,205.66 C323.151,206.152 322.596,206.398 321.876,206.398 Z M332.856,208.144 C333.48,208.144 334.101,208.042 334.719,207.838 C335.337,207.634 335.85,207.364 336.258,207.028 L336.258,207.028 L335.61,205.48 C334.806,206.104 333.918,206.416 332.946,206.416 C332.166,206.416 331.566,206.218 331.146,205.822 C330.726,205.426 330.48,204.82 330.408,204.004 L330.408,204.004 L336.402,204.004 L336.402,203.374 C336.402,202.006 336.051,200.932 335.349,200.152 C334.647,199.372 333.69,198.982 332.478,198.982 C331.65,198.982 330.909,199.174 330.255,199.558 C329.601,199.942 329.094,200.482 328.734,201.178 C328.374,201.874 328.194,202.672 328.194,203.572 C328.194,204.988 328.611,206.104 329.445,206.92 C330.279,207.736 331.416,208.144 332.856,208.144 Z M334.476,202.798 L330.408,202.798 C330.492,202.078 330.717,201.526 331.083,201.142 C331.449,200.758 331.932,200.566 332.532,200.566 C333.132,200.566 333.6,200.755 333.936,201.133 C334.272,201.511 334.452,202.066 334.476,202.798 L334.476,202.798 Z M339.534,208 L341.856,205.066 L344.196,208 L346.86,208 L343.152,203.464 L346.644,199.198 L343.962,199.198 L341.856,201.88 L339.75,199.198 L337.068,199.198 L340.56,203.464 L336.87,208 L339.534,208 Z M350.136,208 L350.136,205.516 L347.616,205.516 L347.616,208 L350.136,208 Z M354.618,197.326 L354.618,195.112 L352.134,195.112 L352.134,197.326 L354.618,197.326 Z M349.938,211.33 L350.784,211.276 C352.128,211.192 353.088,210.868 353.664,210.304 C354.24,209.74 354.528,208.84 354.528,207.604 L354.528,207.604 L354.528,199.198 L352.278,199.198 L352.278,208 C352.278,208.528 352.146,208.921 351.882,209.179 C351.618,209.437 351.21,209.584 350.658,209.62 L350.658,209.62 L349.776,209.692 L349.938,211.33 Z M360.09,208.144 C361.218,208.144 362.112,207.904 362.772,207.424 C363.432,206.944 363.762,206.296 363.762,205.48 C363.762,204.808 363.558,204.265 363.15,203.851 C362.742,203.437 362.1,203.134 361.224,202.942 L361.224,202.942 L359.73,202.6 C359.346,202.516 359.067,202.396 358.893,202.24 C358.719,202.084 358.632,201.886 358.632,201.646 C358.632,201.322 358.77,201.07 359.046,200.89 C359.322,200.71 359.706,200.62 360.198,200.62 C361.11,200.62 362.022,200.95 362.934,201.61 L362.934,201.61 L363.564,200.08 C363.12,199.732 362.607,199.462 362.025,199.27 C361.443,199.078 360.84,198.982 360.216,198.982 C359.496,198.982 358.863,199.096 358.317,199.324 C357.771,199.552 357.345,199.873 357.039,200.287 C356.733,200.701 356.58,201.178 356.58,201.718 C356.58,202.366 356.778,202.894 357.174,203.302 C357.57,203.71 358.176,204.004 358.992,204.184 L358.992,204.184 L360.432,204.508 C360.912,204.628 361.245,204.76 361.431,204.904 C361.617,205.048 361.71,205.252 361.71,205.516 C361.71,205.828 361.575,206.068 361.305,206.236 C361.035,206.404 360.642,206.488 360.126,206.488 C358.914,206.488 357.84,206.146 356.904,205.462 L356.904,205.462 L356.274,207.028 C356.73,207.388 357.285,207.664 357.939,207.856 C358.593,208.048 359.31,208.144 360.09,208.144 Z" id="index.js" fill="#0F1931" fill-rule="nonzero"></path>
        <path d="M298.494,605 L298.494,597.89 L300.816,597.89 L300.816,596.198 L298.494,596.198 L298.494,595.784 C298.494,595.16 298.644,594.707 298.944,594.425 C299.244,594.143 299.748,593.984 300.456,593.948 L300.456,593.948 L301.302,593.912 L301.158,592.238 L300.276,592.292 C298.896,592.364 297.879,592.718 297.225,593.354 C296.571,593.99 296.244,594.938 296.244,596.198 L296.244,596.198 L294.552,596.198 L294.552,597.89 L296.244,597.89 L296.244,605 L298.494,605 Z M306.09,605.144 C306.99,605.144 307.779,604.958 308.457,604.586 C309.135,604.214 309.657,603.68 310.023,602.984 C310.389,602.288 310.572,601.478 310.572,600.554 C310.572,599.63 310.389,598.823 310.023,598.133 C309.657,597.443 309.135,596.912 308.457,596.54 C307.779,596.168 306.99,595.982 306.09,595.982 C305.19,595.982 304.401,596.168 303.723,596.54 C303.045,596.912 302.52,597.443 302.148,598.133 C301.776,598.823 301.59,599.63 301.59,600.554 C301.59,601.478 301.776,602.288 302.148,602.984 C302.52,603.68 303.045,604.214 303.723,604.586 C304.401,604.958 305.19,605.144 306.09,605.144 Z M306.072,603.398 C305.352,603.398 304.8,603.158 304.416,602.678 C304.032,602.198 303.84,601.49 303.84,600.554 C303.84,599.63 304.035,598.925 304.425,598.439 C304.815,597.953 305.37,597.71 306.09,597.71 C306.81,597.71 307.362,597.953 307.746,598.439 C308.13,598.925 308.322,599.63 308.322,600.554 C308.322,601.49 308.13,602.198 307.746,602.678 C307.362,603.158 306.804,603.398 306.072,603.398 Z M314.676,605 L314.676,600.014 C314.676,599.33 314.871,598.784 315.261,598.376 C315.651,597.968 316.17,597.764 316.818,597.764 C317.37,597.764 317.775,597.92 318.033,598.232 C318.291,598.544 318.42,599.042 318.42,599.726 L318.42,599.726 L318.42,605 L320.67,605 L320.67,599.6 C320.67,598.388 320.412,597.482 319.896,596.882 C319.38,596.282 318.594,595.982 317.538,595.982 C316.902,595.982 316.332,596.114 315.828,596.378 C315.324,596.642 314.922,597.02 314.622,597.512 L314.622,597.512 L314.622,596.198 L312.426,596.198 L312.426,605 L314.676,605 Z M327.186,605.126 C327.486,605.126 327.816,605.108 328.176,605.072 L328.176,605.072 L328.284,603.398 C327.996,603.434 327.72,603.452 327.456,603.452 C326.364,603.452 325.818,602.864 325.818,601.688 L325.818,601.688 L325.818,597.89 L328.14,597.89 L328.14,596.198 L325.818,596.198 L325.818,593.57 L323.568,593.57 L323.568,596.198 L321.876,596.198 L321.876,597.89 L323.568,597.89 L323.568,601.724 C323.568,602.852 323.862,603.701 324.45,604.271 C325.038,604.841 325.95,605.126 327.186,605.126 Z M331.92,605 L331.92,602.516 L329.4,602.516 L329.4,605 L331.92,605 Z M338.454,605 L340.56,599.33 L342.72,605 L344.682,605 L348.138,596.198 L345.942,596.198 L343.71,602.354 L341.46,596.198 L339.84,596.198 L337.59,602.318 L335.34,596.198 L333.036,596.198 L336.51,605 L338.454,605 Z M353.484,605.144 C354.384,605.144 355.173,604.958 355.851,604.586 C356.529,604.214 357.051,603.68 357.417,602.984 C357.783,602.288 357.966,601.478 357.966,600.554 C357.966,599.63 357.783,598.823 357.417,598.133 C357.051,597.443 356.529,596.912 355.851,596.54 C355.173,596.168 354.384,595.982 353.484,595.982 C352.584,595.982 351.795,596.168 351.117,596.54 C350.439,596.912 349.914,597.443 349.542,598.133 C349.17,598.823 348.984,599.63 348.984,600.554 C348.984,601.478 349.17,602.288 349.542,602.984 C349.914,603.68 350.439,604.214 351.117,604.586 C351.795,604.958 352.584,605.144 353.484,605.144 Z M353.466,603.398 C352.746,603.398 352.194,603.158 351.81,602.678 C351.426,602.198 351.234,601.49 351.234,600.554 C351.234,599.63 351.429,598.925 351.819,598.439 C352.209,597.953 352.764,597.71 353.484,597.71 C354.204,597.71 354.756,597.953 355.14,598.439 C355.524,598.925 355.716,599.63 355.716,600.554 C355.716,601.49 355.524,602.198 355.14,602.678 C354.756,603.158 354.198,603.398 353.466,603.398 Z M362.682,605 L362.682,597.89 L365.004,597.89 L365.004,596.198 L362.682,596.198 L362.682,595.784 C362.682,595.16 362.832,594.707 363.132,594.425 C363.432,594.143 363.936,593.984 364.644,593.948 L364.644,593.948 L365.49,593.912 L365.346,592.238 L364.464,592.292 C363.084,592.364 362.067,592.718 361.413,593.354 C360.759,593.99 360.432,594.938 360.432,596.198 L360.432,596.198 L358.74,596.198 L358.74,597.89 L360.432,597.89 L360.432,605 L362.682,605 Z M369.126,605 L369.126,597.89 L371.448,597.89 L371.448,596.198 L369.126,596.198 L369.126,595.784 C369.126,595.16 369.276,594.707 369.576,594.425 C369.876,594.143 370.38,593.984 371.088,593.948 L371.088,593.948 L371.934,593.912 L371.79,592.238 L370.908,592.292 C369.528,592.364 368.511,592.718 367.857,593.354 C367.203,593.99 366.876,594.938 366.876,596.198 L366.876,596.198 L365.184,596.198 L365.184,597.89 L366.876,597.89 L366.876,605 L369.126,605 Z" id="font.woff" fill="#0F1931" fill-rule="nonzero"></path>
        <g id="Group-2" transform="translate(533.000000, 371.000000)"></g>
        <path d="M569.852,605.144 C570.608,605.144 571.283,604.952 571.877,604.568 C572.471,604.184 572.933,603.641 573.263,602.939 C573.593,602.237 573.758,601.43 573.758,600.518 C573.758,599.606 573.593,598.808 573.263,598.124 C572.933,597.44 572.474,596.912 571.886,596.54 C571.298,596.168 570.62,595.982 569.852,595.982 C569.228,595.982 568.67,596.111 568.178,596.369 C567.686,596.627 567.308,596.996 567.044,597.476 L567.044,597.476 L567.044,592.31 L564.794,592.31 L564.794,605 L567.008,605 L567.008,603.578 C567.272,604.07 567.653,604.454 568.151,604.73 C568.649,605.006 569.216,605.144 569.852,605.144 Z M569.258,603.398 C568.538,603.398 567.983,603.152 567.593,602.66 C567.203,602.168 567.008,601.466 567.008,600.554 C567.008,599.642 567.203,598.943 567.593,598.457 C567.983,597.971 568.538,597.728 569.258,597.728 C569.978,597.728 570.533,597.968 570.923,598.448 C571.313,598.928 571.508,599.618 571.508,600.518 C571.508,601.43 571.31,602.138 570.914,602.642 C570.518,603.146 569.966,603.398 569.258,603.398 Z M578.42,605.144 C578.996,605.144 579.503,605.012 579.941,604.748 C580.379,604.484 580.7,604.118 580.904,603.65 L580.904,603.65 L580.904,605 L583.046,605 L583.046,599.654 C583.046,598.406 582.746,597.482 582.146,596.882 C581.546,596.282 580.628,595.982 579.392,595.982 C578.768,595.982 578.108,596.084 577.412,596.288 C576.716,596.492 576.122,596.75 575.63,597.062 L575.63,597.062 L576.26,598.61 C576.752,598.322 577.253,598.097 577.763,597.935 C578.273,597.773 578.762,597.692 579.23,597.692 C579.83,597.692 580.259,597.824 580.517,598.088 C580.775,598.352 580.904,598.784 580.904,599.384 L580.904,599.384 L580.904,599.798 L580.454,599.798 C579.146,599.798 578.12,599.882 577.376,600.05 C576.632,600.218 576.095,600.488 575.765,600.86 C575.435,601.232 575.27,601.742 575.27,602.39 C575.27,602.906 575.408,603.374 575.684,603.794 C575.96,604.214 576.338,604.544 576.818,604.784 C577.298,605.024 577.832,605.144 578.42,605.144 Z M578.87,603.524 C578.462,603.524 578.126,603.401 577.862,603.155 C577.598,602.909 577.466,602.594 577.466,602.21 C577.466,601.898 577.562,601.652 577.754,601.472 C577.946,601.292 578.264,601.166 578.708,601.094 C579.152,601.022 579.776,600.986 580.58,600.986 L580.58,600.986 L580.904,600.986 L580.904,601.364 C580.904,602 580.715,602.519 580.337,602.921 C579.959,603.323 579.47,603.524 578.87,603.524 Z M587.582,605 L587.582,600.014 C587.582,599.33 587.777,598.784 588.167,598.376 C588.557,597.968 589.076,597.764 589.724,597.764 C590.276,597.764 590.681,597.92 590.939,598.232 C591.197,598.544 591.326,599.042 591.326,599.726 L591.326,599.726 L591.326,605 L593.576,605 L593.576,599.6 C593.576,598.388 593.318,597.482 592.802,596.882 C592.286,596.282 591.5,595.982 590.444,595.982 C589.808,595.982 589.238,596.114 588.734,596.378 C588.23,596.642 587.828,597.02 587.528,597.512 L587.528,597.512 L587.528,596.198 L585.332,596.198 L585.332,605 L587.582,605 Z M598.112,605 L598.112,600.014 C598.112,599.33 598.307,598.784 598.697,598.376 C599.087,597.968 599.606,597.764 600.254,597.764 C600.806,597.764 601.211,597.92 601.469,598.232 C601.727,598.544 601.856,599.042 601.856,599.726 L601.856,599.726 L601.856,605 L604.106,605 L604.106,599.6 C604.106,598.388 603.848,597.482 603.332,596.882 C602.816,596.282 602.03,595.982 600.974,595.982 C600.338,595.982 599.768,596.114 599.264,596.378 C598.76,596.642 598.358,597.02 598.058,597.512 L598.058,597.512 L598.058,596.198 L595.862,596.198 L595.862,605 L598.112,605 Z M610.568,605.144 C611.192,605.144 611.813,605.042 612.431,604.838 C613.049,604.634 613.562,604.364 613.97,604.028 L613.97,604.028 L613.322,602.48 C612.518,603.104 611.63,603.416 610.658,603.416 C609.878,603.416 609.278,603.218 608.858,602.822 C608.438,602.426 608.192,601.82 608.12,601.004 L608.12,601.004 L614.114,601.004 L614.114,600.374 C614.114,599.006 613.763,597.932 613.061,597.152 C612.359,596.372 611.402,595.982 610.19,595.982 C609.362,595.982 608.621,596.174 607.967,596.558 C607.313,596.942 606.806,597.482 606.446,598.178 C606.086,598.874 605.906,599.672 605.906,600.572 C605.906,601.988 606.323,603.104 607.157,603.92 C607.991,604.736 609.128,605.144 610.568,605.144 Z M612.188,599.798 L608.12,599.798 C608.204,599.078 608.429,598.526 608.795,598.142 C609.161,597.758 609.644,597.566 610.244,597.566 C610.844,597.566 611.312,597.755 611.648,598.133 C611.984,598.511 612.164,599.066 612.188,599.798 L612.188,599.798 Z M618.2,605 L618.2,600.248 C618.2,598.892 618.944,598.136 620.432,597.98 L620.432,597.98 L621.746,597.854 L621.602,595.964 L620.918,596.018 C619.49,596.114 618.548,596.69 618.092,597.746 L618.092,597.746 L618.092,596.198 L615.95,596.198 L615.95,605 L618.2,605 Z M625.166,605 L625.166,602.516 L622.646,602.516 L622.646,605 L625.166,605 Z M629.558,608.24 L629.558,603.65 C629.822,604.118 630.2,604.484 630.692,604.748 C631.184,605.012 631.742,605.144 632.366,605.144 C633.134,605.144 633.812,604.958 634.4,604.586 C634.988,604.214 635.447,603.686 635.777,603.002 C636.107,602.318 636.272,601.52 636.272,600.608 C636.272,599.696 636.107,598.889 635.777,598.187 C635.447,597.485 634.985,596.942 634.391,596.558 C633.797,596.174 633.122,595.982 632.366,595.982 C631.73,595.982 631.163,596.117 630.665,596.387 C630.167,596.657 629.786,597.038 629.522,597.53 L629.522,597.53 L629.522,596.198 L627.308,596.198 L627.308,608.24 L629.558,608.24 Z M631.772,603.398 C631.052,603.398 630.497,603.152 630.107,602.66 C629.717,602.168 629.522,601.472 629.522,600.572 C629.522,599.66 629.717,598.958 630.107,598.466 C630.497,597.974 631.052,597.728 631.772,597.728 C632.48,597.728 633.032,597.98 633.428,598.484 C633.824,598.988 634.022,599.696 634.022,600.608 C634.022,601.496 633.824,602.183 633.428,602.669 C633.032,603.155 632.48,603.398 631.772,603.398 Z M640.376,605 L640.376,600.014 C640.376,599.33 640.571,598.784 640.961,598.376 C641.351,597.968 641.87,597.764 642.518,597.764 C643.07,597.764 643.475,597.92 643.733,598.232 C643.991,598.544 644.12,599.042 644.12,599.726 L644.12,599.726 L644.12,605 L646.37,605 L646.37,599.6 C646.37,598.388 646.112,597.482 645.596,596.882 C645.08,596.282 644.294,595.982 643.238,595.982 C642.602,595.982 642.032,596.114 641.528,596.378 C641.024,596.642 640.622,597.02 640.322,597.512 L640.322,597.512 L640.322,596.198 L638.126,596.198 L638.126,605 L640.376,605 Z M652.706,608.384 C654.194,608.384 655.319,608.03 656.081,607.322 C656.843,606.614 657.224,605.57 657.224,604.19 L657.224,604.19 L657.224,596.198 L654.992,596.198 L654.992,597.53 C654.728,597.038 654.344,596.657 653.84,596.387 C653.336,596.117 652.76,595.982 652.112,595.982 C651.344,595.982 650.66,596.165 650.06,596.531 C649.46,596.897 648.995,597.413 648.665,598.079 C648.335,598.745 648.17,599.51 648.17,600.374 C648.17,601.238 648.338,602 648.674,602.66 C649.01,603.32 649.475,603.833 650.069,604.199 C650.663,604.565 651.344,604.748 652.112,604.748 C652.76,604.748 653.336,604.613 653.84,604.343 C654.344,604.073 654.728,603.692 654.992,603.2 L654.992,603.2 L654.992,604.352 C654.992,605.888 654.212,606.656 652.652,606.656 C651.488,606.656 650.36,606.326 649.268,605.666 L649.268,605.666 L648.638,607.25 C649.166,607.61 649.784,607.889 650.492,608.087 C651.2,608.285 651.938,608.384 652.706,608.384 Z M652.706,603.002 C651.998,603.002 651.44,602.765 651.032,602.291 C650.624,601.817 650.42,601.178 650.42,600.374 C650.42,599.546 650.624,598.898 651.032,598.43 C651.44,597.962 651.998,597.728 652.706,597.728 C653.426,597.728 653.987,597.962 654.389,598.43 C654.791,598.898 654.992,599.546 654.992,600.374 C654.992,601.19 654.791,601.832 654.389,602.3 C653.987,602.768 653.426,603.002 652.706,603.002 Z" id="banner.png" fill="#0F1931" fill-rule="nonzero"></path>
        <path d="M735.465,608.24 L735.465,603.65 C735.729,604.118 736.107,604.484 736.599,604.748 C737.091,605.012 737.649,605.144 738.273,605.144 C739.041,605.144 739.719,604.958 740.307,604.586 C740.895,604.214 741.354,603.686 741.684,603.002 C742.014,602.318 742.179,601.52 742.179,600.608 C742.179,599.696 742.014,598.889 741.684,598.187 C741.354,597.485 740.892,596.942 740.298,596.558 C739.704,596.174 739.029,595.982 738.273,595.982 C737.637,595.982 737.07,596.117 736.572,596.387 C736.074,596.657 735.693,597.038 735.429,597.53 L735.429,597.53 L735.429,596.198 L733.215,596.198 L733.215,608.24 L735.465,608.24 Z M737.679,603.398 C736.959,603.398 736.404,603.152 736.014,602.66 C735.624,602.168 735.429,601.472 735.429,600.572 C735.429,599.66 735.624,598.958 736.014,598.466 C736.404,597.974 736.959,597.728 737.679,597.728 C738.387,597.728 738.939,597.98 739.335,598.484 C739.731,598.988 739.929,599.696 739.929,600.608 C739.929,601.496 739.731,602.183 739.335,602.669 C738.939,603.155 738.387,603.398 737.679,603.398 Z M746.283,605 L746.283,600.248 C746.283,598.892 747.027,598.136 748.515,597.98 L748.515,597.98 L749.829,597.854 L749.685,595.964 L749.001,596.018 C747.573,596.114 746.631,596.69 746.175,597.746 L746.175,597.746 L746.175,596.198 L744.033,596.198 L744.033,605 L746.283,605 Z M754.941,605.144 C755.841,605.144 756.63,604.958 757.308,604.586 C757.986,604.214 758.508,603.68 758.874,602.984 C759.24,602.288 759.423,601.478 759.423,600.554 C759.423,599.63 759.24,598.823 758.874,598.133 C758.508,597.443 757.986,596.912 757.308,596.54 C756.63,596.168 755.841,595.982 754.941,595.982 C754.041,595.982 753.252,596.168 752.574,596.54 C751.896,596.912 751.371,597.443 750.999,598.133 C750.627,598.823 750.441,599.63 750.441,600.554 C750.441,601.478 750.627,602.288 750.999,602.984 C751.371,603.68 751.896,604.214 752.574,604.586 C753.252,604.958 754.041,605.144 754.941,605.144 Z M754.923,603.398 C754.203,603.398 753.651,603.158 753.267,602.678 C752.883,602.198 752.691,601.49 752.691,600.554 C752.691,599.63 752.886,598.925 753.276,598.439 C753.666,597.953 754.221,597.71 754.941,597.71 C755.661,597.71 756.213,597.953 756.597,598.439 C756.981,598.925 757.173,599.63 757.173,600.554 C757.173,601.49 756.981,602.198 756.597,602.678 C756.213,603.158 755.655,603.398 754.923,603.398 Z M770.097,594.344 L770.097,592.094 L767.577,592.094 L767.577,594.344 L770.097,594.344 Z M764.139,605 L764.139,597.89 L767.703,597.89 L767.703,605 L769.953,605 L769.953,596.198 L764.139,596.198 L764.139,595.766 C764.139,595.178 764.277,594.737 764.553,594.443 C764.829,594.149 765.303,593.984 765.975,593.948 L765.975,593.948 L766.821,593.912 L766.713,592.238 L765.939,592.274 C764.583,592.334 763.569,592.685 762.897,593.327 C762.225,593.969 761.889,594.926 761.889,596.198 L761.889,596.198 L760.197,596.198 L760.197,597.89 L761.889,597.89 L761.889,605 L764.139,605 Z M774.543,605 L774.543,592.31 L772.293,592.31 L772.293,605 L774.543,605 Z M781.041,605.144 C781.665,605.144 782.286,605.042 782.904,604.838 C783.522,604.634 784.035,604.364 784.443,604.028 L784.443,604.028 L783.795,602.48 C782.991,603.104 782.103,603.416 781.131,603.416 C780.351,603.416 779.751,603.218 779.331,602.822 C778.911,602.426 778.665,601.82 778.593,601.004 L778.593,601.004 L784.587,601.004 L784.587,600.374 C784.587,599.006 784.236,597.932 783.534,597.152 C782.832,596.372 781.875,595.982 780.663,595.982 C779.835,595.982 779.094,596.174 778.44,596.558 C777.786,596.942 777.279,597.482 776.919,598.178 C776.559,598.874 776.379,599.672 776.379,600.572 C776.379,601.988 776.796,603.104 777.63,603.92 C778.464,604.736 779.601,605.144 781.041,605.144 Z M782.661,599.798 L778.593,599.798 C778.677,599.078 778.902,598.526 779.268,598.142 C779.634,597.758 780.117,597.566 780.717,597.566 C781.317,597.566 781.785,597.755 782.121,598.133 C782.457,598.511 782.637,599.066 782.661,599.798 L782.661,599.798 Z M788.745,605 L788.745,602.516 L786.225,602.516 L786.225,605 L788.745,605 Z M793.137,608.24 L793.137,603.65 C793.401,604.118 793.779,604.484 794.271,604.748 C794.763,605.012 795.321,605.144 795.945,605.144 C796.713,605.144 797.391,604.958 797.979,604.586 C798.567,604.214 799.026,603.686 799.356,603.002 C799.686,602.318 799.851,601.52 799.851,600.608 C799.851,599.696 799.686,598.889 799.356,598.187 C799.026,597.485 798.564,596.942 797.97,596.558 C797.376,596.174 796.701,595.982 795.945,595.982 C795.309,595.982 794.742,596.117 794.244,596.387 C793.746,596.657 793.365,597.038 793.101,597.53 L793.101,597.53 L793.101,596.198 L790.887,596.198 L790.887,608.24 L793.137,608.24 Z M795.351,603.398 C794.631,603.398 794.076,603.152 793.686,602.66 C793.296,602.168 793.101,601.472 793.101,600.572 C793.101,599.66 793.296,598.958 793.686,598.466 C794.076,597.974 794.631,597.728 795.351,597.728 C796.059,597.728 796.611,597.98 797.007,598.484 C797.403,598.988 797.601,599.696 797.601,600.608 C797.601,601.496 797.403,602.183 797.007,602.669 C796.611,603.155 796.059,603.398 795.351,603.398 Z M803.955,605 L803.955,600.014 C803.955,599.33 804.15,598.784 804.54,598.376 C804.93,597.968 805.449,597.764 806.097,597.764 C806.649,597.764 807.054,597.92 807.312,598.232 C807.57,598.544 807.699,599.042 807.699,599.726 L807.699,599.726 L807.699,605 L809.949,605 L809.949,599.6 C809.949,598.388 809.691,597.482 809.175,596.882 C808.659,596.282 807.873,595.982 806.817,595.982 C806.181,595.982 805.611,596.114 805.107,596.378 C804.603,596.642 804.201,597.02 803.901,597.512 L803.901,597.512 L803.901,596.198 L801.705,596.198 L801.705,605 L803.955,605 Z M816.285,608.384 C817.773,608.384 818.898,608.03 819.66,607.322 C820.422,606.614 820.803,605.57 820.803,604.19 L820.803,604.19 L820.803,596.198 L818.571,596.198 L818.571,597.53 C818.307,597.038 817.923,596.657 817.419,596.387 C816.915,596.117 816.339,595.982 815.691,595.982 C814.923,595.982 814.239,596.165 813.639,596.531 C813.039,596.897 812.574,597.413 812.244,598.079 C811.914,598.745 811.749,599.51 811.749,600.374 C811.749,601.238 811.917,602 812.253,602.66 C812.589,603.32 813.054,603.833 813.648,604.199 C814.242,604.565 814.923,604.748 815.691,604.748 C816.339,604.748 816.915,604.613 817.419,604.343 C817.923,604.073 818.307,603.692 818.571,603.2 L818.571,603.2 L818.571,604.352 C818.571,605.888 817.791,606.656 816.231,606.656 C815.067,606.656 813.939,606.326 812.847,605.666 L812.847,605.666 L812.217,607.25 C812.745,607.61 813.363,607.889 814.071,608.087 C814.779,608.285 815.517,608.384 816.285,608.384 Z M816.285,603.002 C815.577,603.002 815.019,602.765 814.611,602.291 C814.203,601.817 813.999,601.178 813.999,600.374 C813.999,599.546 814.203,598.898 814.611,598.43 C815.019,597.962 815.577,597.728 816.285,597.728 C817.005,597.728 817.566,597.962 817.968,598.43 C818.37,598.898 818.571,599.546 818.571,600.374 C818.571,601.19 818.37,601.832 817.968,602.3 C817.566,602.768 817.005,603.002 816.285,603.002 Z" id="profile.png" fill="#0F1931" fill-rule="nonzero"></path>
        <path d="M925.369,605.144 C925.957,605.144 926.485,605.015 926.953,604.757 C927.421,604.499 927.793,604.13 928.069,603.65 L928.069,603.65 L928.069,605 L930.265,605 L930.265,596.198 L928.015,596.198 L928.015,601.094 C928.015,601.778 927.826,602.327 927.448,602.741 C927.07,603.155 926.569,603.362 925.945,603.362 C925.405,603.362 925.009,603.212 924.757,602.912 C924.505,602.612 924.379,602.15 924.379,601.526 L924.379,601.526 L924.379,596.198 L922.129,596.198 L922.129,601.508 C922.129,603.932 923.209,605.144 925.369,605.144 Z M936.835,605.126 C937.135,605.126 937.465,605.108 937.825,605.072 L937.825,605.072 L937.933,603.398 C937.645,603.434 937.369,603.452 937.105,603.452 C936.013,603.452 935.467,602.864 935.467,601.688 L935.467,601.688 L935.467,597.89 L937.789,597.89 L937.789,596.198 L935.467,596.198 L935.467,593.57 L933.217,593.57 L933.217,596.198 L931.525,596.198 L931.525,597.89 L933.217,597.89 L933.217,601.724 C933.217,602.852 933.511,603.701 934.099,604.271 C934.687,604.841 935.599,605.126 936.835,605.126 Z M941.605,594.326 L941.605,592.112 L939.121,592.112 L939.121,594.326 L941.605,594.326 Z M941.497,605 L941.497,596.198 L939.247,596.198 L939.247,605 L941.497,605 Z M946.069,605 L946.069,592.31 L943.819,592.31 L943.819,605 L946.069,605 Z M950.713,605 L950.713,602.516 L948.193,602.516 L948.193,605 L950.713,605 Z M955.195,594.326 L955.195,592.112 L952.711,592.112 L952.711,594.326 L955.195,594.326 Z M950.515,608.33 L951.361,608.276 C952.705,608.192 953.665,607.868 954.241,607.304 C954.817,606.74 955.105,605.84 955.105,604.604 L955.105,604.604 L955.105,596.198 L952.855,596.198 L952.855,605 C952.855,605.528 952.723,605.921 952.459,606.179 C952.195,606.437 951.787,606.584 951.235,606.62 L951.235,606.62 L950.353,606.692 L950.515,608.33 Z M960.667,605.144 C961.795,605.144 962.689,604.904 963.349,604.424 C964.009,603.944 964.339,603.296 964.339,602.48 C964.339,601.808 964.135,601.265 963.727,600.851 C963.319,600.437 962.677,600.134 961.801,599.942 L961.801,599.942 L960.307,599.6 C959.923,599.516 959.644,599.396 959.47,599.24 C959.296,599.084 959.209,598.886 959.209,598.646 C959.209,598.322 959.347,598.07 959.623,597.89 C959.899,597.71 960.283,597.62 960.775,597.62 C961.687,597.62 962.599,597.95 963.511,598.61 L963.511,598.61 L964.141,597.08 C963.697,596.732 963.184,596.462 962.602,596.27 C962.02,596.078 961.417,595.982 960.793,595.982 C960.073,595.982 959.44,596.096 958.894,596.324 C958.348,596.552 957.922,596.873 957.616,597.287 C957.31,597.701 957.157,598.178 957.157,598.718 C957.157,599.366 957.355,599.894 957.751,600.302 C958.147,600.71 958.753,601.004 959.569,601.184 L959.569,601.184 L961.009,601.508 C961.489,601.628 961.822,601.76 962.008,601.904 C962.194,602.048 962.287,602.252 962.287,602.516 C962.287,602.828 962.152,603.068 961.882,603.236 C961.612,603.404 961.219,603.488 960.703,603.488 C959.491,603.488 958.417,603.146 957.481,602.462 L957.481,602.462 L956.851,604.028 C957.307,604.388 957.862,604.664 958.516,604.856 C959.17,605.048 959.887,605.144 960.667,605.144 Z" id="util.js" fill="#0F1931" fill-rule="nonzero"></path>
        <polygon id="Line-6" fill="#FFFFFF" fill-rule="nonzero" points="335 228 335 343 343 343 333.5 362 324 343 332 343 332 228"></polygon>
        <polygon id="Line-6-Copy" fill="#FFFFFF" fill-rule="nonzero" points="335 426 335 541 343 541 333.5 560 324 541 332 541 332 426"></polygon>
        <polygon id="Line-6-Copy-2" fill="#FFFFFF" fill-rule="nonzero" points="613 426 613 541 621 541 611.5 560 602 541 610 541 610 426"></polygon>
        <g id="Group-3" transform="translate(255.000000, 371.000000)">
            <rect id="Rectangle-Copy-8" fill="#FFFFFF" x="0" y="0" width="156" height="56"></rect>
            <path d="M47.571,35.144 C48.699,35.144 49.593,34.904 50.253,34.424 C50.913,33.944 51.243,33.296 51.243,32.48 C51.243,31.808 51.039,31.265 50.631,30.851 C50.223,30.437 49.581,30.134 48.705,29.942 L48.705,29.942 L47.211,29.6 C46.827,29.516 46.548,29.396 46.374,29.24 C46.2,29.084 46.113,28.886 46.113,28.646 C46.113,28.322 46.251,28.07 46.527,27.89 C46.803,27.71 47.187,27.62 47.679,27.62 C48.591,27.62 49.503,27.95 50.415,28.61 L50.415,28.61 L51.045,27.08 C50.601,26.732 50.088,26.462 49.506,26.27 C48.924,26.078 48.321,25.982 47.697,25.982 C46.977,25.982 46.344,26.096 45.798,26.324 C45.252,26.552 44.826,26.873 44.52,27.287 C44.214,27.701 44.061,28.178 44.061,28.718 C44.061,29.366 44.259,29.894 44.655,30.302 C45.051,30.71 45.657,31.004 46.473,31.184 L46.473,31.184 L47.913,31.508 C48.393,31.628 48.726,31.76 48.912,31.904 C49.098,32.048 49.191,32.252 49.191,32.516 C49.191,32.828 49.056,33.068 48.786,33.236 C48.516,33.404 48.123,33.488 47.607,33.488 C46.395,33.488 45.321,33.146 44.385,32.462 L44.385,32.462 L43.755,34.028 C44.211,34.388 44.766,34.664 45.42,34.856 C46.074,35.048 46.791,35.144 47.571,35.144 Z M57.291,35.126 C57.591,35.126 57.921,35.108 58.281,35.072 L58.281,35.072 L58.389,33.398 C58.101,33.434 57.825,33.452 57.561,33.452 C56.469,33.452 55.923,32.864 55.923,31.688 L55.923,31.688 L55.923,27.89 L58.245,27.89 L58.245,26.198 L55.923,26.198 L55.923,23.57 L53.673,23.57 L53.673,26.198 L51.981,26.198 L51.981,27.89 L53.673,27.89 L53.673,31.724 C53.673,32.852 53.967,33.701 54.555,34.271 C55.143,34.841 56.055,35.126 57.291,35.126 Z M62.799,38.24 L68.091,26.216 L65.877,26.216 L63.321,32.426 L60.837,26.216 L58.461,26.216 L62.133,34.658 L60.531,38.24 L62.799,38.24 Z M71.421,35 L71.421,22.31 L69.171,22.31 L69.171,35 L71.421,35 Z M77.919,35.144 C78.543,35.144 79.164,35.042 79.782,34.838 C80.4,34.634 80.913,34.364 81.321,34.028 L81.321,34.028 L80.673,32.48 C79.869,33.104 78.981,33.416 78.009,33.416 C77.229,33.416 76.629,33.218 76.209,32.822 C75.789,32.426 75.543,31.82 75.471,31.004 L75.471,31.004 L81.465,31.004 L81.465,30.374 C81.465,29.006 81.114,27.932 80.412,27.152 C79.71,26.372 78.753,25.982 77.541,25.982 C76.713,25.982 75.972,26.174 75.318,26.558 C74.664,26.942 74.157,27.482 73.797,28.178 C73.437,28.874 73.257,29.672 73.257,30.572 C73.257,31.988 73.674,33.104 74.508,33.92 C75.342,34.736 76.479,35.144 77.919,35.144 Z M79.539,29.798 L75.471,29.798 C75.555,29.078 75.78,28.526 76.146,28.142 C76.512,27.758 76.995,27.566 77.595,27.566 C78.195,27.566 78.663,27.755 78.999,28.133 C79.335,28.511 79.515,29.066 79.539,29.798 L79.539,29.798 Z M85.623,35 L85.623,32.516 L83.103,32.516 L83.103,35 L85.623,35 Z M91.779,35.144 C92.427,35.144 93.051,35.045 93.651,34.847 C94.251,34.649 94.743,34.376 95.127,34.028 L95.127,34.028 L94.479,32.462 C94.107,32.762 93.714,32.99 93.3,33.146 C92.886,33.302 92.475,33.38 92.067,33.38 C91.287,33.38 90.681,33.137 90.249,32.651 C89.817,32.165 89.601,31.472 89.601,30.572 C89.601,29.66 89.817,28.961 90.249,28.475 C90.681,27.989 91.287,27.746 92.067,27.746 C92.475,27.746 92.886,27.824 93.3,27.98 C93.714,28.136 94.107,28.364 94.479,28.664 L94.479,28.664 L95.127,27.08 C94.767,26.744 94.29,26.477 93.696,26.279 C93.102,26.081 92.493,25.982 91.869,25.982 C90.957,25.982 90.153,26.174 89.457,26.558 C88.761,26.942 88.224,27.485 87.846,28.187 C87.468,28.889 87.279,29.696 87.279,30.608 C87.279,31.52 87.459,32.318 87.819,33.002 C88.179,33.686 88.698,34.214 89.376,34.586 C90.054,34.958 90.855,35.144 91.779,35.144 Z M99.789,35.144 C100.917,35.144 101.811,34.904 102.471,34.424 C103.131,33.944 103.461,33.296 103.461,32.48 C103.461,31.808 103.257,31.265 102.849,30.851 C102.441,30.437 101.799,30.134 100.923,29.942 L100.923,29.942 L99.429,29.6 C99.045,29.516 98.766,29.396 98.592,29.24 C98.418,29.084 98.331,28.886 98.331,28.646 C98.331,28.322 98.469,28.07 98.745,27.89 C99.021,27.71 99.405,27.62 99.897,27.62 C100.809,27.62 101.721,27.95 102.633,28.61 L102.633,28.61 L103.263,27.08 C102.819,26.732 102.306,26.462 101.724,26.27 C101.142,26.078 100.539,25.982 99.915,25.982 C99.195,25.982 98.562,26.096 98.016,26.324 C97.47,26.552 97.044,26.873 96.738,27.287 C96.432,27.701 96.279,28.178 96.279,28.718 C96.279,29.366 96.477,29.894 96.873,30.302 C97.269,30.71 97.875,31.004 98.691,31.184 L98.691,31.184 L100.131,31.508 C100.611,31.628 100.944,31.76 101.13,31.904 C101.316,32.048 101.409,32.252 101.409,32.516 C101.409,32.828 101.274,33.068 101.004,33.236 C100.734,33.404 100.341,33.488 99.825,33.488 C98.613,33.488 97.539,33.146 96.603,32.462 L96.603,32.462 L95.973,34.028 C96.429,34.388 96.984,34.664 97.638,34.856 C98.292,35.048 99.009,35.144 99.789,35.144 Z M108.519,35.144 C109.647,35.144 110.541,34.904 111.201,34.424 C111.861,33.944 112.191,33.296 112.191,32.48 C112.191,31.808 111.987,31.265 111.579,30.851 C111.171,30.437 110.529,30.134 109.653,29.942 L109.653,29.942 L108.159,29.6 C107.775,29.516 107.496,29.396 107.322,29.24 C107.148,29.084 107.061,28.886 107.061,28.646 C107.061,28.322 107.199,28.07 107.475,27.89 C107.751,27.71 108.135,27.62 108.627,27.62 C109.539,27.62 110.451,27.95 111.363,28.61 L111.363,28.61 L111.993,27.08 C111.549,26.732 111.036,26.462 110.454,26.27 C109.872,26.078 109.269,25.982 108.645,25.982 C107.925,25.982 107.292,26.096 106.746,26.324 C106.2,26.552 105.774,26.873 105.468,27.287 C105.162,27.701 105.009,28.178 105.009,28.718 C105.009,29.366 105.207,29.894 105.603,30.302 C105.999,30.71 106.605,31.004 107.421,31.184 L107.421,31.184 L108.861,31.508 C109.341,31.628 109.674,31.76 109.86,31.904 C110.046,32.048 110.139,32.252 110.139,32.516 C110.139,32.828 110.004,33.068 109.734,33.236 C109.464,33.404 109.071,33.488 108.555,33.488 C107.343,33.488 106.269,33.146 105.333,32.462 L105.333,32.462 L104.703,34.028 C105.159,34.388 105.714,34.664 106.368,34.856 C107.022,35.048 107.739,35.144 108.519,35.144 Z" id="style.css" fill="#0F1931" fill-rule="nonzero"></path>
        </g>
        <polygon id="Path-3" fill="#FFFFFF" fill-rule="nonzero" points="612.5 199.5 612.5 342.5 620.5 342.5 611 361.5 601.5 342.5 609.5 342.5 609.5 202.5 411 202.5 411 199.5"></polygon>
        <rect id="Rectangle-Copy-9" fill="#FFFFFF" x="533" y="371" width="156" height="56"></rect>
        <path d="M588.671,406.144 C589.259,406.144 589.787,406.015 590.255,405.757 C590.723,405.499 591.095,405.13 591.371,404.65 L591.371,404.65 L591.371,406 L593.567,406 L593.567,397.198 L591.317,397.198 L591.317,402.094 C591.317,402.778 591.128,403.327 590.75,403.741 C590.372,404.155 589.871,404.362 589.247,404.362 C588.707,404.362 588.311,404.212 588.059,403.912 C587.807,403.612 587.681,403.15 587.681,402.526 L587.681,402.526 L587.681,397.198 L585.431,397.198 L585.431,402.508 C585.431,404.932 586.511,406.144 588.671,406.144 Z M599.147,406.144 C600.275,406.144 601.169,405.904 601.829,405.424 C602.489,404.944 602.819,404.296 602.819,403.48 C602.819,402.808 602.615,402.265 602.207,401.851 C601.799,401.437 601.157,401.134 600.281,400.942 L600.281,400.942 L598.787,400.6 C598.403,400.516 598.124,400.396 597.95,400.24 C597.776,400.084 597.689,399.886 597.689,399.646 C597.689,399.322 597.827,399.07 598.103,398.89 C598.379,398.71 598.763,398.62 599.255,398.62 C600.167,398.62 601.079,398.95 601.991,399.61 L601.991,399.61 L602.621,398.08 C602.177,397.732 601.664,397.462 601.082,397.27 C600.5,397.078 599.897,396.982 599.273,396.982 C598.553,396.982 597.92,397.096 597.374,397.324 C596.828,397.552 596.402,397.873 596.096,398.287 C595.79,398.701 595.637,399.178 595.637,399.718 C595.637,400.366 595.835,400.894 596.231,401.302 C596.627,401.71 597.233,402.004 598.049,402.184 L598.049,402.184 L599.489,402.508 C599.969,402.628 600.302,402.76 600.488,402.904 C600.674,403.048 600.767,403.252 600.767,403.516 C600.767,403.828 600.632,404.068 600.362,404.236 C600.092,404.404 599.699,404.488 599.183,404.488 C597.971,404.488 596.897,404.146 595.961,403.462 L595.961,403.462 L595.331,405.028 C595.787,405.388 596.342,405.664 596.996,405.856 C597.65,406.048 598.367,406.144 599.147,406.144 Z M608.813,406.144 C609.437,406.144 610.058,406.042 610.676,405.838 C611.294,405.634 611.807,405.364 612.215,405.028 L612.215,405.028 L611.567,403.48 C610.763,404.104 609.875,404.416 608.903,404.416 C608.123,404.416 607.523,404.218 607.103,403.822 C606.683,403.426 606.437,402.82 606.365,402.004 L606.365,402.004 L612.359,402.004 L612.359,401.374 C612.359,400.006 612.008,398.932 611.306,398.152 C610.604,397.372 609.647,396.982 608.435,396.982 C607.607,396.982 606.866,397.174 606.212,397.558 C605.558,397.942 605.051,398.482 604.691,399.178 C604.331,399.874 604.151,400.672 604.151,401.572 C604.151,402.988 604.568,404.104 605.402,404.92 C606.236,405.736 607.373,406.144 608.813,406.144 Z M610.433,400.798 L606.365,400.798 C606.449,400.078 606.674,399.526 607.04,399.142 C607.406,398.758 607.889,398.566 608.489,398.566 C609.089,398.566 609.557,398.755 609.893,399.133 C610.229,399.511 610.409,400.066 610.433,400.798 L610.433,400.798 Z M616.445,406 L616.445,401.248 C616.445,399.892 617.189,399.136 618.677,398.98 L618.677,398.98 L619.991,398.854 L619.847,396.964 L619.163,397.018 C617.735,397.114 616.793,397.69 616.337,398.746 L616.337,398.746 L616.337,397.198 L614.195,397.198 L614.195,406 L616.445,406 Z M623.411,406 L623.411,403.516 L620.891,403.516 L620.891,406 L623.411,406 Z M627.893,395.326 L627.893,393.112 L625.409,393.112 L625.409,395.326 L627.893,395.326 Z M623.213,409.33 L624.059,409.276 C625.403,409.192 626.363,408.868 626.939,408.304 C627.515,407.74 627.803,406.84 627.803,405.604 L627.803,405.604 L627.803,397.198 L625.553,397.198 L625.553,406 C625.553,406.528 625.421,406.921 625.157,407.179 C624.893,407.437 624.485,407.584 623.933,407.62 L623.933,407.62 L623.051,407.692 L623.213,409.33 Z M633.365,406.144 C634.493,406.144 635.387,405.904 636.047,405.424 C636.707,404.944 637.037,404.296 637.037,403.48 C637.037,402.808 636.833,402.265 636.425,401.851 C636.017,401.437 635.375,401.134 634.499,400.942 L634.499,400.942 L633.005,400.6 C632.621,400.516 632.342,400.396 632.168,400.24 C631.994,400.084 631.907,399.886 631.907,399.646 C631.907,399.322 632.045,399.07 632.321,398.89 C632.597,398.71 632.981,398.62 633.473,398.62 C634.385,398.62 635.297,398.95 636.209,399.61 L636.209,399.61 L636.839,398.08 C636.395,397.732 635.882,397.462 635.3,397.27 C634.718,397.078 634.115,396.982 633.491,396.982 C632.771,396.982 632.138,397.096 631.592,397.324 C631.046,397.552 630.62,397.873 630.314,398.287 C630.008,398.701 629.855,399.178 629.855,399.718 C629.855,400.366 630.053,400.894 630.449,401.302 C630.845,401.71 631.451,402.004 632.267,402.184 L632.267,402.184 L633.707,402.508 C634.187,402.628 634.52,402.76 634.706,402.904 C634.892,403.048 634.985,403.252 634.985,403.516 C634.985,403.828 634.85,404.068 634.58,404.236 C634.31,404.404 633.917,404.488 633.401,404.488 C632.189,404.488 631.115,404.146 630.179,403.462 L630.179,403.462 L629.549,405.028 C630.005,405.388 630.56,405.664 631.214,405.856 C631.868,406.048 632.585,406.144 633.365,406.144 Z" id="user.js" fill="#0F1931" fill-rule="nonzero"></path>
        <polygon id="Path-4" fill="#FFFFFF" fill-rule="nonzero" points="778.5 459.321899 778.5 541 786.5 541 777 560 767.5 541 775.5 541 775.5 462.321 611 462.321899 611 459.321899"></polygon>
        <polygon id="Path-5" fill="#FFFFFF" fill-rule="nonzero" points="944.5 459.321899 944.5 541 952.5 541 943 560 933.5 541 941.5 541 941.5 462.321 777 462.321899 777 459.321899"></polygon>
    </g>
</svg>