<svg id="Layer_1" data-name="Layer 1" xmlns="http://www.w3.org/2000/svg" viewBox="0 0 2201.02 926.33"><defs><style>.cls-1{fill:#00e4ad;}.cls-1,.cls-10,.cls-11,.cls-12,.cls-13,.cls-14,.cls-15,.cls-16,.cls-2,.cls-3,.cls-4,.cls-5,.cls-6,.cls-7,.cls-8,.cls-9{stroke:#000;stroke-width:6px;}.cls-1,.cls-10,.cls-11,.cls-12,.cls-13,.cls-14,.cls-2,.cls-3,.cls-4,.cls-6,.cls-9{stroke-linecap:round;}.cls-1,.cls-10,.cls-11,.cls-12,.cls-13,.cls-14,.cls-2,.cls-3,.cls-4,.cls-6,.cls-7,.cls-8,.cls-9{stroke-linejoin:round;}.cls-2{fill:#ef9a6a;}.cls-16,.cls-3{fill:#1f66f9;}.cls-4{fill:#ff7eef;}.cls-14,.cls-5{fill:#88725a;}.cls-15,.cls-16,.cls-5{stroke-miterlimit:10;}.cls-15,.cls-6{fill:none;}.cls-7{fill:#110f0f;}.cls-8{fill:#221d1d;}.cls-9{fill:#ffd500;}.cls-11{fill:#7bf3ff;}.cls-12{fill:#ff9600;}.cls-13{fill:#997c00;}.cls-17{fill:#fff;}</style></defs><rect class="cls-1" x="751.68" y="57.39" width="690.89" height="690.89"/><rect class="cls-1" x="61.83" y="57.39" width="690.89" height="690.89"/><rect class="cls-1" x="1442.29" y="57.39" width="690.89" height="690.89"/><path class="cls-2" d="M1015.63,610.19l2.52-404.65,205.39-22.94L1254.8,200l39.62,242,72,62.79,75.63,80.79V748.33l-497.58-.84s70.33-90.41,71.16-137.3"/><path class="cls-3" d="M1305,484.05c-72.11,125.7-240,90.42-240,90.42l-15.07,43s66.42,17.3,159.63-2.79C1300.75,595,1354.15,487.4,1354.15,487.4Z"/><path class="cls-4" d="M1043.26,487.4s-39.63,6.7-34,47.44-20.86,44.91-36.84,44.65c-22.89-.37-35.84,20.14-26.79,42.42,5.91,14.58,24.74,25.68,58.6,22.89,37.14-3.06,57.68-26.24,63.63-52.28,5.83-25.52-4.59-50.29,12.84-63.26,24-17.86,61.58,24.93,87.25-30.88"/><path class="cls-2" d="M962.33,446.24,986.89,183,976.5,179.3a28.7,28.7,0,0,0-34.31,12.61l-4.42,7.34-57.91,64.91a103,103,0,0,0-25.81,71.31l.12,4.32a146.12,146.12,0,0,0,10.4,50.38L898,473.55l15.11,31.79c9.76,20.54,40.29,15.55,43-7Z"/><path class="cls-2" d="M1222.62,182.09c-146.25-41.46-235.73,2.3-235.73,2.3L945.22,306.45l-4.64,146.66a48.61,48.61,0,0,0,2.9,18.13l14,38.47a44,44,0,0,0,58.63,25.19l24.32-7.87s35.14,34.69,85.48,33.4c38-1,79.3-29.2,89.65-88.67"/><path class="cls-5" d="M1004.66,368.85l29.2,4a33.17,33.17,0,0,0,8.15.1l52-5.83a32.77,32.77,0,0,1,21.83,5.29l1.07.71a31.06,31.06,0,0,1,13.47,31.61l-6.87,36.46a31.54,31.54,0,0,1-18.71,23.08l-52,22.28a32.8,32.8,0,0,1-32-3.52l-32.37-23.4A31.32,31.32,0,0,1,976,440.78l-7.32-34.45a30.84,30.84,0,0,1,5.18-24.44h0A32.49,32.49,0,0,1,1004.66,368.85Z"/><path class="cls-6" d="M1063.37,471c-6.85-9-12-25.59-13-44.73s2.19-35.91,7.92-45.68"/><path class="cls-6" d="M1020.73,471.67c6.9-9,12.13-25.52,13.29-44.66s-2-35.91-7.65-45.72"/><path class="cls-7" d="M1068.79,403c1.55-6.9,4.59-14.16,10.13-17a19.11,19.11,0,0,1,10.7-2c6.7,1,11.46,3.11,15.55,7.27,4.75,4.83,5.14,11.15,3.7,17.16-1.89,7.93-8.78,14.15-9.82,22.23-.4,3.1.11,6.23.45,9.33a27.25,27.25,0,0,1-.33,10,11.56,11.56,0,0,1-6,7.71,11.12,11.12,0,0,1-9.63-.7,21.15,21.15,0,0,1-7.13-6.86c-5.34-7.72-7.68-17-8.87-26.23A56.6,56.6,0,0,1,1068.79,403Z"/><path class="cls-8" d="M1093.18,457.76s-6.69.88-9.63-.7a21.15,21.15,0,0,1-7.13-6.86c-5.34-7.72-7.68-17-8.87-26.23a56.6,56.6,0,0,1,1.24-21c1.55-6.9,4.59-14.16,10.13-17a19.11,19.11,0,0,1,10.7-2s-12.14,15.75-6.77,24.62C1094.7,428.26,1076.12,424.16,1093.18,457.76Z"/><path class="cls-8" d="M1020.38,401c-1.55-6.9-4.51-14.19-9.7-17.08a17.16,17.16,0,0,0-10-2.13c-6.2.84-10.58,2.91-14.31,7-4.33,4.73-4.58,11-3.14,17,1.89,7.93,8.39,14.24,9.5,22.31a42.37,42.37,0,0,1-.26,9.28,29.2,29.2,0,0,0,.47,10c.87,3.25,2.83,6.35,5.7,7.77a9.64,9.64,0,0,0,8.93-.53,19.19,19.19,0,0,0,6.5-6.71c4.83-7.6,6.85-16.83,7.79-26A60.71,60.71,0,0,0,1020.38,401Z"/><path class="cls-7" d="M998.67,455.16s6.23,1,8.93-.53a19.19,19.19,0,0,0,6.5-6.71c4.83-7.6,6.85-16.83,7.79-26a60.71,60.71,0,0,0-1.51-20.95c-1.55-6.9-4.51-14.19-9.7-17.08a17.16,17.16,0,0,0-10-2.13s11.55,15.9,6.72,24.65C996.76,425.75,1013.94,422,998.67,455.16Z"/><path class="cls-6" d="M1102.84,420.84s-4.52,8.31-3.17,14.25c1.95,8.58,17,12.87,24.81.31"/><path class="cls-6" d="M992.19,426.43a19.53,19.53,0,0,1-.06,7.54c-1.36,8.58-12,13-17.52.44"/><path class="cls-6" d="M985.49,370.75l38.89-52.27A84.73,84.73,0,0,0,1040,282l7.49-44.32"/><path class="cls-6" d="M1144.47,249.81l-13.58,39.45a29.8,29.8,0,0,0,1.36,22.68L1178.8,408"/><circle class="cls-9" cx="1185.03" cy="293.17" r="36.84"/><circle class="cls-9" cx="1004.19" cy="284.8" r="33.77"/><path class="cls-10" d="M1163.82,266.38a27.18,27.18,0,0,0-4.45.37,36.81,36.81,0,0,0,0,52.84,27.18,27.18,0,0,0,4.45.37,26.79,26.79,0,0,0,0-53.58Z"/><path class="cls-10" d="M987.08,260.24a24.62,24.62,0,0,0-7.12,1.05,33.74,33.74,0,0,0,0,47,24.56,24.56,0,1,0,7.12-48.07Z"/><path class="cls-6" d="M1240.43,281.13a63.7,63.7,0,0,0-75-49.95"/><path class="cls-6" d="M1033.79,232a48.34,48.34,0,0,0-67.07,13.46"/><circle cx="1070.61" cy="497.63" r="4.4"/><circle cx="1018.15" cy="500.98" r="4.4"/><circle cx="1006.42" cy="519.77" r="4.4"/><circle cx="984.89" cy="502.28" r="4.4"/><circle cx="973.87" cy="480.15" r="4.4"/><circle cx="1090.73" cy="518.65" r="4.4"/><circle cx="1113.03" cy="501.73" r="4.4"/><circle cx="1138.7" cy="525.54" r="4.4"/><line class="cls-6" x1="1039.91" y1="526.47" x2="1039.91" y2="489.08"/><line class="cls-6" x1="1121.12" y1="376.61" x2="1126.15" y2="345.63"/><path class="cls-2" d="M1223.54,182.6l27-15.54a31.52,31.52,0,0,1,35.4,2.55l107,83.18c13.73,10.68,20,29.25,15.84,46.89l-53,224.2c-5.06,21.42-30.19,28.39-44.31,12.3l-61.34-69.93a49.29,49.29,0,0,1-11.53-38.46l14.68-117.88a124.84,124.84,0,0,0-5.46-55Z"/><path class="cls-11" d="M827,545.94c-15.34-8.33-19.81-21.65-14.78-30.91s17.66-11,33-2.63,76.19,63.1,76.19,63.1S842.31,554.27,827,545.94Z"/><path class="cls-11" d="M829.14,646.37c-17.25,4.54-28,.49-30.62-9.39s4-21.84,21.21-26.38,100.63-7.35,100.63-7.35S846.39,641.84,829.14,646.37Z"/><path class="cls-11" d="M889.42,705.45c-9.65,10.94-23.52,12-31.18,5.21S852,691.93,861.67,681s67.53-48.61,67.53-48.61S899.07,694.52,889.42,705.45Z"/><path class="cls-6" d="M1173.31,625.26s8.93,24.56,35.72,27.35c0,0-12.84,16.75-41.3,10,0,0,26.23,42.42,87.62,26.23,0,0-17.3,29.58-51.34,23.44,0,0,33.48,27.35,78.14,11.72,0,0-2.24,20.1-21.21,23.44"/><path class="cls-6" d="M943.91,599.87s32.38,32.65,74.51,6.42c25.63-16,20.66-38.8,20.66-77.31"/><path class="cls-9" d="M827.94,217.77a19.13,19.13,0,1,1-15.82,21.95A19.15,19.15,0,0,1,827.94,217.77ZM812,206.09,793.12,103.53l31.26-5.07,14.55,103.26Z"/><path class="cls-9" d="M891.49,166.57a11.77,11.77,0,1,1-13.33,10A11.79,11.79,0,0,1,891.49,166.57Zm-7.21-9.78,7.77-63.7,19.3,2.77-10.46,63.31Z"/><path class="cls-9" d="M196.83,625.37l-13.25,5.07,13.9,36.37L178.69,674l-36.18-94.65,35.56-13.59c20.69-7.91,37.56-.25,43.87,16.24,3.41,8.93,4.1,21.68-8.06,32.84l39.45,30.64-21.64,8.27Zm-15-42.46-14.33,5.47,9.82,25.7,14.33-5.48c10.41-4,14.64-11.17,11.53-19.29C200,580.93,192.25,578.93,181.84,582.91Z"/><path class="cls-9" d="M236.36,543.47a12.13,12.13,0,0,1,15.69,7,12.09,12.09,0,0,1-22.58,8.63A12.12,12.12,0,0,1,236.36,543.47Zm45.77,91-17.58,6.72-18-47.06-8.65,3.31-5.69-14.88,26.23-10Z"/><path class="cls-9" d="M308.82,551.42c13.39-5.11,26.24-.26,31.77,14.21l15.51,40.56-17.58,6.72-13.8-36.1c-3-7.85-9.24-9.18-14.78-7.06-5.14,2-8.66,6.56-10.43,12L314.85,622l-17.57,6.72-23.67-61.93,17.17-6.56.93,2.43c.83,2.16,1.59,5,1.59,5A26.08,26.08,0,0,1,308.82,551.42Z"/><path class="cls-9" d="M409.64,514.75l25.43,66.53c3.72,9.73,2.42,20.93-12.59,26.66l-26.91,10.29-5.69-14.88,22.58-8.63c3.11-1.19,6.32-3.34,4.51-8.08l-4.55-11.89c-1.06,6.14-6.84,13.31-15.63,16.66-16.77,6.41-34.61-1.34-42-20.67s.55-37.1,17.32-43.5c9.32-3.57,18.14-2,23.27,2.1-.26-.67-1-1.79-2.23-5l-1.09-2.84Zm-14.72,60c9.33-3.57,13.05-12.89,9.23-22.9s-12.87-14.61-22.2-11-12.92,12.84-9,23S385.73,578.28,394.92,574.77Z"/><path class="cls-9" d="M510.17,661.51l-9.6,3.67,10.08,26.36L497,696.75l-26.21-68.6,25.77-9.85c15-5.73,27.22-.18,31.79,11.77,2.47,6.47,3,15.71-5.84,23.8l28.59,22.21-15.68,6Zm-10.86-30.78-10.39,4L496,653.32l10.39-4c7.54-2.88,10.6-8.09,8.36-14C512.47,629.3,506.86,627.85,499.31,630.73Z"/><path class="cls-9" d="M538.82,602.15a8.8,8.8,0,0,1,11.38,5.09,8.76,8.76,0,0,1-16.37,6.26A8.79,8.79,0,0,1,538.82,602.15Zm33.18,66L559.26,673l-13-34.11-6.27,2.4-4.12-10.78,19-7.27Z"/><path class="cls-9" d="M591.34,607.92c9.7-3.71,19-.2,23,10.29l11.23,29.4-12.74,4.87-10-26.17c-2.17-5.68-6.69-6.65-10.71-5.11-3.73,1.42-6.27,4.75-7.56,8.73L595.71,659,583,663.9,565.82,619l12.45-4.76.67,1.76c.6,1.57,1.15,3.61,1.15,3.61A18.89,18.89,0,0,1,591.34,607.92Z"/><path class="cls-9" d="M664.41,581.34l18.43,48.21c2.69,7.06,1.75,15.17-9.13,19.33l-19.5,7.45-4.12-10.78,16.37-6.25c2.25-.86,4.57-2.43,3.26-5.86l-3.29-8.62c-.77,4.45-5,9.65-11.33,12.08-12.16,4.64-25.09-1-30.44-15s.39-26.88,12.55-31.52c6.76-2.59,13.15-1.44,16.87,1.52-.19-.49-.72-1.29-1.62-3.65l-.79-2Zm-10.67,43.5c6.77-2.59,9.46-9.34,6.69-16.6s-9.33-10.59-16.09-8-9.36,9.3-6.55,16.65S647.08,627.38,653.74,624.84Z"/><path class="cls-6" d="M534,167.6s137.46,54.49,113,213.32"/><path class="cls-6" d="M602.11,158.41s92.12,33.69,93.63,165.67"/><path class="cls-6" d="M222.62,453.09s-98.18-118.48,3.56-251.2"/><path class="cls-6" d="M155.9,427.43s-67.21-76.83-2.57-198"/><path class="cls-12" d="M272.7,57.36c38.87,30.68,75.47,75.89,92.42,143.72h-27.9c-19.4-77.58-66-119.85-112.43-143.48Z"/><circle class="cls-9" cx="340.48" cy="170.73" r="31.4"/><path class="cls-9" d="M301.53,483.51C335.44,426.1,280.2,293,280.2,293a99.63,99.63,0,1,1,186.58-69.93s37.33,111.55,81.83,148.61"/><path class="cls-9" d="M571.8,378.28l-10.35-27.61c-3.63-9.69-68.14,5.52-144.08,34s-134.56,59.4-130.93,69.09l10.35,27.61"/><path class="cls-6" d="M454.25,199.69c-25.57,6.3-58.94,16.8-94.87,30.27-32.85,12.32-62.46,25.09-85.19,36.41"/><path class="cls-6" d="M468.17,227.11c-26,6.19-60.69,17-98.21,31.07-34.46,12.92-65.34,26.34-88.47,38.06"/><ellipse class="cls-13" cx="434.29" cy="429.82" rx="146.85" ry="15.71" transform="translate(-123.23 179.77) rotate(-20.55)"/><path class="cls-9" d="M471,401.09a46,46,0,1,1-78.42,28.64s24.08-9.7,40.29-15.6C446.58,409.13,471,401.09,471,401.09Z"/><path class="cls-2" d="M1790.89,654.58h-33s2.09-41.38,55-30.91"/><path class="cls-2" d="M1904.8,444.29l-23.57,138.27-25.92,80.92H1772s3.93-43,40.85-39.81l16.5-46.61,2.36-142.19"/><path class="cls-2" d="M1798.74,661.91s5.24-23,27.24-21.48"/><path class="cls-2" d="M1822,712.15h-12.26s-6.88-36,50.07-33.14"/><path class="cls-2" d="M1693.91,360.31l1.08-5.38a50.71,50.71,0,0,1,11.16-23l88.48-103.56a179.27,179.27,0,0,1,126.55-53.88l58.7-.52,153.8-29.47-.37,264.56L2027.8,450.92,1960.24,626.5l-7.47,60.1-13.88-15.18-16.08,31.63a26.44,26.44,0,0,1-23.57,14.45h-77c7.33-42.94,53.42-41.89,53.42-41.89l29.1-59.56L1919.06,503a24.55,24.55,0,0,0-6.8-18.65l-20.77-21.64L1842,461.53l-18.85,30.63-7.07-24.74-5.24,17.18a10.7,10.7,0,0,1-13,7.23l-20.63-5.56L1765,547.45a18.07,18.07,0,0,1-2.83,6.7c-10.53,15.36-57.22,83.36-60.35,86.5h-94.28l10.57-60.24a13.13,13.13,0,0,0-3.88-11.79l-14.49-13.8a18.92,18.92,0,0,1-5.81-12.28c-1.72-22.55-4.82-91.51,17.3-131.46a16.28,16.28,0,0,1,5.63-5.91l48.5-30.43a17.74,17.74,0,0,1,16.92-1.05h0"/><path class="cls-6" d="M1614.17,552.39c15.85,0,28.68-12,28.68-26.84"/><polygon class="cls-4" points="1773.28 717.15 1545.03 717.15 1568.74 654.79 1744.71 654.79 1773.28 717.15"/><path class="cls-14" d="M1580,654.2s7.85-23.77,27.1-18.27c0,0,14.14-29.85,42.29-10.6,0,0,22.13-15.32,30.38,10.21,0,0,18.86-18.07,31.82,6.28,0,0,19.51-5.5,20.56,12.84Z"/><path class="cls-15" d="M1656.3,438.27h0a20.3,20.3,0,0,1-17.12,15.14l-3.83.48a19.36,19.36,0,0,0-16.87,17.63l-.25,3a30,30,0,0,0,9.15,24.12l64.82,62.13a26.67,26.67,0,0,0,44.63-14.2l15.91-82.44a24.77,24.77,0,0,0-6.34-21.74l-7.62-8.05a19.54,19.54,0,0,0-23.43-3.8l-.55.3a20.65,20.65,0,0,1-24.71-4h0a11.77,11.77,0,0,0-12-3.13l-11.29,3.51A15.59,15.59,0,0,0,1656.3,438.27Z"/><path class="cls-16" d="M1678.2,371.83s98.59,39.42,99,114.44l21.6,5.5s5.11-95.84-103.7-130.8Z"/><path class="cls-6" d="M1847.11,717.64s7.07-29.46,35.35-23.7"/><path class="cls-2" d="M2007.77,331.9s36.53,51.85,20,119"/><path class="cls-2" d="M1889.53,328.94l9,32.37s9.79-9.79,13.56-21.83c0,0,5.27,27.1-.76,33.12,0,0,18.07-1.5,26.35-21.83,0,0,4.52,24.09-2.25,31.62,0,0,20.32-1.5,26.35-27.86"/><rect class="cls-12" x="1566.52" y="57.52" width="20.91" height="70.05"/><circle class="cls-9" cx="1575.82" cy="131.09" r="18.26"/><path class="cls-9" d="M1490.74,293.51c30.2-24.36,27.28-108.12,27.28-108.12a58,58,0,1,1,115.91,0s-3.41,95.45,25.32,109.09"/><path class="cls-9" d="M1659.45,291.37V274.22c0-6-38.25-10.91-85.43-10.91s-85.42,4.88-85.42,10.91v17.15"/><path class="cls-6" d="M1631.88,170.09a518.68,518.68,0,0,0-57.86-2.88,538.7,538.7,0,0,0-53.84,2.44"/><path class="cls-6" d="M1633.86,187.86c-15.41-1.93-36.53-3.12-59.84-3.12a529.65,529.65,0,0,0-56,2.66"/><ellipse class="cls-13" cx="1574.02" cy="291.37" rx="85.42" ry="9.14"/><path class="cls-9" d="M1599.86,283.2a26.78,26.78,0,1,1-48.56-.41s15.09-.36,25.12-.27C1584.94,282.6,1599.86,283.2,1599.86,283.2Z"/><path class="cls-17" d="M190.62,828.61h-29v12.47h16.95v9H161.59v13.53h29v9.05H151V819.49h39.6Z"/><path class="cls-17" d="M210.46,862.05l7.9-24.16h10.41L216.38,872.7H204.15l-11.86-34.81H203Z"/><path class="cls-17" d="M266.7,858.18H240.78a8.27,8.27,0,0,0,15,3.42L266,862.66c-3.11,7.45-9.65,11-17.4,11-10.42,0-18.24-7.68-18.24-18.32S238,837,248.45,837c9.58,0,18.25,6.24,18.25,20.83Zm-26.15-6.61h15.58a7.55,7.55,0,0,0-7.68-6.39A7.76,7.76,0,0,0,240.55,851.57Z"/><path class="cls-17" d="M292.69,837c7.52,0,12.92,4.79,12.92,12.92V872.7h-9.88V852.4c0-4.41-2.82-6.23-5.93-6.23a9.65,9.65,0,0,0-7.37,4V872.7h-9.89V837.89h9.66v1.36c0,1.22-.15,2.74-.15,2.74A13.69,13.69,0,0,1,292.69,837Z"/><path class="cls-17" d="M326.2,824.66v13.23h7.52v8.36H326.2V862c0,2.2,1.75,2.51,3.27,2.51,2.51,0,4.56-.23,4.56-.23v8.44s-4.79.45-7.68.45c-4.94,0-10-.83-10-7.83V846.25h-5.47v-8.36h5.47V824.66Z"/><path class="cls-17" d="M392.63,819.49v9.43H376.74V872.7H366.25V828.92H350.37v-9.43Z"/><path class="cls-17" d="M412.08,847.61H407.9c-5,0-7.29,2.36-7.29,8.44V872.7h-9.89V837.89h9.58v5.54a9.17,9.17,0,0,1,9.05-6,11.54,11.54,0,0,1,2.73.3Z"/><path class="cls-17" d="M429.56,872.7h-9.88V846.25h-4.86v-8.36h14.74Zm-5.39-53.21a6.37,6.37,0,0,1,6.38,6.39,6.35,6.35,0,0,1-12.69,0A6.36,6.36,0,0,1,424.17,819.49Z"/><path class="cls-17" d="M473.34,837.89v37.39c0,5.47-2.74,10.72-11.17,10.72H447v-8.36h12.69c1.75,0,3.73-.46,3.73-3.12v-6.69c-1.67,2.81-5.86,5.25-10.8,5.25-9.42,0-16.72-7.15-16.72-18S443.16,837,452.59,837c5.24,0,9.27,2.44,11,5.4,0-.38-.15-1.06-.15-2.89v-1.59Zm-18.47,26.67c5.24,0,8.81-3.87,8.81-9.5s-3.57-9.57-8.81-9.57-8.74,3.87-8.74,9.57S449.7,864.56,454.87,864.56Z"/><path class="cls-17" d="M517.11,837.89v37.39c0,5.47-2.73,10.72-11.17,10.72H490.82v-8.36h12.69c1.75,0,3.72-.46,3.72-3.12v-6.69c-1.67,2.81-5.85,5.25-10.79,5.25-9.42,0-16.72-7.15-16.72-18S486.94,837,496.36,837c5.25,0,9.28,2.44,11,5.4,0-.38-.16-1.06-.16-2.89v-1.59Zm-18.47,26.67c5.25,0,8.82-3.87,8.82-9.5s-3.57-9.57-8.82-9.57-8.74,3.87-8.74,9.57S493.48,864.56,498.64,864.56Z"/><path class="cls-17" d="M559.75,858.18H533.83a8.27,8.27,0,0,0,15,3.42l10.26,1.06c-3.11,7.45-9.65,11-17.4,11-10.41,0-18.24-7.68-18.24-18.32S531.1,837,541.51,837c9.57,0,18.24,6.24,18.24,20.83Zm-26.15-6.61h15.58a7.54,7.54,0,0,0-7.67-6.39A7.77,7.77,0,0,0,533.6,851.57Z"/><path class="cls-17" d="M587,847.61h-4.18c-5,0-7.29,2.36-7.29,8.44V872.7H565.6V837.89h9.57v5.54a9.18,9.18,0,0,1,9.05-6,11.54,11.54,0,0,1,2.73.3Z"/><path class="cls-17" d="M626.25,858.18H600.33a8.27,8.27,0,0,0,15,3.42l10.26,1.06c-3.11,7.45-9.65,11-17.4,11-10.41,0-18.24-7.68-18.24-18.32S597.59,837,608,837c9.57,0,18.24,6.24,18.24,20.83Zm-26.15-6.61h15.58a7.54,7.54,0,0,0-7.67-6.39A7.77,7.77,0,0,0,600.1,851.57Z"/><path class="cls-17" d="M657.71,868.29c-1.75,2.88-5.85,5.32-10.87,5.32-9.57,0-16.87-7.68-16.87-18.32S637.19,837,646.77,837c5.32,0,9.34,2.44,11.09,5.4,0-1.14-.15-4-.15-6.61V819.49h9.88V872.7h-9.88Zm-17.56-13c0,5.32,3.65,9.58,8.9,9.58s8.89-4.26,8.89-9.58-3.65-9.5-8.89-9.5S640.15,849.89,640.15,855.29Z"/><path class="cls-17" d="M888.88,828.61h-29v12.47H876.8v9H859.85v13.53h29v9.05h-39.6V819.49h39.6Z"/><path class="cls-17" d="M908.72,862.05l7.9-24.16H927L914.64,872.7H902.41l-11.86-34.81h10.72Z"/><path class="cls-17" d="M965,858.18H939a8.27,8.27,0,0,0,15,3.42l10.26,1.06c-3.11,7.45-9.65,11-17.4,11-10.41,0-18.24-7.68-18.24-18.32S936.3,837,946.72,837c9.57,0,18.24,6.24,18.24,20.83Zm-26.15-6.61h15.58a7.54,7.54,0,0,0-7.67-6.39A7.77,7.77,0,0,0,938.81,851.57Z"/><path class="cls-17" d="M991,837c7.52,0,12.92,4.79,12.92,12.92V872.7H994V852.4c0-4.41-2.81-6.23-5.93-6.23a9.65,9.65,0,0,0-7.37,4V872.7h-9.88V837.89h9.65v1.36c0,1.22-.15,2.74-.15,2.74A13.69,13.69,0,0,1,991,837Z"/><path class="cls-17" d="M1024.46,824.66v13.23H1032v8.36h-7.53V862c0,2.2,1.75,2.51,3.27,2.51,2.51,0,4.56-.23,4.56-.23v8.44s-4.79.45-7.68.45c-4.94,0-10-.83-10-7.83V846.25h-5.47v-8.36h5.47V824.66Z"/><path class="cls-17" d="M1073.56,872.7h-18.24V819.49h18.24c17.4,0,27.59,10.8,27.59,26.6S1091,872.7,1073.56,872.7Zm-.38-44.16h-7.3v35.19h7.3c9.73,0,17.18-5.7,17.18-17.64C1090.36,834.31,1082.91,828.54,1073.18,828.54Z"/><path class="cls-17" d="M1141.58,858.18h-25.92a8.27,8.27,0,0,0,15,3.42l10.26,1.06c-3.12,7.45-9.66,11-17.41,11-10.41,0-18.24-7.68-18.24-18.32s7.68-18.32,18.09-18.32c9.58,0,18.24,6.24,18.24,20.83Zm-26.15-6.61H1131a7.56,7.56,0,0,0-7.68-6.39A7.77,7.77,0,0,0,1115.43,851.57Z"/><path class="cls-17" d="M1159.89,824.66v13.23h7.53v8.36h-7.53V862c0,2.2,1.75,2.51,3.27,2.51,2.51,0,4.56-.23,4.56-.23v8.44s-4.79.45-7.67.45c-5,0-10-.83-10-7.83V846.25h-5.47v-8.36H1150V824.66Z"/><path class="cls-17" d="M1208.38,858.18h-25.91a8.27,8.27,0,0,0,15,3.42l10.26,1.06c-3.12,7.45-9.65,11-17.41,11-10.41,0-18.24-7.68-18.24-18.32s7.68-18.32,18.09-18.32c9.58,0,18.24,6.24,18.24,20.83Zm-26.14-6.61h15.58a7.55,7.55,0,0,0-7.68-6.39A7.76,7.76,0,0,0,1182.24,851.57Z"/><path class="cls-17" d="M1221.91,855.29c0,5.47,3.57,9.5,8.74,9.5a8,8,0,0,0,7.67-5.32l9.28,2.89c-2.28,6.92-9.12,11.25-17,11.25-10.33,0-18.54-7.68-18.54-18.32s8.21-18.32,18.54-18.32c7.91,0,14.75,4.41,17,11.33l-9.28,2.81a8.07,8.07,0,0,0-7.67-5.32C1225.48,845.79,1221.91,849.82,1221.91,855.29Z"/><path class="cls-17" d="M1265.91,824.66v13.23h7.53v8.36h-7.53V862c0,2.2,1.75,2.51,3.27,2.51,2.51,0,4.56-.23,4.56-.23v8.44s-4.79.45-7.68.45c-4.94,0-10-.83-10-7.83V846.25h-5.47v-8.36H1256V824.66Z"/><path class="cls-17" d="M1314.4,858.18h-25.92a8.27,8.27,0,0,0,15,3.42l10.26,1.06c-3.12,7.45-9.66,11-17.41,11-10.41,0-18.24-7.68-18.24-18.32s7.68-18.32,18.09-18.32c9.58,0,18.24,6.24,18.24,20.83Zm-26.14-6.61h15.58a7.56,7.56,0,0,0-7.68-6.39A7.76,7.76,0,0,0,1288.26,851.57Z"/><path class="cls-17" d="M1345.86,868.29c-1.75,2.88-5.85,5.32-10.87,5.32-9.57,0-16.87-7.68-16.87-18.32s7.22-18.32,16.8-18.32c5.32,0,9.35,2.44,11.1,5.4,0-1.14-.16-4-.16-6.61V819.49h9.88V872.7h-9.88Zm-17.55-13c0,5.32,3.64,9.58,8.89,9.58s8.89-4.26,8.89-9.58-3.65-9.5-8.89-9.5S1328.31,849.89,1328.31,855.29Z"/><path class="cls-17" d="M1595.12,828.61h-29v12.47h17v9h-17v13.53h29v9.05h-39.6V819.49h39.6Z"/><path class="cls-17" d="M1615,862.05l7.91-24.16h10.41l-12.39,34.81h-12.24l-11.85-34.81h10.71Z"/><path class="cls-17" d="M1671.19,858.18h-25.91a8.27,8.27,0,0,0,15,3.42l10.26,1.06c-3.12,7.45-9.65,11-17.41,11-10.41,0-18.24-7.68-18.24-18.32S1642.54,837,1653,837c9.58,0,18.24,6.24,18.24,20.83Zm-26.14-6.61h15.58a7.55,7.55,0,0,0-7.68-6.39A7.76,7.76,0,0,0,1645.05,851.57Z"/><path class="cls-17" d="M1697.18,837c7.53,0,12.92,4.79,12.92,12.92V872.7h-9.88V852.4c0-4.41-2.81-6.23-5.93-6.23a9.67,9.67,0,0,0-7.37,4V872.7H1677V837.89h9.65v1.36c0,1.22-.15,2.74-.15,2.74A13.69,13.69,0,0,1,1697.18,837Z"/><path class="cls-17" d="M1730.7,824.66v13.23h7.52v8.36h-7.52V862c0,2.2,1.75,2.51,3.27,2.51,2.5,0,4.56-.23,4.56-.23v8.44s-4.79.45-7.68.45c-4.94,0-10-.83-10-7.83V846.25h-5.47v-8.36h5.47V824.66Z"/><path class="cls-17" d="M1793.25,872.7V850.12h-21.13V872.7h-10.57V819.49h10.57v21.59h21.13V819.49h10.56V872.7Z"/><path class="cls-17" d="M1832.23,849.51c0-2.5-2-4.1-5.77-4.1-3.5,0-7.91,1.75-10.49,3.27l-3.88-7.45A29.77,29.77,0,0,1,1827,837c7.9,0,15.12,3.65,15.12,12.85V872.7h-9.88v-3.27c-1.82,2.73-5.77,4.18-9.72,4.18-7.38,0-12.16-5.25-12.16-11,0-6.61,4.86-10.71,12.61-10.71h6.84c1.67,0,2.43-.76,2.43-2.06Zm0,10.72v-2.51c-.6.61-1.67.76-3,.76h-3.72c-3.12,0-4.94,1.37-4.94,3.8s1.9,4.11,4.94,4.11C1829,866.39,1832.23,864.56,1832.23,860.23Z"/><path class="cls-17" d="M1870.39,837c7.52,0,12.92,4.79,12.92,12.92V872.7h-9.88V852.4c0-4.41-2.82-6.23-5.93-6.23a9.65,9.65,0,0,0-7.37,4V872.7h-9.89V837.89h9.66v1.36c0,1.22-.15,2.74-.15,2.74A13.69,13.69,0,0,1,1870.39,837Z"/><path class="cls-17" d="M1917.05,868.29c-1.75,2.88-5.85,5.32-10.87,5.32-9.58,0-16.87-7.68-16.87-18.32S1896.53,837,1906.1,837c5.33,0,9.35,2.44,11.1,5.4,0-1.14-.15-4-.15-6.61V819.49h9.88V872.7h-9.88Zm-17.56-13c0,5.32,3.65,9.58,8.9,9.58s8.89-4.26,8.89-9.58-3.65-9.5-8.89-9.5S1899.49,849.89,1899.49,855.29Z"/><path class="cls-17" d="M1945.24,872.7h-9.8V819.49h9.8Z"/><path class="cls-17" d="M1987.88,858.18H1962a8.27,8.27,0,0,0,15,3.42l10.26,1.06c-3.12,7.45-9.65,11-17.41,11-10.41,0-18.24-7.68-18.24-18.32s7.68-18.32,18.09-18.32c9.58,0,18.24,6.24,18.24,20.83Zm-26.14-6.61h15.58a7.56,7.56,0,0,0-7.68-6.39A7.76,7.76,0,0,0,1961.74,851.57Z"/><path class="cls-17" d="M2019.34,868.29c-1.74,2.88-5.85,5.32-10.87,5.32-9.57,0-16.87-7.68-16.87-18.32s7.22-18.32,16.8-18.32c5.32,0,9.35,2.44,11.1,5.4,0-1.14-.16-4-.16-6.61V819.49h9.88V872.7h-9.88Zm-17.55-13c0,5.32,3.64,9.58,8.89,9.58s8.89-4.26,8.89-9.58-3.65-9.5-8.89-9.5S2001.79,849.89,2001.79,855.29Z"/></svg>