<svg id="Layer_1" data-name="Layer 1" xmlns="http://www.w3.org/2000/svg" viewBox="0 0 1200 800">
  <defs>
    <style>
      .cls-1 {
        fill: #f5fcff;
      }

      .cls-2 {
        fill: #10162f;
      }

      .cls-3 {
        fill: #66c4ff;
      }

      .cls-4 {
        fill: #fff;
      }

      .cls-5 {
        fill: #3a10e5;
      }
    </style>
  </defs>
  <g>
    <rect class="cls-1" x="299.2" y="519.2" width="599" height="199"/>
    <path class="cls-2" d="M897.7,519.7v198h-598v-198h598m1-1h-600v200h600v-200Z"/>
  </g>
  <path class="cls-3" d="M749.06,673.79a1.5,1.5,0,0,1-.23-3c28.38-4.36,66.26-17.35,85.62-54.48a96.7,96.7,0,0,0,11-43.14,1.5,1.5,0,1,1,3-.11c0,.87.61,21.57-11.3,44.51-11,21.16-35.17,48.08-87.89,56.19Z"/>
  <g>
    <path class="cls-4" d="M370.82,226.31H369a2.56,2.56,0,0,0-2.54-2.24c-1.6,0-2.92,1.38-2.92,4.08s1.32,4.1,2.92,4.1A2.66,2.66,0,0,0,369,230h1.9a4.49,4.49,0,0,1-4.62,3.72c-3,0-4.76-2.32-4.76-5.6s1.86-5.6,4.94-5.6A4.2,4.2,0,0,1,370.82,226.31Z"/>
    <path class="cls-4" d="M374.64,230.69c0-2.56,2.72-3.34,7.12-3.82v-.46a2.12,2.12,0,0,0-2.42-2.42,2.22,2.22,0,0,0-2.56,2.14H374.9c.18-2.32,2.22-3.62,4.46-3.62,3,0,4.26,1.32,4.22,4.3l0,2.62c0,1.8.08,3.34.14,4.06h-1.76l0-1.58a3.94,3.94,0,0,1-3.78,1.84C376.2,233.75,374.64,232.63,374.64,230.69Zm7.26-2.36c-3.28.32-5.28.78-5.28,2.32,0,1,.74,1.62,2,1.62,1.64,0,3.24-.78,3.24-3.64Z"/>
    <path class="cls-4" d="M392.26,222.73v1.92a3,3,0,0,1,2.88-1.92H397v1.68h-1.82c-2.06,0-2.86,1.36-2.86,3.72v3.78H396v1.58h-8.56v-1.58h3v-7.6H387.4v-1.58Z"/>
    <path class="cls-4" d="M406,219v12.92h3.06v1.58h-7.94v-1.58h3V220.55h-3V219Z"/>
    <path class="cls-4" d="M418,222.55c2.46,0,5,1.7,5,5.6s-2.52,5.6-5,5.6-5-1.7-5-5.6S415.52,222.55,418,222.55Zm0,9.66c1.64,0,3-1.2,3-4.06s-1.4-4.06-3-4.06-3,1.2-3,4.06S416.34,232.21,418,232.21Z"/>
    <path class="cls-4" d="M433.12,225.67c-.24-1.2-1.18-1.6-2.4-1.6s-2.16.42-2.16,1.38.56,1.22,1.62,1.44l1.2.24c1.86.36,3.86,1.06,3.86,3.22s-2,3.4-4.3,3.4c-2.8,0-4.2-1.76-4.4-3.48h1.94a2.24,2.24,0,0,0,2.5,2c1.14,0,2.4-.4,2.4-1.66,0-1-.9-1.5-2.26-1.74l-1.34-.26c-1.7-.34-3-1.18-3-3,0-2.08,2.26-3,4.06-3a4,4,0,0,1,4.24,3.12Z"/>
    <path class="cls-4" d="M439.88,235.21v-1.72h7.86v1.72Z"/>
    <path class="cls-4" d="M454.68,222c0-2.24.54-3,2.86-3h3.8v1.56h-3.76c-.9,0-1.06.28-1.06,1.4v.78h4.82v1.58h-4.82v9.18h-1.84v-9.18h-2.86v-1.58h2.86Z"/>
    <path class="cls-4" d="M464.84,228.15c0-3.46,2-5.62,4.88-5.62,3.14,0,4.94,2.3,4.8,6.14h-7.74c0,2.16,1.2,3.58,2.9,3.58a2.59,2.59,0,0,0,2.78-2h1.9a4.42,4.42,0,0,1-4.64,3.48C466.46,233.75,464.84,231.33,464.84,228.15Zm2-1h5.76a2.76,2.76,0,0,0-2.84-3.1C468,224.05,466.88,225.07,466.8,227.15Z"/>
    <path class="cls-4" d="M478,230.69c0-2.56,2.72-3.34,7.12-3.82v-.46A2.12,2.12,0,0,0,482.7,224a2.22,2.22,0,0,0-2.56,2.14h-1.88c.18-2.32,2.22-3.62,4.46-3.62,3,0,4.26,1.32,4.22,4.3l0,2.62c0,1.8.08,3.34.14,4.06H485.3l0-1.58a3.94,3.94,0,0,1-3.78,1.84C479.56,233.75,478,232.63,478,230.69Zm7.26-2.36c-3.28.32-5.28.78-5.28,2.32,0,1,.74,1.62,2,1.62,1.64,0,3.24-.78,3.24-3.64Z"/>
    <path class="cls-4" d="M493,220h1.84v2.7h4.4v1.58h-4.4v6.22c0,1.1.06,1.38,1.08,1.38h3.32v1.58H495.5c-2,0-2.52-.46-2.52-2.7v-6.48h-3.06v-1.58H493Z"/>
    <path class="cls-4" d="M510.74,232.11a3.36,3.36,0,0,1-3.16,1.64c-2.6,0-3.34-1.72-3.34-4.1v-6.92h1.84V229c0,1.74.1,3.16,2.1,3.16,1.66,0,2.56-1.22,2.56-3.52v-5.92h1.84v10.76h-1.84Z"/>
    <path class="cls-4" d="M521.46,222.73v1.92a3,3,0,0,1,2.88-1.92h1.84v1.68h-1.82c-2.06,0-2.86,1.36-2.86,3.72v3.78h3.68v1.58h-8.56v-1.58h3v-7.6H516.6v-1.58Z"/>
    <path class="cls-4" d="M529.44,228.15c0-3.46,2-5.62,4.88-5.62,3.14,0,4.94,2.3,4.8,6.14h-7.74c0,2.16,1.2,3.58,2.9,3.58a2.59,2.59,0,0,0,2.78-2H539a4.42,4.42,0,0,1-4.64,3.48C531.06,233.75,529.44,231.33,529.44,228.15Zm2-1h5.76a2.76,2.76,0,0,0-2.84-3.1C532.58,224.05,531.48,225.07,531.4,227.15Z"/>
    <path class="cls-4" d="M543.24,235.21v-1.72h7.86v1.72Z"/>
    <path class="cls-4" d="M562.52,219h1.84v14.5h-1.82l0-1.52a3.43,3.43,0,0,1-3.18,1.78c-2.48,0-4.34-2-4.34-5.6s1.86-5.6,4.34-5.6a3.41,3.41,0,0,1,3.18,1.8Zm-2.8,5.1c-1.84,0-2.78,1.5-2.78,4.06s.94,4.08,2.78,4.08c1.54,0,2.88-1.26,2.88-4.08S561.26,224.09,559.72,224.09Z"/>
    <path class="cls-4" d="M568.44,230.69c0-2.56,2.72-3.34,7.12-3.82v-.46a2.12,2.12,0,0,0-2.42-2.42,2.22,2.22,0,0,0-2.56,2.14H568.7c.18-2.32,2.22-3.62,4.46-3.62,3,0,4.26,1.32,4.22,4.3l0,2.62c0,1.8.08,3.34.14,4.06h-1.76l0-1.58a3.94,3.94,0,0,1-3.78,1.84C570,233.75,568.44,232.63,568.44,230.69Zm7.26-2.36c-3.28.32-5.28.78-5.28,2.32,0,1,.74,1.62,2,1.62,1.64,0,3.24-.78,3.24-3.64Z"/>
    <path class="cls-4" d="M588.16,225.67c-.24-1.2-1.18-1.6-2.4-1.6s-2.16.42-2.16,1.38.56,1.22,1.62,1.44l1.2.24c1.86.36,3.86,1.06,3.86,3.22s-2,3.4-4.3,3.4c-2.8,0-4.2-1.76-4.4-3.48h1.94a2.24,2.24,0,0,0,2.5,2c1.14,0,2.4-.4,2.4-1.66,0-1-.9-1.5-2.26-1.74l-1.34-.26c-1.7-.34-3-1.18-3-3,0-2.08,2.26-3,4.06-3a4,4,0,0,1,4.24,3.12Z"/>
    <path class="cls-4" d="M603.06,226.65v6.84h-1.84v-6.2c0-1.74-.12-3.2-2.12-3.2-1.66,0-2.58,1.26-2.58,3.56v5.84h-1.84V219h1.84v5.26a3.44,3.44,0,0,1,3.18-1.7C602.3,222.55,603.06,224.27,603.06,226.65Z"/>
    <path class="cls-4" d="M609.36,224.35a3.46,3.46,0,0,1,3.2-1.8c2.46,0,4.32,2.06,4.32,5.6s-1.86,5.6-4.32,5.6a3.49,3.49,0,0,1-3.2-1.78l0,1.52h-1.82V219h1.84Zm2.8,7.88c1.86,0,2.78-1.52,2.78-4.08s-.92-4.06-2.78-4.06c-1.52,0-2.88,1.22-2.88,4.06S610.64,232.23,612.16,232.23Z"/>
    <path class="cls-4" d="M624.7,222.55c2.46,0,5,1.7,5,5.6s-2.52,5.6-5,5.6-5-1.7-5-5.6S622.24,222.55,624.7,222.55Zm0,9.66c1.64,0,3-1.2,3-4.06s-1.4-4.06-3-4.06-3,1.2-3,4.06S623.06,232.21,624.7,232.21Z"/>
    <path class="cls-4" d="M633,230.69c0-2.56,2.72-3.34,7.12-3.82v-.46a2.12,2.12,0,0,0-2.42-2.42,2.22,2.22,0,0,0-2.56,2.14H633.3c.18-2.32,2.22-3.62,4.46-3.62,3,0,4.26,1.32,4.22,4.3l0,2.62c0,1.8.08,3.34.14,4.06h-1.76l0-1.58a3.94,3.94,0,0,1-3.78,1.84C634.6,233.75,633,232.63,633,230.69Zm7.26-2.36c-3.28.32-5.28.78-5.28,2.32,0,1,.74,1.62,2,1.62,1.64,0,3.24-.78,3.24-3.64Z"/>
    <path class="cls-4" d="M650.66,222.73v1.92a3,3,0,0,1,2.88-1.92h1.84v1.68h-1.82c-2.06,0-2.86,1.36-2.86,3.72v3.78h3.68v1.58h-8.56v-1.58h3v-7.6H645.8v-1.58Z"/>
    <path class="cls-4" d="M665.88,219h1.84v14.5H665.9l0-1.52a3.43,3.43,0,0,1-3.18,1.78c-2.48,0-4.34-2-4.34-5.6s1.86-5.6,4.34-5.6a3.41,3.41,0,0,1,3.18,1.8Zm-2.8,5.1c-1.84,0-2.78,1.5-2.78,4.06s.94,4.08,2.78,4.08c1.54,0,2.88-1.26,2.88-4.08S664.62,224.09,663.08,224.09Z"/>
    <path class="cls-4" d="M672.44,235.21v-1.72h7.86v1.72Z"/>
    <path class="cls-4" d="M687,224.25a3.37,3.37,0,0,1,3.16-1.7c2.6,0,3.38,1.72,3.38,4.1v6.84h-1.84v-6.2c0-1.74-.14-3.18-2.14-3.18-1.66,0-2.56,1.24-2.56,3.54v5.84h-1.84V222.73H687Z"/>
    <path class="cls-4" d="M702.22,222.55c2.46,0,5,1.7,5,5.6s-2.52,5.6-5,5.6-5-1.7-5-5.6S699.76,222.55,702.22,222.55Zm0,9.66c1.64,0,3-1.2,3-4.06s-1.4-4.06-3-4.06-3,1.2-3,4.06S700.58,232.21,702.22,232.21Z"/>
    <path class="cls-4" d="M712.62,220h1.84v2.7h4.4v1.58h-4.4v6.22c0,1.1.06,1.38,1.08,1.38h3.32v1.58h-3.72c-2,0-2.52-.46-2.52-2.7v-6.48h-3.06v-1.58h3.06Z"/>
    <path class="cls-4" d="M729.16,222.73v9.18h3.06v1.58h-7.94v-1.58h3v-7.6h-3v-1.58Zm0-3.74v2.18h-1.84V219Z"/>
    <path class="cls-4" d="M738.92,222c0-2.24.54-3,2.86-3h3.8v1.56h-3.76c-.9,0-1.06.28-1.06,1.4v.78h4.82v1.58h-4.82v9.18h-1.84v-9.18h-2.86v-1.58h2.86Z"/>
    <path class="cls-4" d="M755,222.73v9.18h3.06v1.58h-7.94v-1.58h3v-7.6h-3v-1.58Zm0-3.74v2.18h-1.84V219Z"/>
    <path class="cls-4" d="M771.34,226.31h-1.86a2.56,2.56,0,0,0-2.54-2.24c-1.6,0-2.92,1.38-2.92,4.08s1.32,4.1,2.92,4.1a2.66,2.66,0,0,0,2.62-2.22h1.9a4.49,4.49,0,0,1-4.62,3.72c-3,0-4.76-2.32-4.76-5.6s1.86-5.6,4.94-5.6A4.2,4.2,0,0,1,771.34,226.31Z"/>
    <path class="cls-4" d="M775.16,230.69c0-2.56,2.72-3.34,7.12-3.82v-.46a2.12,2.12,0,0,0-2.42-2.42,2.22,2.22,0,0,0-2.56,2.14h-1.88c.18-2.32,2.22-3.62,4.46-3.62,3,0,4.26,1.32,4.22,4.3l0,2.62c0,1.8.08,3.34.14,4.06h-1.76l0-1.58a3.94,3.94,0,0,1-3.78,1.84C776.72,233.75,775.16,232.63,775.16,230.69Zm7.26-2.36c-3.28.32-5.28.78-5.28,2.32,0,1,.74,1.62,2,1.62,1.64,0,3.24-.78,3.24-3.64Z"/>
    <path class="cls-4" d="M790.14,220H792v2.7h4.4v1.58H792v6.22c0,1.1.06,1.38,1.08,1.38h3.32v1.58h-3.72c-2,0-2.52-.46-2.52-2.7v-6.48h-3.06v-1.58h3.06Z"/>
    <path class="cls-4" d="M806.68,222.73v9.18h3.06v1.58H801.8v-1.58h3v-7.6h-3v-1.58Zm0-3.74v2.18h-1.84V219Z"/>
    <path class="cls-4" d="M818.5,222.55c2.46,0,5,1.7,5,5.6s-2.52,5.6-5,5.6-5-1.7-5-5.6S816,222.55,818.5,222.55Zm0,9.66c1.64,0,3-1.2,3-4.06s-1.4-4.06-3-4.06-3,1.2-3,4.06S816.86,232.21,818.5,232.21Z"/>
    <path class="cls-4" d="M829.08,224.25a3.37,3.37,0,0,1,3.16-1.7c2.6,0,3.38,1.72,3.38,4.1v6.84h-1.84v-6.2c0-1.74-.14-3.18-2.14-3.18-1.66,0-2.56,1.24-2.56,3.54v5.84h-1.84V222.73h1.84Z"/>
    <path class="cls-4" d="M846.56,225.67c-.24-1.2-1.18-1.6-2.4-1.6s-2.16.42-2.16,1.38.56,1.22,1.62,1.44l1.2.24c1.86.36,3.86,1.06,3.86,3.22s-2,3.4-4.3,3.4c-2.8,0-4.2-1.76-4.4-3.48h1.94a2.24,2.24,0,0,0,2.5,2c1.14,0,2.4-.4,2.4-1.66,0-1-.9-1.5-2.26-1.74l-1.34-.26c-1.7-.34-3-1.18-3-3,0-2.08,2.26-3,4.06-3a4,4,0,0,1,4.24,3.12Z"/>
  </g>
  <path class="cls-3" d="M705.15,673.79H541.73a1.5,1.5,0,0,1,0-3H705.15a1.5,1.5,0,1,1,0,3Z"/>
  <path class="cls-4" d="M404.72,306.46c-48.58,0-83.91-8.62-108-26.35-21.31-15.68-31.23-36.1-40.83-55.85-8.1-16.65-15.74-32.37-29.65-44-15.63-13.11-37-19.22-67.2-19.22a1.5,1.5,0,0,1,0-3c68,0,83.31,31.55,99.54,64.95,9.45,19.42,19.21,39.51,39.92,54.75,23.55,17.33,58.29,25.76,106.21,25.76a1.5,1.5,0,0,1,0,3Z"/>
  <path class="cls-4" d="M794.34,306.46a1.5,1.5,0,0,1,0-3c47.92,0,82.66-8.43,106.21-25.76,20.7-15.24,30.47-35.33,39.91-54.75C956.7,189.55,972,158,1040,158a1.5,1.5,0,0,1,0,3c-30.22,0-51.57,6.11-67.21,19.22-13.9,11.67-21.55,27.39-29.64,44-9.6,19.75-19.53,40.17-40.84,55.85C878.24,297.84,842.92,306.46,794.34,306.46Z"/>
  <path class="cls-5" d="M1068.5,161.12h0l-940-.12a1.5,1.5,0,0,1,0-3h0l940,.12a1.5,1.5,0,0,1,0,3Z"/>
  <path class="cls-3" d="M412,605.27l-1.41-2.64c.94-.5,94.95-50.31,180.52-48.67l-.06,3c-1.36,0-2.73,0-4.09,0C503.29,556.92,412.88,604.78,412,605.27Z"/>
  <path class="cls-4" d="M832.29,300.92H367.71a1.5,1.5,0,0,1,0-3H832.29a1.5,1.5,0,0,1,0,3Z"/>
  <g>
    <circle class="cls-5" cx="133.9" cy="160.07" r="45.52"/>
    <path class="cls-5" d="M133.9,116.05a44,44,0,1,1-44,44,44.07,44.07,0,0,1,44-44m0-3a47,47,0,1,0,47,47,47,47,0,0,0-47-47Z"/>
  </g>
  <g>
    <path class="cls-5" d="M1068.46,205.62A45.52,45.52,0,1,1,1114,160.1,45.58,45.58,0,0,1,1068.46,205.62Z"/>
    <path class="cls-5" d="M1068.45,116.08a44,44,0,1,1-44,44,44.07,44.07,0,0,1,44-44m0-3a47,47,0,1,0,47,47,47,47,0,0,0-47-47Z"/>
  </g>
  <g>
    <circle class="cls-1" cx="846.98" cy="558" r="18.5"/>
    <path class="cls-3" d="M847,541a17,17,0,1,1-17,17,17,17,0,0,1,17-17m0-3a20,20,0,1,0,20,20,20,20,0,0,0-20-20Z"/>
  </g>
  <g>
    <circle class="cls-1" cx="715.98" cy="670" r="18.5"/>
    <path class="cls-3" d="M716,653a17,17,0,1,1-17,17,17,17,0,0,1,17-17m0-3a20,20,0,1,0,20,20,20,20,0,0,0-20-20Z"/>
  </g>
  <g>
    <circle class="cls-1" cx="401.1" cy="606.85" r="18.5"/>
    <path class="cls-3" d="M401.1,589.85a17,17,0,1,1-17,17,17,17,0,0,1,17-17m0-3a20,20,0,1,0,20,20,20,20,0,0,0-20-20Z"/>
  </g>
  <g>
    <circle class="cls-5" cx="626.98" cy="558" r="18.5"/>
    <path class="cls-5" d="M627,541a17,17,0,1,1-17,17,17,17,0,0,1,17-17m0-3a20,20,0,1,0,20,20,20,20,0,0,0-20-20Z"/>
  </g>
  <g>
    <circle class="cls-3" cx="813.05" cy="298" r="46.5"/>
    <path class="cls-3" d="M813.05,253a45,45,0,1,1-45,45,45.05,45.05,0,0,1,45-45m0-3a48,48,0,1,0,48,48,48,48,0,0,0-48-48Z"/>
  </g>
  <g>
    <circle class="cls-3" cx="386.95" cy="298" r="46.5"/>
    <path class="cls-3" d="M387,253a45,45,0,1,1-45,45,45.05,45.05,0,0,1,45-45m0-3a48,48,0,1,0,48,48,48,48,0,0,0-48-48Z"/>
  </g>
  <g>
    <path class="cls-4" d="M100.62,93,98.5,85.32V98H96.6V83.46h3l2,7.42,2-7.42h3V98h-1.9V85.32L102.54,93Z"/>
    <path class="cls-4" d="M109.92,95.16c0-2.56,2.72-3.34,7.12-3.82v-.46a2.12,2.12,0,0,0-2.42-2.42,2.22,2.22,0,0,0-2.56,2.14h-1.88c.18-2.32,2.22-3.62,4.46-3.62,3,0,4.26,1.32,4.22,4.3l0,2.62c0,1.8.08,3.34.14,4.06h-1.76l0-1.58a3.94,3.94,0,0,1-3.78,1.84C111.48,98.22,109.92,97.1,109.92,95.16Zm7.26-2.36c-3.28.32-5.28.78-5.28,2.32,0,1,.74,1.62,2,1.62,1.64,0,3.24-.78,3.24-3.64Z"/>
    <path class="cls-4" d="M129.64,90.14c-.24-1.2-1.18-1.6-2.4-1.6s-2.16.42-2.16,1.38.56,1.22,1.62,1.44l1.2.24c1.86.36,3.86,1.06,3.86,3.22s-2,3.4-4.3,3.4c-2.8,0-4.2-1.76-4.4-3.48H125a2.24,2.24,0,0,0,2.5,2c1.14,0,2.4-.4,2.4-1.66,0-1-.9-1.5-2.26-1.74L126.3,93c-1.7-.34-3-1.18-3-3,0-2.08,2.26-3,4.06-3a4,4,0,0,1,4.24,3.12Z"/>
    <path class="cls-4" d="M137.82,84.5h1.84v2.7h4.4v1.58h-4.4V95c0,1.1.06,1.38,1.08,1.38h3.32V98h-3.72c-2,0-2.52-.46-2.52-2.7V88.78h-3.06V87.2h3.06Z"/>
    <path class="cls-4" d="M148.44,92.62c0-3.46,2-5.62,4.88-5.62,3.14,0,4.94,2.3,4.8,6.14h-7.74c0,2.16,1.2,3.58,2.9,3.58a2.59,2.59,0,0,0,2.78-2H158a4.42,4.42,0,0,1-4.64,3.48C150.06,98.22,148.44,95.8,148.44,92.62Zm2-1h5.76a2.76,2.76,0,0,0-2.84-3.1C151.58,88.52,150.48,89.54,150.4,91.62Z"/>
    <path class="cls-4" d="M166.3,87.2v1.92a3,3,0,0,1,2.88-1.92H171v1.68H169.2c-2.06,0-2.86,1.36-2.86,3.72v3.78H170V98h-8.56V96.38h3v-7.6h-3.06V87.2Z"/>
  </g>
  <g>
    <path class="cls-5" d="M666.7,547.63c-.35,2.17-1.69,3.33-3.53,3.33-2.48,0-3.64-2.2-3.64-5.28s1.32-5.25,3.74-5.25c1.75,0,3.07,1.36,3.41,3.42h-1.36c-.17-1.17-.8-2.17-2.09-2.17-1.47,0-2.33,1.41-2.33,4s.8,4.05,2.36,4.05c1.29,0,1.93-.88,2.11-2.1Z"/>
    <path class="cls-5" d="M672.18,543.12c1.72,0,3.48,1.19,3.48,3.92S673.9,551,672.18,551s-3.49-1.19-3.49-3.92S670.45,543.12,672.18,543.12Zm0,6.76c1.14,0,2.12-.84,2.12-2.84s-1-2.84-2.12-2.84-2.13.84-2.13,2.84S671,549.88,672.18,549.88Z"/>
    <path class="cls-5" d="M683.1,543.12c.78,0,1.55.36,1.55,2.35v5.31h-1.29v-4.65c0-1.09,0-1.93-.64-1.93s-.84.75-.84,2.31v4.27h-1.29v-4.65c0-1.09,0-1.93-.63-1.93s-.86.77-.86,2.34v4.24h-1.28v-7.54h1.23v.8a1.49,1.49,0,0,1,1.37-.92,1.2,1.2,0,0,1,1.18,1A1.64,1.64,0,0,1,683.1,543.12Z"/>
    <path class="cls-5" d="M692.14,543.12c.78,0,1.56.36,1.56,2.35v5.31h-1.29v-4.65c0-1.09,0-1.93-.65-1.93s-.84.75-.84,2.31v4.27h-1.29v-4.65c0-1.09,0-1.93-.63-1.93s-.85.77-.85,2.34v4.24h-1.29v-7.54h1.23v.8a1.49,1.49,0,0,1,1.37-.92,1.2,1.2,0,0,1,1.18,1A1.64,1.64,0,0,1,692.14,543.12Z"/>
    <path class="cls-5" d="M700.08,543.24v6.43h2.14v1.11h-5.56v-1.11h2.13v-5.32h-2.13v-1.11Zm0-2.62v1.53h-1.29v-1.53Z"/>
    <path class="cls-5" d="M706.59,541.35h1.29v1.89H711v1.11h-3.08v4.36c0,.77,0,1,.75,1H711v1.11h-2.61c-1.37,0-1.76-.32-1.76-1.89v-4.54h-2.15v-1.11h2.15Z"/>
    <path class="cls-5" d="M729.61,545.75H728.3a1.8,1.8,0,0,0-1.78-1.57c-1.12,0-2,1-2,2.86s.92,2.87,2,2.87a1.86,1.86,0,0,0,1.84-1.55h1.33a3.14,3.14,0,0,1-3.24,2.6c-2.08,0-3.33-1.62-3.33-3.92s1.3-3.92,3.46-3.92A3,3,0,0,1,729.61,545.75Z"/>
    <path class="cls-5" d="M738.42,546v4.79h-1.28v-4.34c0-1.22-.09-2.24-1.49-2.24-1.16,0-1.81.88-1.81,2.49v4.09h-1.28V540.62h1.28v3.69a2.42,2.42,0,0,1,2.23-1.19C737.89,543.12,738.42,544.32,738.42,546Z"/>
    <path class="cls-5" d="M741.32,548.82c0-1.79,1.9-2.34,5-2.68v-.32a1.49,1.49,0,0,0-1.7-1.69c-1.16,0-1.71.57-1.79,1.49H741.5a2.9,2.9,0,0,1,3.12-2.53c2.09,0,3,.92,3,3v1.84a26.75,26.75,0,0,0,.1,2.84h-1.24v-1.11a2.76,2.76,0,0,1-2.65,1.29A2.2,2.2,0,0,1,741.32,548.82Zm5.08-1.65c-2.29.22-3.69.54-3.69,1.62,0,.72.51,1.14,1.42,1.14,1.15,0,2.27-.55,2.27-2.55Z"/>
    <path class="cls-5" d="M751.93,544.31a2.36,2.36,0,0,1,2.22-1.19c1.82,0,2.36,1.2,2.36,2.87v4.79h-1.29v-4.34c0-1.22-.09-2.23-1.49-2.23-1.17,0-1.8.87-1.8,2.48v4.09h-1.29v-7.54h1.29Z"/>
    <path class="cls-5" d="M764.34,543.24h1.29v6.6c0,1.54-.2,2.17-.61,2.65a3.5,3.5,0,0,1-2.63,1c-1.64,0-2.8-.78-3-2.27h1.35c.19.69.58,1.15,1.69,1.15a2,2,0,0,0,1.54-.56c.25-.29.39-.64.39-1.66v-.73a2.37,2.37,0,0,1-2.23,1.24c-1.74,0-3-1.27-3-3.76s1.3-3.77,3-3.77a2.38,2.38,0,0,1,2.23,1.26Zm-2,1c-1.29,0-2,.89-2,2.69s.66,2.7,2,2.7c1.08,0,2-.73,2-2.7S763.46,544.2,762.38,544.2Z"/>
    <path class="cls-5" d="M768.28,547c0-2.42,1.43-3.94,3.42-3.94,2.2,0,3.46,1.61,3.36,4.3h-5.42c0,1.52.84,2.51,2,2.51a1.82,1.82,0,0,0,2-1.38H775A3.1,3.1,0,0,1,771.7,551C769.42,551,768.28,549.27,768.28,547Zm1.38-.7h4a1.93,1.93,0,0,0-2-2.17C770.48,544.17,769.71,544.88,769.66,546.34Z"/>
    <path class="cls-5" d="M782.26,545.3c-.17-.84-.83-1.12-1.68-1.12s-1.52.3-1.52,1,.4.85,1.14,1l.84.17c1.3.25,2.7.74,2.7,2.25s-1.37,2.38-3,2.38a2.84,2.84,0,0,1-3.08-2.43H779a1.58,1.58,0,0,0,1.75,1.37c.8,0,1.68-.28,1.68-1.16,0-.7-.63-1.06-1.58-1.22l-.94-.19c-1.19-.23-2.13-.82-2.13-2.12,0-1.46,1.58-2.09,2.84-2.09a2.77,2.77,0,0,1,3,2.18Z"/>
  </g>
  <g>
    <g>
      <path class="cls-5" d="M468,488.58h-7.5v-7.5a1.5,1.5,0,1,1,3,0v4.5H468a1.5,1.5,0,0,1,0,3Z"/>
      <path class="cls-5" d="M733.89,488.58H721.8a1.5,1.5,0,0,1,0-3h12.09a1.5,1.5,0,0,1,0,3Zm-24.17,0H697.63a1.5,1.5,0,0,1,0-3h12.09a1.5,1.5,0,0,1,0,3Zm-24.18,0H673.46a1.5,1.5,0,0,1,0-3h12.08a1.5,1.5,0,0,1,0,3Zm-24.17,0H649.28a1.5,1.5,0,0,1,0-3h12.09a1.5,1.5,0,0,1,0,3Zm-24.17,0H625.11a1.5,1.5,0,0,1,0-3H637.2a1.5,1.5,0,0,1,0,3Zm-24.18,0H600.93a1.5,1.5,0,0,1,0-3H613a1.5,1.5,0,0,1,0,3Zm-24.17,0H576.76a1.5,1.5,0,0,1,0-3h12.09a1.5,1.5,0,0,1,0,3Zm-24.18,0H552.59a1.5,1.5,0,0,1,0-3h12.08a1.5,1.5,0,0,1,0,3Zm-24.17,0H528.41a1.5,1.5,0,0,1,0-3H540.5a1.5,1.5,0,0,1,0,3Zm-24.17,0H504.24a1.5,1.5,0,0,1,0-3h12.09a1.5,1.5,0,0,1,0,3Zm-24.18,0H480.06a1.5,1.5,0,0,1,0-3h12.09a1.5,1.5,0,0,1,0,3Z"/>
      <path class="cls-5" d="M753.48,488.58H746a1.5,1.5,0,0,1,0-3h4.5v-4.5a1.5,1.5,0,1,1,3,0Z"/>
      <path class="cls-5" d="M752,470a1.5,1.5,0,0,1-1.5-1.5V455.94a1.5,1.5,0,0,1,3,0v12.57A1.5,1.5,0,0,1,752,470Zm0-25.14a1.5,1.5,0,0,1-1.5-1.5V430.8a1.5,1.5,0,1,1,3,0v12.57A1.5,1.5,0,0,1,752,444.87Zm0-25.14a1.5,1.5,0,0,1-1.5-1.5V405.66a1.5,1.5,0,0,1,3,0v12.57A1.5,1.5,0,0,1,752,419.73Z"/>
      <path class="cls-5" d="M752,394.58a1.5,1.5,0,0,1-1.5-1.5v-4.5H746a1.5,1.5,0,0,1,0-3h7.5v7.5A1.5,1.5,0,0,1,752,394.58Z"/>
      <path class="cls-5" d="M733.89,388.58H721.8a1.5,1.5,0,0,1,0-3h12.09a1.5,1.5,0,0,1,0,3Zm-24.17,0H697.63a1.5,1.5,0,0,1,0-3h12.09a1.5,1.5,0,0,1,0,3Zm-24.18,0H673.46a1.5,1.5,0,0,1,0-3h12.08a1.5,1.5,0,0,1,0,3Zm-24.17,0H649.28a1.5,1.5,0,0,1,0-3h12.09a1.5,1.5,0,0,1,0,3Zm-24.17,0H625.11a1.5,1.5,0,0,1,0-3H637.2a1.5,1.5,0,0,1,0,3Zm-24.18,0H600.94a1.5,1.5,0,0,1,0-3H613a1.5,1.5,0,0,1,0,3Zm-24.17,0H576.76a1.5,1.5,0,0,1,0-3h12.09a1.5,1.5,0,0,1,0,3Zm-24.18,0H552.59a1.5,1.5,0,0,1,0-3h12.08a1.5,1.5,0,0,1,0,3Zm-24.17,0H528.41a1.5,1.5,0,0,1,0-3H540.5a1.5,1.5,0,0,1,0,3Zm-24.17,0H504.24a1.5,1.5,0,0,1,0-3h12.09a1.5,1.5,0,0,1,0,3Zm-24.18,0H480.07a1.5,1.5,0,0,1,0-3h12.08a1.5,1.5,0,0,1,0,3Z"/>
      <path class="cls-5" d="M462,394.58a1.5,1.5,0,0,1-1.5-1.5v-7.5H468a1.5,1.5,0,0,1,0,3h-4.5v4.5A1.5,1.5,0,0,1,462,394.58Z"/>
      <path class="cls-5" d="M462,470a1.5,1.5,0,0,1-1.5-1.5V455.94a1.5,1.5,0,0,1,3,0v12.57A1.5,1.5,0,0,1,462,470Zm0-25.14a1.5,1.5,0,0,1-1.5-1.5V430.8a1.5,1.5,0,1,1,3,0v12.57A1.5,1.5,0,0,1,462,444.87Zm0-25.14a1.5,1.5,0,0,1-1.5-1.5V405.66a1.5,1.5,0,0,1,3,0v12.57A1.5,1.5,0,0,1,462,419.73Z"/>
    </g>
    <g>
      <path class="cls-1" d="M485.66,412.22V411h4.45v1.2Z"/>
      <path class="cls-1" d="M498.63,405.3h1.28v10.16h-1.27v-1.07a2.41,2.41,0,0,1-2.23,1.25c-1.74,0-3-1.43-3-3.92s1.3-3.93,3-3.93a2.4,2.4,0,0,1,2.23,1.27Zm-2,3.57c-1.29,0-1.95,1.05-1.95,2.85s.66,2.85,1.95,2.85c1.07,0,2-.88,2-2.85S497.74,408.87,496.67,408.87Z"/>
      <path class="cls-1" d="M506,407.79c1.72,0,3.48,1.2,3.48,3.93s-1.76,3.92-3.48,3.92-3.49-1.19-3.49-3.92S504.25,407.79,506,407.79Zm0,6.77c1.14,0,2.12-.84,2.12-2.84s-1-2.85-2.12-2.85-2.13.84-2.13,2.85S504.83,414.56,506,414.56Z"/>
      <path class="cls-1" d="M518.28,407.85c0,2.35-2.27,4.43-4.86,6.5h5.05v1.11h-6.86v-1.11c3.41-2.65,5.3-4.55,5.3-6.33a1.65,1.65,0,0,0-1.75-1.81c-1,0-2,.65-2,2.31H511.8a3.22,3.22,0,0,1,3.37-3.4C517,405.12,518.28,406.13,518.28,407.85Z"/>
      <path class="cls-1" d="M522.62,407.38c0-1.57.38-2.08,2-2.08h2.66v1.09h-2.63c-.63,0-.74.2-.74,1v.54h3.37V409h-3.37v6.43h-1.29V409h-2v-1.11h2Z"/>
      <path class="cls-1" d="M536.4,407.71a2.67,2.67,0,0,1-1.33,2.33,2.66,2.66,0,0,1,1.64,2.56c0,1.9-1.61,3-3.6,3s-3.6-1.14-3.6-3a2.63,2.63,0,0,1,1.64-2.56,2.65,2.65,0,0,1-1.35-2.33c0-1.48,1.33-2.59,3.31-2.59S536.4,406.23,536.4,407.71Zm-5.53,4.89c0,1.18.88,1.93,2.24,1.93s2.22-.75,2.22-1.93a2.24,2.24,0,0,0-4.46,0Zm2.24-6.37c-1.21,0-2,.61-2,1.61a2,2,0,0,0,4,0C535.11,406.8,534.31,406.23,533.11,406.23Z"/>
      <path class="cls-1" d="M545.09,410.67v4.79H543.8v-4.35c0-1.21-.08-2.24-1.48-2.24-1.16,0-1.81.89-1.81,2.5v4.09h-1.29V405.3h1.29V409a2.41,2.41,0,0,1,2.23-1.2C544.56,407.79,545.09,409,545.09,410.67Z"/>
      <path class="cls-1" d="M551.88,405.3v9.05H554v1.11h-5.56v-1.11h2.13v-8h-2.13V405.3Z"/>
      <path class="cls-1" d="M562.37,412.61c0-1.43-1.22-1.94-2.78-1.94h-.19v-1.14h.15c1.67,0,2.57-.54,2.57-1.72a1.68,1.68,0,0,0-1.88-1.6,2,2,0,0,0-2.09,2h-1.31a3.22,3.22,0,0,1,3.44-3.05c1.64,0,3.21.71,3.21,2.56a2.48,2.48,0,0,1-1.58,2.36,2.5,2.5,0,0,1,1.83,2.56c0,2-1.76,3-3.56,3a3.32,3.32,0,0,1-3.49-3.21H558a2.1,2.1,0,0,0,2.2,2.1A1.92,1.92,0,0,0,562.37,412.61Z"/>
      <path class="cls-1" d="M567.59,409.06a2.4,2.4,0,0,1,2.22-1.27c1.74,0,3,1.45,3,3.93s-1.3,3.92-3,3.92a2.4,2.4,0,0,1-2.22-1.25v3.52H566.3v-10h1.29Zm2,5.51c1.29,0,2-1.06,2-2.85s-.66-2.85-2-2.85c-1.08,0-2,.86-2,2.85S568.47,414.57,569.55,414.57Z"/>
      <path class="cls-1" d="M587,408.85H585.4v-1.71l.85-1.84h.81l-.73,1.93H587Zm2.35,0h-1.61v-1.71l.85-1.84h.82l-.73,1.93h.67Z"/>
      <path class="cls-1" d="M596.5,407.92v1.35a2.11,2.11,0,0,1,2-1.35h1.28v1.18h-1.27c-1.44,0-2,.95-2,2.6v2.65h2.57v1.11h-6v-1.11h2.13V409H593.1v-1.11Z"/>
      <path class="cls-1" d="M602.08,411.72c0-2.43,1.43-3.94,3.42-3.94,2.2,0,3.46,1.61,3.36,4.3h-5.42c0,1.51.84,2.51,2,2.51a1.82,1.82,0,0,0,1.95-1.39h1.33a3.1,3.1,0,0,1-3.25,2.44C603.22,415.64,602.08,413.94,602.08,411.72Zm1.38-.7h4a1.93,1.93,0,0,0-2-2.17C604.28,408.85,603.51,409.56,603.46,411Z"/>
      <path class="cls-1" d="M616.06,410c-.17-.84-.83-1.12-1.68-1.12s-1.52.29-1.52,1,.4.85,1.14,1l.84.17c1.3.25,2.7.75,2.7,2.26s-1.37,2.38-3,2.38a2.84,2.84,0,0,1-3.08-2.44h1.36a1.57,1.57,0,0,0,1.75,1.37c.8,0,1.68-.28,1.68-1.16,0-.7-.63-1.05-1.58-1.22l-.94-.18c-1.19-.24-2.13-.83-2.13-2.13,0-1.46,1.58-2.09,2.84-2.09a2.78,2.78,0,0,1,3,2.19Z"/>
      <path class="cls-1" d="M624.32,407.92v6.43h2.14v1.11H620.9v-1.11H623V409H620.9v-1.11Zm0-2.62v1.53H623V405.3Z"/>
      <path class="cls-1" d="M629.52,414.35,634.1,409h-4.31v-1.11h5.88V409l-4.58,5.32h4.65v1.11h-6.22Z"/>
      <path class="cls-1" d="M638.26,411.72c0-2.43,1.43-3.94,3.42-3.94,2.2,0,3.46,1.61,3.36,4.3h-5.42c0,1.51.84,2.51,2,2.51a1.82,1.82,0,0,0,2-1.39h1.33a3.1,3.1,0,0,1-3.25,2.44C639.39,415.64,638.26,413.94,638.26,411.72Zm1.37-.7h4a1.94,1.94,0,0,0-2-2.17C640.46,408.85,639.69,409.56,639.63,411Z"/>
      <path class="cls-1" d="M662.66,410.67v4.79h-1.28v-4.35c0-1.21-.09-2.24-1.49-2.24-1.16,0-1.81.89-1.81,2.5v4.09h-1.29V405.3h1.29V409a2.41,2.41,0,0,1,2.23-1.2C662.13,407.79,662.66,409,662.66,410.67Z"/>
      <path class="cls-1" d="M665.39,411.72c0-2.43,1.43-3.94,3.42-3.94,2.2,0,3.46,1.61,3.36,4.3h-5.42c0,1.51.84,2.51,2,2.51a1.82,1.82,0,0,0,2-1.39h1.33a3.1,3.1,0,0,1-3.25,2.44C666.53,415.64,665.39,413.94,665.39,411.72Zm1.37-.7h4a1.94,1.94,0,0,0-2-2.17C667.59,408.85,666.82,409.56,666.76,411Z"/>
      <path class="cls-1" d="M674.6,413.5c0-1.8,1.91-2.34,5-2.68v-.32a1.49,1.49,0,0,0-1.7-1.7,1.56,1.56,0,0,0-1.79,1.5h-1.31a2.88,2.88,0,0,1,3.12-2.53c2.09,0,3,.92,3,3v1.83c0,1.26.06,2.34.1,2.85h-1.24v-1.11a2.76,2.76,0,0,1-2.65,1.29A2.21,2.21,0,0,1,674.6,413.5Zm5.09-1.66c-2.3.23-3.7.55-3.7,1.63,0,.71.52,1.13,1.43,1.13,1.15,0,2.27-.54,2.27-2.55Z"/>
      <path class="cls-1" d="M688.55,405.3h1.29v10.16h-1.28v-1.07a2.39,2.39,0,0,1-2.23,1.25c-1.74,0-3-1.43-3-3.92s1.3-3.93,3-3.93a2.39,2.39,0,0,1,2.23,1.27Zm-2,3.57c-1.29,0-2,1.05-2,2.85s.66,2.85,2,2.85c1.08,0,2-.88,2-2.85S687.67,408.87,686.59,408.87Z"/>
      <path class="cls-1" d="M692.52,411.72c0-2.43,1.43-3.94,3.42-3.94,2.2,0,3.46,1.61,3.36,4.3h-5.42c0,1.51.84,2.51,2,2.51a1.82,1.82,0,0,0,2-1.39h1.33a3.1,3.1,0,0,1-3.25,2.44C693.66,415.64,692.52,413.94,692.52,411.72Zm1.37-.7h4a1.93,1.93,0,0,0-2-2.17C694.72,408.85,694,409.56,693.89,411Z"/>
      <path class="cls-1" d="M705,407.92v1.35a2.11,2.11,0,0,1,2-1.35h1.29v1.18h-1.27c-1.44,0-2,.95-2,2.6v2.65h2.58v1.11h-6v-1.11h2.13V409h-2.15v-1.11Z"/>
      <path class="cls-1" d="M715.54,410c-.17-.84-.83-1.12-1.68-1.12s-1.51.29-1.51,1,.39.85,1.13,1l.84.17c1.3.25,2.71.75,2.71,2.26s-1.38,2.38-3,2.38a2.84,2.84,0,0,1-3.08-2.44h1.36a1.57,1.57,0,0,0,1.75,1.37c.8,0,1.68-.28,1.68-1.16,0-.7-.63-1.05-1.58-1.22l-.94-.18c-1.19-.24-2.13-.83-2.13-2.13,0-1.46,1.58-2.09,2.85-2.09a2.77,2.77,0,0,1,3,2.19Z"/>
      <path class="cls-1" d="M721,405.3h1.61V407l-.85,1.84H721l.75-1.95H721Zm2.35,0H725V407l-.86,1.84h-.81l.74-1.95h-.69Z"/>
    </g>
    <g>
      <path class="cls-1" d="M485.66,439.5v-1.2h4.45v1.2Z"/>
      <path class="cls-1" d="M495.49,434.66c0-1.57.38-2.08,2-2.08h2.66v1.09h-2.63c-.63,0-.74.2-.74,1v.54h3.37v1.11h-3.37v6.43h-1.29v-6.43h-2V435.2h2Z"/>
      <path class="cls-1" d="M508.1,439.89c0-1.43-1.21-1.94-2.77-1.94h-.2v-1.14h.16c1.67,0,2.56-.54,2.56-1.72a1.67,1.67,0,0,0-1.87-1.6,2,2,0,0,0-2.09,2h-1.32A3.23,3.23,0,0,1,506,432.4c1.64,0,3.21.71,3.21,2.56a2.49,2.49,0,0,1-1.59,2.36,2.5,2.5,0,0,1,1.84,2.56c0,2-1.77,3-3.56,3a3.31,3.31,0,0,1-3.49-3.21h1.3a2.1,2.1,0,0,0,2.2,2.1A1.92,1.92,0,0,0,508.1,439.89Z"/>
      <path class="cls-1" d="M518.28,435.13c0,2.35-2.27,4.43-4.86,6.5h5.05v1.11h-6.86v-1.11c3.41-2.65,5.3-4.55,5.3-6.33a1.65,1.65,0,0,0-1.75-1.81c-1,0-2,.65-2,2.31H511.8a3.22,3.22,0,0,1,3.37-3.4C517,432.4,518.28,433.41,518.28,435.13Z"/>
      <path class="cls-1" d="M527.23,437.71h-1.3a1.8,1.8,0,0,0-1.78-1.57c-1.12,0-2,1-2,2.86s.93,2.87,2,2.87a1.86,1.86,0,0,0,1.83-1.56h1.33a3.14,3.14,0,0,1-3.23,2.61c-2.09,0-3.34-1.63-3.34-3.92s1.31-3.92,3.46-3.92A2.94,2.94,0,0,1,527.23,437.71Z"/>
      <path class="cls-1" d="M534.83,435.2h1.29v6.6c0,1.54-.2,2.17-.6,2.65a3.54,3.54,0,0,1-2.64,1c-1.64,0-2.8-.78-3-2.27h1.36c.18.69.57,1.15,1.68,1.15a2.06,2.06,0,0,0,1.54-.56c.25-.29.39-.64.39-1.67v-.73a2.38,2.38,0,0,1-2.23,1.25c-1.73,0-3-1.27-3-3.77s1.31-3.76,3-3.76a2.38,2.38,0,0,1,2.23,1.26Zm-2,.95c-1.29,0-2,.9-2,2.69s.66,2.71,2,2.71c1.08,0,2-.73,2-2.71S534,436.15,532.87,436.15Z"/>
      <path class="cls-1" d="M543.05,432.58v9.05h2.13v1.11h-6v-1.11h2.59v-6.84h-2.59v-.88c1.69,0,2.52-.22,3-1.33Z"/>
      <path class="cls-1" d="M554.14,438v4.79h-1.29v-4.35c0-1.21-.09-2.24-1.49-2.24-1.16,0-1.8.89-1.8,2.5v4.09h-1.29V432.58h1.29v3.69a2.39,2.39,0,0,1,2.22-1.19C553.6,435.08,554.14,436.28,554.14,438Z"/>
      <path class="cls-1" d="M562,435.2h1.29v10H562v-3.52a2.44,2.44,0,0,1-2.24,1.25c-1.73,0-3-1.44-3-3.92s1.3-3.92,3-3.92a2.43,2.43,0,0,1,2.24,1.26Zm-2,.95c-1.31,0-2,1.05-2,2.85s.64,2.84,2,2.84c1.06,0,2-.85,2-2.84S561.05,436.15,560,436.15Z"/>
      <path class="cls-1" d="M569.37,435.2v1.35a2.13,2.13,0,0,1,2-1.35h1.29v1.18H571.4c-1.44,0-2,.95-2,2.6v2.65H572v1.11h-6v-1.11h2.13v-5.32H566V435.2Z"/>
      <path class="cls-1" d="M587,436.13H585.4v-1.71l.85-1.84h.81l-.73,1.93H587Zm2.35,0h-1.61v-1.71l.85-1.84h.82l-.73,1.93h.67Z"/>
      <path class="cls-1" d="M593.21,440.78c0-1.8,1.9-2.34,5-2.68v-.32a1.49,1.49,0,0,0-1.69-1.7,1.56,1.56,0,0,0-1.79,1.5h-1.32a2.89,2.89,0,0,1,3.12-2.53c2.09,0,3,.92,3,3l0,1.83c0,1.26.06,2.34.1,2.85h-1.23v-1.11a2.77,2.77,0,0,1-2.65,1.29A2.2,2.2,0,0,1,593.21,440.78Zm5.08-1.66c-2.3.23-3.7.55-3.7,1.63,0,.71.52,1.13,1.43,1.13,1.15,0,2.27-.54,2.27-2.55Z"/>
      <path class="cls-1" d="M607.15,432.58h1.29v10.16h-1.27l0-1.07a2.39,2.39,0,0,1-2.22,1.25c-1.74,0-3-1.43-3-3.92s1.3-3.92,3-3.92a2.38,2.38,0,0,1,2.22,1.26Zm-2,3.57c-1.29,0-1.94,1.05-1.94,2.85s.65,2.85,1.94,2.85c1.08,0,2-.88,2-2.85S606.27,436.15,605.19,436.15Z"/>
      <path class="cls-1" d="M616.2,432.58h1.29v10.16h-1.28v-1.07a2.39,2.39,0,0,1-2.23,1.25c-1.74,0-3-1.43-3-3.92s1.3-3.92,3-3.92a2.38,2.38,0,0,1,2.23,1.26Zm-2,3.57c-1.29,0-2,1.05-2,2.85s.66,2.85,2,2.85c1.07,0,2-.88,2-2.85S615.31,436.15,614.24,436.15Z"/>
      <path class="cls-1" d="M629.38,440.78c0-1.8,1.91-2.34,5-2.68v-.32a1.49,1.49,0,0,0-1.7-1.7,1.56,1.56,0,0,0-1.79,1.5h-1.32a2.9,2.9,0,0,1,3.13-2.53c2.09,0,3,.92,2.95,3v1.83c0,1.26.06,2.34.1,2.85H634.5l0-1.11a2.76,2.76,0,0,1-2.65,1.29A2.2,2.2,0,0,1,629.38,440.78Zm5.09-1.66c-2.3.23-3.7.55-3.7,1.63,0,.71.52,1.13,1.43,1.13,1.15,0,2.27-.54,2.27-2.55Z"/>
      <path class="cls-1" d="M641.69,441l1.93-5.77H645l-2.72,7.54H641l-2.72-7.54h1.44Z"/>
      <path class="cls-1" d="M647.47,440.78c0-1.8,1.91-2.34,5-2.68v-.32a1.49,1.49,0,0,0-1.7-1.7,1.56,1.56,0,0,0-1.79,1.5h-1.32a2.9,2.9,0,0,1,3.13-2.53c2.08,0,3,.92,3,3v1.83a27.09,27.09,0,0,0,.1,2.85h-1.24v-1.11a2.76,2.76,0,0,1-2.65,1.29A2.2,2.2,0,0,1,647.47,440.78Zm5.08-1.66c-2.29.23-3.69.55-3.69,1.63,0,.71.52,1.13,1.43,1.13,1.15,0,2.26-.54,2.26-2.55Z"/>
      <path class="cls-1" d="M658,433.31h1.29v1.89h3.08v1.11h-3.08v4.35c0,.77,0,1,.75,1h2.33v1.11h-2.61c-1.37,0-1.76-.32-1.76-1.89v-4.54h-2.15V435.2H658Z"/>
      <path class="cls-1" d="M665.56,440.78c0-1.8,1.9-2.34,5-2.68v-.32a1.49,1.49,0,0,0-1.69-1.7,1.56,1.56,0,0,0-1.79,1.5h-1.32a2.89,2.89,0,0,1,3.12-2.53c2.09,0,3,.92,3,3v1.83c0,1.26.05,2.34.09,2.85h-1.23v-1.11a2.76,2.76,0,0,1-2.65,1.29A2.2,2.2,0,0,1,665.56,440.78Zm5.08-1.66c-2.29.23-3.69.55-3.69,1.63,0,.71.51,1.13,1.42,1.13,1.15,0,2.27-.54,2.27-2.55Z"/>
      <path class="cls-1" d="M677.89,435.2v1.35a2.15,2.15,0,0,1,2-1.35h1.29v1.18h-1.27c-1.45,0-2,.95-2,2.6v2.65h2.58v1.11h-6v-1.11h2.13v-5.32h-2.14V435.2Z"/>
      <path class="cls-1" d="M684.87,432.58h1.61v1.72l-.86,1.84h-.81l.74-1.95h-.68Zm2.35,0h1.61v1.72l-.86,1.84h-.81l.74-1.95h-.68Z"/>
    </g>
    <g>
      <path class="cls-1" d="M485.66,465.48v-1.2h4.45v1.2Z"/>
      <path class="cls-1" d="M493.72,466.76c0-1.8,1.91-2.34,5-2.68v-.32a1.49,1.49,0,0,0-1.69-1.7,1.57,1.57,0,0,0-1.8,1.5h-1.31A2.88,2.88,0,0,1,497,461c2.09,0,3,.92,3,3v1.84c0,1.25.06,2.33.1,2.84h-1.23l0-1.11a2.75,2.75,0,0,1-2.65,1.29A2.2,2.2,0,0,1,493.72,466.76Zm5.09-1.66c-2.3.23-3.7.55-3.7,1.63,0,.71.52,1.13,1.43,1.13,1.15,0,2.27-.54,2.27-2.55Z"/>
      <path class="cls-1" d="M506.69,464.84l2.63,3.88h-1.45l-1.89-2.8-1.9,2.8h-1.45l2.62-3.87-2.47-3.67h1.44l1.76,2.59,1.76-2.59h1.43Z"/>
      <path class="cls-1" d="M517.15,465.88c0-1.43-1.22-1.95-2.78-1.95h-.19v-1.14h.15c1.67,0,2.57-.54,2.57-1.72a1.67,1.67,0,0,0-1.88-1.6,2,2,0,0,0-2.09,2h-1.32a3.24,3.24,0,0,1,3.45-3.05c1.64,0,3.21.72,3.21,2.56a2.48,2.48,0,0,1-1.58,2.36,2.5,2.5,0,0,1,1.83,2.56c0,2-1.76,3-3.56,3a3.29,3.29,0,0,1-3.48-3.21h1.3a2.1,2.1,0,0,0,2.2,2.1A1.92,1.92,0,0,0,517.15,465.88Z"/>
      <path class="cls-1" d="M525,458.56v9.05h2.13v1.11h-6v-1.11h2.59v-6.83h-2.59v-.89c1.69,0,2.52-.22,3-1.33Z"/>
      <path class="cls-1" d="M535.31,463.91a2.76,2.76,0,0,1-2.55,1.39,3.22,3.22,0,0,1-3.18-3.43,3.39,3.39,0,0,1,3.46-3.49c2.43,0,3.6,1.77,3.6,4.86,0,2.84-1,5.66-3.83,5.66a3,3,0,0,1-3.08-2.51h1.4a1.62,1.62,0,0,0,1.75,1.4C534.41,467.79,535.25,466.24,535.31,463.91Zm-2.25-4.44a2.35,2.35,0,1,0,2.09,2.34A2.1,2.1,0,0,0,533.06,459.47Z"/>
      <path class="cls-1" d="M540.46,462.32a2.39,2.39,0,0,1,2.22-1.26c1.74,0,3,1.44,3,3.92s-1.3,3.92-3,3.92a2.4,2.4,0,0,1-2.22-1.25v3.52h-1.29v-10h1.29Zm2,5.52c1.29,0,1.94-1.07,1.94-2.86s-.65-2.85-1.94-2.85c-1.08,0-2,.86-2,2.85S541.34,467.84,542.42,467.84Z"/>
      <path class="cls-1" d="M552.75,463.24c-.17-.84-.83-1.12-1.68-1.12s-1.51.29-1.51,1,.39.85,1.13,1l.84.16c1.3.26,2.7.75,2.7,2.26s-1.37,2.38-3,2.38a2.84,2.84,0,0,1-3.08-2.44h1.36a1.58,1.58,0,0,0,1.75,1.38c.8,0,1.68-.29,1.68-1.17,0-.7-.63-1.05-1.58-1.21l-.94-.19c-1.19-.23-2.13-.82-2.13-2.13s1.58-2.08,2.84-2.08a2.77,2.77,0,0,1,3,2.18Z"/>
      <path class="cls-1" d="M558.47,459.29h1.29v1.89h3.08v1.11h-3.08v4.35c0,.78,0,1,.76,1h2.32v1.11h-2.6c-1.37,0-1.77-.32-1.77-1.89v-4.54h-2.14v-1.11h2.14Z"/>
      <path class="cls-1" d="M570.91,467.75a2.35,2.35,0,0,1-2.22,1.15c-1.82,0-2.34-1.2-2.34-2.87v-4.85h1.29v4.4c0,1.22.07,2.21,1.47,2.21,1.17,0,1.8-.85,1.8-2.46v-4.15h1.29v7.54h-1.29Z"/>
      <path class="cls-1" d="M578.38,467l1.94-5.77h1.34l-2.72,7.54h-1.23L575,461.18h1.45Z"/>
      <path class="cls-1" d="M596.05,462.11h-1.61V460.4l.85-1.84h.82l-.73,1.94h.67Zm2.35,0h-1.61V460.4l.86-1.84h.81l-.73,1.94h.67Z"/>
      <path class="cls-1" d="M605.54,461.18v1.35a2.14,2.14,0,0,1,2-1.35h1.29v1.18h-1.28c-1.44,0-2,.95-2,2.6v2.65h2.58v1.11h-6v-1.11h2.13v-5.32h-2.14v-1.11Z"/>
      <path class="cls-1" d="M611.13,465c0-2.43,1.42-3.94,3.41-3.94,2.2,0,3.46,1.61,3.37,4.3h-5.42c0,1.52.84,2.51,2,2.51a1.8,1.8,0,0,0,1.94-1.39h1.33a3.09,3.09,0,0,1-3.25,2.44C612.26,468.9,611.13,467.21,611.13,465Zm1.37-.7h4a1.93,1.93,0,0,0-2-2.17C613.33,462.11,612.55,462.82,612.5,464.28Z"/>
      <path class="cls-1" d="M625.1,463.24c-.17-.84-.82-1.12-1.68-1.12s-1.51.29-1.51,1,.39.85,1.13,1l.84.16c1.31.26,2.71.75,2.71,2.26s-1.38,2.38-3,2.38a2.84,2.84,0,0,1-3.08-2.44h1.36a1.58,1.58,0,0,0,1.75,1.38c.8,0,1.68-.29,1.68-1.17,0-.7-.63-1.05-1.58-1.21l-.94-.19c-1.19-.23-2.13-.82-2.13-2.13s1.58-2.08,2.85-2.08a2.78,2.78,0,0,1,3,2.18Z"/>
      <path class="cls-1" d="M630.83,459.29h1.28v1.89h3.09v1.11h-3.09v4.35c0,.78,0,1,.76,1h2.33v1.11h-2.61c-1.37,0-1.76-.32-1.76-1.89v-4.54h-2.15v-1.11h2.15Z"/>
      <path class="cls-1" d="M638.19,471.17v-1.11h1.36c.78,0,1-.1,1.43-1.17l0-.17-2.81-7.54h1.41l2,5.82,2-5.82H645L642.22,469c-.53,1.49-1,2.13-2.55,2.13Z"/>
      <path class="cls-1" d="M651.37,458.56v9.05h2.14v1.11H648v-1.11h2.13v-7.95H648v-1.1Z"/>
      <path class="cls-1" d="M656.35,465c0-2.43,1.43-3.94,3.41-3.94,2.2,0,3.46,1.61,3.37,4.3h-5.42c0,1.52.83,2.51,2,2.51a1.8,1.8,0,0,0,1.94-1.39H663a3.09,3.09,0,0,1-3.25,2.44C657.48,468.9,656.35,467.21,656.35,465Zm1.37-.7h4a1.93,1.93,0,0,0-2-2.17C658.54,462.11,657.78,462.82,657.72,464.28Z"/>
      <path class="cls-1" d="M680.75,463.93v4.79h-1.29v-4.34c0-1.22-.08-2.25-1.48-2.25-1.16,0-1.81.89-1.81,2.5v4.09h-1.29V458.56h1.29v3.69a2.41,2.41,0,0,1,2.23-1.19C680.22,461.06,680.75,462.26,680.75,463.93Z"/>
      <path class="cls-1" d="M683.48,465c0-2.43,1.43-3.94,3.42-3.94,2.2,0,3.46,1.61,3.36,4.3h-5.42c0,1.52.84,2.51,2,2.51a1.8,1.8,0,0,0,1.94-1.39h1.34a3.1,3.1,0,0,1-3.25,2.44C684.61,468.9,683.48,467.21,683.48,465Zm1.37-.7h4a1.92,1.92,0,0,0-2-2.17C685.68,462.11,684.91,462.82,684.85,464.28Z"/>
      <path class="cls-1" d="M692.69,466.76c0-1.8,1.91-2.34,5-2.68v-.32a1.49,1.49,0,0,0-1.7-1.7,1.56,1.56,0,0,0-1.79,1.5h-1.32A2.9,2.9,0,0,1,696,461c2.08,0,3,.92,3,3v1.84a27,27,0,0,0,.1,2.84H697.8v-1.11a2.76,2.76,0,0,1-2.65,1.29A2.2,2.2,0,0,1,692.69,466.76Zm5.09-1.66c-2.3.23-3.7.55-3.7,1.63,0,.71.52,1.13,1.43,1.13,1.14,0,2.27-.54,2.27-2.55Z"/>
      <path class="cls-1" d="M706.64,458.56h1.29v10.16h-1.28v-1.07a2.41,2.41,0,0,1-2.23,1.25c-1.74,0-3-1.43-3-3.92s1.3-3.92,3-3.92a2.39,2.39,0,0,1,2.23,1.26Zm-2,3.57c-1.29,0-1.95,1.06-1.95,2.85s.66,2.86,1.95,2.86c1.07,0,2-.89,2-2.86S705.75,462.13,704.68,462.13Z"/>
      <path class="cls-1" d="M710.61,465c0-2.43,1.43-3.94,3.42-3.94,2.2,0,3.46,1.61,3.36,4.3H712c0,1.52.84,2.51,2,2.51a1.82,1.82,0,0,0,2-1.39h1.33A3.1,3.1,0,0,1,714,468.9C711.74,468.9,710.61,467.21,710.61,465Zm1.37-.7h4a1.94,1.94,0,0,0-2-2.17C712.81,462.11,712,462.82,712,464.28Z"/>
      <path class="cls-1" d="M723.11,461.18v1.35a2.15,2.15,0,0,1,2-1.35h1.29v1.18h-1.28c-1.44,0-2,.95-2,2.6v2.65h2.58v1.11h-6v-1.11h2.13v-5.32h-2.14v-1.11Z"/>
      <path class="cls-1" d="M730.08,458.56h1.62v1.73l-.86,1.83H730l.74-1.95h-.69Zm2.36,0h1.61v1.73l-.85,1.83h-.82l.74-1.95h-.68Z"/>
    </g>
  </g>
  <g>
    <path class="cls-3" d="M572.41,365.3c-.5,3.1-2.42,4.76-5,4.76-3.54,0-5.2-3.14-5.2-7.54s1.88-7.5,5.34-7.5c2.5,0,4.38,1.94,4.86,4.88h-1.94c-.24-1.66-1.14-3.1-3-3.1-2.1,0-3.32,2-3.32,5.72s1.14,5.78,3.36,5.78c1.84,0,2.76-1.26,3-3Z"/>
    <path class="cls-3" d="M580.23,358.86c2.46,0,5,1.7,5,5.6s-2.52,5.6-5,5.6-5-1.7-5-5.6S577.77,358.86,580.23,358.86Zm0,9.66c1.64,0,3-1.2,3-4.06s-1.4-4.06-3-4.06-3,1.2-3,4.06S578.59,368.52,580.23,368.52Z"/>
    <path class="cls-3" d="M595.83,358.86c1.12,0,2.22.52,2.22,3.36v7.58h-1.84v-6.64c0-1.56,0-2.76-.92-2.76s-1.2,1.08-1.2,3.3v6.1h-1.84v-6.64c0-1.56,0-2.76-.9-2.76s-1.22,1.1-1.22,3.34v6.06h-1.84V359h1.76v1.14a2.13,2.13,0,0,1,2-1.32,1.71,1.71,0,0,1,1.68,1.36A2.35,2.35,0,0,1,595.83,358.86Z"/>
    <path class="cls-3" d="M608.75,358.86c1.12,0,2.22.52,2.22,3.36v7.58h-1.84v-6.64c0-1.56,0-2.76-.92-2.76s-1.2,1.08-1.2,3.3v6.1h-1.84v-6.64c0-1.56,0-2.76-.9-2.76s-1.22,1.1-1.22,3.34v6.06h-1.84V359H603v1.14a2.13,2.13,0,0,1,2-1.32,1.71,1.71,0,0,1,1.68,1.36A2.35,2.35,0,0,1,608.75,358.86Z"/>
    <path class="cls-3" d="M620.09,359v9.18h3.06v1.58h-7.94v-1.58h3v-7.6h-3V359Zm0-3.74v2.18h-1.84V355.3Z"/>
    <path class="cls-3" d="M629.39,356.34h1.84V359h4.4v1.58h-4.4v6.22c0,1.1.06,1.38,1.08,1.38h3.32v1.58h-3.72c-2,0-2.52-.46-2.52-2.7v-6.48h-3.06V359h3.06Z"/>
    <path class="cls-3" d="M647.05,362c-.24-1.2-1.18-1.6-2.4-1.6s-2.16.42-2.16,1.38.56,1.22,1.62,1.44l1.2.24c1.86.36,3.86,1.06,3.86,3.22s-2,3.4-4.3,3.4c-2.8,0-4.2-1.76-4.4-3.48h1.94a2.24,2.24,0,0,0,2.5,2c1.14,0,2.4-.4,2.4-1.66,0-1-.9-1.5-2.26-1.74l-1.34-.26c-1.7-.34-3-1.18-3-3,0-2.08,2.26-3,4.06-3A4,4,0,0,1,649,362Z"/>
  </g>
  <g>
    <path class="cls-3" d="M135.86,337l-4.65-12.39V337h-1.9V322.48h2.84l4.65,12.35V322.48h1.9V337Z"/>
    <path class="cls-3" d="M142.11,331.65c0-3.47,2-5.63,4.89-5.63,3.14,0,4.94,2.3,4.8,6.15h-7.75c0,2.16,1.2,3.58,2.91,3.58a2.59,2.59,0,0,0,2.78-2h1.9a4.42,4.42,0,0,1-4.64,3.48C143.73,337.25,142.11,334.83,142.11,331.65Zm2-1h5.77a2.76,2.76,0,0,0-2.84-3.1C145.25,327.54,144.15,328.56,144.07,330.64Z"/>
    <path class="cls-3" d="M160.7,328.38l1.6,5.81,1.1-8h1.86L163.46,337H161.6l-1.77-6.5-1.76,6.5h-1.86l-1.8-10.77h1.88l1.08,8,1.6-5.81Z"/>
    <path class="cls-3" d="M183.27,327.84a3.46,3.46,0,0,1,3.2-1.8c2.47,0,4.33,2.06,4.33,5.61s-1.86,5.6-4.33,5.6a3.49,3.49,0,0,1-3.2-1.78l0,1.52h-1.82V322.48h1.84Zm2.81,7.89c1.86,0,2.78-1.52,2.78-4.08s-.92-4.07-2.78-4.07c-1.53,0-2.89,1.22-2.89,4.07S184.55,335.73,186.08,335.73Z"/>
    <path class="cls-3" d="M198.73,326.22v1.92a3,3,0,0,1,2.89-1.92h1.84v1.68h-1.82c-2.06,0-2.87,1.36-2.87,3.72v3.79h3.69V337h-8.57v-1.58h3V327.8h-3.06v-1.58Z"/>
    <path class="cls-3" d="M207,334.19c0-2.57,2.72-3.35,7.13-3.82v-.46a2.13,2.13,0,0,0-2.43-2.43,2.22,2.22,0,0,0-2.56,2.14h-1.88c.18-2.32,2.22-3.62,4.46-3.62,3,0,4.27,1.32,4.23,4.3l0,2.63c0,1.8.08,3.34.14,4.06h-1.77v-1.58c-.66,1.12-1.78,1.84-3.79,1.84S207,336.13,207,334.19Zm7.26-2.36c-3.28.32-5.28.78-5.28,2.32,0,1,.74,1.62,2,1.62,1.65,0,3.24-.78,3.24-3.65Z"/>
    <path class="cls-3" d="M222.11,327.74a3.37,3.37,0,0,1,3.16-1.7c2.61,0,3.39,1.72,3.39,4.1V337h-1.84v-6.2c0-1.75-.15-3.19-2.15-3.19-1.66,0-2.56,1.24-2.56,3.55V337h-1.84V326.22h1.84Z"/>
    <path class="cls-3" d="M241.9,329.8H240a2.58,2.58,0,0,0-2.55-2.24c-1.6,0-2.92,1.38-2.92,4.09s1.32,4.1,2.92,4.1a2.66,2.66,0,0,0,2.63-2.22H242a4.5,4.5,0,0,1-4.63,3.72c-3,0-4.76-2.32-4.76-5.6s1.86-5.61,4.94-5.61A4.2,4.2,0,0,1,241.9,329.8Z"/>
    <path class="cls-3" d="M254.5,330.14V337h-1.84v-6.2c0-1.75-.12-3.21-2.13-3.21-1.66,0-2.58,1.26-2.58,3.57V337h-1.84V322.48H248v5.26a3.44,3.44,0,0,1,3.18-1.7C253.74,326,254.5,327.76,254.5,330.14Z"/>
  </g>
  <path class="cls-4" d="M629.89,555.58c0,1.72-1.27,3.14-3.16,4.76l-1.1,1h4.2V563H623v-1.63l2.12-1.85c1.61-1.39,2.76-2.65,2.76-3.86a1.27,1.27,0,0,0-1.28-1.4c-.89,0-1.56.76-1.52,2.26h-2a3.35,3.35,0,0,1,3.51-3.81C628.47,552.67,629.89,553.73,629.89,555.58Z"/>
  <path class="cls-3" d="M847.45,561.65a1.38,1.38,0,0,0,1.51-1.47c0-.94-.77-1.5-1.89-1.5h-.59v-1.81H847c1.13,0,1.85-.5,1.85-1.5a1.24,1.24,0,0,0-1.4-1.26c-.89,0-1.45.58-1.56,1.63h-2a3.34,3.34,0,0,1,3.63-3.11c1.57,0,3.35.81,3.35,2.66a2.84,2.84,0,0,1-1.24,2.31A2.67,2.67,0,0,1,851,560c0,2.1-1.79,3.14-3.63,3.14a3.44,3.44,0,0,1-3.64-3.38h2C845.88,561,846.52,561.65,847.45,561.65Z"/>
  <path class="cls-3" d="M719.14,672.4h-1.38v2.06h-2V672.4h-4.46v-1.72l4.6-6.37h1.87v6.27h1.38Zm-5.9-1.82h2.51V667Z"/>
  <path class="cls-3" d="M400.36,609.8v-5.47h-2.78v-1.51c2.24,0,2.88-.56,3.26-1.67h1.54v8.65h2.34v1.51h-7.14V609.8Z"/>
  <path class="cls-5" d="M810.39,560H646.08a1.5,1.5,0,1,1,0-3H810.39a1.5,1.5,0,0,1,0,3Z"/>
  <path class="cls-3" d="M579.81,569.32a1.5,1.5,0,0,1-1.06-2.56L590,555.52l-11.24-11.23a1.51,1.51,0,0,1,0-2.12,1.49,1.49,0,0,1,2.12,0l12.3,12.29a1.5,1.5,0,0,1,0,2.12l-12.3,12.3A1.49,1.49,0,0,1,579.81,569.32Z"/>
  <g>
    <path class="cls-3" d="M180.22,305.71a1.51,1.51,0,0,1-1.38-.89A73.79,73.79,0,0,1,174,271.45c2.76-30.72,25.6-47.36,44.28-55.92a1.5,1.5,0,0,1,1.25,2.73C193.41,230.2,179.1,248.15,177,271.6a71.86,71.86,0,0,0,4.64,32,1.5,1.5,0,0,1-.77,2A1.41,1.41,0,0,1,180.22,305.71Z"/>
    <path class="cls-3" d="M218.37,233.56a1.24,1.24,0,0,1-.27,0,1.5,1.5,0,0,1-1.21-1.74l2.81-15.64-15.64-2.8a1.5,1.5,0,1,1,.52-3l18.6,3.34-3.33,18.59A1.51,1.51,0,0,1,218.37,233.56Z"/>
  </g>
  <path class="cls-5" d="M799.88,572.3a1.51,1.51,0,0,1-1.06-.44,1.49,1.49,0,0,1,0-2.12l11.24-11.24-11.24-11.24a1.49,1.49,0,0,1,0-2.12,1.51,1.51,0,0,1,2.12,0l12.3,12.3a1.5,1.5,0,0,1,0,2.12l-12.3,12.3A1.51,1.51,0,0,1,799.88,572.3Z"/>
  <path class="cls-3" d="M553.13,686.08a1.48,1.48,0,0,1-1.06-.44l-12.29-12.29a1.5,1.5,0,0,1,0-2.13l12.29-12.29a1.5,1.5,0,0,1,2.12,2.12L543,672.29l11.23,11.23a1.49,1.49,0,0,1,0,2.12A1.45,1.45,0,0,1,553.13,686.08Z"/>
  <path class="cls-3" d="M760.63,684.45a1.45,1.45,0,0,1-.86-.28l-14.19-10.06a1.53,1.53,0,0,1-.61-1,1.51,1.51,0,0,1,.26-1.11l10.07-14.18a1.5,1.5,0,1,1,2.44,1.73l-9.2,13,13,9.2a1.49,1.49,0,0,1,.36,2.09A1.52,1.52,0,0,1,760.63,684.45Z"/>
  <g>
    <g>
      <path class="cls-3" d="M767.88,636.37c1.45,2.68,1.4,5.23-.82,6.44s-4.39-.14-5.85-2.82-1.4-5.22.83-6.43S766.42,633.67,767.88,636.37Zm-5.46,3c1.22,2.26,2.58,3.19,4.05,2.39s1.43-2.44.2-4.7-2.57-3.18-4-2.37S761.19,637.08,762.42,639.33Z"/>
      <path class="cls-3" d="M770.3,633.42a2.39,2.39,0,0,1,1.26-2.22c1.49-.89,3.35-.32,4.62,1.81s.89,4-.6,4.92A2.42,2.42,0,0,1,773,638l1.8,3-1.1.66-5.12-8.57,1.1-.66Zm4.51,3.73c1.1-.66,1.12-1.91.2-3.44s-2-2.11-3.12-1.45c-.93.56-1.3,1.77-.28,3.48S773.88,637.71,774.81,637.15Z"/>
      <path class="cls-3" d="M777.87,632c-1.32-2-1-4.08.72-5.16,1.84-1.2,3.78-.54,5.16,1.77l-4.55,3c.83,1.27,2.07,1.65,3.07,1a1.82,1.82,0,0,0,.88-2.22l1.11-.73a3.09,3.09,0,0,1-1.39,3.81C781,634.62,779.08,633.81,777.87,632Zm.76-1.34,3.39-2.19a2,2,0,1,0-3.39,2.19Z"/>
      <path class="cls-3" d="M785.25,623.77a2.34,2.34,0,0,1,1.12-2.24c1.48-1,2.62-.38,3.59,1l2.75,3.91-1.05.74-2.5-3.54c-.7-1-1.36-1.77-2.51-1-.95.67-1,1.74,0,3.06l2.35,3.34-1.05.74-4.34-6.15,1-.75Z"/>
      <path class="cls-3" d="M799.64,613a2.39,2.39,0,0,1,.89-2.4c1.33-1.12,3.25-.85,4.85,1s1.52,3.84.19,5a2.4,2.4,0,0,1-2.5.48l2.26,2.69-1,.83-6.42-7.64,1-.83Zm5,3c1-.83.81-2.07-.34-3.44s-2.34-1.75-3.32-.92c-.83.69-1,1.95.28,3.47S803.86,616.63,804.68,615.94Z"/>
      <path class="cls-3" d="M812.59,608.79a2.36,2.36,0,0,1-.84,2.35c-1.34,1.24-2.54.7-3.67-.52l-3.29-3.55.94-.88,3,3.23c.83.89,1.56,1.57,2.58.62.86-.79.74-1.84-.36-3l-2.81-3,.94-.88,5.12,5.53-.94.87Z"/>
      <path class="cls-3" d="M811.94,596.49l6.5,6.28,1.49-1.54.8.77-3.86,4-.8-.77,1.48-1.53-5.72-5.53-1.48,1.53-.78-.76Z"/>
      <path class="cls-3" d="M817.82,590l6.88,5.87,1.39-1.63.84.72-3.61,4.23-.84-.72,1.38-1.62-6-5.16-1.38,1.62-.84-.71Z"/>
    </g>
    <g>
      <path class="cls-3" d="M780.08,645.64l.72,1.13a2.12,2.12,0,0,1,1-2.21l1.09-.69.63,1-1.08.68c-1.21.77-1.18,1.88-.29,3.27l1.42,2.24,2.17-1.39.6.94-5.06,3.21-.59-.93,1.79-1.14-2.85-4.49-1.81,1.14-.59-.93Z"/>
      <path class="cls-3" d="M786.65,645.91c-1.36-2-1-4,.61-5.17,1.82-1.24,3.77-.61,5.2,1.66L788,645.45c.85,1.25,2.1,1.6,3.09.93a1.82,1.82,0,0,0,.83-2.24l1.1-.75a3.1,3.1,0,0,1-1.32,3.84C789.79,648.52,787.91,647.75,786.65,645.91Zm.74-1.35,3.34-2.27a2,2,0,1,0-3.34,2.27Z"/>
      <path class="cls-3" d="M795.82,634.84l1-.76,5.88,8.07-1,.76-2.07-2.84a2.43,2.43,0,0,1-1.07,2.32c-1.39,1-3.3.62-4.76-1.38s-1.25-3.93.14-5a2.42,2.42,0,0,1,2.55-.3Zm-1,1.93c-1,.77-1,2,.1,3.44s2.2,1.92,3.25,1.15c.86-.63,1.12-1.88,0-3.48S795.66,636.14,794.8,636.77Z"/>
      <path class="cls-3" d="M806.71,634.76a2.35,2.35,0,0,1-1,2.27c-1.43,1.12-2.58.49-3.61-.82l-3-3.81,1-.8,2.72,3.46c.75,1,1.42,1.7,2.52.84.91-.72.88-1.78-.11-3l-2.56-3.26,1-.8,4.65,5.93-1,.8Z"/>
      <path class="cls-3" d="M808.13,630.06c-1.56-1.84-1.45-3.92.06-5.21,1.68-1.42,3.68-1,5.35,1.11l-4.13,3.5c1,1.16,2.26,1.37,3.17.6a1.82,1.82,0,0,0,.58-2.32l1-.86a3.1,3.1,0,0,1-.9,4C811.54,632.32,809.58,631.76,808.13,630.06Zm.6-1.42L811.8,626a2,2,0,1,0-3.07,2.61Z"/>
      <path class="cls-3" d="M817.5,619.49c-.69-.5-1.36-.26-2,.32s-.91,1.24-.45,1.73.87.36,1.52,0l.73-.44c1.12-.7,2.48-1.3,3.51-.19s.61,2.68-.59,3.79a2.83,2.83,0,0,1-3.92.31l1-.92a1.58,1.58,0,0,0,2.22-.18c.58-.55,1-1.35.44-2s-1.18-.34-2,.18l-.81.51c-1,.63-2.12.84-3-.12s-.26-2.6.67-3.46a2.77,2.77,0,0,1,3.66-.42Z"/>
      <path class="cls-3" d="M818.82,612.72l.9-.92,1.35,1.32,2.15-2.2.79.77-2.15,2.2,3.11,3.05c.55.53.72.64,1.22.13l1.63-1.66.79.77L826.79,618c-1,1-1.47,1-2.59-.06L821,614.81l-1.5,1.53-.79-.77,1.5-1.53Z"/>
    </g>
  </g>
  <path class="cls-3" d="M506.55,674.22a1.54,1.54,0,0,1-.77-.21l-84.36-50.43A1.5,1.5,0,1,1,423,621l84.36,50.42a1.5,1.5,0,0,1-.77,2.79Z"/>
  <path class="cls-3" d="M424.27,641.06a1.51,1.51,0,0,1-1.49-1.32l-2.08-17.27a1.49,1.49,0,0,1,1.31-1.66l17.27-2.09a1.5,1.5,0,0,1,.36,3l-15.78,1.9,1.9,15.78a1.5,1.5,0,0,1-1.31,1.67Z"/>
  <g>
    <circle class="cls-1" cx="505.98" cy="670" r="18.5"/>
    <path class="cls-3" d="M506,653a17,17,0,1,1-17,17,17,17,0,0,1,17-17m0-3a20,20,0,1,0,20,20,20,20,0,0,0-20-20Z"/>
  </g>
  <path class="cls-3" d="M507.05,671.1c0-1.36-.81-1.93-1.58-1.93a1.55,1.55,0,0,0-1.51,1.08l-1.84-.21.84-5.73h5.73V666h-4.12l-.32,2.1a2.93,2.93,0,0,1,1.78-.53c1.6,0,3.07,1.29,3.07,3.57a3.66,3.66,0,0,1-7.31.17h2c.11,1.19.75,1.88,1.68,1.88S507.05,672.43,507.05,671.1Z"/>
  <path class="cls-3" d="M506.61,698.6h-.14a26.9,26.9,0,0,1-11.39-3.73l-10.3-6.16a1.5,1.5,0,0,1,1.54-2.58l10.3,6.16a23.94,23.94,0,0,0,10.13,3.33,1.5,1.5,0,0,1-.14,3Zm11.78-1.66a1.5,1.5,0,0,1-.55-2.89,24.12,24.12,0,0,0,9.2-6.38,1.5,1.5,0,0,1,2.24,2,27.23,27.23,0,0,1-10.35,7.17A1.47,1.47,0,0,1,518.39,696.94Zm-43.15-14.19a1.41,1.41,0,0,1-.76-.21l-10.3-6.16a1.5,1.5,0,1,1,1.53-2.57L476,680a1.5,1.5,0,0,1-.78,2.78Zm58.6-3a1.32,1.32,0,0,1-.39-.06,1.5,1.5,0,0,1-1.06-1.84,23.91,23.91,0,0,0,.84-6.3,24.44,24.44,0,0,0-.5-4.89,1.5,1.5,0,0,1,2.94-.6,27.2,27.2,0,0,1-.38,12.58A1.5,1.5,0,0,1,533.84,679.73Zm-79.2-9.29a1.5,1.5,0,0,1-.76-.21l-10.3-6.16a1.5,1.5,0,1,1,1.53-2.57l10.31,6.15a1.5,1.5,0,0,1-.78,2.79ZM434,658.13a1.42,1.42,0,0,1-.76-.22L423,651.76a1.5,1.5,0,0,1,1.53-2.58l10.3,6.16a1.5,1.5,0,0,1-.77,2.79Zm95.15-1.07a1.5,1.5,0,0,1-1.18-.57,24.25,24.25,0,0,0-6.56-5.75l-2.3-1.37a1.5,1.5,0,1,1,1.54-2.58l2.29,1.38a26.73,26.73,0,0,1,7.38,6.46,1.49,1.49,0,0,1-1.17,2.43ZM413.44,645.81a1.47,1.47,0,0,1-.77-.21l-10.3-6.16a1.5,1.5,0,0,1,1.54-2.57l10.3,6.16a1.5,1.5,0,0,1-.77,2.78Zm96.17-2.39a1.5,1.5,0,0,1-.76-.21l-10.3-6.16a1.5,1.5,0,0,1,1.53-2.57l10.31,6.15a1.5,1.5,0,0,1-.78,2.79ZM392.84,633.5a1.57,1.57,0,0,1-.77-.21l-7.69-4.6a26.91,26.91,0,0,1-2.65-1.81,1.5,1.5,0,1,1,1.83-2.37,23.84,23.84,0,0,0,2.36,1.6l7.69,4.6a1.5,1.5,0,0,1-.77,2.79ZM489,631.11a1.42,1.42,0,0,1-.76-.22L478,624.74a1.5,1.5,0,0,1,1.53-2.58l10.3,6.16a1.5,1.5,0,0,1-.77,2.79Zm-20.6-12.32a1.41,1.41,0,0,1-.76-.21l-10.3-6.16a1.5,1.5,0,0,1,1.53-2.57l10.3,6.16a1.48,1.48,0,0,1,.52,2A1.5,1.5,0,0,1,468.41,618.79ZM375.16,618a1.49,1.49,0,0,1-1.35-.86,27.44,27.44,0,0,1-2.68-11.78v-.51a1.54,1.54,0,0,1,1.52-1.48,1.51,1.51,0,0,1,1.48,1.53v.46a24.57,24.57,0,0,0,2.38,10.49,1.5,1.5,0,0,1-1.35,2.15Zm72.65-11.48a1.57,1.57,0,0,1-.77-.21l-10.3-6.16a1.5,1.5,0,0,1,1.54-2.57l10.3,6.15a1.5,1.5,0,0,1-.77,2.79Zm-72.19-11.65a1.46,1.46,0,0,1-.7-.18,1.5,1.5,0,0,1-.63-2c.22-.41.45-.82.7-1.23a26.93,26.93,0,0,1,7.6-8.23,1.5,1.5,0,1,1,1.73,2.45,23.91,23.91,0,0,0-6.76,7.32c-.21.36-.42.73-.62,1.1A1.5,1.5,0,0,1,375.62,594.83Zm51.59-.66a1.48,1.48,0,0,1-.77-.22l-10.3-6.15a1.5,1.5,0,0,1,1.54-2.58l10.3,6.16a1.5,1.5,0,0,1-.77,2.79Zm-20.88-11.75a1.6,1.6,0,0,1-.47-.08,24.21,24.21,0,0,0-11.15-.92,1.5,1.5,0,1,1-.45-3,27.33,27.33,0,0,1,12.54,1,1.5,1.5,0,0,1-.47,2.93Z"/>
  <g>
    <path class="cls-3" d="M451.06,626.65l1.48-5.36-4.55,7.6-1.15-.69,5.22-8.71,1.8,1.08-1.47,5.17,3.87-3.73,1.79,1.07-5.22,8.71-1.14-.68,4.55-7.6-4,3.83Z"/>
    <path class="cls-3" d="M456.62,629.7c1.25-2.08,3.25-2.64,5-1.62,1.88,1.13,2.14,3.16.67,5.42l-4.65-2.79c-.78,1.3-.57,2.59.45,3.2a1.81,1.81,0,0,0,2.38-.19l1.15.68a3.09,3.09,0,0,1-4,.42C455.58,633.65,455.48,631.61,456.62,629.7Zm1.54.11,3.46,2.07a2,2,0,1,0-3.46-2.07Z"/>
    <path class="cls-3" d="M469.3,632.87l-.69,1.16a2.12,2.12,0,0,1,2.42-.12l1.1.66-.6,1-1.09-.65c-1.24-.74-2.21-.22-3.06,1.2L466,638.4l2.21,1.33-.57.95-5.14-3.08.56-1,1.83,1.09,2.74-4.56-1.84-1.11.57-1Z"/>
    <path class="cls-3" d="M478.46,638.37l1.11.66-3.4,5.66c-.79,1.32-1.28,1.76-1.87,2a3.5,3.5,0,0,1-2.77-.5c-1.41-.85-2-2.11-1.43-3.5l1.16.69a1.47,1.47,0,0,0,.86,1.85,2,2,0,0,0,1.61.32c.36-.13.66-.36,1.19-1.23l.37-.63a2.38,2.38,0,0,1-2.55-.07c-1.49-.9-1.95-2.66-.67-4.8s3.05-2.56,4.55-1.67a2.41,2.41,0,0,1,1.26,2.23Zm-2.17-.2c-1.11-.66-2.13-.23-3.05,1.31s-.83,2.66.28,3.32c.92.56,2.1.41,3.12-1.28S477.21,638.73,476.29,638.17Z"/>
    <path class="cls-3" d="M479.89,643.65c1.25-2.08,3.25-2.64,5-1.62,1.89,1.13,2.14,3.16.67,5.42l-4.65-2.79c-.78,1.3-.57,2.58.46,3.2a1.83,1.83,0,0,0,2.38-.19l1.14.68a3.09,3.09,0,0,1-4,.42C478.85,647.6,478.75,645.56,479.89,643.65Zm1.54.1,3.46,2.08a2,2,0,1,0-3.46-2.08Z"/>
  </g>
  <g>
    <path class="cls-3" d="M598.09,642.71H596.2V647h-1.33V636.84h2.48c2.22,0,3.92.48,3.92,2.9a2.52,2.52,0,0,1-1.83,2.72L601.6,647h-1.52Zm-1.89-4.61v3.36h1.31c1.34,0,2.39-.12,2.39-1.69s-1-1.67-2.39-1.67Z"/>
    <path class="cls-3" d="M603.54,643.26c0-2.43,1.43-3.94,3.42-3.94,2.2,0,3.46,1.61,3.36,4.3H604.9c0,1.51.84,2.51,2,2.51a1.82,1.82,0,0,0,2-1.39h1.33a3.1,3.1,0,0,1-3.25,2.44C604.67,647.18,603.54,645.48,603.54,643.26Zm1.37-.7h4a1.94,1.94,0,0,0-2-2.17C605.74,640.39,605,641.1,604.91,642.56Z"/>
    <path class="cls-3" d="M616,645.23l1.94-5.77h1.34L616.57,647h-1.23l-2.72-7.54h1.45Z"/>
    <path class="cls-3" d="M625.77,639.46v6.43h2.15V647h-5.57v-1.11h2.13v-5.32h-2.13v-1.11Zm0-2.62v1.53h-1.29v-1.53Z"/>
    <path class="cls-3" d="M630.67,643.26c0-2.43,1.43-3.94,3.42-3.94,2.2,0,3.46,1.61,3.36,4.3H632c0,1.51.84,2.51,2,2.51a1.82,1.82,0,0,0,2-1.39h1.33a3.1,3.1,0,0,1-3.25,2.44C631.8,647.18,630.67,645.48,630.67,643.26Zm1.37-.7h4a1.94,1.94,0,0,0-2-2.17C632.87,640.39,632.1,641.1,632,642.56Z"/>
    <path class="cls-3" d="M643.68,641,644.8,645l.77-5.58h1.3L645.61,647h-1.3l-1.23-4.56L641.84,647h-1.3l-1.26-7.54h1.32l.75,5.58,1.12-4.07Z"/>
    <path class="cls-3" d="M573.57,656.6a2.4,2.4,0,0,1,2.22-1.27c1.74,0,3,1.45,3,3.93s-1.3,3.92-3,3.92a2.4,2.4,0,0,1-2.22-1.25v3.52h-1.29v-10h1.29Zm2,5.51c1.29,0,1.94-1.06,1.94-2.85s-.65-2.85-1.94-2.85c-1.08,0-2,.86-2,2.85S574.45,662.11,575.53,662.11Z"/>
    <path class="cls-3" d="M585.93,662a2.37,2.37,0,0,1-2.21,1.15c-1.82,0-2.34-1.21-2.34-2.87v-4.85h1.29v4.4c0,1.22.07,2.21,1.47,2.21,1.16,0,1.79-.85,1.79-2.46v-4.15h1.29V663h-1.29Z"/>
    <path class="cls-3" d="M594,652.84v9h2.14V663h-5.56v-1.11h2.13v-8h-2.13v-1.09Z"/>
    <path class="cls-3" d="M603.08,652.84v9h2.14V663h-5.56v-1.11h2.13v-8h-2.13v-1.09Z"/>
    <path class="cls-3" d="M620.56,655.46v1.35a2.13,2.13,0,0,1,2-1.35h1.29v1.18H622.6c-1.45,0-2,1-2,2.6v2.65h2.58V663h-6v-1.11h2.13v-5.32h-2.14v-1.11Z"/>
    <path class="cls-3" d="M626.15,659.26c0-2.43,1.43-3.94,3.42-3.94,2.2,0,3.46,1.61,3.36,4.3h-5.42c0,1.51.84,2.51,2,2.51a1.82,1.82,0,0,0,2-1.39h1.33a3.1,3.1,0,0,1-3.25,2.44C627.28,663.18,626.15,661.48,626.15,659.26Zm1.37-.7h4a1.94,1.94,0,0,0-2-2.17C628.35,656.39,627.58,657.1,627.52,658.56Z"/>
    <path class="cls-3" d="M640.28,655.46h1.29v10h-1.29v-3.52a2.44,2.44,0,0,1-2.24,1.25c-1.73,0-3-1.44-3-3.92s1.3-3.93,3-3.93a2.44,2.44,0,0,1,2.24,1.27Zm-2,.95c-1.31,0-2,1.05-2,2.85s.64,2.84,2,2.84c1.06,0,2-.85,2-2.84S639.38,656.41,638.32,656.41Z"/>
    <path class="cls-3" d="M649.24,662a2.37,2.37,0,0,1-2.22,1.15c-1.82,0-2.34-1.21-2.34-2.87v-4.85H646v4.4c0,1.22.07,2.21,1.47,2.21,1.17,0,1.8-.85,1.8-2.46v-4.15h1.29V663h-1.29Z"/>
    <path class="cls-3" d="M653.28,659.26c0-2.43,1.43-3.94,3.42-3.94,2.2,0,3.46,1.61,3.36,4.3h-5.42c0,1.51.84,2.51,2,2.51a1.82,1.82,0,0,0,2-1.39H660a3.1,3.1,0,0,1-3.25,2.44C654.42,663.18,653.28,661.48,653.28,659.26Zm1.37-.7h4a1.94,1.94,0,0,0-2-2.17C655.48,656.39,654.71,657.1,654.65,658.56Z"/>
    <path class="cls-3" d="M667.25,657.52c-.16-.84-.82-1.12-1.68-1.12s-1.51.29-1.51,1,.39.85,1.14,1l.84.16c1.3.25,2.7.75,2.7,2.26s-1.37,2.38-3,2.38a2.84,2.84,0,0,1-3.08-2.44H664a1.58,1.58,0,0,0,1.76,1.37c.79,0,1.68-.28,1.68-1.16,0-.7-.63-1.05-1.59-1.22l-.93-.18c-1.19-.24-2.13-.83-2.13-2.13,0-1.46,1.58-2.09,2.84-2.09a2.78,2.78,0,0,1,3,2.19Z"/>
    <path class="cls-3" d="M673,653.57h1.29v1.89h3.08v1.11h-3.08v4.35c0,.77,0,1,.75,1h2.33V663h-2.61c-1.37,0-1.76-.33-1.76-1.89v-4.54h-2.14v-1.11H673Z"/>
  </g>
  <g>
    <path class="cls-3" d="M439.22,579.82c.73,2.07.11,3.73-1.5,4.61-2.18,1.18-4.25-.19-5.72-2.9s-1.35-5.24.77-6.39c1.54-.84,3.35-.28,4.62,1.37l-1.19.65a2.18,2.18,0,0,0-2.87-.91c-1.29.7-1.36,2.35-.13,4.63s2.64,3.17,4,2.43a2.12,2.12,0,0,0,.86-2.86Z"/>
    <path class="cls-3" d="M442.34,573.41l.58,1.21a2.12,2.12,0,0,1,1.23-2.08l1.16-.56.51,1.06-1.14.55c-1.3.63-1.4,1.73-.68,3.22l1.15,2.38,2.32-1.12.48,1-5.4,2.6-.48-1,1.92-.92L441.68,575l-1.93.92-.48-1Z"/>
    <path class="cls-3" d="M449.1,574.43c-1-2.23-.23-4.18,1.59-5,2-.87,3.82.12,4.79,2.63l-5,2.13c.6,1.39,1.76,2,2.85,1.5a1.81,1.81,0,0,0,1.25-2l1.22-.52a3.09,3.09,0,0,1-2,3.52C451.69,577.59,450,576.47,449.1,574.43Zm1-1.19,3.71-1.58a2,2,0,1,0-3.71,1.58Z"/>
    <path class="cls-3" d="M458.28,572.5c-.64-1.67.94-2.86,3.7-4.27l-.11-.31a1.49,1.49,0,0,0-2.19-1,1.55,1.55,0,0,0-1.14,2l-1.23.47a2.89,2.89,0,0,1,2-3.48c1.95-.74,3.12-.19,3.84,1.76l.64,1.72c.43,1.18.88,2.16,1.1,2.62l-1.15.44-.41-1a2.73,2.73,0,0,1-2,2.14A2.19,2.19,0,0,1,458.28,572.5Zm4.16-3.36c-2.07,1-3.26,1.83-2.88,2.84.26.66.89.87,1.74.55,1.07-.41,1.92-1.32,1.21-3.19Z"/>
    <path class="cls-3" d="M465.68,561.79l1.22-.41.61,1.79,2.91-1,.36,1-2.91,1,1.41,4.12c.25.73.35.9,1,.67l2.2-.75.35,1-2.46.85c-1.3.44-1.77.26-2.28-1.22l-1.47-4.29-2,.69-.36-1.05,2-.69Z"/>
    <path class="cls-3" d="M474.58,564.8c-.71-2.32.21-4.18,2.11-4.77,2.1-.64,3.77.52,4.47,3.12l-5.17,1.6c.44,1.44,1.54,2.14,2.67,1.79a1.83,1.83,0,0,0,1.46-1.9l1.27-.39a3.1,3.1,0,0,1-2.39,3.29C476.82,568.21,475.24,566.92,474.58,564.8Zm1.11-1.08,3.85-1.18a2,2,0,1,0-3.85,1.18Z"/>
    <path class="cls-3" d="M492.64,561.42c-.44-1.74,1.27-2.73,4.17-3.81l-.08-.32a1.47,1.47,0,0,0-2.05-1.22,1.55,1.55,0,0,0-1.37,1.89l-1.28.32a2.9,2.9,0,0,1,2.41-3.22c2-.51,3.11.16,3.6,2.19l.43,1.78c.3,1.23.63,2.26.8,2.73l-1.2.3-.28-1.06a2.76,2.76,0,0,1-2.25,1.89A2.19,2.19,0,0,1,492.64,561.42Zm4.52-2.85c-2.17.78-3.45,1.44-3.18,2.48.17.69.78,1,1.66.75,1.11-.28,2.06-1.09,1.57-3Z"/>
    <path class="cls-3" d="M510.77,552.58a2.45,2.45,0,0,1,1.93-1.7c1.69-.35,3.26.79,3.77,3.22s-.47,4.1-2.15,4.45a2.43,2.43,0,0,1-2.45-.76l.2,1.05-1.24.26-2.09-9.93,1.26-.26Zm3.05,5c1.28-.27,1.69-1.44,1.32-3.19s-1.22-2.65-2.49-2.38c-1,.21-1.8,1.25-1.39,3.19S512.78,557.79,513.82,557.57Z"/>
    <path class="cls-3" d="M521.24,549.29l.25,1.32a2.14,2.14,0,0,1,1.73-1.7l1.26-.24.23,1.15-1.25.24c-1.42.28-1.79,1.32-1.48,2.94l.51,2.6,2.52-.49.21,1.08-5.88,1.14-.21-1.09,2.09-.4-1-5.22-2.1.4-.21-1.08Z"/>
    <path class="cls-3" d="M527.93,553.7c-.32-1.77,1.46-2.64,4.44-3.5l-.06-.32a1.48,1.48,0,0,0-2-1.37,1.56,1.56,0,0,0-1.51,1.78l-1.29.23a2.9,2.9,0,0,1,2.63-3c2.05-.36,3.1.39,3.43,2.45l.31,1.81c.2,1.24.46,2.29.59,2.78l-1.21.22-.21-1.09a2.77,2.77,0,0,1-2.38,1.73A2.19,2.19,0,0,1,527.93,553.7Zm4.71-2.52c-2.22.63-3.54,1.19-3.35,2.25.12.7.7,1,1.6.87,1.13-.2,2.14-.94,1.79-2.91Z"/>
    <path class="cls-3" d="M537.67,547.44a2.38,2.38,0,0,1,2-1.54c1.8-.29,2.53.81,2.8,2.46l.77,4.72-1.27.21-.7-4.28c-.2-1.21-.45-2.18-1.84-2-1.14.19-1.63,1.14-1.37,2.73l.66,4-1.27.21-1.21-7.44,1.27-.21Z"/>
    <path class="cls-3" d="M551.6,546.73l-1.29.19a1.8,1.8,0,0,0-2-1.29c-1.11.17-1.88,1.26-1.6,3.13s1.34,2.7,2.45,2.54a1.86,1.86,0,0,0,1.58-1.81l1.32-.2a3.16,3.16,0,0,1-2.82,3.06c-2.06.3-3.53-1.12-3.87-3.39s.7-4.07,2.84-4.39A2.94,2.94,0,0,1,551.6,546.73Z"/>
    <path class="cls-3" d="M560.39,545.72l.66,4.75-1.28.18-.6-4.3c-.17-1.21-.39-2.21-1.78-2-1.15.16-1.66,1.13-1.44,2.72l.56,4.05-1.28.18-1.39-10.06,1.27-.18.51,3.65a2.41,2.41,0,0,1,2-1.48C559.46,543,560.16,544.08,560.39,545.72Z"/>
  </g>
</svg>
