<svg id="Layer_1" data-name="Layer 1" xmlns="http://www.w3.org/2000/svg" viewBox="0 0 1200 800">
  <defs>
    <style>
      .cls-1 {
        fill: #fff;
      }

      .cls-2 {
        fill: #3a10e5;
      }

      .cls-3 {
        fill: #66c4ff;
      }

      .cls-4 {
        fill: #e91c11;
      }

      .cls-5 {
        fill: #f5fcff;
      }

      .cls-6 {
        fill: #10162f;
      }
    </style>
  </defs>
  <path class="cls-1" d="M426,257.48c-69.05,0-71.53-34.78-73.72-65.46-1.88-26.35-3.51-49.1-44.13-49.1a1.5,1.5,0,0,1,0-3c19.74,0,32.17,5.12,39.14,16.12,6.12,9.66,7,22.34,8,35.76,2.2,30.82,4.48,62.68,70.73,62.68a1.5,1.5,0,1,1,0,3Z"/>
  <path class="cls-1" d="M564.46,257.48a1.5,1.5,0,1,1,0-3c66.26,0,68.54-31.86,70.74-62.68,1-13.42,1.86-26.1,8-35.76,7-11,19.4-16.12,39.14-16.12a1.5,1.5,0,0,1,0,3c-40.62,0-42.25,22.75-44.13,49.1C636,222.7,633.52,257.48,564.46,257.48Z"/>
  <path class="cls-2" d="M1091.1,143l-986-.08a1.5,1.5,0,0,1,0-3l986,.08a1.5,1.5,0,0,1,0,3Z"/>
  <path class="cls-1" d="M568.57,258h0l-153.43-.2a1.5,1.5,0,0,1,0-3h0l153.44.2a1.5,1.5,0,1,1,0,3Z"/>
  <g>
    <circle class="cls-2" cx="110.3" cy="141.78" r="28.5"/>
    <path class="cls-2" d="M110.3,114.78a27,27,0,1,1-27,27,27,27,0,0,1,27-27m0-3a30,30,0,1,0,30,30,30,30,0,0,0-30-30Z"/>
  </g>
  <g>
    <circle class="cls-2" cx="493.41" cy="140.53" r="27.87"/>
    <path class="cls-2" d="M493.41,114.16A26.37,26.37,0,1,1,467,140.53a26.39,26.39,0,0,1,26.37-26.37m0-3a29.37,29.37,0,1,0,29.36,29.37,29.37,29.37,0,0,0-29.36-29.37Z"/>
  </g>
  <g>
    <circle class="cls-2" cx="693.97" cy="141.79" r="28.5"/>
    <path class="cls-2" d="M694,114.79a27,27,0,1,1-27,27,27,27,0,0,1,27-27m0-3a30,30,0,1,0,30,30,30,30,0,0,0-30-30Z"/>
  </g>
  <g>
    <circle class="cls-2" cx="888.7" cy="140.53" r="28.5"/>
    <path class="cls-2" d="M888.7,113.53a27,27,0,1,1-27,27,27,27,0,0,1,27-27m0-3a30,30,0,1,0,30,30,30,30,0,0,0-30-30Z"/>
  </g>
  <g>
    <circle class="cls-2" cx="1089.27" cy="141.79" r="28.5"/>
    <path class="cls-2" d="M1089.27,114.79a27,27,0,1,1-27,27,27,27,0,0,1,27-27m0-3a30,30,0,1,0,30,30,30,30,0,0,0-30-30Z"/>
  </g>
  <g>
    <path class="cls-3" d="M567.76,284.75a28.4,28.4,0,1,1,28.4-28.4A28.42,28.42,0,0,1,567.76,284.75Z"/>
    <path class="cls-3" d="M567.76,229.45a26.9,26.9,0,1,1-26.89,26.9,26.93,26.93,0,0,1,26.89-26.9m0-3a29.9,29.9,0,1,0,29.9,29.9,29.9,29.9,0,0,0-29.9-29.9Z"/>
  </g>
  <g>
    <circle class="cls-2" cx="292.83" cy="141.79" r="28.5"/>
    <path class="cls-2" d="M292.83,114.79a27,27,0,1,1-27,27,27,27,0,0,1,27-27m0-3a30,30,0,1,0,30,30,30,30,0,0,0-30-30Z"/>
  </g>
  <g>
    <circle class="cls-3" cx="415.83" cy="256.14" r="28.4" transform="translate(96.39 625.58) rotate(-80.78)"/>
    <path class="cls-3" d="M415.83,229.25a26.9,26.9,0,1,1-26.89,26.89,26.92,26.92,0,0,1,26.89-26.89m0-3a29.9,29.9,0,1,0,29.9,29.89,29.89,29.89,0,0,0-29.9-29.89Z"/>
  </g>
  <g>
    <path class="cls-1" d="M580.49,93l-2.12-7.64V98h-1.9V83.46h3l2,7.42,2-7.42h3V98h-1.9V85.32L582.42,93Z"/>
    <path class="cls-1" d="M589.79,95.16c0-2.56,2.72-3.34,7.13-3.82v-.46a2.12,2.12,0,0,0-2.43-2.42,2.22,2.22,0,0,0-2.56,2.14h-1.88c.18-2.32,2.22-3.62,4.47-3.62,3,0,4.26,1.32,4.22,4.3l0,2.62c0,1.8.08,3.34.14,4.06H597.1l0-1.58c-.66,1.12-1.78,1.84-3.79,1.84S589.79,97.1,589.79,95.16Zm7.27-2.36c-3.29.32-5.29.78-5.29,2.32,0,1,.74,1.62,2,1.62,1.65,0,3.25-.78,3.25-3.64Z"/>
    <path class="cls-1" d="M608.39,87.2v9.18h3.07V98h-8V96.38h3v-7.6h-3V87.2Zm0-3.74v2.18h-1.84V83.46Z"/>
    <path class="cls-1" d="M617.88,88.72A3.35,3.35,0,0,1,621,87c2.59,0,3.38,1.72,3.38,4.1V98h-1.84v-6.2c0-1.74-.14-3.18-2.14-3.18-1.66,0-2.56,1.24-2.56,3.54V98H616V87.2h1.85Z"/>
  </g>
  <g>
    <path class="cls-1" d="M273.82,326.28H272a2.56,2.56,0,0,0-2.54-2.24c-1.6,0-2.92,1.38-2.92,4.08s1.32,4.1,2.92,4.1A2.66,2.66,0,0,0,272,330h1.9a4.49,4.49,0,0,1-4.62,3.72c-3,0-4.76-2.32-4.76-5.6s1.86-5.6,4.94-5.6A4.2,4.2,0,0,1,273.82,326.28Z"/>
    <path class="cls-1" d="M277.64,330.66c0-2.56,2.71-3.34,7.12-3.82v-.46a2.12,2.12,0,0,0-2.42-2.42,2.24,2.24,0,0,0-2.57,2.14H277.9c.17-2.32,2.22-3.63,4.46-3.63,3,0,4.26,1.32,4.22,4.31l0,2.62c0,1.8.08,3.34.14,4.06h-1.76l0-1.58a3.94,3.94,0,0,1-3.78,1.84C279.19,333.72,277.64,332.6,277.64,330.66Zm7.26-2.36c-3.28.32-5.29.78-5.29,2.32,0,1,.74,1.62,2.05,1.62,1.64,0,3.24-.78,3.24-3.64Z"/>
    <path class="cls-1" d="M295.26,322.7v1.92a3,3,0,0,1,2.88-1.92H300v1.68h-1.82c-2.06,0-2.86,1.36-2.86,3.72v3.78H299v1.58h-8.57v-1.58h3v-7.6H290.4V322.7Z"/>
    <path class="cls-1" d="M309,319v12.92h3.06v1.58h-8v-1.58h3.05V320.52h-3.05V319Z"/>
    <path class="cls-1" d="M321,322.52c2.46,0,5,1.69,5,5.6s-2.52,5.6-5,5.6-5-1.7-5-5.6S318.52,322.52,321,322.52Zm0,9.66c1.64,0,3-1.2,3-4.06s-1.4-4.07-3-4.07-3,1.21-3,4.07S319.34,332.18,321,332.18Z"/>
    <path class="cls-1" d="M336.12,325.64c-.24-1.2-1.18-1.6-2.4-1.6s-2.16.42-2.16,1.38.55,1.22,1.62,1.44l1.2.24c1.86.36,3.86,1.06,3.86,3.22s-2,3.4-4.3,3.4c-2.8,0-4.21-1.76-4.41-3.48h2a2.24,2.24,0,0,0,2.5,2c1.14,0,2.4-.4,2.4-1.66,0-1-.9-1.5-2.26-1.74l-1.35-.26c-1.7-.34-3-1.18-3-3,0-2.08,2.26-3,4.07-3a4,4,0,0,1,4.24,3.12Z"/>
    <path class="cls-1" d="M342.87,335.18v-1.72h7.87v1.72Z"/>
    <path class="cls-1" d="M357.68,321.92c0-2.25.54-3,2.86-3h3.8v1.56h-3.76c-.9,0-1.06.27-1.06,1.4v.78h4.82v1.58h-4.82v9.18h-1.84v-9.18h-2.87V322.7h2.87Z"/>
    <path class="cls-1" d="M367.83,328.12c0-3.46,2-5.62,4.89-5.62,3.14,0,4.94,2.29,4.8,6.14h-7.75c0,2.16,1.21,3.58,2.91,3.58a2.59,2.59,0,0,0,2.78-2h1.9a4.42,4.42,0,0,1-4.64,3.48C369.45,333.72,367.83,331.3,367.83,328.12Zm2-1h5.77a2.76,2.76,0,0,0-2.84-3.1C371,324,369.87,325,369.79,327.12Z"/>
    <path class="cls-1" d="M381,330.66c0-2.56,2.72-3.34,7.13-3.82v-.46a2.12,2.12,0,0,0-2.43-2.42,2.22,2.22,0,0,0-2.56,2.14h-1.88c.18-2.32,2.23-3.63,4.47-3.63,3,0,4.26,1.32,4.22,4.31l0,2.62c0,1.8.08,3.34.14,4.06H388.3l0-1.58c-.66,1.12-1.78,1.84-3.79,1.84S381,332.6,381,330.66Zm7.27-2.36c-3.28.32-5.29.78-5.29,2.32,0,1,.74,1.62,2,1.62,1.64,0,3.24-.78,3.24-3.64Z"/>
    <path class="cls-1" d="M396,320h1.84v2.71h4.41v1.58h-4.41v6.22c0,1.1.06,1.38,1.09,1.38h3.32v1.58h-3.73c-2,0-2.52-.46-2.52-2.7v-6.48h-3.06V322.7H396Z"/>
    <path class="cls-1" d="M413.74,332.08a3.37,3.37,0,0,1-3.17,1.64c-2.6,0-3.34-1.72-3.34-4.1V322.7h1.84V329c0,1.74.1,3.16,2.11,3.16,1.66,0,2.56-1.22,2.56-3.52V322.7h1.84v10.76h-1.84Z"/>
    <path class="cls-1" d="M424.45,322.7v1.92a3.06,3.06,0,0,1,2.89-1.92h1.84v1.68h-1.82c-2.06,0-2.87,1.36-2.87,3.72v3.78h3.69v1.58h-8.57v-1.58h3v-7.6h-3.06V322.7Z"/>
    <path class="cls-1" d="M432.43,328.12c0-3.46,2-5.62,4.88-5.62,3.15,0,4.95,2.29,4.81,6.14h-7.75c0,2.16,1.2,3.58,2.9,3.58a2.6,2.6,0,0,0,2.79-2H442a4.43,4.43,0,0,1-4.65,3.48C434.05,333.72,432.43,331.3,432.43,328.12Zm2-1h5.77a2.77,2.77,0,0,0-2.85-3.1C435.57,324,434.47,325,434.39,327.12Z"/>
    <path class="cls-1" d="M446.23,335.18v-1.72h7.87v1.72Z"/>
    <path class="cls-1" d="M465.52,319h1.84v14.5h-1.82l0-1.52a3.45,3.45,0,0,1-3.19,1.78c-2.48,0-4.34-2-4.34-5.6s1.86-5.6,4.34-5.6a3.43,3.43,0,0,1,3.19,1.8Zm-2.81,5.09c-1.84,0-2.78,1.51-2.78,4.07s.94,4.08,2.78,4.08c1.55,0,2.89-1.26,2.89-4.08S464.26,324.05,462.71,324.05Z"/>
    <path class="cls-1" d="M471.43,330.66c0-2.56,2.72-3.34,7.13-3.82v-.46a2.13,2.13,0,0,0-2.43-2.42,2.22,2.22,0,0,0-2.56,2.14h-1.88c.18-2.32,2.22-3.63,4.46-3.63,3,0,4.27,1.32,4.23,4.31l0,2.62c0,1.8.08,3.34.14,4.06h-1.77v-1.58c-.66,1.12-1.78,1.84-3.79,1.84S471.43,332.6,471.43,330.66Zm7.26-2.36c-3.28.32-5.28.78-5.28,2.32,0,1,.74,1.62,2,1.62,1.65,0,3.24-.78,3.24-3.64Z"/>
    <path class="cls-1" d="M491.15,325.64c-.24-1.2-1.17-1.6-2.4-1.6-1.08,0-2.16.42-2.16,1.38s.56,1.22,1.62,1.44l1.2.24c1.86.36,3.87,1.06,3.87,3.22s-2,3.4-4.31,3.4c-2.8,0-4.2-1.76-4.4-3.48h1.94a2.24,2.24,0,0,0,2.5,2c1.14,0,2.41-.4,2.41-1.66,0-1-.9-1.5-2.27-1.74l-1.34-.26c-1.7-.34-3-1.18-3-3,0-2.08,2.26-3,4.06-3,2.28,0,3.85,1.19,4.25,3.12Z"/>
    <path class="cls-1" d="M506.06,326.62v6.84h-1.84v-6.2c0-1.74-.12-3.21-2.13-3.21-1.66,0-2.58,1.27-2.58,3.57v5.84h-1.84V319h1.84v5.25a3.45,3.45,0,0,1,3.18-1.69C505.3,322.52,506.06,324.24,506.06,326.62Z"/>
    <path class="cls-1" d="M512.35,324.32a3.46,3.46,0,0,1,3.2-1.8c2.47,0,4.33,2.06,4.33,5.6s-1.86,5.6-4.33,5.6a3.49,3.49,0,0,1-3.2-1.78l0,1.52h-1.82V319h1.84Zm2.8,7.88c1.87,0,2.79-1.52,2.79-4.08s-.92-4.07-2.79-4.07c-1.52,0-2.88,1.23-2.88,4.07S513.63,332.2,515.15,332.2Z"/>
    <path class="cls-1" d="M527.69,322.52c2.46,0,5,1.69,5,5.6s-2.53,5.6-5,5.6-5-1.7-5-5.6S525.23,322.52,527.69,322.52Zm0,9.66c1.64,0,3-1.2,3-4.06s-1.4-4.07-3-4.07-3,1.21-3,4.07S526.05,332.18,527.69,332.18Z"/>
    <path class="cls-1" d="M536,330.66c0-2.56,2.72-3.34,7.12-3.82v-.46a2.12,2.12,0,0,0-2.42-2.42,2.22,2.22,0,0,0-2.56,2.14h-1.88c.18-2.32,2.22-3.63,4.46-3.63,3,0,4.27,1.32,4.23,4.31l0,2.62c0,1.8.08,3.34.14,4.06h-1.77l0-1.58a3.94,3.94,0,0,1-3.78,1.84C537.59,333.72,536,332.6,536,330.66Zm7.26-2.36c-3.28.32-5.28.78-5.28,2.32,0,1,.74,1.62,2,1.62,1.64,0,3.24-.78,3.24-3.64Z"/>
    <path class="cls-1" d="M553.65,322.7v1.92a3,3,0,0,1,2.88-1.92h1.85v1.68h-1.82c-2.07,0-2.87,1.36-2.87,3.72v3.78h3.68v1.58h-8.56v-1.58h3v-7.6h-3.06V322.7Z"/>
    <path class="cls-1" d="M568.87,319h1.85v14.5H568.9l0-1.52a3.43,3.43,0,0,1-3.18,1.78c-2.48,0-4.34-2-4.34-5.6s1.86-5.6,4.34-5.6a3.41,3.41,0,0,1,3.18,1.8Zm-2.8,5.09c-1.84,0-2.78,1.51-2.78,4.07s.94,4.08,2.78,4.08c1.54,0,2.88-1.26,2.88-4.08S567.61,324.05,566.07,324.05Z"/>
    <path class="cls-1" d="M575.43,335.18v-1.72h7.86v1.72Z"/>
    <path class="cls-1" d="M590,324.21a3.37,3.37,0,0,1,3.16-1.69c2.6,0,3.38,1.72,3.38,4.1v6.84h-1.84v-6.2c0-1.74-.14-3.18-2.14-3.18-1.66,0-2.56,1.24-2.56,3.54v5.84h-1.84V322.7H590Z"/>
    <path class="cls-1" d="M605.21,322.52c2.46,0,5,1.69,5,5.6s-2.53,5.6-5,5.6-5-1.7-5-5.6S602.75,322.52,605.21,322.52Zm0,9.66c1.64,0,3-1.2,3-4.06s-1.4-4.07-3-4.07-3,1.21-3,4.07S603.57,332.18,605.21,332.18Z"/>
    <path class="cls-1" d="M615.61,320h1.84v2.71h4.41v1.58h-4.41v6.22c0,1.1.06,1.38,1.08,1.38h3.33v1.58h-3.73c-2,0-2.52-.46-2.52-2.7v-6.48h-3.06V322.7h3.06Z"/>
    <path class="cls-1" d="M632.15,322.7v9.18h3.06v1.58h-7.94v-1.58h3v-7.6h-3V322.7Zm0-3.74v2.17h-1.84V319Z"/>
    <path class="cls-1" d="M641.91,321.92c0-2.25.54-3,2.86-3h3.8v1.56h-3.76c-.9,0-1.06.27-1.06,1.4v.78h4.82v1.58h-4.82v9.18h-1.84v-9.18h-2.86V322.7h2.86Z"/>
    <path class="cls-1" d="M658,322.7v9.18h3.06v1.58h-7.94v-1.58h3v-7.6h-3V322.7Zm0-3.74v2.17h-1.84V319Z"/>
    <path class="cls-1" d="M674.33,326.28h-1.86a2.56,2.56,0,0,0-2.54-2.24c-1.6,0-2.92,1.38-2.92,4.08s1.32,4.1,2.92,4.1a2.66,2.66,0,0,0,2.62-2.22h1.91a4.5,4.5,0,0,1-4.63,3.72c-3,0-4.76-2.32-4.76-5.6s1.86-5.6,4.94-5.6A4.2,4.2,0,0,1,674.33,326.28Z"/>
    <path class="cls-1" d="M678.15,330.66c0-2.56,2.72-3.34,7.12-3.82v-.46a2.12,2.12,0,0,0-2.42-2.42,2.22,2.22,0,0,0-2.56,2.14h-1.88c.18-2.32,2.22-3.63,4.46-3.63,3,0,4.26,1.32,4.22,4.31l0,2.62c0,1.8.08,3.34.14,4.06h-1.76l0-1.58a3.94,3.94,0,0,1-3.78,1.84C679.71,333.72,678.15,332.6,678.15,330.66Zm7.26-2.36c-3.28.32-5.28.78-5.28,2.32,0,1,.74,1.62,2,1.62,1.64,0,3.24-.78,3.24-3.64Z"/>
    <path class="cls-1" d="M693.13,320H695v2.71h4.41v1.58H695v6.22c0,1.1.06,1.38,1.08,1.38h3.33v1.58h-3.73c-2,0-2.52-.46-2.52-2.7v-6.48h-3.06V322.7h3.06Z"/>
    <path class="cls-1" d="M709.67,322.7v9.18h3.06v1.58h-7.94v-1.58h3v-7.6h-3V322.7Zm0-3.74v2.17h-1.84V319Z"/>
    <path class="cls-1" d="M721.49,322.52c2.46,0,5,1.69,5,5.6s-2.52,5.6-5,5.6-5-1.7-5-5.6S719,322.52,721.49,322.52Zm0,9.66c1.64,0,3-1.2,3-4.06s-1.4-4.07-3-4.07-3,1.21-3,4.07S719.85,332.18,721.49,332.18Z"/>
    <path class="cls-1" d="M732.07,324.21a3.37,3.37,0,0,1,3.16-1.69c2.6,0,3.38,1.72,3.38,4.1v6.84h-1.84v-6.2c0-1.74-.14-3.18-2.14-3.18-1.66,0-2.56,1.24-2.56,3.54v5.84h-1.84V322.7h1.84Z"/>
    <path class="cls-1" d="M749.55,325.64c-.24-1.2-1.18-1.6-2.4-1.6s-2.16.42-2.16,1.38.56,1.22,1.62,1.44l1.2.24c1.86.36,3.86,1.06,3.86,3.22s-2,3.4-4.3,3.4c-2.8,0-4.2-1.76-4.4-3.48h1.94a2.24,2.24,0,0,0,2.5,2c1.14,0,2.4-.4,2.4-1.66,0-1-.9-1.5-2.26-1.74l-1.34-.26c-1.7-.34-3-1.18-3-3,0-2.08,2.26-3,4.06-3a4,4,0,0,1,4.24,3.12Z"/>
  </g>
  <g>
    <path class="cls-4" d="M597.87,364.46c4.12,0,7.45,1.7,7.45,7.24S602,379,597.87,379h-2.48v-14.5Zm-.06,1.8h-.52v10.9h.52c2.71,0,5.57-.54,5.57-5.46S600.52,366.26,597.81,366.26Z"/>
    <path class="cls-4" d="M608.07,373.62c0-3.46,2-5.62,4.89-5.62,3.14,0,4.94,2.3,4.8,6.14H610c0,2.16,1.2,3.58,2.9,3.58a2.61,2.61,0,0,0,2.79-2h1.9a4.43,4.43,0,0,1-4.64,3.48C609.69,379.22,608.07,376.8,608.07,373.62Zm2-1h5.76a2.76,2.76,0,0,0-2.83-3.1C611.21,369.52,610.11,370.54,610,372.62Z"/>
    <path class="cls-4" d="M626.79,364.46v12.92h3.07V379h-8v-1.58H625V366h-3.05v-1.56Z"/>
    <path class="cls-4" d="M633.91,373.62c0-3.46,2-5.62,4.88-5.62,3.15,0,5,2.3,4.81,6.14h-7.75c0,2.16,1.2,3.58,2.9,3.58a2.61,2.61,0,0,0,2.79-2h1.9a4.44,4.44,0,0,1-4.65,3.48C635.53,379.22,633.91,376.8,633.91,373.62Zm2-1h5.76a2.76,2.76,0,0,0-2.84-3.1C637.05,369.52,636,370.54,635.87,372.62Z"/>
    <path class="cls-4" d="M649.13,365.5H651v2.7h4.41v1.58H651V376c0,1.1.06,1.38,1.08,1.38h3.33V379h-3.73c-2,0-2.52-.46-2.52-2.7v-6.48h-3.06V368.2h3.06Z"/>
    <path class="cls-4" d="M659.75,373.62c0-3.46,2-5.62,4.88-5.62,3.15,0,5,2.3,4.81,6.14h-7.75c0,2.16,1.2,3.58,2.9,3.58a2.61,2.61,0,0,0,2.79-2h1.9a4.44,4.44,0,0,1-4.65,3.48C661.37,379.22,659.75,376.8,659.75,373.62Zm2-1h5.76a2.76,2.76,0,0,0-2.84-3.1C662.89,369.52,661.79,370.54,661.71,372.62Z"/>
    <path class="cls-4" d="M688,369.82a3.46,3.46,0,0,1,3.2-1.8c2.46,0,4.33,2.06,4.33,5.6s-1.87,5.6-4.33,5.6a3.49,3.49,0,0,1-3.2-1.78l0,1.52h-1.82v-14.5H688Zm2.8,7.88c1.86,0,2.78-1.52,2.78-4.08s-.92-4.06-2.78-4.06c-1.52,0-2.88,1.22-2.88,4.06S689.27,377.7,690.79,377.7Z"/>
    <path class="cls-4" d="M703.45,368.2v1.92a3,3,0,0,1,2.88-1.92h1.85v1.68h-1.82c-2.07,0-2.87,1.36-2.87,3.72v3.78h3.68V379h-8.56v-1.58h3v-7.6h-3.06V368.2Z"/>
    <path class="cls-4" d="M711.67,376.16c0-2.56,2.72-3.34,7.12-3.82v-.46a2.12,2.12,0,0,0-2.42-2.42,2.22,2.22,0,0,0-2.56,2.14h-1.88c.18-2.32,2.22-3.62,4.46-3.62,3,0,4.26,1.32,4.23,4.3l0,2.62c0,1.8.08,3.34.13,4.06H719v-1.58a4,4,0,0,1-3.79,1.84C713.23,379.22,711.67,378.1,711.67,376.16Zm7.26-2.36c-3.28.32-5.28.78-5.28,2.32,0,1,.74,1.62,2,1.62,1.64,0,3.24-.78,3.24-3.64Z"/>
    <path class="cls-4" d="M726.83,369.72A3.37,3.37,0,0,1,730,368c2.6,0,3.39,1.72,3.39,4.1V379h-1.84v-6.2c0-1.74-.15-3.18-2.15-3.18-1.66,0-2.56,1.24-2.56,3.54V379H725V368.2h1.84Z"/>
    <path class="cls-4" d="M746.62,371.78h-1.87a2.56,2.56,0,0,0-2.54-2.24c-1.6,0-2.92,1.38-2.92,4.08s1.32,4.1,2.92,4.1a2.66,2.66,0,0,0,2.62-2.22h1.9a4.48,4.48,0,0,1-4.62,3.72c-3,0-4.76-2.32-4.76-5.6s1.86-5.6,4.94-5.6A4.21,4.21,0,0,1,746.62,371.78Z"/>
    <path class="cls-4" d="M759.21,372.12V379h-1.83v-6.2c0-1.74-.13-3.2-2.13-3.2-1.66,0-2.58,1.26-2.58,3.56V379h-1.84v-14.5h1.84v5.26a3.44,3.44,0,0,1,3.18-1.7C758.46,368,759.21,369.74,759.21,372.12Z"/>
  </g>
  <g>
    <path class="cls-1" d="M654.65,250.11l-7.88-.93,11.7,4.78-.72,1.76-13.42-5.48,1.13-2.76,7.62,1L647,243.77,648.1,241l13.42,5.48-.72,1.76-11.7-4.78,6.27,4.85Z"/>
    <path class="cls-1" d="M657.76,241.6c-3.2-1.31-4.43-4-3.36-6.65,1.19-2.91,4-3.7,7.5-2.12L659,240c2,.81,3.77.24,4.42-1.33a2.62,2.62,0,0,0-.78-3.33l.72-1.76a4.43,4.43,0,0,1,1.46,5.62C663.56,242.22,660.7,242.8,657.76,241.6Zm-.18-2.2,2.17-5.33a2.76,2.76,0,0,0-3.94,1.46C655.15,237.14,655.68,238.54,657.58,239.4Z"/>
    <path class="cls-1" d="M659.5,223l1.78.73a3,3,0,0,1-.69-3.39l.7-1.71,1.55.64-.69,1.68c-.78,1.91.18,3.16,2.36,4.06l3.5,1.43,1.4-3.41,1.46.6-3.24,7.93-1.46-.6,1.15-2.82-7-2.87-1.16,2.83-1.46-.6Z"/>
    <path class="cls-1" d="M665.27,208.89l.7-1.71,8.72,3.57c2,.83,2.77,1.43,3.18,2.22a5.08,5.08,0,0,1-.11,4c-.89,2.17-2.55,3.28-4.64,2.78l.74-1.8c1,.13,1.83-.14,2.42-1.6a2.92,2.92,0,0,0,.1-2.34c-.26-.49-.64-.87-2-1.42l-1-.39a3.39,3.39,0,0,1,.45,3.61c-.94,2.3-3.33,3.33-6.63,2s-4.27-3.76-3.34-6.06a3.41,3.41,0,0,1,2.87-2.26Zm.2,3.1c-.69,1.71.14,3.06,2.51,4s3.93.59,4.62-1.11c.59-1.43.13-3.06-2.48-4.13S666.06,210.57,665.47,212Z"/>
    <path class="cls-1" d="M672.43,205.72c-3.21-1.31-4.43-4-3.36-6.65,1.19-2.9,4-3.7,7.5-2.12l-2.93,7.17c2,.82,3.77.24,4.41-1.33a2.58,2.58,0,0,0-.78-3.32l.72-1.76a4.43,4.43,0,0,1,1.47,5.61C678.22,206.34,675.37,206.92,672.43,205.72Zm-.19-2.19,2.18-5.34a2.76,2.76,0,0,0-3.94,1.46C669.82,201.26,670.35,202.66,672.24,203.53Z"/>
  </g>
  <g>
    <rect class="cls-5" x="298.42" y="518.78" width="599" height="199"/>
    <path class="cls-6" d="M896.92,519.28v198h-598v-198h598m1-1h-600v200h600v-200Z"/>
  </g>
  <rect class="cls-3" x="541.73" y="670.79" width="163.42" height="3"/>
  <path class="cls-2" d="M506.55,674.22a1.54,1.54,0,0,1-.77-.21l-84.36-50.43A1.5,1.5,0,1,1,423,621l84.36,50.42a1.5,1.5,0,0,1-.77,2.79Z"/>
  <path class="cls-3" d="M412,605.27l-1.41-2.64c.94-.5,94.95-50.3,180.52-48.67l-.06,3c-1.36,0-2.73,0-4.09,0C503.29,556.92,412.88,604.78,412,605.27Z"/>
  <path class="cls-3" d="M749.29,673.77l-.46-3c28.38-4.36,66.26-17.35,85.62-54.48a96.7,96.7,0,0,0,11-43.14l3-.11c0,.87.61,21.57-11.3,44.51C826.18,638.74,802,665.66,749.29,673.77Z"/>
  <path class="cls-2" d="M363.43,651.5a1.5,1.5,0,0,1-1.5-1.5c0-13.56,3.85-24,11.45-30.94,11.47-10.52,27.19-9.3,27.85-9.24a1.5,1.5,0,1,1-.26,3c-.14,0-15.1-1.14-25.58,8.49-6.94,6.38-10.46,16-10.46,28.71A1.5,1.5,0,0,1,363.43,651.5Z"/>
  <g>
    <circle class="cls-5" cx="846.98" cy="558" r="18.5"/>
    <path class="cls-3" d="M847,541a17,17,0,1,1-17,17,17,17,0,0,1,17-17m0-3a20,20,0,1,0,20,20,20,20,0,0,0-20-20Z"/>
  </g>
  <g>
    <circle class="cls-5" cx="715.98" cy="670" r="18.5"/>
    <path class="cls-3" d="M716,653a17,17,0,1,1-17,17,17,17,0,0,1,17-17m0-3a20,20,0,1,0,20,20,20,20,0,0,0-20-20Z"/>
  </g>
  <g>
    <circle class="cls-2" cx="505.98" cy="670" r="18.5"/>
    <path class="cls-2" d="M506,653a17,17,0,1,1-17,17,17,17,0,0,1,17-17m0-3a20,20,0,1,0,20,20,20,20,0,0,0-20-20Z"/>
  </g>
  <g>
    <circle class="cls-5" cx="401.1" cy="606.85" r="18.5"/>
    <path class="cls-3" d="M401.1,589.85a17,17,0,1,1-17,17,17,17,0,0,1,17-17m0-3a20,20,0,1,0,20,20,20,20,0,0,0-20-20Z"/>
  </g>
  <g>
    <circle class="cls-5" cx="626.98" cy="558" r="18.5"/>
    <path class="cls-3" d="M627,541a17,17,0,1,1-17,17,17,17,0,0,1,17-17m0-3a20,20,0,1,0,20,20,20,20,0,0,0-20-20Z"/>
  </g>
  <g>
    <path class="cls-3" d="M666.7,547.63c-.35,2.17-1.69,3.33-3.53,3.33-2.48,0-3.64-2.2-3.64-5.28s1.32-5.25,3.74-5.25c1.75,0,3.07,1.36,3.41,3.42h-1.36c-.17-1.17-.8-2.17-2.09-2.17-1.47,0-2.33,1.41-2.33,4s.8,4.05,2.36,4.05c1.29,0,1.93-.88,2.11-2.1Z"/>
    <path class="cls-3" d="M672.18,543.12c1.72,0,3.48,1.19,3.48,3.92S673.9,551,672.18,551s-3.49-1.19-3.49-3.92S670.45,543.12,672.18,543.12Zm0,6.76c1.14,0,2.12-.84,2.12-2.84s-1-2.84-2.12-2.84-2.13.84-2.13,2.84S671,549.88,672.18,549.88Z"/>
    <path class="cls-3" d="M683.1,543.12c.78,0,1.55.36,1.55,2.35v5.31h-1.29v-4.65c0-1.09,0-1.93-.64-1.93s-.84.75-.84,2.31v4.27h-1.29v-4.65c0-1.09,0-1.93-.63-1.93s-.86.77-.86,2.34v4.24h-1.28v-7.54h1.23v.8a1.49,1.49,0,0,1,1.37-.92,1.2,1.2,0,0,1,1.18,1A1.64,1.64,0,0,1,683.1,543.12Z"/>
    <path class="cls-3" d="M692.14,543.12c.78,0,1.56.36,1.56,2.35v5.31h-1.29v-4.65c0-1.09,0-1.93-.65-1.93s-.84.75-.84,2.31v4.27h-1.29v-4.65c0-1.09,0-1.93-.63-1.93s-.85.77-.85,2.34v4.24h-1.29v-7.54h1.23v.8a1.49,1.49,0,0,1,1.37-.92,1.2,1.2,0,0,1,1.18,1A1.64,1.64,0,0,1,692.14,543.12Z"/>
    <path class="cls-3" d="M700.08,543.24v6.43h2.14v1.11h-5.56v-1.11h2.13v-5.32h-2.13v-1.11Zm0-2.62v1.53h-1.29v-1.53Z"/>
    <path class="cls-3" d="M706.59,541.35h1.29v1.89H711v1.11h-3.08v4.36c0,.77,0,1,.75,1H711v1.11h-2.61c-1.37,0-1.76-.32-1.76-1.89v-4.54h-2.15v-1.11h2.15Z"/>
    <path class="cls-3" d="M729.61,545.75H728.3a1.8,1.8,0,0,0-1.78-1.57c-1.12,0-2,1-2,2.86s.92,2.87,2,2.87a1.86,1.86,0,0,0,1.84-1.55h1.33a3.14,3.14,0,0,1-3.24,2.6c-2.08,0-3.33-1.62-3.33-3.92s1.3-3.92,3.46-3.92A3,3,0,0,1,729.61,545.75Z"/>
    <path class="cls-3" d="M738.42,546v4.79h-1.28v-4.34c0-1.22-.09-2.24-1.49-2.24-1.16,0-1.81.88-1.81,2.49v4.09h-1.28V540.62h1.28v3.69a2.42,2.42,0,0,1,2.23-1.19C737.89,543.12,738.42,544.32,738.42,546Z"/>
    <path class="cls-3" d="M741.32,548.82c0-1.79,1.9-2.34,5-2.68v-.32a1.49,1.49,0,0,0-1.7-1.69c-1.16,0-1.71.57-1.79,1.49H741.5a2.9,2.9,0,0,1,3.12-2.53c2.09,0,3,.93,3,3v1.84a26.75,26.75,0,0,0,.1,2.84h-1.24v-1.11a2.76,2.76,0,0,1-2.65,1.29A2.2,2.2,0,0,1,741.32,548.82Zm5.08-1.65c-2.29.22-3.69.54-3.69,1.62,0,.72.51,1.14,1.42,1.14,1.15,0,2.27-.55,2.27-2.55Z"/>
    <path class="cls-3" d="M751.93,544.31a2.36,2.36,0,0,1,2.22-1.19c1.82,0,2.36,1.2,2.36,2.87v4.79h-1.29v-4.34c0-1.22-.09-2.23-1.49-2.23-1.17,0-1.8.87-1.8,2.48v4.09h-1.29v-7.54h1.29Z"/>
    <path class="cls-3" d="M764.34,543.24h1.29v6.6c0,1.54-.2,2.17-.61,2.65a3.5,3.5,0,0,1-2.63,1c-1.64,0-2.8-.78-3-2.27h1.35c.19.69.58,1.15,1.69,1.15a2,2,0,0,0,1.54-.56c.25-.29.39-.64.39-1.66v-.73a2.37,2.37,0,0,1-2.23,1.24c-1.74,0-3-1.27-3-3.76s1.3-3.77,3-3.77a2.38,2.38,0,0,1,2.23,1.26Zm-2,1c-1.29,0-2,.89-2,2.69s.66,2.7,2,2.7c1.08,0,2-.73,2-2.7S763.46,544.2,762.38,544.2Z"/>
    <path class="cls-3" d="M768.28,547c0-2.42,1.43-3.93,3.42-3.93,2.2,0,3.46,1.6,3.36,4.29h-5.42c0,1.52.84,2.51,2,2.51a1.82,1.82,0,0,0,2-1.38H775A3.09,3.09,0,0,1,771.7,551C769.42,551,768.28,549.27,768.28,547Zm1.38-.7h4a1.93,1.93,0,0,0-2-2.17C770.48,544.17,769.71,544.88,769.66,546.34Z"/>
    <path class="cls-3" d="M782.26,545.3c-.17-.84-.83-1.12-1.68-1.12s-1.52.3-1.52,1,.4.85,1.14,1l.84.17c1.3.25,2.7.74,2.7,2.25s-1.37,2.38-3,2.38a2.84,2.84,0,0,1-3.08-2.43H779a1.58,1.58,0,0,0,1.75,1.37c.8,0,1.68-.28,1.68-1.16,0-.7-.63-1-1.58-1.22l-.94-.19c-1.19-.23-2.13-.82-2.13-2.12,0-1.46,1.58-2.09,2.84-2.09a2.77,2.77,0,0,1,3,2.18Z"/>
  </g>
  <g>
    <path class="cls-3" d="M598.09,642.71H596.2V647h-1.33V636.84h2.48c2.22,0,3.92.48,3.92,2.9a2.52,2.52,0,0,1-1.83,2.72L601.6,647h-1.52Zm-1.89-4.61v3.36h1.31c1.34,0,2.39-.12,2.39-1.69s-1-1.67-2.39-1.67Z"/>
    <path class="cls-3" d="M603.54,643.26c0-2.43,1.43-3.94,3.42-3.94,2.2,0,3.46,1.61,3.36,4.3H604.9c0,1.51.84,2.51,2,2.51a1.82,1.82,0,0,0,2-1.39h1.33a3.1,3.1,0,0,1-3.25,2.44C604.67,647.18,603.54,645.48,603.54,643.26Zm1.37-.7h4a1.94,1.94,0,0,0-2-2.17C605.74,640.39,605,641.1,604.91,642.56Z"/>
    <path class="cls-3" d="M616,645.23l1.94-5.77h1.34L616.57,647h-1.23l-2.72-7.54h1.45Z"/>
    <path class="cls-3" d="M625.77,639.46v6.43h2.15V647h-5.57v-1.11h2.13v-5.32h-2.13v-1.11Zm0-2.62v1.53h-1.29v-1.53Z"/>
    <path class="cls-3" d="M630.67,643.26c0-2.43,1.43-3.94,3.42-3.94,2.2,0,3.46,1.61,3.36,4.3H632c0,1.51.84,2.51,2,2.51a1.82,1.82,0,0,0,2-1.39h1.33a3.1,3.1,0,0,1-3.25,2.44C631.8,647.18,630.67,645.48,630.67,643.26Zm1.37-.7h4a1.94,1.94,0,0,0-2-2.17C632.87,640.39,632.1,641.1,632,642.56Z"/>
    <path class="cls-3" d="M643.68,641,644.8,645l.77-5.58h1.3L645.61,647h-1.3l-1.23-4.56L641.84,647h-1.3l-1.26-7.54h1.32l.75,5.58,1.12-4.07Z"/>
    <path class="cls-3" d="M573.57,656.6a2.4,2.4,0,0,1,2.22-1.27c1.74,0,3,1.45,3,3.93s-1.3,3.92-3,3.92a2.4,2.4,0,0,1-2.22-1.25v3.52h-1.29v-10h1.29Zm2,5.51c1.29,0,1.94-1.06,1.94-2.85s-.65-2.85-1.94-2.85c-1.08,0-2,.86-2,2.85S574.45,662.11,575.53,662.11Z"/>
    <path class="cls-3" d="M585.93,662a2.37,2.37,0,0,1-2.21,1.15c-1.82,0-2.34-1.21-2.34-2.87v-4.85h1.29v4.4c0,1.22.07,2.21,1.47,2.21,1.16,0,1.79-.85,1.79-2.46v-4.15h1.29V663h-1.29Z"/>
    <path class="cls-3" d="M594,652.84v9h2.14V663h-5.56v-1.11h2.13v-8h-2.13v-1.09Z"/>
    <path class="cls-3" d="M603.08,652.84v9h2.14V663h-5.56v-1.11h2.13v-8h-2.13v-1.09Z"/>
    <path class="cls-3" d="M620.56,655.46v1.35a2.13,2.13,0,0,1,2-1.35h1.29v1.18H622.6c-1.45,0-2,1-2,2.6v2.65h2.58V663h-6v-1.11h2.13v-5.32h-2.14v-1.11Z"/>
    <path class="cls-3" d="M626.15,659.26c0-2.43,1.43-3.94,3.42-3.94,2.2,0,3.46,1.61,3.36,4.3h-5.42c0,1.51.84,2.51,2,2.51a1.82,1.82,0,0,0,2-1.39h1.33a3.1,3.1,0,0,1-3.25,2.44C627.28,663.18,626.15,661.48,626.15,659.26Zm1.37-.7h4a1.94,1.94,0,0,0-2-2.17C628.35,656.39,627.58,657.1,627.52,658.56Z"/>
    <path class="cls-3" d="M640.28,655.46h1.29v10h-1.29v-3.52a2.44,2.44,0,0,1-2.24,1.25c-1.73,0-3-1.44-3-3.92s1.3-3.93,3-3.93a2.44,2.44,0,0,1,2.24,1.27Zm-2,.95c-1.31,0-2,1.05-2,2.85s.64,2.84,2,2.84c1.06,0,2-.85,2-2.84S639.38,656.41,638.32,656.41Z"/>
    <path class="cls-3" d="M649.24,662a2.37,2.37,0,0,1-2.22,1.15c-1.82,0-2.34-1.21-2.34-2.87v-4.85H646v4.4c0,1.22.07,2.21,1.47,2.21,1.17,0,1.8-.85,1.8-2.46v-4.15h1.29V663h-1.29Z"/>
    <path class="cls-3" d="M653.28,659.26c0-2.43,1.43-3.94,3.42-3.94,2.2,0,3.46,1.61,3.36,4.3h-5.42c0,1.51.84,2.51,2,2.51a1.82,1.82,0,0,0,2-1.39H660a3.1,3.1,0,0,1-3.25,2.44C654.42,663.18,653.28,661.48,653.28,659.26Zm1.37-.7h4a1.94,1.94,0,0,0-2-2.17C655.48,656.39,654.71,657.1,654.65,658.56Z"/>
    <path class="cls-3" d="M667.25,657.52c-.16-.84-.82-1.12-1.68-1.12s-1.51.29-1.51,1,.39.85,1.14,1l.84.16c1.3.25,2.7.75,2.7,2.26s-1.37,2.38-3,2.38a2.84,2.84,0,0,1-3.08-2.44H664a1.58,1.58,0,0,0,1.76,1.37c.79,0,1.68-.28,1.68-1.16,0-.7-.63-1.05-1.59-1.22l-.93-.18c-1.19-.24-2.13-.83-2.13-2.13,0-1.46,1.58-2.09,2.84-2.09a2.78,2.78,0,0,1,3,2.19Z"/>
    <path class="cls-3" d="M673,653.57h1.29v1.89h3.08v1.11h-3.08v4.35c0,.77,0,1,.75,1h2.33V663h-2.61c-1.37,0-1.76-.33-1.76-1.89v-4.54h-2.14v-1.11H673Z"/>
  </g>
  <g>
    <path class="cls-2" d="M332,676.06l-1.48-5.35v8.85h-1.33V669.41h2.09l1.4,5.19,1.4-5.19h2.08v10.15h-1.33v-8.85l-1.48,5.35Z"/>
    <path class="cls-2" d="M338.33,675.82c0-2.42,1.43-3.93,3.42-3.93,2.2,0,3.46,1.61,3.36,4.3h-5.42c0,1.51.84,2.51,2,2.51a1.82,1.82,0,0,0,1.95-1.39H345a3.09,3.09,0,0,1-3.25,2.43C339.47,679.74,338.33,678.05,338.33,675.82Zm1.38-.7h4a1.93,1.93,0,0,0-2-2.17C340.53,673,339.76,673.67,339.71,675.12Z"/>
    <path class="cls-2" d="M350.84,672v1.34a2.12,2.12,0,0,1,2-1.34h1.28v1.17h-1.27c-1.44,0-2,1-2,2.61v2.65h2.57v1.1h-6v-1.1h2.13v-5.33h-2.15V672Z"/>
    <path class="cls-2" d="M361.52,672h1.29v6.59c0,1.55-.2,2.17-.6,2.65a3.55,3.55,0,0,1-2.64,1c-1.64,0-2.8-.79-3-2.27h1.36c.18.68.57,1.15,1.68,1.15a2.06,2.06,0,0,0,1.54-.56c.25-.3.39-.65.39-1.67v-.73a2.38,2.38,0,0,1-2.23,1.25c-1.73,0-3-1.28-3-3.77s1.31-3.77,3-3.77a2.38,2.38,0,0,1,2.23,1.26Zm-2,1c-1.29,0-1.95.9-1.95,2.69s.66,2.7,1.95,2.7c1.08,0,2-.73,2-2.7S360.64,673,359.56,673Z"/>
    <path class="cls-2" d="M365.47,675.82c0-2.42,1.42-3.93,3.41-3.93,2.2,0,3.46,1.61,3.37,4.3h-5.42c0,1.51.84,2.51,2,2.51a1.81,1.81,0,0,0,1.94-1.39h1.33a3.08,3.08,0,0,1-3.25,2.43C366.6,679.74,365.47,678.05,365.47,675.82Zm1.37-.7h4a1.93,1.93,0,0,0-2-2.17C367.67,673,366.89,673.67,366.84,675.12Z"/>
    <path class="cls-2" d="M383.72,677.6c0-1.79,1.91-2.34,5-2.67v-.33a1.49,1.49,0,0,0-1.7-1.69,1.55,1.55,0,0,0-1.79,1.5H383.9a2.9,2.9,0,0,1,3.13-2.54c2.09,0,3,.93,3,3v1.84c0,1.26.06,2.34.1,2.84h-1.24v-1.1a2.77,2.77,0,0,1-2.65,1.28A2.2,2.2,0,0,1,383.72,677.6Zm5.09-1.65c-2.3.22-3.7.55-3.7,1.62,0,.72.52,1.14,1.43,1.14,1.15,0,2.27-.55,2.27-2.55Z"/>
    <path class="cls-2" d="M394.33,673.09a2.38,2.38,0,0,1,2.22-1.19c1.82,0,2.37,1.21,2.37,2.87v4.79h-1.29v-4.34c0-1.22-.1-2.23-1.5-2.23-1.17,0-1.8.87-1.8,2.48v4.09h-1.28V672h1.28Z"/>
    <path class="cls-2" d="M406.71,669.41H408v10.15h-1.27l0-1.06a2.4,2.4,0,0,1-2.22,1.24c-1.74,0-3-1.42-3-3.92s1.3-3.92,3-3.92a2.38,2.38,0,0,1,2.22,1.26Zm-2,3.57c-1.29,0-1.95,1-1.95,2.84s.66,2.86,1.95,2.86c1.08,0,2-.88,2-2.86S405.83,673,404.75,673Z"/>
    <path class="cls-2" d="M316.27,686.21h1.29v10.15h-1.27l0-1.06a2.4,2.4,0,0,1-2.22,1.24c-1.74,0-3-1.42-3-3.92s1.3-3.92,3-3.92a2.38,2.38,0,0,1,2.22,1.26Zm-2,3.57c-1.29,0-1.94,1.05-1.94,2.84s.65,2.86,1.94,2.86c1.08,0,2-.88,2-2.86S315.39,689.78,314.31,689.78Z"/>
    <path class="cls-2" d="M320.25,692.62c0-2.42,1.42-3.93,3.41-3.93,2.2,0,3.46,1.61,3.37,4.3h-5.42c0,1.51.84,2.5,2,2.5a1.8,1.8,0,0,0,1.94-1.38h1.33a3.08,3.08,0,0,1-3.25,2.43C321.38,696.54,320.25,694.85,320.25,692.62Zm1.37-.7h4a1.93,1.93,0,0,0-2-2.17C322.45,689.75,321.67,690.46,321.62,691.92Z"/>
    <path class="cls-2" d="M333.35,686.21v9h2.15v1.1h-5.57v-1.1h2.13v-8h-2.13v-1.09Z"/>
    <path class="cls-2" d="M338.33,692.62c0-2.42,1.43-3.93,3.42-3.93,2.2,0,3.46,1.61,3.36,4.3h-5.42c0,1.51.84,2.5,2,2.5a1.82,1.82,0,0,0,1.95-1.38H345a3.09,3.09,0,0,1-3.25,2.43C339.47,696.54,338.33,694.85,338.33,692.62Zm1.38-.7h4a1.93,1.93,0,0,0-2-2.17C340.53,689.75,339.76,690.46,339.71,691.92Z"/>
    <path class="cls-2" d="M349,686.94h1.29v1.89h3.08v1.1h-3.08v4.36c0,.77,0,1,.75,1h2.33v1.1h-2.61c-1.37,0-1.76-.32-1.76-1.89v-4.54h-2.14v-1.1H349Z"/>
    <path class="cls-2" d="M356.42,692.62c0-2.42,1.43-3.93,3.42-3.93,2.2,0,3.46,1.61,3.36,4.3h-5.42c0,1.51.84,2.5,2,2.5a1.82,1.82,0,0,0,1.95-1.38h1.33a3.1,3.1,0,0,1-3.25,2.43C357.56,696.54,356.42,694.85,356.42,692.62Zm1.37-.7h4a1.93,1.93,0,0,0-2-2.17C358.62,689.75,357.85,690.46,357.79,691.92Z"/>
    <path class="cls-2" d="M376.19,690a2.42,2.42,0,0,1,2.24-1.26c1.73,0,3,1.44,3,3.92s-1.3,3.92-3,3.92a2.44,2.44,0,0,1-2.24-1.24v1.06H374.9V686.21h1.29Zm2,5.52c1.31,0,2-1.06,2-2.86s-.64-2.84-2-2.84c-1.06,0-2,.85-2,2.84S377.09,695.48,378.15,695.48Z"/>
    <path class="cls-2" d="M387,688.83v1.34a2.14,2.14,0,0,1,2-1.34h1.29V690H389c-1.44,0-2,1-2,2.61v2.65h2.58v1.1h-6v-1.1h2.13v-5.33h-2.14v-1.1Z"/>
    <path class="cls-2" d="M392.77,694.4c0-1.79,1.9-2.34,5-2.67v-.33a1.48,1.48,0,0,0-1.69-1.69,1.57,1.57,0,0,0-1.8,1.5H393a2.88,2.88,0,0,1,3.12-2.54c2.09,0,3,.93,3,3l0,1.84c0,1.26.06,2.34.1,2.84h-1.23l0-1.1a2.75,2.75,0,0,1-2.64,1.28A2.2,2.2,0,0,1,392.77,694.4Zm5.08-1.65c-2.3.22-3.7.54-3.7,1.62,0,.72.52,1.14,1.43,1.14,1.15,0,2.27-.55,2.27-2.55Z"/>
    <path class="cls-2" d="M403.38,689.89a2.37,2.37,0,0,1,2.21-1.19c1.82,0,2.37,1.21,2.37,2.87v4.79h-1.29V692c0-1.22-.1-2.23-1.5-2.23-1.16,0-1.79.87-1.79,2.48v4.09h-1.29v-7.53h1.29Z"/>
    <path class="cls-2" d="M417.23,691.33h-1.31a1.78,1.78,0,0,0-1.77-1.56c-1.12,0-2,1-2,2.85s.93,2.87,2,2.87a1.86,1.86,0,0,0,1.83-1.55h1.33a3.13,3.13,0,0,1-3.23,2.6c-2.09,0-3.34-1.62-3.34-3.92s1.3-3.92,3.46-3.92A2.94,2.94,0,0,1,417.23,691.33Z"/>
    <path class="cls-2" d="M426.05,691.57v4.79h-1.29V692c0-1.22-.09-2.24-1.49-2.24-1.16,0-1.8.88-1.8,2.49v4.09h-1.29V686.21h1.29v3.68a2.39,2.39,0,0,1,2.22-1.19C425.51,688.7,426.05,689.91,426.05,691.57Z"/>
  </g>
  <path class="cls-3" d="M629.89,555.58c0,1.72-1.27,3.14-3.16,4.76l-1.1,1h4.2V563H623v-1.63l2.12-1.85c1.61-1.39,2.76-2.65,2.76-3.86a1.27,1.27,0,0,0-1.28-1.4c-.89,0-1.56.76-1.52,2.26h-2a3.35,3.35,0,0,1,3.51-3.81C628.47,552.67,629.89,553.73,629.89,555.58Z"/>
  <path class="cls-3" d="M847.45,561.65a1.38,1.38,0,0,0,1.51-1.47c0-.94-.77-1.5-1.89-1.5h-.59v-1.81H847c1.13,0,1.85-.5,1.85-1.5a1.24,1.24,0,0,0-1.4-1.26c-.89,0-1.45.58-1.56,1.63h-2a3.34,3.34,0,0,1,3.63-3.11c1.57,0,3.35.81,3.35,2.66a2.84,2.84,0,0,1-1.24,2.31A2.67,2.67,0,0,1,851,560c0,2.1-1.79,3.14-3.63,3.14a3.44,3.44,0,0,1-3.64-3.38h2C845.88,561,846.52,561.65,847.45,561.65Z"/>
  <path class="cls-3" d="M719.14,672.4h-1.38v2.06h-2V672.4h-4.46v-1.72l4.6-6.37h1.87v6.27h1.38Zm-5.9-1.82h2.51V667Z"/>
  <path class="cls-3" d="M400.36,609.8v-5.47h-2.78v-1.51c2.24,0,2.88-.56,3.26-1.67h1.54v8.65h2.34v1.51h-7.14V609.8Z"/>
  <rect class="cls-3" x="646.08" y="557" width="164.31" height="3"/>
  <path class="cls-3" d="M579.81,569.32a1.5,1.5,0,0,1-1.06-2.56L590,555.52l-11.24-11.23a1.51,1.51,0,0,1,0-2.12,1.49,1.49,0,0,1,2.12,0l12.3,12.29a1.5,1.5,0,0,1,0,2.12l-12.3,12.3A1.49,1.49,0,0,1,579.81,569.32Z"/>
  <path class="cls-2" d="M424.27,641.06a1.51,1.51,0,0,1-1.49-1.32l-2.08-17.27a1.49,1.49,0,0,1,1.31-1.66l17.27-2.09a1.5,1.5,0,0,1,.36,3l-15.78,1.9,1.9,15.78a1.5,1.5,0,0,1-1.31,1.67Z"/>
  <path class="cls-2" d="M363.32,653.8h-.05a1.52,1.52,0,0,1-1-.48L350.37,640.6a1.5,1.5,0,0,1,2.19-2.05l10.84,11.63L375,639.34a1.5,1.5,0,0,1,2.05,2.2L364.35,653.4A1.51,1.51,0,0,1,363.32,653.8Z"/>
  <path class="cls-3" d="M799.88,572.3a1.51,1.51,0,0,1-1.06-.44,1.49,1.49,0,0,1,0-2.12l11.24-11.24-11.24-11.24a1.49,1.49,0,0,1,0-2.12,1.51,1.51,0,0,1,2.12,0l12.3,12.3a1.5,1.5,0,0,1,0,2.12l-12.3,12.3A1.51,1.51,0,0,1,799.88,572.3Z"/>
  <path class="cls-3" d="M761.55,684.45a1.45,1.45,0,0,1-.86-.28L746.5,674.11a1.53,1.53,0,0,1-.61-1,1.51,1.51,0,0,1,.26-1.11l10.07-14.18a1.5,1.5,0,1,1,2.44,1.73l-9.2,13,13,9.2a1.49,1.49,0,0,1,.36,2.09A1.52,1.52,0,0,1,761.55,684.45Z"/>
  <path class="cls-3" d="M553.13,686.08a1.48,1.48,0,0,1-1.06-.44l-12.29-12.29a1.5,1.5,0,0,1,0-2.13l12.29-12.29a1.5,1.5,0,0,1,2.12,2.12L543,672.29l11.23,11.23a1.49,1.49,0,0,1,0,2.12A1.45,1.45,0,0,1,553.13,686.08Z"/>
  <path class="cls-1" d="M507.05,671.1c0-1.36-.81-1.93-1.58-1.93a1.55,1.55,0,0,0-1.51,1.08l-1.84-.21.84-5.73h5.73V666h-4.12l-.32,2.1a2.93,2.93,0,0,1,1.78-.53c1.6,0,3.07,1.29,3.07,3.57a3.66,3.66,0,0,1-7.31.17h2c.11,1.19.75,1.88,1.68,1.88S507.05,672.43,507.05,671.1Z"/>
  <path class="cls-4" d="M576.47,383a1.53,1.53,0,0,1-1.06-.44l-20-20a1.51,1.51,0,0,1,0-2.12,1.49,1.49,0,0,1,2.12,0l20,20a1.5,1.5,0,0,1-1.06,2.56Z"/>
  <path class="cls-4" d="M556.47,383a1.53,1.53,0,0,1-1.06-.44,1.51,1.51,0,0,1,0-2.12l20-20a1.5,1.5,0,1,1,2.12,2.12l-20,20A1.49,1.49,0,0,1,556.47,383Z"/>
  <g>
    <path class="cls-3" d="M439.22,579.82c.73,2.07.11,3.73-1.5,4.61-2.18,1.18-4.25-.19-5.72-2.9s-1.35-5.24.77-6.39c1.54-.84,3.35-.28,4.62,1.37l-1.19.65a2.18,2.18,0,0,0-2.87-.91c-1.29.7-1.36,2.35-.13,4.63s2.64,3.17,4,2.43a2.12,2.12,0,0,0,.86-2.86Z"/>
    <path class="cls-3" d="M442.34,573.41l.58,1.21a2.12,2.12,0,0,1,1.23-2.08l1.16-.56.51,1.06-1.14.55c-1.3.63-1.4,1.73-.68,3.22l1.15,2.38,2.32-1.12.48,1-5.4,2.6-.48-1,1.92-.92L441.68,575l-1.93.92-.48-1Z"/>
    <path class="cls-3" d="M449.1,574.43c-1-2.23-.23-4.18,1.59-5,2-.87,3.82.12,4.79,2.63l-5,2.13c.6,1.39,1.76,2,2.85,1.5a1.81,1.81,0,0,0,1.25-2l1.22-.52a3.09,3.09,0,0,1-2,3.52C451.69,577.59,450,576.47,449.1,574.43Zm1-1.19,3.71-1.58a2,2,0,1,0-3.71,1.58Z"/>
    <path class="cls-3" d="M458.28,572.5c-.64-1.67.94-2.86,3.7-4.27l-.11-.31a1.49,1.49,0,0,0-2.19-1,1.55,1.55,0,0,0-1.14,2l-1.23.47a2.89,2.89,0,0,1,2-3.48c1.95-.74,3.12-.19,3.84,1.76l.64,1.72c.43,1.18.88,2.16,1.1,2.62l-1.15.44-.41-1a2.73,2.73,0,0,1-2,2.14A2.19,2.19,0,0,1,458.28,572.5Zm4.16-3.36c-2.07,1-3.26,1.83-2.88,2.84.26.66.89.87,1.74.55,1.07-.41,1.92-1.32,1.21-3.19Z"/>
    <path class="cls-3" d="M465.68,561.79l1.22-.41.61,1.79,2.91-1,.36,1-2.91,1,1.41,4.12c.25.73.35.9,1,.67l2.2-.75.35,1-2.46.85c-1.3.44-1.77.26-2.28-1.22l-1.47-4.29-2,.69-.36-1.05,2-.69Z"/>
    <path class="cls-3" d="M474.58,564.8c-.71-2.32.21-4.18,2.11-4.77,2.1-.64,3.77.52,4.47,3.12l-5.17,1.6c.44,1.44,1.54,2.14,2.67,1.79a1.83,1.83,0,0,0,1.46-1.9l1.27-.39a3.1,3.1,0,0,1-2.39,3.29C476.82,568.21,475.24,566.92,474.58,564.8Zm1.11-1.08,3.85-1.18a2,2,0,1,0-3.85,1.18Z"/>
    <path class="cls-3" d="M492.64,561.42c-.44-1.74,1.27-2.73,4.17-3.81l-.08-.32a1.47,1.47,0,0,0-2.05-1.22,1.55,1.55,0,0,0-1.37,1.89l-1.28.32a2.9,2.9,0,0,1,2.41-3.22c2-.51,3.11.16,3.6,2.19l.43,1.78c.3,1.23.63,2.26.8,2.73l-1.2.3-.28-1.06a2.76,2.76,0,0,1-2.25,1.89A2.19,2.19,0,0,1,492.64,561.42Zm4.52-2.85c-2.17.78-3.45,1.44-3.18,2.48.17.69.78,1,1.66.75,1.11-.28,2.06-1.09,1.57-3Z"/>
    <path class="cls-3" d="M510.77,552.58a2.45,2.45,0,0,1,1.93-1.7c1.69-.35,3.26.79,3.77,3.22s-.47,4.1-2.15,4.45a2.43,2.43,0,0,1-2.45-.76l.2,1.05-1.24.26-2.09-9.93,1.26-.26Zm3.05,5c1.28-.27,1.69-1.44,1.32-3.19s-1.22-2.65-2.49-2.38c-1,.21-1.8,1.25-1.39,3.19S512.78,557.79,513.82,557.57Z"/>
    <path class="cls-3" d="M521.24,549.29l.25,1.32a2.14,2.14,0,0,1,1.73-1.7l1.26-.24.23,1.15-1.25.24c-1.42.28-1.79,1.32-1.48,2.94l.51,2.6,2.52-.49.21,1.08-5.88,1.14-.21-1.09,2.09-.4-1-5.22-2.1.4-.21-1.08Z"/>
    <path class="cls-3" d="M527.93,553.7c-.32-1.77,1.46-2.64,4.44-3.5l-.06-.32a1.48,1.48,0,0,0-2-1.37,1.56,1.56,0,0,0-1.51,1.78l-1.29.23a2.9,2.9,0,0,1,2.63-3c2.05-.36,3.1.39,3.43,2.45l.31,1.81c.2,1.24.46,2.29.59,2.78l-1.21.22-.21-1.09a2.77,2.77,0,0,1-2.38,1.73A2.19,2.19,0,0,1,527.93,553.7Zm4.71-2.52c-2.22.63-3.54,1.19-3.35,2.25.12.7.7,1,1.6.87,1.13-.2,2.14-.94,1.79-2.91Z"/>
    <path class="cls-3" d="M537.67,547.44a2.38,2.38,0,0,1,2-1.54c1.8-.29,2.53.81,2.8,2.46l.77,4.72-1.27.21-.7-4.28c-.2-1.21-.45-2.18-1.84-2-1.14.19-1.63,1.14-1.37,2.73l.66,4-1.27.21-1.21-7.44,1.27-.21Z"/>
    <path class="cls-3" d="M551.6,546.73l-1.29.19a1.8,1.8,0,0,0-2-1.29c-1.11.17-1.88,1.26-1.6,3.13s1.34,2.7,2.45,2.54a1.86,1.86,0,0,0,1.58-1.81l1.32-.2a3.16,3.16,0,0,1-2.82,3.06c-2.06.3-3.53-1.12-3.87-3.39s.7-4.07,2.84-4.39A2.94,2.94,0,0,1,551.6,546.73Z"/>
    <path class="cls-3" d="M560.39,545.72l.66,4.75-1.28.18-.6-4.3c-.17-1.21-.39-2.21-1.78-2-1.15.16-1.66,1.13-1.44,2.72l.56,4.05-1.28.18-1.39-10.06,1.27-.18.51,3.65a2.41,2.41,0,0,1,2-1.48C559.46,543,560.16,544.08,560.39,545.72Z"/>
  </g>
  <g>
    <g>
      <path class="cls-3" d="M767.88,636.37c1.45,2.68,1.4,5.23-.82,6.44s-4.39-.14-5.85-2.82-1.4-5.22.83-6.43S766.42,633.67,767.88,636.37Zm-5.46,3c1.22,2.26,2.58,3.19,4.05,2.39s1.43-2.44.2-4.7-2.57-3.18-4-2.37S761.19,637.08,762.42,639.33Z"/>
      <path class="cls-3" d="M770.3,633.42a2.39,2.39,0,0,1,1.26-2.22c1.49-.89,3.35-.32,4.62,1.81s.89,4-.6,4.92A2.42,2.42,0,0,1,773,638l1.8,3-1.1.66-5.12-8.57,1.1-.66Zm4.51,3.73c1.1-.66,1.12-1.91.2-3.44s-2-2.11-3.12-1.45c-.93.56-1.3,1.77-.28,3.48S773.88,637.71,774.81,637.15Z"/>
      <path class="cls-3" d="M777.87,632c-1.32-2-1-4.08.72-5.16,1.84-1.2,3.78-.54,5.16,1.77l-4.55,3c.83,1.27,2.07,1.65,3.07,1a1.82,1.82,0,0,0,.88-2.22l1.11-.73a3.09,3.09,0,0,1-1.39,3.81C781,634.62,779.08,633.81,777.87,632Zm.76-1.34,3.39-2.19a2,2,0,1,0-3.39,2.19Z"/>
      <path class="cls-3" d="M785.25,623.77a2.34,2.34,0,0,1,1.12-2.24c1.48-1,2.62-.38,3.59,1l2.75,3.91-1.05.74-2.5-3.54c-.7-1-1.36-1.77-2.51-1-.95.67-1,1.74,0,3.06l2.35,3.34-1.05.74-4.34-6.15,1-.75Z"/>
      <path class="cls-3" d="M799.64,613a2.39,2.39,0,0,1,.89-2.4c1.33-1.12,3.25-.85,4.85,1s1.52,3.84.19,5a2.4,2.4,0,0,1-2.5.48l2.26,2.69-1,.83-6.42-7.64,1-.83Zm5,3c1-.83.81-2.07-.34-3.44s-2.34-1.75-3.32-.92c-.83.69-1,1.95.28,3.47S803.86,616.63,804.68,615.94Z"/>
      <path class="cls-3" d="M812.59,608.79a2.36,2.36,0,0,1-.84,2.35c-1.34,1.24-2.54.7-3.67-.52l-3.29-3.55.94-.88,3,3.23c.83.89,1.56,1.57,2.58.62.86-.79.74-1.84-.36-3l-2.81-3,.94-.88,5.12,5.53-.94.87Z"/>
      <path class="cls-3" d="M811.94,596.49l6.5,6.28,1.49-1.54.8.77-3.86,4-.8-.77,1.48-1.53-5.72-5.53-1.48,1.53-.78-.76Z"/>
      <path class="cls-3" d="M817.82,590l6.88,5.87,1.39-1.63.84.72-3.61,4.23-.84-.72,1.38-1.62-6-5.16-1.38,1.62-.84-.71Z"/>
    </g>
    <g>
      <path class="cls-3" d="M780.08,645.64l.72,1.13a2.12,2.12,0,0,1,1-2.21l1.09-.69.63,1-1.08.68c-1.21.77-1.18,1.88-.29,3.27l1.42,2.24,2.17-1.39.6.94-5.06,3.21-.59-.93,1.79-1.14-2.85-4.49-1.81,1.14-.59-.93Z"/>
      <path class="cls-3" d="M786.65,645.91c-1.36-2-1-4,.61-5.17,1.82-1.24,3.77-.61,5.2,1.66L788,645.45c.85,1.25,2.1,1.6,3.09.93a1.82,1.82,0,0,0,.83-2.24l1.1-.75a3.1,3.1,0,0,1-1.32,3.84C789.79,648.52,787.91,647.75,786.65,645.91Zm.74-1.35,3.34-2.27a2,2,0,1,0-3.34,2.27Z"/>
      <path class="cls-3" d="M795.82,634.84l1-.76,5.88,8.07-1,.76-2.07-2.84a2.43,2.43,0,0,1-1.07,2.32c-1.39,1-3.3.62-4.76-1.38s-1.25-3.93.14-5a2.42,2.42,0,0,1,2.55-.3Zm-1,1.93c-1,.77-1,2,.1,3.44s2.2,1.92,3.25,1.15c.86-.63,1.12-1.88,0-3.48S795.66,636.14,794.8,636.77Z"/>
      <path class="cls-3" d="M806.71,634.76a2.35,2.35,0,0,1-1,2.27c-1.43,1.12-2.58.49-3.61-.82l-3-3.81,1-.8,2.72,3.46c.75,1,1.42,1.7,2.52.84.91-.72.88-1.78-.11-3l-2.56-3.26,1-.8,4.65,5.93-1,.8Z"/>
      <path class="cls-3" d="M808.13,630.06c-1.56-1.84-1.45-3.92.06-5.21,1.68-1.42,3.68-1,5.35,1.11l-4.13,3.5c1,1.16,2.26,1.37,3.17.6a1.82,1.82,0,0,0,.58-2.32l1-.86a3.1,3.1,0,0,1-.9,4C811.54,632.32,809.58,631.76,808.13,630.06Zm.6-1.42L811.8,626a2,2,0,1,0-3.07,2.61Z"/>
      <path class="cls-3" d="M817.5,619.49c-.69-.5-1.36-.26-2,.32s-.91,1.24-.45,1.73.87.36,1.52,0l.73-.44c1.12-.7,2.48-1.3,3.51-.19s.61,2.68-.59,3.79a2.83,2.83,0,0,1-3.92.31l1-.92a1.58,1.58,0,0,0,2.22-.18c.58-.55,1-1.35.44-2s-1.18-.34-2,.18l-.81.51c-1,.63-2.12.84-3-.12s-.26-2.6.67-3.46a2.77,2.77,0,0,1,3.66-.42Z"/>
      <path class="cls-3" d="M818.82,612.72l.9-.92,1.35,1.32,2.15-2.2.79.77-2.15,2.2,3.11,3.05c.55.53.72.64,1.22.13l1.63-1.66.79.77L826.79,618c-1,1-1.47,1-2.59-.06L821,614.81l-1.5,1.53-.79-.77,1.5-1.53Z"/>
    </g>
  </g>
  <path class="cls-2" d="M506.61,698.6h-.14a26.9,26.9,0,0,1-11.39-3.73l-10.3-6.16a1.5,1.5,0,0,1,1.54-2.58l10.3,6.16a23.94,23.94,0,0,0,10.13,3.33,1.5,1.5,0,0,1-.14,3Zm11.78-1.66a1.5,1.5,0,0,1-.55-2.89,24.12,24.12,0,0,0,9.2-6.38,1.5,1.5,0,0,1,2.24,2,27.23,27.23,0,0,1-10.35,7.17A1.47,1.47,0,0,1,518.39,696.94Zm-43.15-14.19a1.41,1.41,0,0,1-.76-.21l-10.3-6.16a1.5,1.5,0,1,1,1.53-2.57L476,680a1.5,1.5,0,0,1-.78,2.78Zm58.6-3a1.32,1.32,0,0,1-.39-.06,1.5,1.5,0,0,1-1.06-1.84,23.91,23.91,0,0,0,.84-6.3,24.44,24.44,0,0,0-.5-4.89,1.5,1.5,0,0,1,2.94-.6,27.2,27.2,0,0,1-.38,12.58A1.5,1.5,0,0,1,533.84,679.73Zm-79.2-9.29a1.5,1.5,0,0,1-.76-.21l-10.3-6.16a1.5,1.5,0,1,1,1.53-2.57l10.31,6.15a1.5,1.5,0,0,1-.78,2.79ZM434,658.13a1.42,1.42,0,0,1-.76-.22L423,651.76a1.5,1.5,0,0,1,1.53-2.58l10.3,6.16a1.5,1.5,0,0,1-.77,2.79Zm95.15-1.07a1.5,1.5,0,0,1-1.18-.57,24.25,24.25,0,0,0-6.56-5.75l-2.3-1.37a1.5,1.5,0,1,1,1.54-2.58l2.29,1.38a26.73,26.73,0,0,1,7.38,6.46,1.49,1.49,0,0,1-1.17,2.43ZM413.44,645.81a1.47,1.47,0,0,1-.77-.21l-10.3-6.16a1.5,1.5,0,0,1,1.54-2.57l10.3,6.16a1.5,1.5,0,0,1-.77,2.78Zm96.17-2.39a1.5,1.5,0,0,1-.76-.21l-10.3-6.16a1.5,1.5,0,0,1,1.53-2.57l10.31,6.15a1.5,1.5,0,0,1-.78,2.79ZM392.84,633.5a1.57,1.57,0,0,1-.77-.21l-7.69-4.6a26.91,26.91,0,0,1-2.65-1.81,1.5,1.5,0,1,1,1.83-2.37,23.84,23.84,0,0,0,2.36,1.6l7.69,4.6a1.5,1.5,0,0,1-.77,2.79ZM489,631.11a1.42,1.42,0,0,1-.76-.22L478,624.74a1.5,1.5,0,0,1,1.53-2.58l10.3,6.16a1.5,1.5,0,0,1-.77,2.79Zm-20.6-12.32a1.41,1.41,0,0,1-.76-.21l-10.3-6.16a1.5,1.5,0,0,1,1.53-2.57l10.3,6.16a1.48,1.48,0,0,1,.52,2A1.5,1.5,0,0,1,468.41,618.79ZM375.16,618a1.49,1.49,0,0,1-1.35-.86,27.44,27.44,0,0,1-2.68-11.78v-.51a1.54,1.54,0,0,1,1.52-1.48,1.51,1.51,0,0,1,1.48,1.53v.46a24.57,24.57,0,0,0,2.38,10.49,1.5,1.5,0,0,1-1.35,2.15Zm72.65-11.48a1.57,1.57,0,0,1-.77-.21l-10.3-6.16a1.5,1.5,0,0,1,1.54-2.57l10.3,6.15a1.5,1.5,0,0,1-.77,2.79Zm-72.19-11.65a1.46,1.46,0,0,1-.7-.18,1.5,1.5,0,0,1-.63-2c.22-.41.45-.82.7-1.23a26.93,26.93,0,0,1,7.6-8.23,1.5,1.5,0,1,1,1.73,2.45,23.91,23.91,0,0,0-6.76,7.32c-.21.36-.42.73-.62,1.1A1.5,1.5,0,0,1,375.62,594.83Zm51.59-.66a1.48,1.48,0,0,1-.77-.22l-10.3-6.15a1.5,1.5,0,0,1,1.54-2.58l10.3,6.16a1.5,1.5,0,0,1-.77,2.79Zm-20.88-11.75a1.6,1.6,0,0,1-.47-.08,24.21,24.21,0,0,0-11.15-.92,1.5,1.5,0,1,1-.45-3,27.33,27.33,0,0,1,12.54,1,1.5,1.5,0,0,1-.47,2.93Z"/>
  <g>
    <path class="cls-2" d="M451.06,626.65l1.48-5.36-4.55,7.6-1.15-.69,5.22-8.71,1.8,1.08-1.47,5.17,3.87-3.73,1.79,1.07-5.22,8.71-1.14-.68,4.55-7.6-4,3.83Z"/>
    <path class="cls-2" d="M456.62,629.7c1.25-2.08,3.25-2.64,5-1.62,1.88,1.13,2.14,3.16.67,5.42l-4.65-2.79c-.78,1.3-.57,2.59.45,3.2a1.81,1.81,0,0,0,2.38-.19l1.15.68a3.09,3.09,0,0,1-4,.42C455.58,633.65,455.48,631.61,456.62,629.7Zm1.54.11,3.46,2.07a2,2,0,1,0-3.46-2.07Z"/>
    <path class="cls-2" d="M469.3,632.87l-.69,1.16a2.12,2.12,0,0,1,2.42-.12l1.1.66-.6,1-1.09-.65c-1.24-.74-2.21-.22-3.06,1.2L466,638.4l2.21,1.33-.57.95-5.14-3.08.56-1,1.83,1.09,2.74-4.56-1.84-1.11.57-1Z"/>
    <path class="cls-2" d="M478.46,638.37l1.11.66-3.4,5.66c-.79,1.32-1.28,1.76-1.87,2a3.5,3.5,0,0,1-2.77-.5c-1.41-.85-2-2.11-1.43-3.5l1.16.69a1.47,1.47,0,0,0,.86,1.85,2,2,0,0,0,1.61.32c.36-.13.66-.36,1.19-1.23l.37-.63a2.38,2.38,0,0,1-2.55-.07c-1.49-.9-1.95-2.66-.67-4.8s3.05-2.56,4.55-1.67a2.41,2.41,0,0,1,1.26,2.23Zm-2.17-.2c-1.11-.66-2.13-.23-3.05,1.31s-.83,2.66.28,3.32c.92.56,2.1.41,3.12-1.28S477.21,638.73,476.29,638.17Z"/>
    <path class="cls-2" d="M479.89,643.65c1.25-2.08,3.25-2.64,5-1.62,1.89,1.13,2.14,3.16.67,5.42l-4.65-2.79c-.78,1.3-.57,2.58.46,3.2a1.83,1.83,0,0,0,2.38-.19l1.14.68a3.09,3.09,0,0,1-4,.42C478.85,647.6,478.75,645.56,479.89,643.65Zm1.54.1,3.46,2.08a2,2,0,1,0-3.46-2.08Z"/>
  </g>
</svg>
