<svg id="Layer_1" data-name="Layer 1" xmlns="http://www.w3.org/2000/svg" viewBox="0 0 1200 800">
  <defs>
    <style>
      .cls-1 {
        fill: #f5fcff;
      }

      .cls-2 {
        fill: #10162f;
      }

      .cls-3 {
        fill: #66c4ff;
      }

      .cls-4 {
        fill: #3a10e5;
      }

      .cls-5 {
        fill: #fff;
      }

      .cls-6 {
        fill: #fffae5;
      }

      .cls-7 {
        fill: #008a27;
      }
    </style>
  </defs>
  <g>
    <rect class="cls-1" x="81.08" y="79.95" width="1039" height="389" rx="8.62"/>
    <path class="cls-2" d="M1111.46,80.45a8.13,8.13,0,0,1,8.12,8.12V460.33a8.13,8.13,0,0,1-8.12,8.12H89.71a8.14,8.14,0,0,1-8.13-8.12V88.57a8.13,8.13,0,0,1,8.13-8.12H1111.46m0-1H89.71a9.12,9.12,0,0,0-9.13,9.12V460.33a9.13,9.13,0,0,0,9.13,9.12H1111.46a9.12,9.12,0,0,0,9.12-9.12V88.57a9.12,9.12,0,0,0-9.12-9.12Z"/>
  </g>
  <g>
    <rect class="cls-1" x="298.42" y="518.78" width="599" height="199"/>
    <path class="cls-2" d="M896.92,519.28v198h-598v-198h598m1-1h-600v200h600v-200Z"/>
  </g>
  <path class="cls-3" d="M705.15,673.79H541.73a1.5,1.5,0,0,1,0-3H705.15a1.5,1.5,0,1,1,0,3Z"/>
  <path class="cls-3" d="M412,605.27l-1.41-2.64c.94-.5,94.95-50.31,180.52-48.67l-.06,3C506.3,555.31,412.9,604.77,412,605.27Z"/>
  <path class="cls-4" d="M749.06,673.79a1.5,1.5,0,0,1-.23-3c28.38-4.36,66.26-17.35,85.62-54.48a96.7,96.7,0,0,0,11-43.14,1.5,1.5,0,1,1,3-.11c0,.87.61,21.57-11.3,44.51-11,21.16-35.17,48.08-87.89,56.19Z"/>
  <g>
    <g>
      <path class="cls-4" d="M767.88,636.37c1.45,2.68,1.4,5.23-.82,6.44s-4.39-.14-5.85-2.82-1.4-5.22.83-6.43S766.42,633.67,767.88,636.37Zm-5.46,3c1.22,2.26,2.58,3.19,4.05,2.39s1.43-2.44.2-4.7-2.57-3.18-4-2.37S761.19,637.08,762.42,639.33Z"/>
      <path class="cls-4" d="M770.3,633.42a2.39,2.39,0,0,1,1.26-2.22c1.49-.89,3.35-.32,4.62,1.81s.89,4-.6,4.92A2.42,2.42,0,0,1,773,638l1.8,3-1.1.66-5.12-8.57,1.1-.66Zm4.51,3.73c1.1-.66,1.12-1.91.2-3.44s-2-2.11-3.12-1.45c-.93.56-1.3,1.77-.28,3.48S773.88,637.71,774.81,637.15Z"/>
      <path class="cls-4" d="M777.87,632c-1.32-2-1-4.08.72-5.16,1.84-1.2,3.78-.54,5.16,1.77l-4.55,3c.83,1.27,2.07,1.65,3.07,1a1.82,1.82,0,0,0,.88-2.22l1.11-.73a3.09,3.09,0,0,1-1.39,3.81C781,634.62,779.08,633.81,777.87,632Zm.76-1.34,3.39-2.19a2,2,0,1,0-3.39,2.19Z"/>
      <path class="cls-4" d="M785.25,623.77a2.34,2.34,0,0,1,1.12-2.24c1.48-1,2.62-.38,3.59,1l2.75,3.91-1.05.74-2.5-3.54c-.7-1-1.36-1.77-2.51-1-.95.67-1,1.74,0,3.06l2.35,3.34-1.05.74-4.34-6.15,1-.75Z"/>
      <path class="cls-4" d="M799.64,613a2.39,2.39,0,0,1,.89-2.4c1.33-1.12,3.25-.85,4.85,1s1.52,3.84.19,5a2.4,2.4,0,0,1-2.5.48l2.26,2.69-1,.83-6.42-7.64,1-.83Zm5,3c1-.83.81-2.07-.34-3.44s-2.34-1.75-3.32-.92c-.83.69-1,1.95.28,3.47S803.86,616.63,804.68,615.94Z"/>
      <path class="cls-4" d="M812.59,608.79a2.36,2.36,0,0,1-.84,2.35c-1.34,1.24-2.54.7-3.67-.52l-3.29-3.55.94-.88,3,3.23c.83.89,1.56,1.57,2.58.62.86-.79.74-1.84-.36-3l-2.81-3,.94-.88,5.12,5.53-.94.87Z"/>
      <path class="cls-4" d="M811.94,596.49l6.5,6.28,1.49-1.54.8.77-3.86,4-.8-.77,1.48-1.53-5.72-5.53-1.48,1.53-.78-.76Z"/>
      <path class="cls-4" d="M817.82,590l6.88,5.87,1.39-1.63.84.72-3.61,4.23-.84-.72,1.38-1.62-6-5.16-1.38,1.62-.84-.71Z"/>
    </g>
    <g>
      <path class="cls-4" d="M780.08,645.64l.72,1.13a2.12,2.12,0,0,1,1-2.21l1.09-.69.63,1-1.08.68c-1.21.77-1.18,1.88-.29,3.27l1.42,2.24,2.17-1.39.6.94-5.06,3.21-.59-.93,1.79-1.14-2.85-4.49-1.81,1.14-.59-.93Z"/>
      <path class="cls-4" d="M786.65,645.91c-1.36-2-1-4,.61-5.17,1.82-1.24,3.77-.61,5.2,1.66L788,645.45c.85,1.25,2.1,1.6,3.09.93a1.82,1.82,0,0,0,.83-2.24l1.1-.75a3.1,3.1,0,0,1-1.32,3.84C789.79,648.52,787.91,647.75,786.65,645.91Zm.74-1.35,3.34-2.27a2,2,0,1,0-3.34,2.27Z"/>
      <path class="cls-4" d="M795.82,634.84l1-.76,5.88,8.07-1,.76-2.07-2.84a2.43,2.43,0,0,1-1.07,2.32c-1.39,1-3.3.62-4.76-1.38s-1.25-3.93.14-5a2.42,2.42,0,0,1,2.55-.3Zm-1,1.93c-1,.77-1,2,.1,3.44s2.2,1.92,3.25,1.15c.86-.63,1.12-1.88,0-3.48S795.66,636.14,794.8,636.77Z"/>
      <path class="cls-4" d="M806.71,634.76a2.35,2.35,0,0,1-1,2.27c-1.43,1.12-2.58.49-3.61-.82l-3-3.81,1-.8,2.72,3.46c.75,1,1.42,1.7,2.52.84.91-.72.88-1.78-.11-3l-2.56-3.26,1-.8,4.65,5.93-1,.8Z"/>
      <path class="cls-4" d="M808.13,630.06c-1.56-1.84-1.45-3.92.06-5.21,1.68-1.42,3.68-1,5.35,1.11l-4.13,3.5c1,1.16,2.26,1.37,3.17.6a1.82,1.82,0,0,0,.58-2.32l1-.86a3.1,3.1,0,0,1-.9,4C811.54,632.32,809.58,631.76,808.13,630.06Zm.6-1.42L811.8,626a2,2,0,1,0-3.07,2.61Z"/>
      <path class="cls-4" d="M817.5,619.49c-.69-.5-1.36-.26-2,.32s-.91,1.24-.45,1.73.87.36,1.52,0l.73-.44c1.12-.7,2.48-1.3,3.51-.19s.61,2.68-.59,3.79a2.83,2.83,0,0,1-3.92.31l1-.92a1.58,1.58,0,0,0,2.22-.18c.58-.55,1-1.35.44-2s-1.18-.34-2,.18l-.81.51c-1,.63-2.12.84-3-.12s-.26-2.6.67-3.46a2.77,2.77,0,0,1,3.66-.42Z"/>
      <path class="cls-4" d="M818.82,612.72l.9-.92,1.35,1.32,2.15-2.2.79.77-2.15,2.2,3.11,3.05c.55.53.72.64,1.22.13l1.63-1.66.79.77L826.79,618c-1,1-1.47,1-2.59-.06L821,614.81l-1.5,1.53-.79-.77,1.5-1.53Z"/>
    </g>
  </g>
  <g>
    <circle class="cls-4" cx="846.98" cy="558" r="18.5"/>
    <path class="cls-4" d="M847,541a17,17,0,1,1-17,17,17,17,0,0,1,17-17m0-3a20,20,0,1,0,20,20,20,20,0,0,0-20-20Z"/>
  </g>
  <g>
    <circle class="cls-1" cx="715.98" cy="670" r="18.5"/>
    <path class="cls-3" d="M716,653a17,17,0,1,1-17,17,17,17,0,0,1,17-17m0-3a20,20,0,1,0,20,20,20,20,0,0,0-20-20Z"/>
  </g>
  <g>
    <circle class="cls-1" cx="401.1" cy="606.85" r="18.5"/>
    <path class="cls-3" d="M401.1,589.85a17,17,0,1,1-17,17,17,17,0,0,1,17-17m0-3a20,20,0,1,0,20,20,20,20,0,0,0-20-20Z"/>
  </g>
  <g>
    <circle class="cls-1" cx="626.98" cy="558" r="18.5"/>
    <path class="cls-3" d="M627,541a17,17,0,1,1-17,17,17,17,0,0,1,17-17m0-3a20,20,0,1,0,20,20,20,20,0,0,0-20-20Z"/>
  </g>
  <path class="cls-3" d="M629.89,555.58c0,1.72-1.27,3.14-3.16,4.76l-1.1,1h4.2V563H623v-1.63l2.12-1.85c1.61-1.39,2.76-2.65,2.76-3.86a1.27,1.27,0,0,0-1.28-1.4c-.89,0-1.56.76-1.52,2.26h-2a3.35,3.35,0,0,1,3.51-3.81C628.47,552.67,629.89,553.73,629.89,555.58Z"/>
  <path class="cls-5" d="M847.45,561.65a1.38,1.38,0,0,0,1.51-1.47c0-.94-.77-1.5-1.89-1.5h-.59v-1.81H847c1.13,0,1.85-.5,1.85-1.5a1.24,1.24,0,0,0-1.4-1.26c-.89,0-1.45.58-1.56,1.63h-2a3.34,3.34,0,0,1,3.63-3.11c1.57,0,3.35.81,3.35,2.66a2.84,2.84,0,0,1-1.24,2.31A2.67,2.67,0,0,1,851,560c0,2.1-1.79,3.14-3.63,3.14a3.44,3.44,0,0,1-3.64-3.38h2C845.88,561,846.52,561.65,847.45,561.65Z"/>
  <path class="cls-3" d="M719.14,672.4h-1.38v2.06h-2V672.4h-4.46v-1.72l4.6-6.37h1.87v6.27h1.38Zm-5.9-1.82h2.51V667Z"/>
  <path class="cls-3" d="M400.36,609.8v-5.47h-2.78v-1.51c2.24,0,2.88-.56,3.26-1.67h1.54v8.65h2.34v1.51h-7.14V609.8Z"/>
  <rect class="cls-3" x="646.08" y="557" width="164.31" height="3"/>
  <path class="cls-3" d="M579.81,569.32a1.5,1.5,0,0,1-1.06-2.56L590,555.52l-11.24-11.23a1.51,1.51,0,0,1,0-2.12,1.49,1.49,0,0,1,2.12,0l12.3,12.29a1.5,1.5,0,0,1,0,2.12l-12.3,12.3A1.49,1.49,0,0,1,579.81,569.32Z"/>
  <path class="cls-3" d="M799.88,572.3a1.51,1.51,0,0,1-1.06-.44,1.49,1.49,0,0,1,0-2.12l11.24-11.24-11.24-11.24a1.49,1.49,0,0,1,0-2.12,1.51,1.51,0,0,1,2.12,0l12.3,12.3a1.5,1.5,0,0,1,0,2.12l-12.3,12.3A1.51,1.51,0,0,1,799.88,572.3Z"/>
  <path class="cls-4" d="M760.63,684.45a1.45,1.45,0,0,1-.86-.28l-14.19-10.06a1.53,1.53,0,0,1-.61-1,1.51,1.51,0,0,1,.26-1.11l10.07-14.18a1.5,1.5,0,1,1,2.44,1.73l-9.2,13,13,9.2a1.49,1.49,0,0,1,.36,2.09A1.52,1.52,0,0,1,760.63,684.45Z"/>
  <path class="cls-3" d="M553.13,686.08a1.48,1.48,0,0,1-1.06-.44l-12.29-12.29a1.5,1.5,0,0,1,0-2.13l12.29-12.29a1.5,1.5,0,0,1,2.12,2.12L543,672.29l11.23,11.23a1.49,1.49,0,0,1,0,2.12A1.45,1.45,0,0,1,553.13,686.08Z"/>
  <g>
    <rect class="cls-5" x="178.57" y="241.19" width="899" height="139" rx="3"/>
    <path class="cls-2" d="M1074.57,241.69a2.5,2.5,0,0,1,2.5,2.5v133a2.51,2.51,0,0,1-2.5,2.5h-893a2.51,2.51,0,0,1-2.5-2.5v-133a2.5,2.5,0,0,1,2.5-2.5h893m0-1h-893a3.49,3.49,0,0,0-3.5,3.5v133a3.5,3.5,0,0,0,3.5,3.5h893a3.5,3.5,0,0,0,3.5-3.5v-133a3.5,3.5,0,0,0-3.5-3.5Z"/>
  </g>
  <g>
    <rect class="cls-5" x="187.32" y="216.19" width="68.6" height="29" rx="3"/>
    <path class="cls-2" d="M252.92,216.69a2.5,2.5,0,0,1,2.5,2.5v23a2.51,2.51,0,0,1-2.5,2.5h-62.6a2.51,2.51,0,0,1-2.5-2.5v-23a2.5,2.5,0,0,1,2.5-2.5h62.6m0-1h-62.6a3.5,3.5,0,0,0-3.5,3.5v23a3.5,3.5,0,0,0,3.5,3.5h62.6a3.5,3.5,0,0,0,3.5-3.5v-23a3.49,3.49,0,0,0-3.5-3.5Z"/>
  </g>
  <g>
    <path class="cls-5" d="M157.54,429.55a4.3,4.3,0,0,1-4.29-4.29V189.18a1.76,1.76,0,0,0-.5-1.24l-7.24-7.54a.79.79,0,0,1,0-1.05l7.37-8.86a1.75,1.75,0,0,0,.41-1.14V157.41a4.3,4.3,0,0,1,4.29-4.29h941.05a4.3,4.3,0,0,1,4.29,4.29V425.26a4.29,4.29,0,0,1-4.29,4.29Z"/>
    <path class="cls-2" d="M1098.59,153.62a3.79,3.79,0,0,1,3.79,3.79V425.26a3.79,3.79,0,0,1-3.79,3.79h-941a3.79,3.79,0,0,1-3.79-3.79V189.18a2.27,2.27,0,0,0-.63-1.58l-7.25-7.55a.28.28,0,0,1,0-.38l7.36-8.86a2.24,2.24,0,0,0,.53-1.46V157.41a3.79,3.79,0,0,1,3.79-3.79h941.05m0-1h-941a4.8,4.8,0,0,0-4.79,4.79v11.94a1.28,1.28,0,0,1-.29.82L145.09,179a1.3,1.3,0,0,0,.06,1.72l7.24,7.54a1.29,1.29,0,0,1,.36.89V425.26a4.79,4.79,0,0,0,4.79,4.79h941.05a4.78,4.78,0,0,0,4.79-4.79V157.41a4.79,4.79,0,0,0-4.79-4.79Z"/>
  </g>
  <g>
    <rect class="cls-5" x="171.47" y="95.25" width="106.36" height="39" rx="3"/>
    <path class="cls-2" d="M274.83,95.75a2.5,2.5,0,0,1,2.5,2.5v33a2.5,2.5,0,0,1-2.5,2.5H174.47a2.5,2.5,0,0,1-2.5-2.5v-33a2.5,2.5,0,0,1,2.5-2.5H274.83m0-1H174.47a3.5,3.5,0,0,0-3.5,3.5v33a3.5,3.5,0,0,0,3.5,3.5H274.83a3.5,3.5,0,0,0,3.5-3.5v-33a3.5,3.5,0,0,0-3.5-3.5Z"/>
  </g>
  <g>
    <rect class="cls-5" x="329.87" y="95.25" width="296.01" height="39" rx="3"/>
    <path class="cls-2" d="M622.88,95.75a2.51,2.51,0,0,1,2.5,2.5v33a2.51,2.51,0,0,1-2.5,2.5h-290a2.5,2.5,0,0,1-2.5-2.5v-33a2.5,2.5,0,0,1,2.5-2.5h290m0-1h-290a3.5,3.5,0,0,0-3.5,3.5v33a3.5,3.5,0,0,0,3.5,3.5h290a3.5,3.5,0,0,0,3.5-3.5v-33a3.5,3.5,0,0,0-3.5-3.5Z"/>
  </g>
  <g>
    <rect class="cls-6" x="190.28" y="172.64" width="887.79" height="24" rx="3.5"/>
    <path class="cls-2" d="M1074.57,197.14H193.78a4,4,0,0,1-4-4v-17a4,4,0,0,1,4-4h880.79a4,4,0,0,1,4,4v17A4,4,0,0,1,1074.57,197.14Zm-880.79-24a3,3,0,0,0-3,3v17a3,3,0,0,0,3,3h880.79a3,3,0,0,0,3-3v-17a3,3,0,0,0-3-3Z"/>
  </g>
  <g>
    <rect class="cls-7" x="942.79" y="391.17" width="134.78" height="29" rx="3"/>
    <path class="cls-2" d="M1074.57,391.67a2.51,2.51,0,0,1,2.5,2.5v23a2.5,2.5,0,0,1-2.5,2.5H945.79a2.5,2.5,0,0,1-2.5-2.5v-23a2.51,2.51,0,0,1,2.5-2.5h128.78m0-1H945.79a3.5,3.5,0,0,0-3.5,3.5v23a3.5,3.5,0,0,0,3.5,3.5h128.78a3.5,3.5,0,0,0,3.5-3.5v-23a3.5,3.5,0,0,0-3.5-3.5Z"/>
  </g>
  <g>
    <path class="cls-5" d="M959.72,409.27a3.64,3.64,0,0,1-1.44-1.47,5.3,5.3,0,0,1,0-4.66,3.64,3.64,0,0,1,1.44-1.47,4.11,4.11,0,0,1,2-.5,3.75,3.75,0,0,1,2.27.67,3.16,3.16,0,0,1,1.21,1.88l-1.4.36A2.37,2.37,0,0,0,963,403a2.07,2.07,0,0,0-1.32-.39,2.35,2.35,0,0,0-1.21.32,2.19,2.19,0,0,0-.86,1,4.06,4.06,0,0,0,0,3.16,2.19,2.19,0,0,0,.86,1,2.35,2.35,0,0,0,1.21.32,2.07,2.07,0,0,0,1.32-.39,2.37,2.37,0,0,0,.76-1.08l1.4.36A3.16,3.16,0,0,1,964,409.1a3.75,3.75,0,0,1-2.27.67A4.11,4.11,0,0,1,959.72,409.27Z"/>
    <path class="cls-5" d="M967.88,403.62v1a2.33,2.33,0,0,1,.79-.8,1.87,1.87,0,0,1,1-.28,2.58,2.58,0,0,1,.73.12l-.28,1.38a1.09,1.09,0,0,0-.62-.17,1.39,1.39,0,0,0-1.17.64,3.57,3.57,0,0,0-.45,2v2.15h-1.49v-6.05Z"/>
    <path class="cls-5" d="M976.5,407.13h-4.17a1.68,1.68,0,0,0,.47,1,1.4,1.4,0,0,0,1,.34,1.51,1.51,0,0,0,.85-.22,2.18,2.18,0,0,0,.61-.71l1.2.44a2.91,2.91,0,0,1-1,1.31,3,3,0,0,1-1.71.46,2.74,2.74,0,0,1-1.64-.47,2.66,2.66,0,0,1-1-1.17,3.71,3.71,0,0,1,0-3,2.68,2.68,0,0,1,2.6-1.63,2.66,2.66,0,0,1,1.58.45,2.78,2.78,0,0,1,.94,1.13,3.45,3.45,0,0,1,.29,1.4ZM975,406a1.64,1.64,0,0,0-.42-.83,1.21,1.21,0,0,0-.87-.32,1.27,1.27,0,0,0-.83.29,1.52,1.52,0,0,0-.49.86Z"/>
    <path class="cls-5" d="M978,409.29a1.94,1.94,0,0,1,.16-2.8A2.93,2.93,0,0,1,980,406h1.06v-.26a.78.78,0,0,0-.3-.67,1.22,1.22,0,0,0-.76-.22,1,1,0,0,0-1,.69l-1.26-.28a1.87,1.87,0,0,1,.77-1.22,2.5,2.5,0,0,1,1.53-.46,2.58,2.58,0,0,1,1.88.64,2.53,2.53,0,0,1,.67,1.89v3.61h-1.23l-.15-.77a2.3,2.3,0,0,1-1.86.87A1.85,1.85,0,0,1,978,409.29Zm2.66-1.14a1.13,1.13,0,0,0,.41-.9v-.12h-1a1.28,1.28,0,0,0-.76.19.67.67,0,0,0-.27.59.52.52,0,0,0,.19.42.68.68,0,0,0,.48.16A1.42,1.42,0,0,0,980.67,408.15Z"/>
    <path class="cls-5" d="M984.92,409.2a2.21,2.21,0,0,1-.59-1.67v-2.64h-.94v-1.27h.94v-1.51l1.49-.94v2.45h1.59v1.27h-1.59v2.62a1.1,1.1,0,0,0,.2.76.73.73,0,0,0,.59.22,1.21,1.21,0,0,0,.58-.14l.34,1.2a2.38,2.38,0,0,1-1,.22A2.23,2.23,0,0,1,984.92,409.2Z"/>
    <path class="cls-5" d="M993.67,407.13h-4.18a1.68,1.68,0,0,0,.47,1,1.4,1.4,0,0,0,1,.34,1.51,1.51,0,0,0,.85-.22,2.18,2.18,0,0,0,.61-.71l1.2.44a2.91,2.91,0,0,1-1,1.31,3,3,0,0,1-1.71.46,2.74,2.74,0,0,1-1.64-.47,2.66,2.66,0,0,1-1-1.17,3.71,3.71,0,0,1,0-3,2.68,2.68,0,0,1,2.6-1.63,2.66,2.66,0,0,1,1.58.45,2.7,2.7,0,0,1,.94,1.13,3.46,3.46,0,0,1,.3,1.4ZM992.14,406a1.64,1.64,0,0,0-.42-.83,1.21,1.21,0,0,0-.87-.32,1.27,1.27,0,0,0-.83.29,1.58,1.58,0,0,0-.49.86Z"/>
    <path class="cls-5" d="M999.47,403.62v.63a1.43,1.43,0,0,1,.55-.5,1.84,1.84,0,0,1,.92-.22,2.51,2.51,0,0,1,2,.84,4,4,0,0,1,0,4.55,2.52,2.52,0,0,1-2,.85,1.93,1.93,0,0,1-.85-.2,1.61,1.61,0,0,1-.62-.45v3H998v-8.5Zm2.27,4.38a2.07,2.07,0,0,0,.4-1.35,2.09,2.09,0,0,0-.4-1.37,1.29,1.29,0,0,0-2,0,2.58,2.58,0,0,0,0,2.73,1.24,1.24,0,0,0,1,.48A1.23,1.23,0,0,0,1001.74,408Z"/>
    <path class="cls-5" d="M1005.55,409.3a1.76,1.76,0,0,1-.51-1.36v-4.32h1.49v3.88a1.07,1.07,0,0,0,.23.75.85.85,0,0,0,.63.24,1,1,0,0,0,.69-.28,2.11,2.11,0,0,0,.5-.85,4,4,0,0,0,.19-1.33v-2.41h1.49v6.05h-1.49v-1a2.75,2.75,0,0,1-.82.78,2.05,2.05,0,0,1-1.05.29A1.93,1.93,0,0,1,1005.55,409.3Z"/>
    <path class="cls-5" d="M1011.94,401.17h1.49v8.5h-1.49Z"/>
    <path class="cls-5" d="M1015.11,401.17h1.49v8.5h-1.49Z"/>
    <path class="cls-5" d="M1022.74,403.62v1a2.42,2.42,0,0,1,.79-.8,1.89,1.89,0,0,1,1-.28,2.52,2.52,0,0,1,.73.12L1025,405a1.15,1.15,0,0,0-.63-.17,1.36,1.36,0,0,0-1.16.64,3.48,3.48,0,0,0-.46,2v2.15h-1.49v-6.05Z"/>
    <path class="cls-5" d="M1031.37,407.13h-4.18a1.75,1.75,0,0,0,.48,1,1.36,1.36,0,0,0,1,.34,1.51,1.51,0,0,0,.85-.22,2.2,2.2,0,0,0,.62-.71l1.2.44a2.75,2.75,0,0,1-2.75,1.77,2.76,2.76,0,0,1-1.64-.47,2.66,2.66,0,0,1-1-1.17,3.71,3.71,0,0,1,0-3,2.71,2.71,0,0,1,1-1.17,2.76,2.76,0,0,1,1.64-.46,2.64,2.64,0,0,1,2.52,1.58,3.46,3.46,0,0,1,.3,1.4Zm-1.53-1.18a1.64,1.64,0,0,0-.42-.83,1.18,1.18,0,0,0-.87-.32,1.27,1.27,0,0,0-.83.29,1.58,1.58,0,0,0-.49.86Z"/>
    <path class="cls-5" d="M1036.6,409.12a1.64,1.64,0,0,1-.61.45,2,2,0,0,1-.85.2,2.55,2.55,0,0,1-2.05-.85,4,4,0,0,1,0-4.55,2.55,2.55,0,0,1,2.05-.84,1.8,1.8,0,0,1,.91.22,1.43,1.43,0,0,1,.55.5v-.63h1.49v8.5h-1.49v-3Zm-.26-1.11a2.58,2.58,0,0,0,0-2.73,1.23,1.23,0,0,0-1-.48,1.26,1.26,0,0,0-1,.48,2.15,2.15,0,0,0-.39,1.37,2.13,2.13,0,0,0,.39,1.35,1.24,1.24,0,0,0,1,.49A1.23,1.23,0,0,0,1036.34,408Z"/>
    <path class="cls-5" d="M1040.28,409.3a1.76,1.76,0,0,1-.51-1.36v-4.32h1.49v3.88a1,1,0,0,0,.23.75.85.85,0,0,0,.63.24,1,1,0,0,0,.68-.28,2.12,2.12,0,0,0,.51-.85,4,4,0,0,0,.19-1.33v-2.41H1045v6.05h-1.49v-1a2.67,2.67,0,0,1-.83.78,2,2,0,0,1-1,.29A1.93,1.93,0,0,1,1040.28,409.3Z"/>
    <path class="cls-5" d="M1052.06,407.13h-4.18a1.68,1.68,0,0,0,.47,1,1.4,1.4,0,0,0,1,.34,1.51,1.51,0,0,0,.85-.22,2.18,2.18,0,0,0,.61-.71l1.2.44a2.91,2.91,0,0,1-1,1.31,3,3,0,0,1-1.71.46,2.74,2.74,0,0,1-1.64-.47,2.66,2.66,0,0,1-1-1.17,3.71,3.71,0,0,1,0-3,2.68,2.68,0,0,1,2.6-1.63,2.66,2.66,0,0,1,1.58.45,2.7,2.7,0,0,1,.94,1.13,3.46,3.46,0,0,1,.3,1.4Zm-1.53-1.18a1.64,1.64,0,0,0-.42-.83,1.21,1.21,0,0,0-.87-.32,1.27,1.27,0,0,0-.83.29,1.58,1.58,0,0,0-.49.86Z"/>
    <path class="cls-5" d="M1053.67,409.29a2.23,2.23,0,0,1-.83-1.16l1.18-.63a1.76,1.76,0,0,0,.48.73,1,1,0,0,0,.72.26.82.82,0,0,0,.5-.15.51.51,0,0,0,.2-.43.56.56,0,0,0-.31-.48,5.69,5.69,0,0,0-.94-.44,2.79,2.79,0,0,1-1.06-.69,1.56,1.56,0,0,1-.38-1.08,1.49,1.49,0,0,1,.25-.85,1.78,1.78,0,0,1,.68-.62,2.05,2.05,0,0,1,1-.22,2.46,2.46,0,0,1,1.12.25,2,2,0,0,1,.78.73l-.89.82a1.11,1.11,0,0,0-1-.53.74.74,0,0,0-.42.12.42.42,0,0,0-.17.33.52.52,0,0,0,.25.41,4.84,4.84,0,0,0,1,.45,2.59,2.59,0,0,1,1.09.66,1.48,1.48,0,0,1,.38,1,1.82,1.82,0,0,1-.58,1.42,2.07,2.07,0,0,1-1.48.54A2.51,2.51,0,0,1,1053.67,409.29Z"/>
    <path class="cls-5" d="M1059.27,409.2a2.21,2.21,0,0,1-.59-1.67v-2.64h-.93v-1.27h.93v-1.51l1.49-.94v2.45h1.59v1.27h-1.59v2.62a1.1,1.1,0,0,0,.2.76.74.74,0,0,0,.59.22,1.21,1.21,0,0,0,.58-.14l.34,1.2a2.38,2.38,0,0,1-1,.22A2.25,2.25,0,0,1,1059.27,409.2Z"/>
  </g>
  <g>
    <path class="cls-6" d="M1074.57,240.68H256.42v-21.5a3.5,3.5,0,0,0-3.5-3.5h-62.6a3.5,3.5,0,0,0-3.5,3.5v21.5h-5.25a3.5,3.5,0,0,0-3.5,3.5v133a3.49,3.49,0,0,0,3.5,3.5h893a3.5,3.5,0,0,0,3.5-3.5v-133A3.5,3.5,0,0,0,1074.57,240.68Z"/>
    <path class="cls-2" d="M1074.57,381.18h-893a4,4,0,0,1-4-4v-133a4,4,0,0,1,4-4h4.75v-21a4,4,0,0,1,4-4h62.6a4,4,0,0,1,4,4v21h817.65a4,4,0,0,1,4,4v133A4,4,0,0,1,1074.57,381.18Zm-893-140a3,3,0,0,0-3,3v133a3,3,0,0,0,3,3h893a3,3,0,0,0,3-3v-133a3,3,0,0,0-3-3H256.42a.5.5,0,0,1-.5-.5v-21.5a3,3,0,0,0-3-3h-62.6a3,3,0,0,0-3,3v21.5a.5.5,0,0,1-.5.5Z"/>
  </g>
  <g>
    <path class="cls-2" d="M206.31,224.15H208l1.4,6.18,1.57-5.29h1.34l1.58,5.29,1.4-6.18h1.66l-2.2,8.4h-1.58l-1.53-5-1.52,5h-1.58Z"/>
    <path class="cls-2" d="M219.36,226.5v1a2.32,2.32,0,0,1,.8-.79,1.87,1.87,0,0,1,1-.29,2.47,2.47,0,0,1,.73.12l-.27,1.38a1.21,1.21,0,0,0-.63-.16,1.36,1.36,0,0,0-1.16.64,3.56,3.56,0,0,0-.46,2v2.15h-1.48V226.5Z"/>
    <path class="cls-2" d="M222.94,225.44a1,1,0,0,1,0-1.36.9.9,0,0,1,.68-.28,1,1,0,1,1,0,1.92A.9.9,0,0,1,222.94,225.44Zm-.06,1.06h1.49v6.05h-1.49Z"/>
    <path class="cls-2" d="M226.84,232.08a2.22,2.22,0,0,1-.59-1.67v-2.64h-.93V226.5h.93V225l1.49-.94v2.45h1.6v1.27h-1.6v2.62a1.15,1.15,0,0,0,.2.76.74.74,0,0,0,.59.22,1.34,1.34,0,0,0,.58-.14l.35,1.2a2.41,2.41,0,0,1-1,.21A2.24,2.24,0,0,1,226.84,232.08Z"/>
    <path class="cls-2" d="M235.59,230h-4.18a1.69,1.69,0,0,0,.48,1,1.32,1.32,0,0,0,1,.35,1.44,1.44,0,0,0,.85-.23,2.06,2.06,0,0,0,.62-.7l1.2.44a3.06,3.06,0,0,1-1,1.31,3,3,0,0,1-1.71.45,2.76,2.76,0,0,1-1.64-.46,2.71,2.71,0,0,1-1-1.17,3.71,3.71,0,0,1,0-3,2.66,2.66,0,0,1,1-1.17,2.76,2.76,0,0,1,1.64-.47,2.62,2.62,0,0,1,2.52,1.59,3.42,3.42,0,0,1,.3,1.4Zm-1.53-1.17a1.64,1.64,0,0,0-.42-.83,1.14,1.14,0,0,0-.87-.32,1.22,1.22,0,0,0-.83.29,1.58,1.58,0,0,0-.49.86Z"/>
  </g>
  <g>
    <path class="cls-2" d="M275.52,224.15a2.56,2.56,0,1,1,0,5.11h-1.61v3.29h-1.56v-8.4Zm.76,3.39a1.11,1.11,0,0,0,.29-.84,1.14,1.14,0,0,0-.29-.84,1.16,1.16,0,0,0-.82-.27h-1.55v2.23h1.55A1.12,1.12,0,0,0,276.28,227.54Z"/>
    <path class="cls-2" d="M280.67,226.5v1a2.38,2.38,0,0,1,.79-.79,1.9,1.9,0,0,1,1-.29,2.52,2.52,0,0,1,.73.12l-.27,1.38a1.23,1.23,0,0,0-.63-.16,1.36,1.36,0,0,0-1.16.64,3.48,3.48,0,0,0-.46,2v2.15h-1.49V226.5Z"/>
    <path class="cls-2" d="M289.3,230h-4.18a1.64,1.64,0,0,0,.48,1,1.32,1.32,0,0,0,1,.35,1.44,1.44,0,0,0,.85-.23,2.06,2.06,0,0,0,.62-.7l1.2.44a3.06,3.06,0,0,1-1,1.31,3,3,0,0,1-1.71.45,2.76,2.76,0,0,1-1.64-.46,2.71,2.71,0,0,1-1-1.17,3.71,3.71,0,0,1,0-3,2.66,2.66,0,0,1,1-1.17,2.76,2.76,0,0,1,1.64-.47A2.62,2.62,0,0,1,289,228a3.42,3.42,0,0,1,.3,1.4Zm-1.53-1.17a1.64,1.64,0,0,0-.42-.83,1.14,1.14,0,0,0-.87-.32,1.22,1.22,0,0,0-.83.29,1.58,1.58,0,0,0-.49.86Z"/>
    <path class="cls-2" d="M289.91,226.5h1.5l1.22,4.21,1.23-4.21h1.5l-2.05,6.05H292Z"/>
    <path class="cls-2" d="M296.42,225.44a1,1,0,1,1,.68.28A.9.9,0,0,1,296.42,225.44Zm-.07,1.06h1.49v6.05h-1.49Z"/>
    <path class="cls-2" d="M304.89,230h-4.18a1.63,1.63,0,0,0,.47,1,1.36,1.36,0,0,0,1,.35,1.44,1.44,0,0,0,.85-.23,2,2,0,0,0,.61-.7l1.2.44a3,3,0,0,1-1,1.31,3,3,0,0,1-1.71.45,2.68,2.68,0,0,1-2.6-1.63,3.71,3.71,0,0,1,0-3,2.66,2.66,0,0,1,1-1.17,2.74,2.74,0,0,1,1.64-.47,2.66,2.66,0,0,1,1.58.45,2.73,2.73,0,0,1,.94,1.14,3.42,3.42,0,0,1,.3,1.4Zm-1.53-1.17a1.64,1.64,0,0,0-.42-.83,1.17,1.17,0,0,0-.87-.32,1.22,1.22,0,0,0-.83.29,1.58,1.58,0,0,0-.49.86Z"/>
    <path class="cls-2" d="M305.46,226.5H307l1.08,4.15,1-4.15h1.39l1,4.15,1.08-4.15h1.5l-1.93,6.05H310.8l-1-3.91-1.05,3.91h-1.32Z"/>
  </g>
  <g>
    <path class="cls-2" d="M186.33,119.35a2.07,2.07,0,0,1-.83-.67v.86h-1.16v-9.92h1.16v3.74a2.48,2.48,0,0,1,.9-.72,2.57,2.57,0,0,1,1.16-.27,3,3,0,0,1,1.72.47,3,3,0,0,1,1.08,1.29,4.67,4.67,0,0,1,.36,1.88,4.62,4.62,0,0,1-.36,1.87,3,3,0,0,1-1.08,1.3,3.1,3.1,0,0,1-1.72.47A2.66,2.66,0,0,1,186.33,119.35Zm2.63-1.46a3,3,0,0,0,.56-1.88,3,3,0,0,0-.56-1.89,1.94,1.94,0,0,0-3,0,3.53,3.53,0,0,0,0,3.77,1.81,1.81,0,0,0,1.52.72A1.79,1.79,0,0,0,189,117.89Z"/>
    <path class="cls-2" d="M192.57,119.11a2,2,0,0,1-.62-1.6,2,2,0,0,1,.84-1.72,3.83,3.83,0,0,1,2.29-.59h1.23v-.31a1.41,1.41,0,0,0-.42-1.13,1.57,1.57,0,0,0-1.08-.36,1.5,1.5,0,0,0-1.54,1.15l-1-.24a2.13,2.13,0,0,1,.86-1.41,2.88,2.88,0,0,1,1.72-.53,2.69,2.69,0,0,1,1.92.69,2.58,2.58,0,0,1,.73,2v4.53h-.92l-.21-1a2.41,2.41,0,0,1-2.19,1.14A2.29,2.29,0,0,1,192.57,119.11Zm2.7-.73a1.79,1.79,0,0,0,.74-.73,2.35,2.35,0,0,0,.3-1.24v-.22h-1.19a2.53,2.53,0,0,0-1.47.34,1.22,1.22,0,0,0-.18,1.79,1.26,1.26,0,0,0,.88.29A1.93,1.93,0,0,0,195.27,118.38Z"/>
    <path class="cls-2" d="M199.68,119.09a2.62,2.62,0,0,1-.88-1.36l1-.52a2.43,2.43,0,0,0,.61,1,1.53,1.53,0,0,0,1.06.36,1.13,1.13,0,0,0,.82-.28,1,1,0,0,0,.3-.78.88.88,0,0,0-.38-.73,5,5,0,0,0-1.14-.56,3.42,3.42,0,0,1-1.3-.77,1.69,1.69,0,0,1-.45-1.23,1.75,1.75,0,0,1,.58-1.37,2.1,2.1,0,0,1,1.47-.52,2.27,2.27,0,0,1,2,1.1l-.76.68a1.47,1.47,0,0,0-1.3-.75,1,1,0,0,0-.66.23.8.8,0,0,0-.27.63.79.79,0,0,0,.35.65,5.17,5.17,0,0,0,1.22.58c1.15.42,1.72,1.09,1.72,2a2,2,0,0,1-.61,1.56,2.28,2.28,0,0,1-1.64.58A2.66,2.66,0,0,1,199.68,119.09Z"/>
    <path class="cls-2" d="M211.13,116.19h-5.19a2.85,2.85,0,0,0,.59,1.75,1.8,1.8,0,0,0,1.48.67,2.06,2.06,0,0,0,1.19-.32,2.72,2.72,0,0,0,.83-1.05l1,.42a3.74,3.74,0,0,1-1.23,1.51,3.18,3.18,0,0,1-1.8.48,3,3,0,0,1-1.72-.5,3.15,3.15,0,0,1-1.11-1.33,4.2,4.2,0,0,1-.39-1.81,4.29,4.29,0,0,1,.39-1.83,3.12,3.12,0,0,1,1.11-1.32,3,3,0,0,1,1.72-.49,3.06,3.06,0,0,1,1.68.45,2.93,2.93,0,0,1,1.09,1.2,3.58,3.58,0,0,1,.38,1.68Zm-1.17-1a2.28,2.28,0,0,0-.63-1.31,1.9,1.9,0,0,0-1.35-.49,1.88,1.88,0,0,0-1.26.47,2.32,2.32,0,0,0-.71,1.33Z"/>
    <path class="cls-2" d="M212.85,114.29a.81.81,0,0,1-.25-.62.85.85,0,0,1,.87-.87.85.85,0,0,1,.87.87.81.81,0,0,1-.25.62,1,1,0,0,1-1.24,0Zm0,5a.79.79,0,0,1-.25-.61.81.81,0,0,1,.25-.62.84.84,0,0,1,.62-.24.88.88,0,0,1,.62.24.85.85,0,0,1,.25.62.83.83,0,0,1-.25.61.84.84,0,0,1-.62.25A.81.81,0,0,1,212.85,119.33Z"/>
    <path class="cls-2" d="M221.34,112.48v1.13a3.19,3.19,0,0,1,.89-.93,2,2,0,0,1,1.14-.31,2.13,2.13,0,0,1,1.22.36,2,2,0,0,1,.75,1.09,3.09,3.09,0,0,1,.95-1.07,2.16,2.16,0,0,1,1.21-.38,2.06,2.06,0,0,1,1.54.57,2.23,2.23,0,0,1,.56,1.6v5h-1.74v-4.71c0-.65-.29-1-.87-1a1.24,1.24,0,0,0-1.09.76,4.43,4.43,0,0,0-.43,2.18v2.75h-1.74v-4.71c0-.65-.29-1-.87-1a1.28,1.28,0,0,0-1.1.79,5.06,5.06,0,0,0-.42,2.31v2.59H219.6v-7.06Z"/>
    <path class="cls-2" d="M231.57,119.09a2.07,2.07,0,0,1-.6-1.58,2,2,0,0,1,.8-1.68,3.37,3.37,0,0,1,2.15-.63h1.24v-.31a.91.91,0,0,0-.35-.78,1.49,1.49,0,0,0-.89-.26,1.18,1.18,0,0,0-1.21.81l-1.47-.33a2.2,2.2,0,0,1,.9-1.42,2.92,2.92,0,0,1,1.78-.54,3,3,0,0,1,2.2.75,2.94,2.94,0,0,1,.77,2.2v4.22h-1.43l-.18-.9a2.67,2.67,0,0,1-2.17,1A2.19,2.19,0,0,1,231.57,119.09Zm3.11-1.33a1.28,1.28,0,0,0,.48-1.05v-.14H234a1.49,1.49,0,0,0-.88.22.79.79,0,0,0-.32.69.63.63,0,0,0,.22.5.84.84,0,0,0,.56.18A1.67,1.67,0,0,0,234.68,117.76Z"/>
    <path class="cls-2" d="M238.78,111.25a1.16,1.16,0,1,1,.8.32A1.11,1.11,0,0,1,238.78,111.25Zm-.07,1.23h1.74v7.06h-1.74Z"/>
    <path class="cls-2" d="M244.09,112.48v1.13a3.32,3.32,0,0,1,1-.91,2.38,2.38,0,0,1,1.22-.33,2.28,2.28,0,0,1,1.58.54,2.09,2.09,0,0,1,.59,1.59v5h-1.73V115a1.19,1.19,0,0,0-.28-.88,1,1,0,0,0-.73-.28,1.13,1.13,0,0,0-.8.34,2.37,2.37,0,0,0-.59,1,4.79,4.79,0,0,0-.22,1.55v2.82h-1.74v-7.06Z"/>
  </g>
  <g>
    <path class="cls-2" d="M347.3,119.14a3.13,3.13,0,0,1-1.1-1.33,4.59,4.59,0,0,1,0-3.61,3.25,3.25,0,0,1,1.1-1.33,3.06,3.06,0,0,1,1.76-.5,2.89,2.89,0,0,1,3,2l-1,.41a1.93,1.93,0,0,0-1.92-1.35,1.76,1.76,0,0,0-1.51.73,3.64,3.64,0,0,0,0,3.75,1.73,1.73,0,0,0,1.51.73,2,2,0,0,0,1.17-.33,2.43,2.43,0,0,0,.75-1l1,.4a3,3,0,0,1-1.13,1.48,3.25,3.25,0,0,1-1.83.5A3,3,0,0,1,347.3,119.14Z"/>
    <path class="cls-2" d="M354.8,119.15a3.22,3.22,0,0,1-1.19-1.34,4.09,4.09,0,0,1,0-3.61,3.25,3.25,0,0,1,3-1.83,3.15,3.15,0,0,1,1.79.5,3.23,3.23,0,0,1,1.18,1.33,4.18,4.18,0,0,1,0,3.61,3.37,3.37,0,0,1-4.77,1.34Zm3-.9a2.24,2.24,0,0,0,.75-1,3.21,3.21,0,0,0,.25-1.28,3.18,3.18,0,0,0-.25-1.28,2.24,2.24,0,0,0-.75-1,2,2,0,0,0-1.18-.37,2,2,0,0,0-1.19.37,2.24,2.24,0,0,0-.75,1,3.18,3.18,0,0,0-.26,1.28,3.22,3.22,0,0,0,.26,1.28,2.24,2.24,0,0,0,.75,1,2,2,0,0,0,1.19.36A2,2,0,0,0,357.78,118.25Z"/>
    <path class="cls-2" d="M362.84,112.48v1.36a3,3,0,0,1,.91-1.08,2.14,2.14,0,0,1,1.26-.39,2,2,0,0,1,1.25.38,1.94,1.94,0,0,1,.68,1.14,3.23,3.23,0,0,1,1-1.1,2.21,2.21,0,0,1,1.29-.42c1.35,0,2,.75,2,2.27v4.9h-1.15v-4.72a1.72,1.72,0,0,0-.27-1.07,1,1,0,0,0-.86-.35,1.45,1.45,0,0,0-1,.38,2.56,2.56,0,0,0-.69,1.09,4.78,4.78,0,0,0-.26,1.68v3h-1.15v-4.72a1.79,1.79,0,0,0-.26-1.07,1,1,0,0,0-.87-.35,1.45,1.45,0,0,0-1,.38,2.52,2.52,0,0,0-.69,1.11,5.48,5.48,0,0,0-.25,1.72v2.93h-1.16v-7.06Z"/>
    <path class="cls-2" d="M374.49,112.48v.91a2.08,2.08,0,0,1,.82-.71,2.51,2.51,0,0,1,1.24-.31,3,3,0,0,1,1.72.47,3,3,0,0,1,1.08,1.29,4.67,4.67,0,0,1,.36,1.88,4.62,4.62,0,0,1-.36,1.87,3,3,0,0,1-1.08,1.3,3.1,3.1,0,0,1-1.72.47,2.75,2.75,0,0,1-1.18-.27,2.22,2.22,0,0,1-.88-.73v3.74h-1.16v-9.91Zm3.46,5.41a3,3,0,0,0,.56-1.88,3,3,0,0,0-.56-1.89,1.79,1.79,0,0,0-1.51-.72,1.81,1.81,0,0,0-1.52.72,3.09,3.09,0,0,0-.54,1.89,3,3,0,0,0,.55,1.88,1.94,1.94,0,0,0,3,0Z"/>
    <path class="cls-2" d="M381.56,119.11a2,2,0,0,1-.62-1.6,2,2,0,0,1,.84-1.72,3.81,3.81,0,0,1,2.28-.59h1.24v-.31a1.41,1.41,0,0,0-.42-1.13,1.57,1.57,0,0,0-1.08-.36,1.5,1.5,0,0,0-1.54,1.15l-1-.24a2.13,2.13,0,0,1,.86-1.41,2.86,2.86,0,0,1,1.72-.53,2.69,2.69,0,0,1,1.92.69,2.57,2.57,0,0,1,.72,2v4.53h-.91l-.21-1a2.41,2.41,0,0,1-2.19,1.14A2.29,2.29,0,0,1,381.56,119.11Zm2.7-.73a1.79,1.79,0,0,0,.74-.73,2.35,2.35,0,0,0,.3-1.24v-.22h-1.19a2.53,2.53,0,0,0-1.47.34,1.22,1.22,0,0,0-.18,1.79,1.26,1.26,0,0,0,.88.29A1.93,1.93,0,0,0,384.26,118.38Z"/>
    <path class="cls-2" d="M389.54,112.48v1.22a2.48,2.48,0,0,1,.87-1,2.13,2.13,0,0,1,1.2-.34,2.67,2.67,0,0,1,1,.21l-.23,1.08a1.88,1.88,0,0,0-.91-.24,1.58,1.58,0,0,0-1.38.88,5,5,0,0,0-.54,2.58v2.66h-1.16v-7.06Z"/>
    <path class="cls-2" d="M399.45,116.19h-5.19a2.79,2.79,0,0,0,.59,1.75,1.78,1.78,0,0,0,1.48.67,2.09,2.09,0,0,0,1.19-.32,2.72,2.72,0,0,0,.83-1.05l1,.42a3.64,3.64,0,0,1-1.22,1.51,3.18,3.18,0,0,1-1.8.48,3,3,0,0,1-1.72-.5,3.08,3.08,0,0,1-1.11-1.33,4.2,4.2,0,0,1-.39-1.81,4.29,4.29,0,0,1,.39-1.83,3.05,3.05,0,0,1,1.11-1.32,3,3,0,0,1,1.72-.49,3.08,3.08,0,0,1,1.68.45,2.93,2.93,0,0,1,1.09,1.2,3.71,3.71,0,0,1,.38,1.68Zm-1.18-1a2.21,2.21,0,0,0-.62-1.31,1.9,1.9,0,0,0-1.35-.49,1.88,1.88,0,0,0-1.26.47,2.32,2.32,0,0,0-.71,1.33Z"/>
    <path class="cls-2" d="M401.17,114.29a.81.81,0,0,1-.25-.62.87.87,0,0,1,1.48-.62.88.88,0,0,1,0,1.24,1,1,0,0,1-1.24,0Zm0,5a.79.79,0,0,1-.25-.61.81.81,0,0,1,.25-.62.91.91,0,0,1,1.23,0,.82.82,0,0,1,.26.62.87.87,0,0,1-.87.86A.81.81,0,0,1,401.17,119.33Z"/>
    <path class="cls-2" d="M409.09,119.17a3.08,3.08,0,0,1-1.17-1.31,4.58,4.58,0,0,1,0-3.7,3,3,0,0,1,1.17-1.31,3.5,3.5,0,0,1,1.88-.48,3.72,3.72,0,0,1,2,.51,3,3,0,0,1,1.21,1.5l-1.56.63a2.15,2.15,0,0,0-.68-.86,1.56,1.56,0,0,0-1-.3,1.38,1.38,0,0,0-1.21.6,2.69,2.69,0,0,0-.41,1.56,2.74,2.74,0,0,0,.41,1.56,1.37,1.37,0,0,0,1.21.59,1.55,1.55,0,0,0,1-.29,2.26,2.26,0,0,0,.68-.87l1.56.63a3.06,3.06,0,0,1-1.21,1.51,3.72,3.72,0,0,1-2,.51A3.5,3.5,0,0,1,409.09,119.17Z"/>
    <path class="cls-2" d="M416,121.9a1.93,1.93,0,0,1-.89-1.72,1.82,1.82,0,0,1,.57-1.4,1.65,1.65,0,0,1-.36-1.09,1.57,1.57,0,0,1,.23-.87,1.78,1.78,0,0,1,.63-.62,2.4,2.4,0,0,1-.14-2.7,2.36,2.36,0,0,1,.93-.84,3,3,0,0,1,1.31-.29,2.84,2.84,0,0,1,1.31.31l1.33-.7.68,1.14-1,.51a2.19,2.19,0,0,1,.28,1.12,2.28,2.28,0,0,1-.34,1.25,2.21,2.21,0,0,1-.94.82,3,3,0,0,1-1.31.28,3.5,3.5,0,0,1-1-.15.59.59,0,0,0-.33.53.45.45,0,0,0,.16.38.79.79,0,0,0,.49.14H419a2.8,2.8,0,0,1,1.8.54,1.83,1.83,0,0,1,.67,1.53,2.07,2.07,0,0,1-.45,1.37,2.77,2.77,0,0,1-1.18.81,4.74,4.74,0,0,1-1.57.25A4,4,0,0,1,416,121.9Zm3.37-1.06a.69.69,0,0,0,.4-.66.6.6,0,0,0-.3-.57,1.84,1.84,0,0,0-.84-.16h-.95a6,6,0,0,1-.81,0,1.17,1.17,0,0,0-.15.64.81.81,0,0,0,.43.75,2.25,2.25,0,0,0,1.15.26A2.31,2.31,0,0,0,419.38,120.84Zm-.39-5.41a.9.9,0,0,0,.27-.68.93.93,0,0,0-1-1,.93.93,0,0,0-.69.27,1,1,0,0,0-.27.71.9.9,0,0,0,.27.68.93.93,0,0,0,.69.27A1,1,0,0,0,419,115.43Z"/>
    <path class="cls-2" d="M422.16,119.54h6.37v1.51h-6.37Z"/>
    <path class="cls-2" d="M429,114v-1.48h.9v-.36a2.23,2.23,0,0,1,2.44-2.5,2.79,2.79,0,0,1,1.31.28l-.38,1.4a2.11,2.11,0,0,0-.84-.19c-.53,0-.79.29-.79.88v.49h1.48V114h-1.48v5.58H429.9V114Z"/>
    <path class="cls-2" d="M440.52,116.57h-4.87a1.93,1.93,0,0,0,.56,1.19,1.59,1.59,0,0,0,1.12.4,1.72,1.72,0,0,0,1-.26,2.3,2.3,0,0,0,.72-.83l1.4.52a3.18,3.18,0,0,1-3.21,2.06,3.24,3.24,0,0,1-1.91-.54,3.31,3.31,0,0,1-1.12-1.37,4.45,4.45,0,0,1,0-3.46,3.13,3.13,0,0,1,3-1.91,3.11,3.11,0,0,1,1.85.52,3.15,3.15,0,0,1,1.1,1.33,4,4,0,0,1,.34,1.63Zm-1.77-1.37a1.92,1.92,0,0,0-.5-1,1.38,1.38,0,0,0-1-.38,1.44,1.44,0,0,0-1,.35,1.89,1.89,0,0,0-.58,1Z"/>
    <path class="cls-2" d="M442.28,119.09a2.25,2.25,0,0,1,.19-3.26,3.39,3.39,0,0,1,2.16-.63h1.23v-.31a.91.91,0,0,0-.35-.78,1.46,1.46,0,0,0-.88-.26,1.19,1.19,0,0,0-1.22.81l-1.47-.33a2.2,2.2,0,0,1,.9-1.42,3,3,0,0,1,1.79-.54,3,3,0,0,1,2.19.75,2.91,2.91,0,0,1,.78,2.2v4.22h-1.43l-.18-.9a2.68,2.68,0,0,1-2.17,1A2.18,2.18,0,0,1,442.28,119.09Zm3.1-1.33a1.28,1.28,0,0,0,.48-1.05v-.14H444.7a1.5,1.5,0,0,0-.89.22.79.79,0,0,0-.32.69.67.67,0,0,0,.22.5.86.86,0,0,0,.57.18A1.62,1.62,0,0,0,445.38,117.76Z"/>
    <path class="cls-2" d="M450.34,119a2.58,2.58,0,0,1-.69-1.95V114h-1.09v-1.48h1.09v-1.76l1.74-1.1v2.86h1.86V114h-1.86V117a1.38,1.38,0,0,0,.23.89.89.89,0,0,0,.69.25A1.41,1.41,0,0,0,453,118l.41,1.4a2.83,2.83,0,0,1-1.15.25A2.63,2.63,0,0,1,450.34,119Z"/>
    <path class="cls-2" d="M454.91,119.1a2,2,0,0,1-.59-1.58v-5h1.73V117a1.22,1.22,0,0,0,.27.88,1,1,0,0,0,.74.28,1.18,1.18,0,0,0,.8-.33,2.41,2.41,0,0,0,.59-1,5,5,0,0,0,.22-1.55v-2.81h1.74v7.06h-1.74V118.4a3,3,0,0,1-1,.91,2.26,2.26,0,0,1-1.21.34A2.22,2.22,0,0,1,454.91,119.1Z"/>
    <path class="cls-2" d="M464.1,112.48v1.15a2.82,2.82,0,0,1,.92-.93,2.25,2.25,0,0,1,1.17-.33,3.07,3.07,0,0,1,.85.14l-.32,1.61a1.4,1.4,0,0,0-.73-.2,1.62,1.62,0,0,0-1.36.75,4.18,4.18,0,0,0-.53,2.36v2.51h-1.73v-7.06Z"/>
    <path class="cls-2" d="M474.17,116.57H469.3a1.93,1.93,0,0,0,.55,1.19,1.59,1.59,0,0,0,1.13.4,1.69,1.69,0,0,0,1-.26,2.3,2.3,0,0,0,.72-.83l1.4.52a3.53,3.53,0,0,1-1.21,1.53,3.49,3.49,0,0,1-2,.53,3.22,3.22,0,0,1-1.91-.54,3.16,3.16,0,0,1-1.12-1.37,4.34,4.34,0,0,1,0-3.46,3.1,3.1,0,0,1,1.12-1.37,3.22,3.22,0,0,1,1.91-.54,3.15,3.15,0,0,1,1.85.52,3.2,3.2,0,0,1,1.09,1.33,4.05,4.05,0,0,1,.35,1.63Zm-1.78-1.37a1.84,1.84,0,0,0-.5-1,1.34,1.34,0,0,0-1-.38,1.44,1.44,0,0,0-1,.35,1.82,1.82,0,0,0-.57,1Z"/>
    <path class="cls-2" d="M475.1,119.54h6.38v1.51H475.1Z"/>
    <path class="cls-2" d="M489.09,116.57h-4.87a1.93,1.93,0,0,0,.55,1.19,1.61,1.61,0,0,0,1.13.4,1.74,1.74,0,0,0,1-.26,2.51,2.51,0,0,0,.72-.83l1.4.52a3.6,3.6,0,0,1-1.21,1.53,3.52,3.52,0,0,1-2,.53,3.13,3.13,0,0,1-3-1.91,4.34,4.34,0,0,1,0-3.46,3.17,3.17,0,0,1,1.12-1.37,3.24,3.24,0,0,1,1.91-.54,3,3,0,0,1,2.94,1.85,3.89,3.89,0,0,1,.35,1.63Zm-1.78-1.37a1.91,1.91,0,0,0-.49-1,1.38,1.38,0,0,0-1-.38,1.44,1.44,0,0,0-1,.35,1.77,1.77,0,0,0-.58,1Z"/>
    <path class="cls-2" d="M491.78,115.77l-2-3.29h1.83l1.14,1.83,1.15-1.83h1.82l-2,3.29,2.34,3.77h-1.82l-1.45-2.3-1.44,2.3h-1.82Z"/>
    <path class="cls-2" d="M498.78,112.48v.73a1.53,1.53,0,0,1,.64-.58,2.2,2.2,0,0,1,1.07-.26,2.93,2.93,0,0,1,2.38,1,4.6,4.6,0,0,1,0,5.3,2.93,2.93,0,0,1-2.38,1,2.32,2.32,0,0,1-1-.23,1.81,1.81,0,0,1-.71-.53v3.5H497v-9.91Zm2.65,5.11a3,3,0,0,0,0-3.17,1.45,1.45,0,0,0-1.18-.57,1.42,1.42,0,0,0-1.17.57,3,3,0,0,0,0,3.18,1.41,1.41,0,0,0,1.17.56A1.45,1.45,0,0,0,501.43,117.59Z"/>
    <path class="cls-2" d="M507,112.48v1.15a2.76,2.76,0,0,1,.93-.93,2.19,2.19,0,0,1,1.16-.33,3.07,3.07,0,0,1,.85.14l-.32,1.61a1.4,1.4,0,0,0-.73-.2,1.62,1.62,0,0,0-1.36.75A4.18,4.18,0,0,0,507,117v2.51h-1.73v-7.06Z"/>
    <path class="cls-2" d="M517.08,116.57H512.2a1.93,1.93,0,0,0,.56,1.19,1.59,1.59,0,0,0,1.13.4,1.69,1.69,0,0,0,1-.26,2.3,2.3,0,0,0,.72-.83l1.4.52a3.53,3.53,0,0,1-1.21,1.53,3.49,3.49,0,0,1-2,.53,3.2,3.2,0,0,1-1.91-.54,3.16,3.16,0,0,1-1.12-1.37,4.34,4.34,0,0,1,0-3.46,3.1,3.1,0,0,1,1.12-1.37,3.2,3.2,0,0,1,1.91-.54,3.15,3.15,0,0,1,1.85.52,3.2,3.2,0,0,1,1.09,1.33,4.05,4.05,0,0,1,.35,1.63Zm-1.78-1.37a1.84,1.84,0,0,0-.5-1,1.36,1.36,0,0,0-1-.38,1.44,1.44,0,0,0-1,.35,1.82,1.82,0,0,0-.57,1Z"/>
    <path class="cls-2" d="M519,119.09a2.66,2.66,0,0,1-1-1.35l1.38-.74a2,2,0,0,0,.56.86,1.25,1.25,0,0,0,.84.3.93.93,0,0,0,.58-.17.6.6,0,0,0,.24-.51.68.68,0,0,0-.37-.56,7.23,7.23,0,0,0-1.09-.51,3.18,3.18,0,0,1-1.24-.81,1.81,1.81,0,0,1-.44-1.26,1.74,1.74,0,0,1,.29-1,2,2,0,0,1,.79-.72,2.5,2.5,0,0,1,1.15-.26,2.83,2.83,0,0,1,1.3.3,2.2,2.2,0,0,1,.91.85l-1,1a1.31,1.31,0,0,0-1.13-.62.81.81,0,0,0-.49.15.47.47,0,0,0-.2.38.59.59,0,0,0,.3.47,4.76,4.76,0,0,0,1.14.53,3.12,3.12,0,0,1,1.28.77,1.7,1.7,0,0,1,.44,1.22,2.16,2.16,0,0,1-.67,1.66,2.44,2.44,0,0,1-1.73.62A3,3,0,0,1,519,119.09Z"/>
    <path class="cls-2" d="M525,119.09a2.68,2.68,0,0,1-1-1.35l1.39-.74a2.06,2.06,0,0,0,.55.86,1.28,1.28,0,0,0,.85.3.93.93,0,0,0,.58-.17.62.62,0,0,0,.23-.51.67.67,0,0,0-.36-.56,7.23,7.23,0,0,0-1.09-.51,3.18,3.18,0,0,1-1.24-.81,1.76,1.76,0,0,1-.44-1.26,1.81,1.81,0,0,1,.28-1,2.19,2.19,0,0,1,.79-.72,2.53,2.53,0,0,1,1.15-.26,2.8,2.8,0,0,1,1.3.3,2.16,2.16,0,0,1,.92.85l-1,1a1.31,1.31,0,0,0-1.13-.62.81.81,0,0,0-.49.15.47.47,0,0,0-.2.38.6.6,0,0,0,.29.47,5.1,5.1,0,0,0,1.15.53,3.12,3.12,0,0,1,1.28.77,1.74,1.74,0,0,1,.44,1.22,2.16,2.16,0,0,1-.67,1.66,2.48,2.48,0,0,1-1.73.62A3,3,0,0,1,525,119.09Z"/>
    <path class="cls-2" d="M530.1,119.54h6.37v1.51H530.1Z"/>
    <path class="cls-2" d="M538.27,119.09a2.68,2.68,0,0,1-1-1.35l1.39-.74a2,2,0,0,0,.55.86,1.28,1.28,0,0,0,.85.3.92.92,0,0,0,.57-.17.6.6,0,0,0,.24-.51.67.67,0,0,0-.36-.56,7.74,7.74,0,0,0-1.09-.51,3.11,3.11,0,0,1-1.24-.81,1.76,1.76,0,0,1-.44-1.26,1.81,1.81,0,0,1,.28-1,2.11,2.11,0,0,1,.79-.72,2.53,2.53,0,0,1,1.15-.26,2.8,2.8,0,0,1,1.3.3,2.08,2.08,0,0,1,.91.85l-1,1a1.32,1.32,0,0,0-1.14-.62.81.81,0,0,0-.48.15.44.44,0,0,0-.2.38.6.6,0,0,0,.29.47,5.1,5.1,0,0,0,1.15.53,3.08,3.08,0,0,1,1.27.77,1.7,1.7,0,0,1,.45,1.22,2.16,2.16,0,0,1-.67,1.66,2.49,2.49,0,0,1-1.74.62A2.92,2.92,0,0,1,538.27,119.09Z"/>
    <path class="cls-2" d="M550.06,116.57h-4.87a1.93,1.93,0,0,0,.55,1.19,1.61,1.61,0,0,0,1.13.4,1.69,1.69,0,0,0,1-.26,2.42,2.42,0,0,0,.73-.83l1.4.52a3.6,3.6,0,0,1-1.21,1.53,3.52,3.52,0,0,1-2,.53,3.13,3.13,0,0,1-3-1.91,4.34,4.34,0,0,1,0-3.46,3.17,3.17,0,0,1,1.12-1.37,3.24,3.24,0,0,1,1.91-.54,3,3,0,0,1,2.94,1.85,4.05,4.05,0,0,1,.35,1.63Zm-1.78-1.37a1.91,1.91,0,0,0-.49-1,1.38,1.38,0,0,0-1-.38,1.46,1.46,0,0,0-1,.35,1.82,1.82,0,0,0-.57,1Z"/>
    <path class="cls-2" d="M553.36,112.48v1.15a2.85,2.85,0,0,1,.93-.93,2.19,2.19,0,0,1,1.16-.33,3,3,0,0,1,.85.14l-.32,1.61a1.38,1.38,0,0,0-.73-.2,1.59,1.59,0,0,0-1.35.75,4.09,4.09,0,0,0-.54,2.36v2.51h-1.73v-7.06Z"/>
    <path class="cls-2" d="M556.92,112.48h1.75l1.43,4.91,1.43-4.91h1.75l-2.4,7.06h-1.57Z"/>
    <path class="cls-2" d="M570.56,116.57h-4.88a1.93,1.93,0,0,0,.56,1.19,1.59,1.59,0,0,0,1.12.4,1.7,1.7,0,0,0,1-.26,2.3,2.3,0,0,0,.72-.83l1.4.52a3.53,3.53,0,0,1-1.21,1.53,3.49,3.49,0,0,1-2,.53,3.2,3.2,0,0,1-1.91-.54,3.16,3.16,0,0,1-1.12-1.37,4.34,4.34,0,0,1,0-3.46,3.1,3.1,0,0,1,1.12-1.37,3.2,3.2,0,0,1,1.91-.54,3.1,3.1,0,0,1,1.84.52,3.15,3.15,0,0,1,1.1,1.33,4.05,4.05,0,0,1,.35,1.63Zm-1.78-1.37a1.92,1.92,0,0,0-.5-1,1.36,1.36,0,0,0-1-.38,1.44,1.44,0,0,0-1,.35,1.82,1.82,0,0,0-.57,1Z"/>
    <path class="cls-2" d="M573.86,112.48v1.15a2.82,2.82,0,0,1,.92-.93,2.25,2.25,0,0,1,1.17-.33,3.07,3.07,0,0,1,.85.14l-.32,1.61a1.4,1.4,0,0,0-.73-.2,1.62,1.62,0,0,0-1.36.75,4.18,4.18,0,0,0-.53,2.36v2.51h-1.74v-7.06Z"/>
    <path class="cls-2" d="M577.33,119.54h6.37v1.51h-6.37Z"/>
    <path class="cls-2" d="M585.14,119.28a1.14,1.14,0,0,1-.33-.84,1.13,1.13,0,0,1,1.17-1.17,1.15,1.15,0,0,1,1.18,1.17,1.16,1.16,0,0,1-1.18,1.18A1.14,1.14,0,0,1,585.14,119.28Z"/>
    <path class="cls-2" d="M589,119.28a1.11,1.11,0,0,1-.34-.84,1.15,1.15,0,0,1,1.18-1.17,1.13,1.13,0,0,1,1.17,1.17,1.15,1.15,0,0,1-1.17,1.18A1.11,1.11,0,0,1,589,119.28Z"/>
    <path class="cls-2" d="M592.87,119.28a1.14,1.14,0,0,1-.33-.84,1.13,1.13,0,0,1,1.17-1.17,1.15,1.15,0,0,1,1.18,1.17,1.16,1.16,0,0,1-1.18,1.18A1.14,1.14,0,0,1,592.87,119.28Z"/>
  </g>
  <g>
    <path class="cls-2" d="M203.1,180.26h1.56l2.85,8.4h-1.68l-.61-2h-2.67l-.61,2h-1.68Zm1.67,5-.89-2.91-.88,2.91Z"/>
    <path class="cls-2" d="M208.75,187.91a4.08,4.08,0,0,1,0-4.54,2.36,2.36,0,0,1,1.95-.85,2.23,2.23,0,0,1,.94.19,1.45,1.45,0,0,1,.64.46v-3h1.49v8.49h-1.49V188a1.25,1.25,0,0,1-.57.5,2.25,2.25,0,0,1-1,.22A2.36,2.36,0,0,1,208.75,187.91ZM212,187a2.51,2.51,0,0,0,0-2.72,1.2,1.2,0,0,0-1-.49,1.21,1.21,0,0,0-1,.49,2.06,2.06,0,0,0-.4,1.36A2.1,2.1,0,0,0,210,187a1.24,1.24,0,0,0,1,.49A1.2,1.2,0,0,0,212,187Z"/>
    <path class="cls-2" d="M215.81,187.91a4,4,0,0,1,0-4.54,2.34,2.34,0,0,1,1.94-.85,2.27,2.27,0,0,1,.95.19,1.58,1.58,0,0,1,.64.46v-3h1.49v8.49h-1.49V188a1.37,1.37,0,0,1-.57.5,2.29,2.29,0,0,1-1,.22A2.34,2.34,0,0,1,215.81,187.91Zm3.27-.91a2.57,2.57,0,0,0,0-2.72,1.21,1.21,0,0,0-1-.49,1.23,1.23,0,0,0-1,.49,2.12,2.12,0,0,0-.39,1.36,2.16,2.16,0,0,0,.39,1.36,1.25,1.25,0,0,0,1,.49A1.21,1.21,0,0,0,219.08,187Z"/>
    <path class="cls-2" d="M227.9,186.12h-4.18a1.63,1.63,0,0,0,.47,1,1.41,1.41,0,0,0,1,.35,1.52,1.52,0,0,0,.85-.23,2.08,2.08,0,0,0,.61-.71l1.2.45a2.73,2.73,0,0,1-2.74,1.76,2.74,2.74,0,0,1-1.64-.46,2.68,2.68,0,0,1-1-1.18,3.69,3.69,0,0,1,0-3,2.68,2.68,0,0,1,1-1.18,2.74,2.74,0,0,1,1.64-.46,2.66,2.66,0,0,1,1.58.45,2.77,2.77,0,0,1,.94,1.13,3.5,3.5,0,0,1,.3,1.41Zm-1.53-1.18a1.61,1.61,0,0,0-.42-.82,1.18,1.18,0,0,0-.87-.33,1.27,1.27,0,0,0-.83.29,1.62,1.62,0,0,0-.49.86Z"/>
    <path class="cls-2" d="M229.59,187.91a4.08,4.08,0,0,1,0-4.54,2.36,2.36,0,0,1,1.95-.85,2.19,2.19,0,0,1,.94.19,1.55,1.55,0,0,1,.65.46v-3h1.48v8.49h-1.48V188a1.37,1.37,0,0,1-.57.5,2.29,2.29,0,0,1-1,.22A2.36,2.36,0,0,1,229.59,187.91Zm3.28-.91a2.57,2.57,0,0,0,0-2.72,1.28,1.28,0,0,0-2,0,2.12,2.12,0,0,0-.4,1.36,2.16,2.16,0,0,0,.4,1.36,1.25,1.25,0,0,0,1,.49A1.22,1.22,0,0,0,232.87,187Z"/>
    <path class="cls-2" d="M240.76,182.62v1a2.67,2.67,0,0,1,.83-.78,2,2,0,0,1,1-.29A1.88,1.88,0,0,1,244,183a1.73,1.73,0,0,1,.51,1.35v4.32H243v-3.87a1,1,0,0,0-.23-.76.85.85,0,0,0-.63-.24,1,1,0,0,0-.68.29,2,2,0,0,0-.51.84,4.1,4.1,0,0,0-.19,1.33v2.41h-1.49v-6Z"/>
    <path class="cls-2" d="M247.26,188.35a2.7,2.7,0,0,1-1.06-1.11,3.64,3.64,0,0,1,0-3.2,2.7,2.7,0,0,1,1.06-1.11,3.23,3.23,0,0,1,1.65-.41,3.19,3.19,0,0,1,1.64.41,2.7,2.7,0,0,1,1.06,1.11,3.64,3.64,0,0,1,0,3.2,2.7,2.7,0,0,1-1.06,1.11,3.19,3.19,0,0,1-1.64.41A3.23,3.23,0,0,1,247.26,188.35ZM250,187a2.3,2.3,0,0,0,0-2.62,1.4,1.4,0,0,0-2.21,0,2.35,2.35,0,0,0,0,2.62,1.4,1.4,0,0,0,2.21,0Z"/>
    <path class="cls-2" d="M254.07,188.2a2.24,2.24,0,0,1-.59-1.67v-2.64h-.94v-1.27h.94V181.1l1.49-.93v2.45h1.59v1.27H255v2.61a1.08,1.08,0,0,0,.2.76.73.73,0,0,0,.59.23,1.22,1.22,0,0,0,.58-.15l.34,1.2a2.23,2.23,0,0,1-1,.22A2.27,2.27,0,0,1,254.07,188.2Z"/>
    <path class="cls-2" d="M257.77,181.56a.93.93,0,0,1-.27-.68,1,1,0,0,1,.27-.69,1,1,0,0,1,.69-.27.94.94,0,0,1,1,1,.9.9,0,0,1-.28.68.93.93,0,0,1-.68.27A1,1,0,0,1,257.77,181.56Zm-.06,1.06h1.49v6h-1.49Z"/>
    <path class="cls-2" d="M260.15,183.89v-1.27h.77v-.08a2.13,2.13,0,0,1,.75-1.77,3.24,3.24,0,0,1,2.06-.6,4.93,4.93,0,0,1,1,.1,3.88,3.88,0,0,1,.8.24l-.44,1.23a3,3,0,0,0-1.31-.3,1.66,1.66,0,0,0-1,.29,1,1,0,0,0-.37.82v.07h3.52v6h-1.48v-4.77h-2v4.77h-1.49v-4.77Z"/>
    <path class="cls-2" d="M268.59,188.34a2.53,2.53,0,0,1-1-1.12,3.7,3.7,0,0,1-.34-1.58,3.78,3.78,0,0,1,.34-1.59,2.64,2.64,0,0,1,1-1.12,3.07,3.07,0,0,1,1.62-.41,3.2,3.2,0,0,1,1.71.44,2.57,2.57,0,0,1,1,1.29l-1.33.54A2,2,0,0,0,271,184a1.43,1.43,0,0,0-.83-.25,1.18,1.18,0,0,0-1,.51,2.67,2.67,0,0,0,0,2.68,1.18,1.18,0,0,0,1,.51,1.43,1.43,0,0,0,.83-.25,2,2,0,0,0,.58-.75L273,187a2.57,2.57,0,0,1-1,1.29,3.2,3.2,0,0,1-1.71.44A3,3,0,0,1,268.59,188.34Z"/>
    <path class="cls-2" d="M274.31,188.28a1.78,1.78,0,0,1-.52-1.36,1.74,1.74,0,0,1,.69-1.44,2.89,2.89,0,0,1,1.85-.54h1.05v-.26a.78.78,0,0,0-.3-.67,1.28,1.28,0,0,0-.75-.22,1,1,0,0,0-1.05.7L274,184.2a2,2,0,0,1,.78-1.22,2.5,2.5,0,0,1,1.53-.46,2.57,2.57,0,0,1,1.87.64,2.49,2.49,0,0,1,.67,1.89v3.61h-1.22l-.16-.76a2.3,2.3,0,0,1-1.86.86A1.85,1.85,0,0,1,274.31,188.28Zm2.66-1.13a1.11,1.11,0,0,0,.41-.91v-.12h-1a1.31,1.31,0,0,0-.77.19.67.67,0,0,0-.27.59.56.56,0,0,0,.19.43.76.76,0,0,0,.49.16A1.45,1.45,0,0,0,277,187.15Z"/>
    <path class="cls-2" d="M281.22,188.2a2.24,2.24,0,0,1-.59-1.67v-2.64h-.93v-1.27h.93V181.1l1.49-.93v2.45h1.6v1.27h-1.6v2.61a1.14,1.14,0,0,0,.2.76.75.75,0,0,0,.59.23,1.19,1.19,0,0,0,.58-.15l.35,1.2a2.24,2.24,0,0,1-1,.22A2.29,2.29,0,0,1,281.22,188.2Z"/>
    <path class="cls-2" d="M284.93,181.56a.94.94,0,0,1-.28-.68,1,1,0,0,1,.28-.69.93.93,0,0,1,.68-.27.92.92,0,0,1,1,1,.93.93,0,0,1-.27.68,1,1,0,0,1-.69.27A.93.93,0,0,1,284.93,181.56Zm-.06,1.06h1.49v6h-1.49Z"/>
    <path class="cls-2" d="M289.11,188.35a2.72,2.72,0,0,1-1.07-1.11,3.74,3.74,0,0,1,0-3.2,2.72,2.72,0,0,1,1.07-1.11,3.49,3.49,0,0,1,3.28,0,2.72,2.72,0,0,1,1.07,1.11,3.74,3.74,0,0,1,0,3.2,2.72,2.72,0,0,1-1.07,1.11,3.48,3.48,0,0,1-3.28,0Zm2.74-1.4a2.3,2.3,0,0,0,0-2.62,1.39,1.39,0,0,0-2.2,0,2.3,2.3,0,0,0,0,2.62,1.39,1.39,0,0,0,2.2,0Z"/>
    <path class="cls-2" d="M296.65,182.62v1a2.79,2.79,0,0,1,.83-.78,2,2,0,0,1,1-.29,1.88,1.88,0,0,1,1.35.47,1.73,1.73,0,0,1,.51,1.35v4.32H298.9v-3.87a1,1,0,0,0-.24-.76.82.82,0,0,0-.63-.24,1,1,0,0,0-.68.29,1.9,1.9,0,0,0-.5.84,4.09,4.09,0,0,0-.2,1.33v2.41h-1.48v-6Z"/>
    <path class="cls-2" d="M306,188.34a2.59,2.59,0,0,1-1-1.12,3.69,3.69,0,0,1-.33-1.58,3.77,3.77,0,0,1,.33-1.59,2.71,2.71,0,0,1,1-1.12,3.09,3.09,0,0,1,1.62-.41,3.2,3.2,0,0,1,1.71.44,2.59,2.59,0,0,1,1,1.29l-1.34.54a2,2,0,0,0-.58-.75,1.41,1.41,0,0,0-.83-.25,1.19,1.19,0,0,0-1,.51,2.74,2.74,0,0,0,0,2.68,1.19,1.19,0,0,0,1,.51,1.41,1.41,0,0,0,.83-.25,2,2,0,0,0,.58-.75l1.34.54a2.59,2.59,0,0,1-1,1.29,3.2,3.2,0,0,1-1.71.44A3,3,0,0,1,306,188.34Z"/>
    <path class="cls-2" d="M312.77,188.35a2.7,2.7,0,0,1-1.06-1.11,3.64,3.64,0,0,1,0-3.2,2.7,2.7,0,0,1,1.06-1.11,3.19,3.19,0,0,1,1.64-.41,3.23,3.23,0,0,1,1.65.41,2.7,2.7,0,0,1,1.06,1.11,3.64,3.64,0,0,1,0,3.2,2.7,2.7,0,0,1-1.06,1.11,3.23,3.23,0,0,1-1.65.41A3.19,3.19,0,0,1,312.77,188.35Zm2.75-1.4a2.3,2.3,0,0,0,0-2.62,1.4,1.4,0,0,0-2.21,0,2.3,2.3,0,0,0,0,2.62,1.4,1.4,0,0,0,2.21,0Z"/>
    <path class="cls-2" d="M319.34,188.29a1.73,1.73,0,0,1-.51-1.35v-4.32h1.49v3.87a1.1,1.1,0,0,0,.23.76.85.85,0,0,0,.63.24,1,1,0,0,0,.69-.29,2.15,2.15,0,0,0,.5-.85,4,4,0,0,0,.19-1.32v-2.41h1.49v6h-1.49v-1a2.67,2.67,0,0,1-.83.78,2,2,0,0,1-1,.29A1.93,1.93,0,0,1,319.34,188.29Z"/>
    <path class="cls-2" d="M327.22,182.62v1a2.67,2.67,0,0,1,.83-.78,2,2,0,0,1,1-.29,1.88,1.88,0,0,1,1.35.47,1.73,1.73,0,0,1,.51,1.35v4.32h-1.49v-3.87a1.08,1.08,0,0,0-.23-.76.85.85,0,0,0-.63-.24,1,1,0,0,0-.69.29,2,2,0,0,0-.5.84,4.1,4.1,0,0,0-.19,1.33v2.41h-1.49v-6Z"/>
    <path class="cls-2" d="M333.31,188.2a2.23,2.23,0,0,1-.58-1.67v-2.64h-.94v-1.27h.94V181.1l1.48-.93v2.45h1.6v1.27h-1.6v2.61a1.14,1.14,0,0,0,.2.76.75.75,0,0,0,.6.23,1.16,1.16,0,0,0,.57-.15l.35,1.2a2.23,2.23,0,0,1-1,.22A2.31,2.31,0,0,1,333.31,188.2Z"/>
    <path class="cls-2" d="M340.73,188.2a2.24,2.24,0,0,1-.59-1.67v-2.64h-.93v-1.27h.93V181.1l1.49-.93v2.45h1.6v1.27h-1.6v2.61a1.08,1.08,0,0,0,.2.76.75.75,0,0,0,.59.23,1.22,1.22,0,0,0,.58-.15l.35,1.2a2.53,2.53,0,0,1-2.62-.34Z"/>
    <path class="cls-2" d="M345.18,188.35a2.7,2.7,0,0,1-1.06-1.11,3.64,3.64,0,0,1,0-3.2,2.7,2.7,0,0,1,1.06-1.11,3.23,3.23,0,0,1,1.65-.41,3.19,3.19,0,0,1,1.64.41,2.7,2.7,0,0,1,1.06,1.11,3.64,3.64,0,0,1,0,3.2,2.7,2.7,0,0,1-1.06,1.11,3.19,3.19,0,0,1-1.64.41A3.23,3.23,0,0,1,345.18,188.35Zm2.75-1.4a2.3,2.3,0,0,0,0-2.62,1.4,1.4,0,0,0-2.21,0,2.3,2.3,0,0,0,0,2.62,1.4,1.4,0,0,0,2.21,0Z"/>
    <path class="cls-2" d="M355.71,180.17v3.42a2.36,2.36,0,0,1,.79-.78,2.26,2.26,0,0,1,1.13-.29A2,2,0,0,1,359,183a1.77,1.77,0,0,1,.5,1.36v4.32H358v-3.79a1.26,1.26,0,0,0-.22-.82.85.85,0,0,0-.68-.26,1.12,1.12,0,0,0-.68.25,1.82,1.82,0,0,0-.53.77,3.52,3.52,0,0,0-.2,1.3v2.55h-1.49v-8.49Z"/>
    <path class="cls-2" d="M362.28,188.35a2.7,2.7,0,0,1-1.06-1.11,3.64,3.64,0,0,1,0-3.2,2.7,2.7,0,0,1,1.06-1.11,3.51,3.51,0,0,1,3.29,0,2.7,2.7,0,0,1,1.06,1.11,3.64,3.64,0,0,1,0,3.2,2.7,2.7,0,0,1-1.06,1.11,3.51,3.51,0,0,1-3.29,0ZM365,187a2.3,2.3,0,0,0,0-2.62,1.4,1.4,0,0,0-2.21,0,2.3,2.3,0,0,0,0,2.62,1.4,1.4,0,0,0,2.21,0Z"/>
    <path class="cls-2" d="M369.83,182.62v1a2.79,2.79,0,0,1,.76-.8,1.91,1.91,0,0,1,2,0,1.67,1.67,0,0,1,.65.94,2.7,2.7,0,0,1,.81-.92,1.83,1.83,0,0,1,1-.33,1.75,1.75,0,0,1,1.32.49,1.87,1.87,0,0,1,.48,1.37v4.28h-1.49v-4c0-.56-.25-.84-.74-.84a1.07,1.07,0,0,0-.94.65,3.8,3.8,0,0,0-.37,1.87v2.35h-1.49v-4c0-.56-.25-.84-.74-.84a1.07,1.07,0,0,0-.94.68,4.16,4.16,0,0,0-.37,2v2.22h-1.49v-6Z"/>
    <path class="cls-2" d="M384,186.12H379.8a1.64,1.64,0,0,0,.48,1,1.37,1.37,0,0,0,1,.35,1.52,1.52,0,0,0,.85-.23,2.1,2.1,0,0,0,.62-.71l1.2.45a3,3,0,0,1-1,1.3,3,3,0,0,1-1.71.46,2.76,2.76,0,0,1-1.64-.46,2.68,2.68,0,0,1-1-1.18,3.69,3.69,0,0,1,0-3,2.68,2.68,0,0,1,1-1.18,2.76,2.76,0,0,1,1.64-.46,2.66,2.66,0,0,1,1.58.45,2.69,2.69,0,0,1,.94,1.13,3.5,3.5,0,0,1,.3,1.41Zm-1.53-1.18a1.61,1.61,0,0,0-.42-.82,1.16,1.16,0,0,0-.87-.33,1.27,1.27,0,0,0-.83.29,1.62,1.62,0,0,0-.49.86Z"/>
    <path class="cls-2" d="M386.81,182.62v.62a1.31,1.31,0,0,1,.54-.49,1.77,1.77,0,0,1,.92-.23,2.52,2.52,0,0,1,2.05.85,4,4,0,0,1,0,4.54,2.52,2.52,0,0,1-2.05.85,2,2,0,0,1-.85-.19,1.58,1.58,0,0,1-.61-.46v3h-1.49v-8.49Zm2.27,4.38a2.16,2.16,0,0,0,.39-1.36,2.12,2.12,0,0,0-.39-1.36,1.24,1.24,0,0,0-1-.49,1.21,1.21,0,0,0-1,.49,2.57,2.57,0,0,0,0,2.72,1.21,1.21,0,0,0,1,.49A1.27,1.27,0,0,0,389.08,187Z"/>
    <path class="cls-2" d="M392.51,188.28a1.78,1.78,0,0,1-.52-1.36,1.74,1.74,0,0,1,.69-1.44,2.88,2.88,0,0,1,1.84-.54h1.06v-.26a.78.78,0,0,0-.3-.67,1.29,1.29,0,0,0-.76-.22,1,1,0,0,0-1,.7l-1.26-.29A2,2,0,0,1,393,183a2.49,2.49,0,0,1,1.52-.46,2.58,2.58,0,0,1,1.88.64,2.49,2.49,0,0,1,.67,1.89v3.61h-1.22l-.16-.76a2.3,2.3,0,0,1-1.86.86A1.85,1.85,0,0,1,392.51,188.28Zm2.66-1.13a1.14,1.14,0,0,0,.41-.91v-.12h-1a1.31,1.31,0,0,0-.77.19.67.67,0,0,0-.27.59.53.53,0,0,0,.19.43.74.74,0,0,0,.49.16A1.45,1.45,0,0,0,395.17,187.15Z"/>
    <path class="cls-2" d="M398.89,190.69a1.66,1.66,0,0,1-.76-1.48,1.57,1.57,0,0,1,.49-1.2,1.36,1.36,0,0,1-.31-.93,1.44,1.44,0,0,1,.19-.75,1.61,1.61,0,0,1,.55-.52,1.93,1.93,0,0,1-.42-1.25,2,2,0,0,1,.29-1.07,2,2,0,0,1,.81-.72,2.46,2.46,0,0,1,1.12-.25,2.59,2.59,0,0,1,1.12.26l1.13-.6.59,1-.86.43a1.9,1.9,0,0,1,.24,1,2,2,0,0,1-.29,1.07,1.9,1.9,0,0,1-.81.7,2.46,2.46,0,0,1-1.12.25,2.89,2.89,0,0,1-.88-.14.52.52,0,0,0-.28.46.39.39,0,0,0,.14.33.64.64,0,0,0,.42.11h1.24a2.43,2.43,0,0,1,1.54.46,1.59,1.59,0,0,1,.58,1.32,1.76,1.76,0,0,1-.39,1.17,2.28,2.28,0,0,1-1,.7,4.24,4.24,0,0,1-1.35.22A3.4,3.4,0,0,1,398.89,190.69Zm2.89-.91a.6.6,0,0,0,.34-.57.49.49,0,0,0-.25-.48,1.56,1.56,0,0,0-.72-.14h-.82a3.48,3.48,0,0,1-.69-.05,1,1,0,0,0-.13.55.7.7,0,0,0,.37.65,2.36,2.36,0,0,0,1.9,0Zm-.34-4.63a.78.78,0,0,0,.24-.59.82.82,0,0,0-.24-.61.87.87,0,0,0-1.18,0,.82.82,0,0,0-.24.61.78.78,0,0,0,.24.59.87.87,0,0,0,1.18,0Z"/>
    <path class="cls-2" d="M410,186.12h-4.17a1.63,1.63,0,0,0,.47,1,1.37,1.37,0,0,0,1,.35,1.48,1.48,0,0,0,.84-.23,2,2,0,0,0,.62-.71l1.2.45a3,3,0,0,1-1,1.3,2.9,2.9,0,0,1-1.71.46,2.78,2.78,0,0,1-1.64-.46,2.83,2.83,0,0,1-1-1.18,3.8,3.8,0,0,1,0-3,2.83,2.83,0,0,1,1-1.18,2.78,2.78,0,0,1,1.64-.46,2.69,2.69,0,0,1,1.59.45,2.74,2.74,0,0,1,.93,1.13,3.5,3.5,0,0,1,.3,1.41Zm-1.52-1.18a1.55,1.55,0,0,0-.43-.82,1.15,1.15,0,0,0-.87-.33,1.24,1.24,0,0,0-.82.29,1.63,1.63,0,0,0-.5.86Z"/>
  </g>
  <g>
    <circle class="cls-4" cx="113.46" cy="179.92" r="18.5"/>
    <path class="cls-4" d="M113.46,162.92a17,17,0,1,1-17,17,17,17,0,0,1,17-17m0-3a20,20,0,1,0,20,20,20,20,0,0,0-20-20Z"/>
  </g>
  <path class="cls-2" d="M316.43,115.25H291.89a.5.5,0,0,1,0-1h24.54a.5.5,0,0,1,0,1Z"/>
  <path class="cls-2" d="M299.87,123.86a.47.47,0,0,1-.35-.15l-8.61-8.61a.51.51,0,0,1,0-.7l8.61-8.61a.5.5,0,0,1,.7,0,.5.5,0,0,1,0,.71L292,114.75l8.25,8.25a.5.5,0,0,1,0,.71A.47.47,0,0,1,299.87,123.86Z"/>
  <path class="cls-5" d="M117.8,181.11c-.25,2.37-1.4,3.72-3.67,3.72-2.65,0-3.92-2-3.92-5.27s1.34-5.25,4-5.25c2.24,0,3.32,1.47,3.51,3.69h-2.06c-.11-1.38-.53-2-1.54-2s-1.68,1.06-1.68,3.6.54,3.61,1.68,3.61c.91,0,1.5-.54,1.6-2.06Z"/>
  <path class="cls-2" d="M260.72,118.66l3.66-4.84a.74.74,0,0,0-.59-1.19h-7.32a.74.74,0,0,0-.59,1.19l3.66,4.84A.74.74,0,0,0,260.72,118.66Z"/>
  <path class="cls-2" d="M610,118.66l3.66-4.84a.74.74,0,0,0-.59-1.19h-7.32a.74.74,0,0,0-.59,1.19l3.66,4.84A.74.74,0,0,0,610,118.66Z"/>
  <path class="cls-3" d="M506.55,674.22a1.54,1.54,0,0,1-.77-.21l-84.36-50.43A1.5,1.5,0,1,1,423,621l84.36,50.42a1.5,1.5,0,0,1-.77,2.79Z"/>
  <path class="cls-3" d="M424.27,641.06a1.51,1.51,0,0,1-1.49-1.32l-2.08-17.27a1.49,1.49,0,0,1,1.31-1.66l17.27-2.09a1.5,1.5,0,0,1,.36,3l-15.78,1.9,1.9,15.78a1.5,1.5,0,0,1-1.31,1.67Z"/>
  <g>
    <circle class="cls-1" cx="505.98" cy="670" r="18.5"/>
    <path class="cls-3" d="M506,653a17,17,0,1,1-17,17,17,17,0,0,1,17-17m0-3a20,20,0,1,0,20,20,20,20,0,0,0-20-20Z"/>
  </g>
  <path class="cls-3" d="M507.05,671.1c0-1.36-.81-1.93-1.58-1.93a1.55,1.55,0,0,0-1.51,1.08l-1.84-.21.84-5.73h5.73V666h-4.12l-.32,2.1a2.93,2.93,0,0,1,1.78-.53c1.6,0,3.07,1.29,3.07,3.57a3.66,3.66,0,0,1-7.31.17h2c.11,1.19.75,1.88,1.68,1.88S507.05,672.43,507.05,671.1Z"/>
  <g>
    <path class="cls-3" d="M666.7,547.63c-.35,2.17-1.69,3.33-3.53,3.33-2.48,0-3.64-2.2-3.64-5.28s1.32-5.25,3.74-5.25c1.75,0,3.07,1.36,3.41,3.42h-1.36c-.17-1.17-.8-2.17-2.09-2.17-1.47,0-2.33,1.41-2.33,4s.8,4.05,2.36,4.05c1.29,0,1.93-.88,2.11-2.1Z"/>
    <path class="cls-3" d="M672.18,543.12c1.72,0,3.48,1.19,3.48,3.92S673.9,551,672.18,551s-3.49-1.19-3.49-3.92S670.45,543.12,672.18,543.12Zm0,6.76c1.14,0,2.12-.84,2.12-2.84s-1-2.84-2.12-2.84-2.13.84-2.13,2.84S671,549.88,672.18,549.88Z"/>
    <path class="cls-3" d="M683.1,543.12c.78,0,1.55.36,1.55,2.35v5.31h-1.29v-4.65c0-1.09,0-1.93-.64-1.93s-.84.75-.84,2.31v4.27h-1.29v-4.65c0-1.09,0-1.93-.63-1.93s-.86.77-.86,2.34v4.24h-1.28v-7.54h1.23v.8a1.49,1.49,0,0,1,1.37-.92,1.2,1.2,0,0,1,1.18,1A1.64,1.64,0,0,1,683.1,543.12Z"/>
    <path class="cls-3" d="M692.14,543.12c.78,0,1.56.36,1.56,2.35v5.31h-1.29v-4.65c0-1.09,0-1.93-.65-1.93s-.84.75-.84,2.31v4.27h-1.29v-4.65c0-1.09,0-1.93-.63-1.93s-.85.77-.85,2.34v4.24h-1.29v-7.54h1.23v.8a1.49,1.49,0,0,1,1.37-.92,1.2,1.2,0,0,1,1.18,1A1.64,1.64,0,0,1,692.14,543.12Z"/>
    <path class="cls-3" d="M700.08,543.24v6.43h2.14v1.11h-5.56v-1.11h2.13v-5.32h-2.13v-1.11Zm0-2.62v1.53h-1.29v-1.53Z"/>
    <path class="cls-3" d="M706.59,541.35h1.29v1.89H711v1.11h-3.08v4.36c0,.77,0,1,.75,1H711v1.11h-2.61c-1.37,0-1.76-.32-1.76-1.89v-4.54h-2.15v-1.11h2.15Z"/>
    <path class="cls-3" d="M729.61,545.75H728.3a1.8,1.8,0,0,0-1.78-1.57c-1.12,0-2,1-2,2.86s.92,2.87,2,2.87a1.86,1.86,0,0,0,1.84-1.55h1.33a3.14,3.14,0,0,1-3.24,2.6c-2.08,0-3.33-1.62-3.33-3.92s1.3-3.92,3.46-3.92A3,3,0,0,1,729.61,545.75Z"/>
    <path class="cls-3" d="M738.42,546v4.79h-1.28v-4.34c0-1.22-.09-2.24-1.49-2.24-1.16,0-1.81.88-1.81,2.49v4.09h-1.28V540.62h1.28v3.69a2.42,2.42,0,0,1,2.23-1.19C737.89,543.12,738.42,544.32,738.42,546Z"/>
    <path class="cls-3" d="M741.32,548.82c0-1.79,1.9-2.34,5-2.68v-.32a1.49,1.49,0,0,0-1.7-1.69c-1.16,0-1.71.57-1.79,1.49H741.5a2.9,2.9,0,0,1,3.12-2.53c2.09,0,3,.93,3,3v1.84a26.75,26.75,0,0,0,.1,2.84h-1.24v-1.11a2.76,2.76,0,0,1-2.65,1.29A2.2,2.2,0,0,1,741.32,548.82Zm5.08-1.65c-2.29.22-3.69.54-3.69,1.62,0,.72.51,1.14,1.42,1.14,1.15,0,2.27-.55,2.27-2.55Z"/>
    <path class="cls-3" d="M751.93,544.31a2.36,2.36,0,0,1,2.22-1.19c1.82,0,2.36,1.2,2.36,2.87v4.79h-1.29v-4.34c0-1.22-.09-2.23-1.49-2.23-1.17,0-1.8.87-1.8,2.48v4.09h-1.29v-7.54h1.29Z"/>
    <path class="cls-3" d="M764.34,543.24h1.29v6.6c0,1.54-.2,2.17-.61,2.65a3.5,3.5,0,0,1-2.63,1c-1.64,0-2.8-.78-3-2.27h1.35c.19.69.58,1.15,1.69,1.15a2,2,0,0,0,1.54-.56c.25-.29.39-.64.39-1.66v-.73a2.37,2.37,0,0,1-2.23,1.24c-1.74,0-3-1.27-3-3.76s1.3-3.77,3-3.77a2.38,2.38,0,0,1,2.23,1.26Zm-2,1c-1.29,0-2,.89-2,2.69s.66,2.7,2,2.7c1.08,0,2-.73,2-2.7S763.46,544.2,762.38,544.2Z"/>
    <path class="cls-3" d="M768.28,547c0-2.42,1.43-3.93,3.42-3.93,2.2,0,3.46,1.6,3.36,4.29h-5.42c0,1.52.84,2.51,2,2.51a1.82,1.82,0,0,0,2-1.38H775A3.09,3.09,0,0,1,771.7,551C769.42,551,768.28,549.27,768.28,547Zm1.38-.7h4a1.93,1.93,0,0,0-2-2.17C770.48,544.17,769.71,544.88,769.66,546.34Z"/>
    <path class="cls-3" d="M782.26,545.3c-.17-.84-.83-1.12-1.68-1.12s-1.52.3-1.52,1,.4.85,1.14,1l.84.17c1.3.25,2.7.74,2.7,2.25s-1.37,2.38-3,2.38a2.84,2.84,0,0,1-3.08-2.43H779a1.58,1.58,0,0,0,1.75,1.37c.8,0,1.68-.28,1.68-1.16,0-.7-.63-1-1.58-1.22l-.94-.19c-1.19-.23-2.13-.82-2.13-2.12,0-1.46,1.58-2.09,2.84-2.09a2.77,2.77,0,0,1,3,2.18Z"/>
  </g>
  <path class="cls-3" d="M506.61,698.6h-.14a26.9,26.9,0,0,1-11.39-3.73l-10.3-6.16a1.5,1.5,0,0,1,1.54-2.58l10.3,6.16a23.94,23.94,0,0,0,10.13,3.33,1.5,1.5,0,0,1-.14,3Zm11.78-1.66a1.5,1.5,0,0,1-.55-2.89,24.12,24.12,0,0,0,9.2-6.38,1.5,1.5,0,0,1,2.24,2,27.23,27.23,0,0,1-10.35,7.17A1.47,1.47,0,0,1,518.39,696.94Zm-43.15-14.19a1.41,1.41,0,0,1-.76-.21l-10.3-6.16a1.5,1.5,0,1,1,1.53-2.57L476,680a1.5,1.5,0,0,1-.78,2.78Zm58.6-3a1.32,1.32,0,0,1-.39-.06,1.5,1.5,0,0,1-1.06-1.84,23.91,23.91,0,0,0,.84-6.3,24.44,24.44,0,0,0-.5-4.89,1.5,1.5,0,0,1,2.94-.6,27.2,27.2,0,0,1-.38,12.58A1.5,1.5,0,0,1,533.84,679.73Zm-79.2-9.29a1.5,1.5,0,0,1-.76-.21l-10.3-6.16a1.5,1.5,0,1,1,1.53-2.57l10.31,6.15a1.5,1.5,0,0,1-.78,2.79ZM434,658.13a1.42,1.42,0,0,1-.76-.22L423,651.76a1.5,1.5,0,0,1,1.53-2.58l10.3,6.16a1.5,1.5,0,0,1-.77,2.79Zm95.15-1.07a1.5,1.5,0,0,1-1.18-.57,24.25,24.25,0,0,0-6.56-5.75l-2.3-1.37a1.5,1.5,0,1,1,1.54-2.58l2.29,1.38a26.73,26.73,0,0,1,7.38,6.46,1.49,1.49,0,0,1-1.17,2.43ZM413.44,645.81a1.47,1.47,0,0,1-.77-.21l-10.3-6.16a1.5,1.5,0,0,1,1.54-2.57l10.3,6.16a1.5,1.5,0,0,1-.77,2.78Zm96.17-2.39a1.5,1.5,0,0,1-.76-.21l-10.3-6.16a1.5,1.5,0,0,1,1.53-2.57l10.31,6.15a1.5,1.5,0,0,1-.78,2.79ZM392.84,633.5a1.57,1.57,0,0,1-.77-.21l-7.69-4.6a26.91,26.91,0,0,1-2.65-1.81,1.5,1.5,0,1,1,1.83-2.37,23.84,23.84,0,0,0,2.36,1.6l7.69,4.6a1.5,1.5,0,0,1-.77,2.79ZM489,631.11a1.42,1.42,0,0,1-.76-.22L478,624.74a1.5,1.5,0,0,1,1.53-2.58l10.3,6.16a1.5,1.5,0,0,1-.77,2.79Zm-20.6-12.32a1.41,1.41,0,0,1-.76-.21l-10.3-6.16a1.5,1.5,0,0,1,1.53-2.57l10.3,6.16a1.48,1.48,0,0,1,.52,2A1.5,1.5,0,0,1,468.41,618.79ZM375.16,618a1.49,1.49,0,0,1-1.35-.86,27.44,27.44,0,0,1-2.68-11.78v-.51a1.5,1.5,0,1,1,3,.05v.46a24.57,24.57,0,0,0,2.38,10.49,1.5,1.5,0,0,1-1.35,2.15Zm72.65-11.48a1.57,1.57,0,0,1-.77-.21l-10.3-6.16a1.5,1.5,0,0,1,1.54-2.57l10.3,6.15a1.5,1.5,0,0,1-.77,2.79Zm-72.19-11.65a1.46,1.46,0,0,1-.7-.18,1.5,1.5,0,0,1-.63-2c.22-.41.45-.82.7-1.23a26.93,26.93,0,0,1,7.6-8.23,1.5,1.5,0,1,1,1.73,2.45,23.91,23.91,0,0,0-6.76,7.32c-.21.36-.42.73-.62,1.1A1.5,1.5,0,0,1,375.62,594.83Zm51.59-.66a1.48,1.48,0,0,1-.77-.22l-10.3-6.15a1.5,1.5,0,0,1,1.54-2.58l10.3,6.16a1.5,1.5,0,0,1-.77,2.79Zm-20.88-11.75a1.6,1.6,0,0,1-.47-.08,24.21,24.21,0,0,0-11.15-.92,1.5,1.5,0,1,1-.45-3,27.33,27.33,0,0,1,12.54,1,1.5,1.5,0,0,1-.47,2.93Z"/>
  <g>
    <path class="cls-3" d="M451.06,626.65l1.48-5.36-4.55,7.6-1.15-.69,5.22-8.71,1.8,1.08-1.47,5.17,3.87-3.73,1.79,1.07-5.22,8.71-1.14-.68,4.55-7.6-4,3.83Z"/>
    <path class="cls-3" d="M456.62,629.7c1.25-2.08,3.25-2.64,5-1.62,1.88,1.13,2.14,3.16.67,5.42l-4.65-2.79c-.78,1.3-.57,2.59.45,3.2a1.81,1.81,0,0,0,2.38-.19l1.15.68a3.09,3.09,0,0,1-4,.42C455.58,633.65,455.48,631.61,456.62,629.7Zm1.54.11,3.46,2.07a2,2,0,1,0-3.46-2.07Z"/>
    <path class="cls-3" d="M469.3,632.87l-.69,1.16a2.12,2.12,0,0,1,2.42-.12l1.1.66-.6,1-1.09-.65c-1.24-.74-2.21-.22-3.06,1.2L466,638.4l2.21,1.33-.57.95-5.14-3.08.56-1,1.83,1.09,2.74-4.56-1.84-1.11.57-1Z"/>
    <path class="cls-3" d="M478.46,638.37l1.11.66-3.4,5.66c-.79,1.32-1.28,1.76-1.87,2a3.5,3.5,0,0,1-2.77-.5c-1.41-.85-2-2.11-1.43-3.5l1.16.69a1.47,1.47,0,0,0,.86,1.85,2,2,0,0,0,1.61.32c.36-.13.66-.36,1.19-1.23l.37-.63a2.38,2.38,0,0,1-2.55-.07c-1.49-.9-1.95-2.66-.67-4.8s3.05-2.56,4.55-1.67a2.41,2.41,0,0,1,1.26,2.23Zm-2.17-.2c-1.11-.66-2.13-.23-3.05,1.31s-.83,2.66.28,3.32c.92.56,2.1.41,3.12-1.28S477.21,638.73,476.29,638.17Z"/>
    <path class="cls-3" d="M479.89,643.65c1.25-2.08,3.25-2.64,5-1.62,1.89,1.13,2.14,3.16.67,5.42l-4.65-2.79c-.78,1.3-.57,2.58.46,3.2a1.83,1.83,0,0,0,2.38-.19l1.14.68a3.09,3.09,0,0,1-4,.42C478.85,647.6,478.75,645.56,479.89,643.65Zm1.54.1,3.46,2.08a2,2,0,1,0-3.46-2.08Z"/>
  </g>
  <g>
    <path class="cls-3" d="M598.09,642.71H596.2V647h-1.33V636.84h2.48c2.22,0,3.92.48,3.92,2.9a2.52,2.52,0,0,1-1.83,2.72L601.6,647h-1.52Zm-1.89-4.61v3.36h1.31c1.34,0,2.39-.12,2.39-1.69s-1-1.67-2.39-1.67Z"/>
    <path class="cls-3" d="M603.54,643.26c0-2.43,1.43-3.94,3.42-3.94,2.2,0,3.46,1.61,3.36,4.3H604.9c0,1.51.84,2.51,2,2.51a1.82,1.82,0,0,0,2-1.39h1.33a3.1,3.1,0,0,1-3.25,2.44C604.67,647.18,603.54,645.48,603.54,643.26Zm1.37-.7h4a1.94,1.94,0,0,0-2-2.17C605.74,640.39,605,641.1,604.91,642.56Z"/>
    <path class="cls-3" d="M616,645.23l1.94-5.77h1.34L616.57,647h-1.23l-2.72-7.54h1.45Z"/>
    <path class="cls-3" d="M625.77,639.46v6.43h2.15V647h-5.57v-1.11h2.13v-5.32h-2.13v-1.11Zm0-2.62v1.53h-1.29v-1.53Z"/>
    <path class="cls-3" d="M630.67,643.26c0-2.43,1.43-3.94,3.42-3.94,2.2,0,3.46,1.61,3.36,4.3H632c0,1.51.84,2.51,2,2.51a1.82,1.82,0,0,0,2-1.39h1.33a3.1,3.1,0,0,1-3.25,2.44C631.8,647.18,630.67,645.48,630.67,643.26Zm1.37-.7h4a1.94,1.94,0,0,0-2-2.17C632.87,640.39,632.1,641.1,632,642.56Z"/>
    <path class="cls-3" d="M643.68,641,644.8,645l.77-5.58h1.3L645.61,647h-1.3l-1.23-4.56L641.84,647h-1.3l-1.26-7.54h1.32l.75,5.58,1.12-4.07Z"/>
    <path class="cls-3" d="M573.57,656.6a2.4,2.4,0,0,1,2.22-1.27c1.74,0,3,1.45,3,3.93s-1.3,3.92-3,3.92a2.4,2.4,0,0,1-2.22-1.25v3.52h-1.29v-10h1.29Zm2,5.51c1.29,0,1.94-1.06,1.94-2.85s-.65-2.85-1.94-2.85c-1.08,0-2,.86-2,2.85S574.45,662.11,575.53,662.11Z"/>
    <path class="cls-3" d="M585.93,662a2.37,2.37,0,0,1-2.21,1.15c-1.82,0-2.34-1.21-2.34-2.87v-4.85h1.29v4.4c0,1.22.07,2.21,1.47,2.21,1.16,0,1.79-.85,1.79-2.46v-4.15h1.29V663h-1.29Z"/>
    <path class="cls-3" d="M594,652.84v9h2.14V663h-5.56v-1.11h2.13v-8h-2.13v-1.09Z"/>
    <path class="cls-3" d="M603.08,652.84v9h2.14V663h-5.56v-1.11h2.13v-8h-2.13v-1.09Z"/>
    <path class="cls-3" d="M620.56,655.46v1.35a2.13,2.13,0,0,1,2-1.35h1.29v1.18H622.6c-1.45,0-2,1-2,2.6v2.65h2.58V663h-6v-1.11h2.13v-5.32h-2.14v-1.11Z"/>
    <path class="cls-3" d="M626.15,659.26c0-2.43,1.43-3.94,3.42-3.94,2.2,0,3.46,1.61,3.36,4.3h-5.42c0,1.51.84,2.51,2,2.51a1.82,1.82,0,0,0,2-1.39h1.33a3.1,3.1,0,0,1-3.25,2.44C627.28,663.18,626.15,661.48,626.15,659.26Zm1.37-.7h4a1.94,1.94,0,0,0-2-2.17C628.35,656.39,627.58,657.1,627.52,658.56Z"/>
    <path class="cls-3" d="M640.28,655.46h1.29v10h-1.29v-3.52a2.44,2.44,0,0,1-2.24,1.25c-1.73,0-3-1.44-3-3.92s1.3-3.93,3-3.93a2.44,2.44,0,0,1,2.24,1.27Zm-2,.95c-1.31,0-2,1.05-2,2.85s.64,2.84,2,2.84c1.06,0,2-.85,2-2.84S639.38,656.41,638.32,656.41Z"/>
    <path class="cls-3" d="M649.24,662a2.37,2.37,0,0,1-2.22,1.15c-1.82,0-2.34-1.21-2.34-2.87v-4.85H646v4.4c0,1.22.07,2.21,1.47,2.21,1.17,0,1.8-.85,1.8-2.46v-4.15h1.29V663h-1.29Z"/>
    <path class="cls-3" d="M653.28,659.26c0-2.43,1.43-3.94,3.42-3.94,2.2,0,3.46,1.61,3.36,4.3h-5.42c0,1.51.84,2.51,2,2.51a1.82,1.82,0,0,0,2-1.39H660a3.1,3.1,0,0,1-3.25,2.44C654.42,663.18,653.28,661.48,653.28,659.26Zm1.37-.7h4a1.94,1.94,0,0,0-2-2.17C655.48,656.39,654.71,657.1,654.65,658.56Z"/>
    <path class="cls-3" d="M667.25,657.52c-.16-.84-.82-1.12-1.68-1.12s-1.51.29-1.51,1,.39.85,1.14,1l.84.16c1.3.25,2.7.75,2.7,2.26s-1.37,2.38-3,2.38a2.84,2.84,0,0,1-3.08-2.44H664a1.58,1.58,0,0,0,1.76,1.37c.79,0,1.68-.28,1.68-1.16,0-.7-.63-1.05-1.59-1.22l-.93-.18c-1.19-.24-2.13-.83-2.13-2.13,0-1.46,1.58-2.09,2.84-2.09a2.78,2.78,0,0,1,3,2.19Z"/>
    <path class="cls-3" d="M673,653.57h1.29v1.89h3.08v1.11h-3.08v4.35c0,.77,0,1,.75,1h2.33V663h-2.61c-1.37,0-1.76-.33-1.76-1.89v-4.54h-2.14v-1.11H673Z"/>
  </g>
  <g>
    <path class="cls-3" d="M439.22,579.82c.73,2.07.11,3.73-1.5,4.61-2.18,1.18-4.25-.19-5.72-2.9s-1.35-5.24.77-6.39c1.54-.84,3.35-.28,4.62,1.37l-1.19.65a2.18,2.18,0,0,0-2.87-.91c-1.29.7-1.36,2.35-.13,4.63s2.64,3.17,4,2.43a2.12,2.12,0,0,0,.86-2.86Z"/>
    <path class="cls-3" d="M442.34,573.41l.58,1.21a2.12,2.12,0,0,1,1.23-2.08l1.16-.56.51,1.06-1.14.55c-1.3.63-1.4,1.73-.68,3.22l1.15,2.38,2.32-1.12.48,1-5.4,2.6-.48-1,1.92-.92L441.68,575l-1.93.92-.48-1Z"/>
    <path class="cls-3" d="M449.1,574.43c-1-2.23-.23-4.18,1.59-5,2-.87,3.82.12,4.79,2.63l-5,2.13c.6,1.39,1.76,2,2.85,1.5a1.81,1.81,0,0,0,1.25-2l1.22-.52a3.09,3.09,0,0,1-2,3.52C451.69,577.59,450,576.47,449.1,574.43Zm1-1.19,3.71-1.58a2,2,0,1,0-3.71,1.58Z"/>
    <path class="cls-3" d="M458.28,572.5c-.64-1.67.94-2.86,3.7-4.27l-.11-.31a1.49,1.49,0,0,0-2.19-1,1.55,1.55,0,0,0-1.14,2l-1.23.47a2.89,2.89,0,0,1,2-3.48c1.95-.74,3.12-.19,3.84,1.76l.64,1.72c.43,1.18.88,2.16,1.1,2.62l-1.15.44-.41-1a2.73,2.73,0,0,1-2,2.14A2.19,2.19,0,0,1,458.28,572.5Zm4.16-3.36c-2.07,1-3.26,1.83-2.88,2.84.26.66.89.87,1.74.55,1.07-.41,1.92-1.32,1.21-3.19Z"/>
    <path class="cls-3" d="M465.68,561.79l1.22-.41.61,1.79,2.91-1,.36,1-2.91,1,1.41,4.12c.25.73.35.9,1,.67l2.2-.75.35,1-2.46.85c-1.3.44-1.77.26-2.28-1.22l-1.47-4.29-2,.69-.36-1.05,2-.69Z"/>
    <path class="cls-3" d="M474.58,564.8c-.71-2.32.21-4.18,2.11-4.77,2.1-.64,3.77.52,4.47,3.12l-5.17,1.6c.44,1.44,1.54,2.14,2.67,1.79a1.83,1.83,0,0,0,1.46-1.9l1.27-.39a3.1,3.1,0,0,1-2.39,3.29C476.82,568.21,475.24,566.92,474.58,564.8Zm1.11-1.08,3.85-1.18a2,2,0,1,0-3.85,1.18Z"/>
    <path class="cls-3" d="M492.64,561.42c-.44-1.74,1.27-2.73,4.17-3.81l-.08-.32a1.47,1.47,0,0,0-2.05-1.22,1.55,1.55,0,0,0-1.37,1.89l-1.28.32a2.9,2.9,0,0,1,2.41-3.22c2-.51,3.11.16,3.6,2.19l.43,1.78c.3,1.23.63,2.26.8,2.73l-1.2.3-.28-1.06a2.76,2.76,0,0,1-2.25,1.89A2.19,2.19,0,0,1,492.64,561.42Zm4.52-2.85c-2.17.78-3.45,1.44-3.18,2.48.17.69.78,1,1.66.75,1.11-.28,2.06-1.09,1.57-3Z"/>
    <path class="cls-3" d="M510.77,552.58a2.45,2.45,0,0,1,1.93-1.7c1.69-.35,3.26.79,3.77,3.22s-.47,4.1-2.15,4.45a2.43,2.43,0,0,1-2.45-.76l.2,1.05-1.24.26-2.09-9.93,1.26-.26Zm3.05,5c1.28-.27,1.69-1.44,1.32-3.19s-1.22-2.65-2.49-2.38c-1,.21-1.8,1.25-1.39,3.19S512.78,557.79,513.82,557.57Z"/>
    <path class="cls-3" d="M521.24,549.29l.25,1.32a2.14,2.14,0,0,1,1.73-1.7l1.26-.24.23,1.15-1.25.24c-1.42.28-1.79,1.32-1.48,2.94l.51,2.6,2.52-.49.21,1.08-5.88,1.14-.21-1.09,2.09-.4-1-5.22-2.1.4-.21-1.08Z"/>
    <path class="cls-3" d="M527.93,553.7c-.32-1.77,1.46-2.64,4.44-3.5l-.06-.32a1.48,1.48,0,0,0-2-1.37,1.56,1.56,0,0,0-1.51,1.78l-1.29.23a2.9,2.9,0,0,1,2.63-3c2.05-.36,3.1.39,3.43,2.45l.31,1.81c.2,1.24.46,2.29.59,2.78l-1.21.22-.21-1.09a2.77,2.77,0,0,1-2.38,1.73A2.19,2.19,0,0,1,527.93,553.7Zm4.71-2.52c-2.22.63-3.54,1.19-3.35,2.25.12.7.7,1,1.6.87,1.13-.2,2.14-.94,1.79-2.91Z"/>
    <path class="cls-3" d="M537.67,547.44a2.38,2.38,0,0,1,2-1.54c1.8-.29,2.53.81,2.8,2.46l.77,4.72-1.27.21-.7-4.28c-.2-1.21-.45-2.18-1.84-2-1.14.19-1.63,1.14-1.37,2.73l.66,4-1.27.21-1.21-7.44,1.27-.21Z"/>
    <path class="cls-3" d="M551.6,546.73l-1.29.19a1.8,1.8,0,0,0-2-1.29c-1.11.17-1.88,1.26-1.6,3.13s1.34,2.7,2.45,2.54a1.86,1.86,0,0,0,1.58-1.81l1.32-.2a3.16,3.16,0,0,1-2.82,3.06c-2.06.3-3.53-1.12-3.87-3.39s.7-4.07,2.84-4.39A2.94,2.94,0,0,1,551.6,546.73Z"/>
    <path class="cls-3" d="M560.39,545.72l.66,4.75-1.28.18-.6-4.3c-.17-1.21-.39-2.21-1.78-2-1.15.16-1.66,1.13-1.44,2.72l.56,4.05-1.28.18-1.39-10.06,1.27-.18.51,3.65a2.41,2.41,0,0,1,2-1.48C559.46,543,560.16,544.08,560.39,545.72Z"/>
  </g>
</svg>
